<?xml version="1.0" encoding="UTF-8" standalone="no"?>
<!-- Created with Inkscape (http://www.inkscape.org/) -->

<svg
   version="1.1"
   id="svg1"
   width="887.45898"
   height="882.71368"
   viewBox="0 0 887.45898 882.71368"
   sodipodi:docname="icon-star-ue.svg"
   inkscape:version="1.4.2 (f4327f4, 2025-05-13)"
   xmlns:inkscape="http://www.inkscape.org/namespaces/inkscape"
   xmlns:sodipodi="http://sodipodi.sourceforge.net/DTD/sodipodi-0.dtd"
   xmlns="http://www.w3.org/2000/svg"
   xmlns:svg="http://www.w3.org/2000/svg">
  <defs id="defs1">
    <linearGradient
       id="icon-star-ue-fade"
       gradientUnits="objectBoundingBox"
       x1="0"
       y1="0"
       x2="1"
       y2="0">
      <stop offset="0%" style="stop-color:#e8eaf0;stop-opacity:0" />
      <stop offset="6%" style="stop-color:#e8eaf0;stop-opacity:0.03" />
      <stop offset="18%" style="stop-color:#e8eaf0;stop-opacity:0.18" />
      <stop offset="36%" style="stop-color:#e8eaf0;stop-opacity:0.42" />
      <stop offset="54%" style="stop-color:#e8eaf0;stop-opacity:0.65" />
      <stop offset="72%" style="stop-color:#f0f2fa;stop-opacity:0.88" />
      <stop offset="88%" style="stop-color:#ffffff;stop-opacity:1" />
      <stop offset="100%" style="stop-color:#ffffff;stop-opacity:1" />
    </linearGradient>
  </defs>
  <sodipodi:namedview
     id="namedview1"
     pagecolor="#ffffff"
     bordercolor="#000000"
     borderopacity="0.25"
     inkscape:showpageshadow="2"
     inkscape:pageopacity="0.0"
     inkscape:pagecheckerboard="0"
     inkscape:deskcolor="#d1d1d1"
     inkscape:zoom="0.90555556"
     inkscape:cx="445.03067"
     inkscape:cy="440.06135"
     inkscape:window-width="1920"
     inkscape:window-height="1017"
     inkscape:window-x="-8"
     inkscape:window-y="-8"
     inkscape:window-maximized="1"
     inkscape:current-layer="g1" />
  <g
     inkscape:groupmode="layer"
     inkscape:label="Image"
     id="g1"
     transform="translate(-4.5355082,-10.286343)">
    <g
       id="g2">
      <g
         fill="url(#icon-star-ue-fade)">
      <path
         d="m 67.25,628.25323 c 6.4625,-0.17418 17.0375,-0.17418 23.5,0 6.4625,0.17419 1.175,0.3167 -11.75,0.3167 -12.925,0 -18.2125,-0.14251 -11.75,-0.3167 z m 77.5,-2.3e-4 c 6.7375,-0.17301 17.7625,-0.17301 24.5,0 6.7375,0.17301 1.225,0.31456 -12.25,0.31456 -13.475,0 -18.9875,-0.14155 -12.25,-0.31456 z M 784.19942,433.25617 c 4.78468,-0.18291 12.88468,-0.18377 18,-0.002 5.11532,0.18186 1.20058,0.33151 -8.69942,0.33256 -9.9,0.001 -14.08526,-0.14774 -9.30058,-0.33065 z m 70,0 c 4.78468,-0.18291 12.88468,-0.18377 18,-0.002 5.11532,0.18186 1.20058,0.33151 -8.69942,0.33256 -9.9,0.001 -14.08526,-0.14774 -9.30058,-0.33065 z m 30.06961,0.0508 c 0.97297,-0.25354 2.32297,-0.23687 3,0.0371 0.67703,0.27393 -0.11903,0.48137 -1.76903,0.46099 -1.65,-0.0204 -2.20394,-0.2445 -1.23097,-0.49804 z m 5.54347,0.01 c 0.72187,-0.28887 1.58438,-0.25335 1.91667,0.0789 0.33229,0.33229 -0.25834,0.56864 -1.3125,0.52522 -1.16495,-0.048 -1.4019,-0.28494 -0.60417,-0.60416 z M 585.75,104.253 c 6.7375,-0.17301 17.7625,-0.17301 24.5,0 6.7375,0.17301 1.225,0.31456 -12.25,0.31456 -13.475,0 -18.9875,-0.14155 -12.25,-0.31456 z m 79,0 c 6.7375,-0.17301 17.7625,-0.17301 24.5,0 6.7375,0.17301 1.225,0.31456 -12.25,0.31456 -13.475,0 -18.9875,-0.14155 -12.25,-0.31456 z"
         id="path6" />
      <path
         d="m 738.60301,704.16667 c -0.28327,-0.45834 0.12038,-0.83334 0.89699,-0.83334 0.77661,0 1.18026,0.375 0.89699,0.83334 C 740.11373,704.625 739.71008,705 739.5,705 c -0.21008,0 -0.61373,-0.375 -0.89699,-0.83333 z M 92.564293,658.29313 c -0.542685,-1.4252 -0.427821,-1.54006 0.559795,-0.5598 0.683418,0.67834 0.990671,1.48524 0.682784,1.79313 -0.307887,0.30789 -0.867048,-0.24711 -1.242579,-1.23333 z M 382.99856,54.75 c 7.9e-4,-0.4125 10.91394,-0.657464 24.25144,-0.544365 24.17685,0.205015 21.37216,0.546903 -8.50144,1.036314 -8.66329,0.141928 -15.75079,-0.07945 -15.75,-0.491949 z M 485,55 460.5,54.446298 485.25,54.223149 C 501.2321,54.079052 510,54.354259 510,55 c 0,0.55 -0.1125,0.899583 -0.25,0.776851 C 509.6125,55.654119 498.475,55.304536 485,55 Z"
         id="path5" />
      <path
         d="m 586.80735,766.25254 c 6.76904,-0.17326 17.56904,-0.17273 24,0.001 6.43096,0.17391 0.89265,0.31567 -12.30735,0.31502 -13.2,-6.6e-4 -18.46169,-0.14295 -11.69265,-0.31621 z M 663.75,766.253 c 6.7375,-0.17301 17.7625,-0.17301 24.5,0 6.7375,0.17301 1.225,0.31456 -12.25,0.31456 -13.475,0 -18.9875,-0.14155 -12.25,-0.31456 z m 50.85301,-137.08633 c -0.28327,-0.45834 0.12038,-0.83334 0.89699,-0.83334 0.77661,0 1.18026,0.375 0.89699,0.83334 C 716.11373,629.625 715.71008,630 715.5,630 c -0.21008,0 -0.61373,-0.375 -0.89699,-0.83333 z M 854,464.05902 c 0,-0.51754 0.44485,-1.21592 0.98855,-1.55194 0.56686,-0.35034 0.7345,0.0511 0.39301,0.94098 C 854.71677,465.18048 854,465.49745 854,464.05902 Z M 54.998561,245.75 c 7.91e-4,-0.4125 10.913939,-0.65746 24.251439,-0.54436 24.17685,0.20501 21.37216,0.5469 -8.501439,1.03631 -8.663292,0.14193 -15.750792,-0.0795 -15.75,-0.49195 z M 144.75,245.253 c 6.7375,-0.17301 17.7625,-0.17301 24.5,0 6.7375,0.17301 1.225,0.31456 -12.25,0.31456 -13.475,0 -18.9875,-0.14155 -12.25,-0.31456 z"
         id="path4" />
      <path
         d="m 485.50708,892.01145 c -0.35034,-0.56686 0.0511,-0.7345 0.94098,-0.39301 1.73242,0.66479 2.04939,1.38156 0.61096,1.38156 -0.51754,0 -1.21592,-0.44485 -1.55194,-0.98855 z M 612,832.62244 c 0,-0.20765 0.7875,-0.99515 1.75,-1.75 1.58606,-1.24387 1.62143,-1.2085 0.37756,0.37756 C 612.82119,832.91575 612,833.44548 612,832.62244 Z M 89.872445,655.25 C 88.628574,653.66394 88.663944,653.62857 90.25,654.87244 91.915748,656.17881 92.445479,657 91.622445,657 c -0.207656,0 -0.995156,-0.7875 -1.75,-1.75 z M 816.03103,629.25038 c -12.90793,-0.15857 -23.79862,-0.61728 -24.20154,-1.01935 -0.40291,-0.40207 10.27063,-0.60321 23.71897,-0.44699 14.86389,0.17266 24.45154,0.6628 24.45154,1.25 0,0.53128 -0.1125,0.86217 -0.25,0.73531 -0.1375,-0.12686 -10.81104,-0.36039 -23.71897,-0.51897 z M 728.25,628.25323 c 6.4625,-0.17418 17.0375,-0.17418 23.5,0 6.4625,0.17419 1.175,0.3167 -11.75,0.3167 -12.925,0 -18.2125,-0.14251 -11.75,-0.3167 z M 828.73333,481.87591 c 0.67834,-0.68342 1.48524,-0.99067 1.79313,-0.68278 0.30789,0.30789 -0.24711,0.86705 -1.23333,1.24258 -1.4252,0.54268 -1.54006,0.42782 -0.5598,-0.5598 z M 884,440.62244 c 0,-0.20765 0.7875,-0.99515 1.75,-1.75 1.58606,-1.24387 1.62143,-1.2085 0.37756,0.37756 C 884.82119,440.91575 884,441.44548 884,440.62244 Z M 4.5730894,435.11826 c -0.2358963,-0.38169 0.6636555,-0.7844 1.9990041,-0.89492 C 7.9074421,434.11283 9,434.18988 9,434.39457 c 0,0.74336 -4.009646,1.39884 -4.4269106,0.72369 z m 6.6959426,-0.81125 c 0.972967,-0.25354 2.322967,-0.23687 3,0.0371 0.677032,0.27393 -0.119032,0.48137 -1.769032,0.46099 -1.65,-0.0204 -2.203936,-0.2445 -1.230968,-0.49804 z M 25.75,434.25601 c 4.5375,-0.18529 11.9625,-0.18529 16.5,0 4.5375,0.1853 0.825,0.3369 -8.25,0.3369 -9.075,0 -12.7875,-0.1516 -8.25,-0.3369 z m 63.51375,0.0264 c 1.520062,-0.22986 3.770062,-0.22371 5,0.0136 1.229937,0.23736 -0.01375,0.42542 -2.76375,0.41792 -2.75,-0.008 -3.756313,-0.20172 -2.23625,-0.43157 z m 15.02784,-0.0249 c 3.73537,-0.19293 9.58537,-0.19149 13,0.003 3.41462,0.19468 0.35841,0.35253 -6.79159,0.35078 -7.15,-0.002 -9.94379,-0.16103 -6.20841,-0.35396 z m 21.45841,0.0802 c 0.6875,-0.27741 1.8125,-0.27741 2.5,0 0.6875,0.27741 0.125,0.50439 -1.25,0.50439 -1.375,0 -1.9375,-0.22698 -1.25,-0.50439 z M 612.56429,134.29313 c -0.54268,-1.4252 -0.42782,-1.54006 0.5598,-0.5598 0.68342,0.67834 0.99067,1.48524 0.68278,1.79313 -0.30789,0.30789 -0.86705,-0.24711 -1.24258,-1.23333 z M 202.75,105.253 c 6.7375,-0.17301 17.7625,-0.17301 24.5,0 6.7375,0.17301 1.225,0.31456 -12.25,0.31456 -13.475,0 -18.9875,-0.14155 -12.25,-0.31456 z m 76.5,7.9e-4 c 5.9125,-0.1768 15.5875,-0.1768 21.5,0 5.9125,0.17679 1.075,0.32145 -10.75,0.32145 -11.825,0 -16.6625,-0.14466 -10.75,-0.32145 z m 34.01903,0.0532 c 0.97297,-0.25354 2.32297,-0.23687 3,0.037 0.67703,0.27393 -0.11903,0.48137 -1.76903,0.46099 -1.65,-0.0204 -2.20394,-0.2445 -1.23097,-0.49804 z M 470,84.622445 c 0,-0.207656 0.7875,-0.995156 1.75,-1.75 1.58606,-1.243871 1.62143,-1.208501 0.37756,0.377555 C 470.82119,84.915748 470,85.445479 470,84.622445 Z"
         id="path3" />
      <path
         d="m 411.54946,888.18714 c 0.77237,-2.57793 4.11472,-12.77308 7.42743,-22.6559 C 422.2896,855.64842 425,847.30761 425,846.9961 c 0,-0.31151 -8.51776,-6.85056 -18.92836,-14.53124 -10.4106,-7.68067 -18.9606,-14.29422 -19,-14.69676 -0.0394,-0.40255 10.59798,-0.85255 23.63863,-1 l 23.71026,-0.2681 7.15311,-21.98297 7.1531,-21.98296 5.19257,16.48296 c 2.85592,9.06564 5.99197,18.95797 6.96901,21.98297 l 1.77643,5.5 24.31246,0.5 24.31247,0.5 -19.14484,14.36696 C 481.61518,839.76879 473,846.76369 473,847.41117 c 0,0.64748 3.14313,10.83235 6.98474,22.63304 3.84161,11.80068 6.99161,21.62004 7,21.8208 0.0269,0.64277 -4.79828,-2.75623 -21.22261,-14.9499 C 456.93512,870.3618 449.3542,865 448.91564,865 c -0.78273,0 -12.92491,8.64151 -30.09307,21.41705 l -8.67744,6.45724 z M 283,834.28566 C 260.71095,817.61759 257.0536,815 256.05362,815 c -0.55528,0 -7.882,5.08455 -16.28161,11.299 C 220.00634,840.92264 218,842.30422 218,841.29132 c 0,-0.46468 3.15,-10.27078 7,-21.79132 3.85,-11.52054 7,-21.4703 7,-22.11057 0,-0.64028 -8.63316,-7.62733 -19.1848,-15.52678 L 193.6304,767.5 l 24.02,-0.2674 24.02001,-0.26741 6.86989,-21.48259 C 252.31874,733.66717 255.67514,724 255.99898,724 c 0.59304,0 2.42352,5.44297 9.99904,29.73236 l 4.12699,13.23237 24.17627,0.26763 24.17627,0.26764 -19.23878,14.37474 C 288.65745,789.78085 280,796.48375 280,796.77008 c 0,0.69978 14.16356,44.52694 14.69768,45.47992 0.71724,1.2797 0.11965,0.87284 -11.69768,-7.96434 z m 316,7.55803 c 0,-0.21652 3.375,-10.49618 7.5,-22.84369 4.125,-12.34751 7.5,-22.55735 7.5,-22.68854 0,-0.1312 -8.63245,-6.66744 -19.18322,-14.525 L 575.63357,767.5 l 23.63495,-0.26798 23.63495,-0.26799 7.3025,-22.59456 7.30249,-22.59456 7.02148,22.36254 7.02147,22.36255 23.8613,0.5 23.86129,0.5 -19.02752,14.26481 -19.02751,14.26482 3.46801,10.73518 c 1.90741,5.90436 5.21648,16.11435 7.35349,22.68888 2.13701,6.57453 3.78964,12.04837 3.6725,12.16409 -0.20492,0.20244 -21.70427,-15.50724 -32.38778,-23.66593 C 640.47905,815.77833 637.91481,814 637.62688,814 c -0.46303,0 -13.8589,9.68952 -26.62688,19.2598 -2.475,1.85514 -6.1875,4.63402 -8.25,6.17528 -2.0625,1.54126 -3.75,2.62514 -3.75,2.40861 z M 86.808836,681.32381 94.289229,658.64762 91.310083,656.07381 C 89.671553,654.65821 80.943977,648.1 71.915469,641.5 L 55.5,629.5 79.22447,629.23196 c 21.34821,-0.24119 23.80924,-0.44151 24.57081,-2 0.46549,-0.95258 3.73159,-10.82985 7.258,-21.94949 3.52641,-11.11965 6.70268,-19.89465 7.05838,-19.5 0.35571,0.39464 1.12522,2.29253 1.71003,4.21753 0.58481,1.925 3.59397,11.47957 6.68702,21.23237 l 5.62374,17.73237 23.92043,0.26763 23.92043,0.26763 -18.57707,13.90382 c -10.21738,7.64711 -18.78419,14.44358 -19.03734,15.10328 -0.25315,0.6597 2.71254,10.87412 6.59041,22.69872 3.87788,11.8246 7.05069,21.78289 7.05069,22.12954 0,0.63253 -7.19165,-4.44137 -27.32153,-19.27606 l -10.82153,-7.97491 -4.34659,3.2078 C 90.847564,696.01748 79.905527,704 79.642134,704 c -0.17253,0 3.052486,-10.20429 7.166702,-22.67619 z M 739.16555,703 c 6.32542,-17.57013 14.85622,-45.37153 14.07381,-45.86575 C 752.68709,656.78541 744.07127,650.425 734.09308,643 l -18.14216,-13.5 23.49414,-0.26803 23.49414,-0.26802 7.21498,-22.46407 c 3.96823,-12.35524 7.36959,-22.30945 7.55857,-22.12047 0.18898,0.18898 3.4122,10.19342 7.16272,22.2321 l 6.81912,21.88849 23.71968,0.5 23.71968,0.5 -19.11022,14.27552 c -10.51062,7.85154 -18.9222,14.60154 -18.69239,15 0.85676,1.48558 14.77099,44.45359 14.4759,44.7025 -0.16898,0.14255 -8.63224,-5.95664 -18.80724,-13.55375 -10.175,-7.59711 -18.79961,-13.83798 -19.16581,-13.8686 -0.52115,-0.0436 -31.17308,22.12159 -37.77142,27.31345 -1.13105,0.88996 -1.32219,0.81133 -0.89722,-0.36912 z M 98,504.12084 C 83.533307,493.23364 67.982624,482 67.378218,482 c -0.67719,0 -4.621953,2.81801 -24.216385,17.29936 -7.335992,5.4217 -13.516918,9.67889 -13.735391,9.46042 -0.218473,-0.21848 2.930428,-10.35801 6.997559,-22.53229 l 7.394782,-22.13506 -4.159391,-3.34582 C 37.371726,458.90641 29.875,453.26513 23,448.21044 16.125,443.15575 9.2370515,438.00307 7.6934478,436.76005 L 4.8868957,434.5 H 28.693448 52.5 l 7.359878,-22.45737 7.359878,-22.45738 4.955362,15.45738 c 2.725449,8.50155 5.975915,18.60737 7.223259,22.45737 l 2.267897,7 h 24.116406 c 13.26403,0 23.80162,0.27189 23.41687,0.6042 -0.38475,0.3323 -9.02455,6.80318 -19.19955,14.37972 -10.175,7.57654 -18.660264,13.91492 -18.856143,14.08528 -0.195878,0.17036 3.059058,10.54455 7.233192,23.05375 4.174131,12.5092 7.484401,22.83359 7.356141,22.94308 -0.12825,0.1095 -3.60819,-2.34084 -7.73319,-5.44519 z m 694,4.19068 c 0,-0.47383 3.32463,-10.81325 7.38807,-22.97649 l 7.38808,-22.11498 -19.39744,-14.36002 -19.39744,-14.36003 23.837,-0.26739 23.83699,-0.26738 6.78053,-21.23262 c 3.72929,-11.67793 7.07884,-21.55709 7.44344,-21.95369 0.36461,-0.39659 3.75482,9.15806 7.53381,21.23255 l 6.87089,21.95362 23.85528,0.26745 23.85529,0.26746 -4.74725,3.56113 c -30.69126,23.02295 -33.40328,25.2275 -32.96004,26.7927 0.25639,0.90539 3.62115,11.20867 7.47724,22.89617 3.85609,11.6875 6.84492,21.25 6.64184,21.25 -0.20307,0 -8.94201,-6.32785 -19.41985,-14.06189 l -19.05062,-14.0619 -2.84981,2.3119 c -1.5674,1.27154 -8.37254,6.36189 -15.12254,11.31189 -6.74999,4.95 -14.00313,10.27643 -16.11809,11.83651 C 793.73042,507.89659 792,508.78534 792,508.31152 Z M 86.544233,298.8676 c 4.100672,-12.27469 7.441606,-22.77886 7.424298,-23.34261 C 93.951222,274.96125 85.422055,268.2 75.014826,260.5 l -18.922236,-14 23.68397,-0.5 23.68397,-0.5 7.00702,-21.75 c 3.85386,-11.9625 7.23774,-21.74134 7.51974,-21.73076 0.28199,0.0106 2.01115,4.84809 3.84259,10.75 1.83143,5.90192 4.93228,15.78527 6.89077,21.96299 l 3.5609,11.23224 23.60922,0.26776 L 179.5,246.5 l -18.73541,14 c -10.30447,7.7 -18.73291,14.45 -18.72987,15 0.003,0.55 3.13081,10.65316 6.9506,22.45147 3.81979,11.79831 6.75922,21.63732 6.53206,21.86448 -0.22716,0.22716 -8.75492,-5.74883 -18.95057,-13.27998 l -18.53756,-13.69299 -3.26462,2.28845 c -1.79555,1.25865 -8.43963,6.13263 -14.76463,10.83108 -6.325,4.69845 -12.625,9.32587 -14,10.28316 -1.375,0.95729 -3.492595,2.4603 -4.705767,3.34003 -1.917312,1.39033 -1.230752,-1.31904 5.25,-20.7181 z m 660.035107,-1.10509 c 4.08595,-12.23062 7.31462,-22.55711 7.17483,-22.94776 -0.13979,-0.39065 -8.98205,-7.25063 -19.64946,-15.2444 l -19.39529,-14.53413 24.30171,-0.26811 24.30171,-0.26811 7.12424,-21.97733 7.12423,-21.97733 3.79072,11.97733 C 783.43692,219.1102 786.62165,229 788.42921,234.5 l 3.28646,10 24.16646,0.5 24.16646,0.5 -19.46574,14.57229 -19.46575,14.5723 7.41139,22.37443 c 4.07626,12.30594 7.25287,22.53295 7.05913,22.7267 -0.19374,0.19374 -3.21772,-1.81248 -6.71994,-4.45826 C 796.66842,306.07143 778.29255,293 777.53588,293 c -0.41909,0 -9.04249,6.075 -19.16312,13.5 -10.12063,7.425 -18.58593,13.5 -18.81178,13.5 -0.22585,0 2.93241,-10.00687 7.01836,-22.23749 z M 278.5,170.54744 c -7.7,-5.7162 -16.3384,-12.04102 -19.19644,-14.05515 l -5.19644,-3.66207 -4.30356,3.03501 c -2.36696,1.66925 -10.76902,7.80449 -18.67125,13.63386 -7.90223,5.82938 -14.51672,10.44983 -14.69888,10.26767 -0.18216,-0.18216 2.7958,-9.91932 6.61769,-21.63815 C 226.873,146.40979 230,136.27926 230,135.61632 c 0,-1.25723 -0.56283,-1.70614 -23.77842,-18.9651 L 191.94316,106.03633 215.71458,105.76817 239.486,105.5 246.493,84.305488 c 3.85385,-11.656981 7.26826,-21.443245 7.58759,-21.747253 0.31932,-0.304009 3.18751,7.883522 6.37376,18.194511 3.18624,10.31099 6.38952,20.209754 7.11838,21.997254 l 1.32522,3.25 h 23.65297 23.65298 l -18.85195,14.14377 c -10.36857,7.77908 -19.00142,14.26604 -19.1841,14.41548 -0.35452,0.29002 5.552,19.29925 11.24513,36.19075 1.90008,5.6375 3.37196,10.23662 3.27085,10.22026 C 292.58272,180.95391 286.2,176.26364 278.5,170.54744 Z m 320.70087,8.3666 c 0.29742,-0.77772 3.58766,-10.63904 7.31166,-21.91404 3.724,-11.275 6.94075,-20.95948 7.14833,-21.52107 0.20758,-0.56159 -8.36615,-7.53659 -19.05273,-15.5 L 575.17797,105.5 l 23.8864,-0.26772 23.88639,-0.26773 7.27462,-22.513109 7.27462,-22.513114 7.01386,22.280836 7.01387,22.280837 24.38142,0.26811 24.38143,0.26811 -19.39529,14.54617 c -14.53532,10.90127 -19.31992,15.01336 -19.0945,16.41065 0.16543,1.02546 3.42156,11.20291 7.23583,22.61655 3.81428,11.41364 6.79292,20.8942 6.61921,21.06791 -0.28238,0.28239 -21.29478,-14.83923 -32.48243,-23.37606 C 640.79378,154.48565 638.30914,153 637.65199,153 c -1.17557,0 -4.7991,2.53022 -25.65199,17.91216 -12.69733,9.36607 -13.51671,9.87834 -12.79913,8.00188 z M 408.38683,128.4779 c 0.42665,-1.08784 3.72432,-10.9779 7.32815,-21.9779 3.60384,-11 6.74695,-20.514391 6.98469,-21.143092 0.39162,-1.035611 -9.23887,-8.650301 -31.10393,-24.593436 L 383.69149,55 h 24.09563 24.09564 l 7.36306,-22.356828 7.36306,-22.356829 6.97906,22.106829 6.97907,22.106828 23.9665,0.5 23.96649,0.5 -19.10536,14.307341 -19.10535,14.307341 7.32542,22.639258 c 4.02899,12.45159 7.22269,22.74199 7.09711,22.86757 -0.12557,0.12557 -8.73735,-6.01496 -19.13728,-13.64562 l -18.90897,-13.87394 -3.08278,2.16793 c -1.69554,1.19236 -8.03279,5.79571 -14.08279,10.22967 -22.06988,16.1747 -21.94112,16.08945 -21.11317,13.97835 z"
         id="path2" />
      </g>
    </g>
  </g>
</svg>
