<?xml version="1.0" encoding="UTF-8" standalone="no"?>
<!-- Created with Inkscape (http://www.inkscape.org/) -->

<svg
   version="1.1"
   id="svg1"
   width="1024"
   height="1024"
   viewBox="0 0 1024 1024"
   sodipodi:docname="IMG_1974.svg"
   inkscape:version="1.4.2 (f4327f4, 2025-05-13)"
   xmlns:inkscape="http://www.inkscape.org/namespaces/inkscape"
   xmlns:sodipodi="http://sodipodi.sourceforge.net/DTD/sodipodi-0.dtd"
   xmlns="http://www.w3.org/2000/svg"
   xmlns:svg="http://www.w3.org/2000/svg">
  <defs
     id="defs1" />
  <sodipodi:namedview
     id="namedview1"
     pagecolor="#ffffff"
     bordercolor="#000000"
     borderopacity="0.25"
     inkscape:showpageshadow="2"
     inkscape:pageopacity="0.0"
     inkscape:pagecheckerboard="0"
     inkscape:deskcolor="#d1d1d1"
     inkscape:zoom="0.79589844"
     inkscape:cx="512"
     inkscape:cy="512"
     inkscape:window-width="1920"
     inkscape:window-height="1017"
     inkscape:window-x="-8"
     inkscape:window-y="-8"
     inkscape:window-maximized="1"
     inkscape:current-layer="g1" />
  <g
     inkscape:groupmode="layer"
     inkscape:label="Image"
     id="g1">
    <g
       id="g2"
       transform="translate(-518.91044,-52.770551)">
      <path
         style="fill:#333333;fill-opacity:1"
         d="m 727.96197,513.02577 v -305 h 311.50013 311.5 v 305 305 h -311.5 -311.50013 z m 594.75183,-0.25174 0.2518,-276.75174 -283.2518,0.25174 -283.25183,0.25174 -0.25611,275.5 c -0.14086,151.525 -0.0422,276.06329 0.21929,276.75175 0.37943,0.99907 57.55581,1.20093 283.25615,1 l 282.7808,-0.25175 z M 881.46202,687.90915 c -8.196,-1.19216 -17.4202,-4.23486 -27.2489,-8.98833 -15.4864,-7.48964 -28.2529,-23.52488 -33.75304,-42.39505 -3.8955,-13.36493 -4.24671,-28.47444 -4.1146,-177.01726 l 0.11649,-130.98274 26.72675,-0.26629 26.7268,-0.26629 0.2732,141.76629 0.2733,141.76629 2.2608,6.65494 c 2.4033,7.0745 6.977,13.56463 11.4783,16.28806 1.5065,0.91149 5.3315,2.55244 8.5,3.64654 5.4794,1.89212 9.3252,2.01761 78.72825,2.56906 l 72.96733,0.57978 -0.019,10.63081 c -0.01,5.84694 -0.1082,16.59331 -0.2173,23.88081 l -0.1985,13.25 -78.25003,-0.12194 c -43.03755,-0.0671 -80.95005,-0.51468 -84.25005,-0.99468 z m 188.95638,-0.13668 c -0.2723,-0.70949 -0.3739,-11.49564 -0.2257,-23.96922 l 0.2694,-22.67923 44.5,-0.36877 c 37.191,-0.3082 45.5676,-0.63981 51,-2.01894 20.5814,-5.22508 31.3206,-13.13654 37.8688,-27.89759 4.4883,-10.11775 5.5224,-16.32251 4.7739,-28.64547 -1.0411,-17.14187 -6.3006,-29.60633 -17.2061,-40.77638 -5.9872,-6.13249 -12.5712,-9.54803 -23.7969,-12.34495 -7.6417,-1.90397 -11.6101,-2.04052 -64.8618,-2.23176 -31.1971,-0.11204 -57.0721,0.14639 -57.5,0.57428 -0.4278,0.4279 -0.7779,20.0905 -0.7779,43.69466 v 42.91667 h -27.75 -27.75003 V 470.97828 327.93079 l 81.75003,0.20981 c 44.9625,0.1154 86.475,0.53383 92.25,0.92983 13.9639,0.95754 31.8334,5.68166 42.3552,11.19734 6.3166,3.31124 10.479,6.59266 18.72,14.758 11.2484,11.14513 13.9465,15.43451 18.0965,28.76973 4.0432,12.99165 4.8783,17.84918 5.4552,31.73027 0.4985,11.99561 0.2712,15.49976 -1.5874,24.47528 -4.7954,23.1572 -14.6212,38.77484 -32.4188,51.52799 -6.9277,4.96416 -7.4396,7.71035 -1.8707,10.03585 13.9015,5.80516 29.1482,18.15619 37.1584,30.10123 17.363,25.89259 21.2602,70.86862 8.5021,98.11897 -1.8758,4.0065 -3.4105,7.55166 -3.4105,7.87813 0,1.40942 -9.1747,14.22279 -12.9181,18.04144 -13.1044,13.36789 -24.9436,20.6375 -42.7825,26.26969 -19.3575,6.11166 -28.0769,6.85796 -81.5738,6.98199 -36.5303,0.0847 -45.8743,-0.15439 -46.2693,-1.18387 z m 86.1663,-211.77957 c 15.7603,-4.22345 25.2828,-11.22808 31.3823,-23.08434 5.6648,-11.01134 7.5166,-26.55852 4.5121,-37.88279 -2.2342,-8.42085 -8.4054,-19.53512 -13.8596,-24.96077 -5.9828,-5.95151 -12.4944,-9.44514 -22.4786,-12.06025 -7.0593,-1.849 -10.9504,-1.97898 -59.2422,-1.97898 h -51.6866 l -0.6458,3.22861 c -0.6742,3.37132 -0.5519,77.54049 0.1502,91.02139 l 0.4036,7.75 h 51.9393 c 49.0649,0 52.3592,-0.11251 59.5253,-2.03287 z"
         id="path2" />
    </g>
  </g>
</svg>
