<?xml version="1.0" encoding="UTF-8" standalone="no"?>
<!-- Created with Inkscape (http://www.inkscape.org/) -->

<svg
   version="1.1"
   id="svg1"
   width="766.96155"
   height="253.99995"
   viewBox="0 0 766.96155 253.99995"
   sodipodi:docname="labsbot-logo.svg"
   inkscape:version="1.4.2 (f4327f4, 2025-05-13)"
   xmlns:inkscape="http://www.inkscape.org/namespaces/inkscape"
   xmlns:sodipodi="http://sodipodi.sourceforge.net/DTD/sodipodi-0.dtd"
   xmlns="http://www.w3.org/2000/svg"
   xmlns:svg="http://www.w3.org/2000/svg">
  <defs
     id="defs1">
    <linearGradient id="logoShineGradient" x1="-100%" y1="0%" x2="200%" y2="0%">
      <stop offset="0%" stop-color="#ffffff" stop-opacity="0"/>
      <stop offset="45%" stop-color="#ffffff" stop-opacity="0.2"/>
      <stop offset="50%" stop-color="#ffffff" stop-opacity="0.6"/>
      <stop offset="55%" stop-color="#ffffff" stop-opacity="0.2"/>
      <stop offset="100%" stop-color="#ffffff" stop-opacity="0"/>
      <animate attributeName="x1" from="-100%" to="200%" dur="6s" repeatCount="indefinite"/>
      <animate attributeName="x2" from="0%" to="300%" dur="6s" repeatCount="indefinite"/>
    </linearGradient>
  </defs>
  <sodipodi:namedview
     id="namedview1"
     pagecolor="#ffffff"
     bordercolor="#000000"
     borderopacity="0.25"
     inkscape:showpageshadow="2"
     inkscape:pageopacity="0.0"
     inkscape:pagecheckerboard="0"
     inkscape:deskcolor="#d1d1d1"
     inkscape:zoom="1.0593603"
     inkscape:cx="226.55182"
     inkscape:cy="121.29962"
     inkscape:window-width="1920"
     inkscape:window-height="1017"
     inkscape:window-x="-8"
     inkscape:window-y="-8"
     inkscape:window-maximized="1"
     inkscape:current-layer="g1"
     inkscape:clip-to-page="false" />
  <g
     inkscape:groupmode="layer"
     inkscape:label="Image"
     id="g1"
     transform="translate(-114.3546,-193.38528)">
    <path
       fill="url(#logoShineGradient)"
       style="stroke:none"
       d="m 114.3546,320.38528 v -127 h 127 127 v 127 126.99995 h -127 -127 z m 245,0 v -118 h -118 -118 v 118 118 h 118 118 z m -183.70851,76.93834 c -16.4164,-2.13662 -26.79538,-12.27493 -29.2939,-28.61463 -0.66188,-4.32852 -0.94363,-28.76359 -0.77051,-66.82371 l 0.27292,-60 11.67564,-0.28109 11.67565,-0.28109 0.395,8.78109 c 0.21724,4.8296 0.48311,32.61787 0.5908,61.75171 0.21869,59.15739 0.0594,57.79654 7.26044,62.02938 3.1767,1.86729 5.50928,2.02004 35.15247,2.30197 l 31.75,0.30197 v 10.30343 10.30342 l -6.75,0.6375 c -9.29673,0.87801 -54.35316,0.5799 -61.95851,-0.40995 z m 78.70851,-10.33567 v -10.39733 l 20.25,-0.47078 c 23.07184,-0.53638 26.29537,-1.25777 32.27016,-7.2217 10.77659,-10.757 7.64825,-31.56864 -5.82809,-38.77209 -3.98634,-2.1308 -5.48032,-2.25601 -30.44207,-2.55131 l -26.25,-0.31054 v 19.09132 19.09132 l -12.25,-0.28078 -12.25,-0.28078 v -61.5 -61.5 l 35,-0.28584 c 36.41246,-0.29737 43.18735,0.20034 53.07284,3.89898 6.35133,2.37633 15.6382,10.42005 18.49444,16.01874 3.15376,6.18187 5.20066,16.63564 4.58852,23.43412 -0.93652,10.40106 -4.10184,17.103 -11.43869,24.21918 -3.56405,3.45684 -6.30842,6.4254 -6.0986,6.5968 0.20982,0.17139 2.76809,1.5902 5.68504,3.1529 10.16898,5.44783 16.19985,14.88376 18.34926,28.70935 2.85766,18.38114 -5.40224,36.23059 -20.27758,43.81942 -9.95471,5.07852 -15.75255,5.93635 -40.12205,5.93635 H 254.3546 Z m 41.25133,-83.92687 c 15.90051,-7.80797 15.18607,-29.66792 -1.25133,-38.28719 -3.09543,-1.62315 -6.15858,-1.83837 -26.5,-1.86195 l -23,-0.0267 -0.26969,21.81778 -0.26969,21.81778 22.76969,-0.31778 c 22.66673,-0.31634 22.7957,-0.33055 28.52102,-3.14198 z m 145.97047,87.14589 c -2.39001,-1.20905 -2.47106,-3.63233 -0.0968,-2.89425 4.39232,1.36543 9.56701,1.14859 10.89931,-0.45673 1.24115,-1.4955 1.13081,-1.92668 -0.91753,-3.58533 -1.28059,-1.03696 -3.39312,-1.88538 -4.69451,-1.88538 -1.38782,0 -3.01018,-0.98289 -3.92374,-2.37717 -2.94171,-4.48961 1.58013,-9.62283 8.47674,-9.62283 3.89525,0 6.03473,0.931 6.03473,2.62604 0,1.0337 -0.73686,1.23529 -2.75,0.75234 -1.5125,-0.36286 -2.90076,-0.78468 -3.08501,-0.9374 -0.18426,-0.15272 -1.67117,0.18812 -3.30426,0.75741 -4.67025,1.62806 -3.47917,4.62923 2.63927,6.65013 4.40844,1.45609 5.03532,2.01246 5.29852,4.70258 0.20174,2.06189 -0.35248,3.64025 -1.70942,4.86826 -2.42727,2.19665 -9.72492,2.99197 -12.8673,1.40233 z m 21.23045,-1.46771 c -4.21807,-4.55137 -2.76211,-13.92226 2.76454,-17.79328 1.23329,-0.86382 4.27724,-1.5607 6.81715,-1.5607 7.84409,0 11.57696,5.63999 8.87115,13.40339 -2.81125,8.06591 -13.34446,11.46262 -18.45284,5.95059 z m 11.69815,-1.43447 c 2.03223,-1.08762 4.8496,-6.54121 4.8496,-9.38739 0,-3.98056 -6.55571,-6.79105 -11.4552,-4.91094 -2.20103,0.84462 -4.5448,5.62646 -4.5448,9.27246 0,4.98809 6.09106,7.73354 11.1504,5.02587 z m 13.5996,3.36424 c -3.16087,-0.47884 -3.07734,-0.09 -1.68654,-7.85009 1.79755,-10.02963 2.93151,-13.43366 4.47508,-13.43366 1.76967,0 1.77783,-0.8887 -0.0819,8.9149 -0.84884,4.4747 -1.27228,8.57441 -0.94098,9.11046 0.33129,0.53605 2.8258,0.97464 5.54334,0.97464 5.52755,0 6.61036,1.41612 1.81598,2.375 -3.207,0.6414 -4.36505,0.62982 -9.125,-0.0912 z m 18.47251,-0.84045 c -1.78543,-1.25057 -2.20668,-2.47969 -2.14203,-6.25 0.10326,-6.02225 2.05664,-13.42628 3.68208,-13.9565 0.98517,-0.32136 1.11593,1.49584 0.59515,8.27096 -0.71583,9.31265 -0.24891,10.44481 4.32086,10.47693 4.02496,0.0283 5.22033,-2.08162 8.34798,-14.73469 0.63825,-2.58207 1.62409,-4.25 2.51199,-4.25 0.8038,0 1.46146,0.19558 1.46146,0.43462 0,1.84364 -3.21257,15.09405 -4.02977,16.62101 -2.36897,4.42646 -10.57382,6.31118 -14.74772,3.38767 z m 54.13449,0.56512 c -9.97128,-4.02391 -4.52968,-21.00842 6.73081,-21.00842 9.22073,0 13.07086,5.89781 9.47237,14.51022 -2.48307,5.94281 -10.05476,8.9794 -16.20318,6.4982 z m 8.93068,-3.09363 c 2.77187,-1.26295 5.71232,-5.80263 5.71232,-8.81908 0,-4.84547 -7.03885,-7.75084 -12.1504,-5.01522 -2.6908,1.44008 -5.04746,7.28299 -4.23812,10.50766 0.97298,3.87666 6.01851,5.44882 10.6762,3.32664 z m 36.96232,3.05405 c -1.2375,-0.49742 -2.25,-1.64204 -2.25,-2.5436 0,-1.16781 0.50326,-1.43289 1.75,-0.92175 4.13954,1.69713 9.81648,1.72379 11.20343,0.0526 1.79879,-2.16742 0.10932,-3.95102 -5.45343,-5.75729 -4.84981,-1.57477 -5.76094,-4.92609 -2.47499,-9.10349 1.64582,-2.09232 2.98052,-2.69534 5.96578,-2.69534 4.84925,0 7.00921,0.81733 7.00921,2.6523 0,1.10169 -0.81764,1.28494 -3.49343,0.78296 -8.96232,-1.68135 -11.8127,3.39979 -3.61097,6.437 5.10765,1.89142 6.64552,3.8356 5.77563,7.30152 -1.04448,4.16154 -8.57756,6.14393 -14.42123,3.79506 z m 29.08794,0.0791 c -3.03713,-1.29014 -3.84795,-4.62061 -1.8626,-7.65064 0.90266,-1.37763 2.27058,-2.7463 3.03984,-3.04149 0.9615,-0.36896 1.21507,-1.45456 0.8113,-3.47339 -0.40956,-2.0478 -0.0469,-3.53384 1.19808,-4.90955 3.03142,-3.34968 10.47544,-2.17687 10.47544,1.65041 0,0.67281 -1.17933,2.62484 -2.62074,4.33785 -2.5556,3.03716 -2.57511,3.16499 -0.78504,5.14299 1.72937,1.91094 1.90953,1.92745 3.11041,0.28516 1.7343,-2.3718 3.03954,-0.81052 1.4501,1.73457 -0.97909,1.56777 -0.99961,2.35814 -0.0897,3.45452 1.27583,1.53727 1.26248,1.54643 -2.81503,1.93102 -1.5125,0.14266 -4.325,0.52884 -6.25,0.85818 -1.925,0.32934 -4.47293,0.18551 -5.66206,-0.31963 z m 8.46504,-4.2348 c 0.18287,-0.96598 -0.83037,-2.44019 -2.37096,-3.44963 -2.62534,-1.72019 -2.73585,-1.70651 -4.57623,0.56626 -1.48247,1.83078 -1.63351,2.63315 -0.70603,3.75069 1.61937,1.95122 7.24021,1.31423 7.65322,-0.86732 z m 0.26276,-9.84831 c 2.37966,-1.27356 2.51143,-3.52936 0.25672,-4.39458 -2.12423,-0.81514 -4.79302,1.76112 -3.99059,3.85222 0.71259,1.85699 1.15688,1.92152 3.73387,0.54236 z m 16.93426,14.13758 c 0,-1.31297 10.84296,-18.72719 12.53468,-20.13119 2.29666,-1.90606 4.21321,-0.42289 4.92912,3.81449 0.36471,2.15873 1.48727,6.57757 2.49457,9.81963 1.00729,3.24206 1.62718,6.23216 1.37752,6.64466 -0.89154,1.47306 -2.24727,0.70704 -3.53967,-2 -1.14623,-2.40089 -1.96745,-2.78799 -6.46891,-3.04929 -4.82273,-0.27994 -5.27244,-0.10219 -6.95727,2.75 -1.68236,2.84801 -4.37004,4.17136 -4.37004,2.1517 z m 15.98635,-9.35241 c -0.0222,-3.65297 -1.13198,-6.75 -2.41884,-6.75 -1.05933,0 -5.56751,6.79052 -5.56751,8.38615 0,0.33762 1.8,0.61385 4,0.61385 3.48553,0 3.99824,-0.28939 3.98635,-2.25 z m 12.26365,8.03056 c -2.52338,-2.70222 -2.75025,-6.30016 -0.89967,-14.2677 0.82452,-3.5499 1.70347,-5.09212 3.04992,-5.35142 1.4892,-0.2868 1.73688,0.0295 1.16434,1.48714 -0.39998,1.01828 -0.97874,5.08951 -1.28615,9.04717 -0.55747,7.17718 -0.55191,7.19751 2.15507,7.87692 5.35086,1.34298 7.27513,-0.67111 9.20023,-9.62968 1.53545,-7.1453 3.32953,-10.31305 4.93284,-8.70974 1.05806,1.05806 -3.46734,17.11196 -5.35607,19.00069 -1.13213,1.13213 -3.86252,2.19499 -6.3485,2.47129 -3.67612,0.40857 -4.7158,0.10593 -6.61201,-1.92467 z m 41.95457,-0.26188 c -2.46355,-2.07294 -3.20457,-3.49267 -3.20457,-6.13969 0,-8.1801 5.23739,-13.37899 13.47805,-13.37899 2.72939,0 4.4284,0.75261 6.59887,2.92308 3.24285,3.24285 3.67265,6.37019 1.5611,11.35904 -2.03542,4.80895 -5.02616,6.95267 -10.42332,7.47127 -4.13411,0.39724 -5.25332,0.085 -8.01013,-2.23471 z m 12.66813,-2.61471 c 4.31182,-4.01707 5.17637,-8.8549 2.1273,-11.90397 -4.33492,-4.33492 -13.09962,-1.25188 -14.36026,5.05131 -0.61538,3.07687 0.6264,6.75876 2.75996,8.18338 2.17939,1.45521 7.24671,0.74339 9.473,-1.33072 z m 30.74612,4.28828 c -0.33381,-0.54011 -0.15743,-3.35215 0.39194,-6.24899 0.54937,-2.89683 0.73305,-5.53164 0.40817,-5.85512 -0.32488,-0.32348 -2.77114,1.88686 -5.43613,4.91186 l -4.84544,5.5 -2.55607,-5.75 c -1.40584,-3.1625 -2.7641,-5.75 -3.01836,-5.75 -0.25426,0 -1.00126,2.73958 -1.66002,6.08795 -1.02022,5.18572 -2.95778,8.19051 -4.37048,6.77781 -0.30291,-0.30291 2.46515,-13.64739 4.06891,-19.61576 0.18474,-0.6875 0.98832,-1.25 1.78574,-1.25 0.89567,0 2.27528,2.48038 3.60931,6.48914 1.18769,3.56902 2.54735,6.72888 3.02146,7.02189 0.47411,0.29302 3.38322,-2.62709 6.46468,-6.48913 7.8478,-9.83577 8.65983,-9.41915 6.29183,3.2281 -1.88672,10.07681 -2.95382,12.88668 -4.15554,10.94225 z m 5.38118,0.3423 c 0,-0.25599 2.98228,-5.0171 6.6273,-10.58023 6.117,-9.33597 8.6332,-12.02716 9.98303,-10.67732 0.76461,0.76461 5.38967,17.89809 5.38967,19.96597 0,2.71401 -1.78081,2.08158 -3.5,-1.24297 -1.37998,-2.66859 -2.0556,-3 -6.11591,-3 -3.82007,0 -4.99391,0.4893 -7.197,3 -2.26355,2.57959 -5.18709,4.00811 -5.18709,2.53455 z m 16.57662,-11.78455 c -0.37344,-2.3375 -1.05636,-4.6279 -1.51759,-5.08978 -0.95365,-0.95501 -6.21083,7.28514 -5.44178,8.5295 0.27543,0.44565 2.10674,0.81028 4.06958,0.81028 h 3.56879 z m 13.20903,11.70231 c -0.30123,-0.30122 0.28722,-4.23872 1.30766,-8.75 1.02044,-4.51127 1.8669,-8.53981 1.88102,-8.95231 0.0141,-0.4125 -1.81183,-0.75 -4.05766,-0.75 -2.82092,0 -3.95527,-0.38645 -3.66911,-1.25 0.28154,-0.8496 3.35126,-1.3421 9.58333,-1.53753 7.70778,-0.2417 9.16911,-0.0425 9.16911,1.25 0,1.12273 -1.06097,1.53753 -3.93261,1.53753 -4.35917,0 -4.22662,-0.20755 -6.06739,9.5 -1.8059,9.52367 -2.39392,10.77275 -4.21435,8.95231 z m 13.8991,-0.20231 c -0.2383,-0.4125 0.40816,-4.35 1.43657,-8.75 1.02842,-4.4 2.10542,-9.0125 2.39332,-10.25 0.28791,-1.2375 1.14204,-2.25 1.89808,-2.25 1.07376,0 1.18752,0.82076 0.51976,3.75 -0.47018,2.0625 -1.36299,7.0125 -1.98402,11 -0.75756,4.86408 -1.57365,7.25 -2.47979,7.25 -0.74285,0 -1.54561,-0.3375 -1.78392,-0.75 z m 14.09039,-0.75232 c -5.2768,-2.973 -6.29796,-8.9422 -2.49512,-14.58523 2.83243,-4.20305 6.03764,-5.87867 11.28142,-5.89771 13.55095,-0.0492 11.91345,20.34708 -1.73543,21.61598 -2.71751,0.25264 -5.33917,-0.16865 -7.05087,-1.13304 z m 10.28025,-2.52732 c 2.27843,-1.21938 4.94461,-6.02951 4.94461,-8.9207 0,-5.77943 -8.97822,-8.16235 -13.54545,-3.59511 -6.57267,6.57266 0.49324,16.85486 8.60084,12.51581 z m 22.25411,-3.32479 c -4.93602,-7.83629 -6.3095,-9.08184 -6.3095,-5.72186 0,4.19316 -2.39684,12.07629 -3.67175,12.07629 -0.73054,0 -1.3286,-0.3375 -1.32903,-0.75 -0.001,-0.96763 3.06957,-17.36162 3.55552,-18.98314 0.76081,-2.53872 3.67934,0.2165 7.94094,7.4966 4.76229,8.13541 4.55793,8.17844 6.00002,-1.26346 0.33602,-2.2 0.84227,-4.7875 1.12501,-5.75 0.58393,-1.98783 3.40008,-2.40943 3.33987,-0.5 -0.10633,3.37212 -3.86418,19.0536 -4.78709,19.97651 -0.73932,0.73932 -2.49198,-1.22763 -5.86399,-6.58094 z m -473.9436,4.84329 c 0.31893,-0.83112 3.06973,-5.33112 6.11288,-10 3.93469,-6.03669 6.1181,-8.48886 7.5585,-8.48886 1.11402,0 2.17873,0.5625 2.36601,1.25 0.18729,0.6875 1.03613,3.725 1.88631,6.75 2.8335,10.08173 3.03969,12 1.28986,12 -0.86871,0 -1.57946,-0.65917 -1.57946,-1.46482 0,-4.09934 -9.86688,-4.86088 -13.41242,-1.03518 -2.56092,2.76328 -5.13386,3.36595 -4.22168,0.98886 z m 15.6341,-7.37808 c 0,-1.03906 -0.84765,-2.93602 -1.88367,-4.21545 l -1.88368,-2.32624 -2.11259,3.46546 c -1.16192,1.906 -2.11427,3.80295 -2.11632,4.21545 -0.002,0.4125 1.79626,0.75 3.99626,0.75 3.25515,0 4,-0.3518 4,-1.88922 z m 10,7.31882 c 0,-4.43877 3.51095,-18.68844 4.71881,-19.15194 2.16305,-0.83004 2.44308,0.16832 1.36059,4.8507 -0.55585,2.4044 -1.50802,6.95914 -2.11592,10.12164 -0.73084,3.80206 -1.58942,5.75 -2.53438,5.75 -0.786,0 -1.4291,-0.70668 -1.4291,-1.5704 z m 109.578,-1.1796 c 0.33886,-1.5125 1.01992,-4.325 1.51347,-6.25 0.49356,-1.925 0.89989,-4.7375 0.90295,-6.25 0.005,-2.40661 -0.37943,-2.75 -3.07775,-2.75 -2.02082,0 -2.94066,-0.43075 -2.6693,-1.25 0.279,-0.84232 3.273,-1.34469 9.18011,-1.54034 6.80826,-0.2255 8.67143,-0.002 8.34229,1 -0.23309,0.70969 -1.85104,1.43131 -3.59545,1.6036 -3.87274,0.3825 -4.60639,1.68777 -6.14722,10.93674 -1.01231,6.07651 -1.51998,7.25 -3.1365,7.25 -1.58673,0 -1.81946,-0.48759 -1.3126,-2.75 z m 14.01227,0.0712 c 2.26012,-11.21073 4.12694,-17.72699 5.17901,-18.07768 1.74638,-0.58212 1.47418,5.78919 -0.5875,13.75168 -1.174,4.53413 -2.20691,6.59367 -3.42103,6.82125 -1.41877,0.26594 -1.63445,-0.19385 -1.17048,-2.49525 z m 36.50384,-5.0712 c 1.01067,-4.2625 1.85295,-8.71436 1.87174,-9.89301 0.0396,-2.48757 2.46054,-3.78678 3.8153,-2.04755 0.51006,0.65481 2.40566,4.00306 4.21244,7.44056 1.80678,3.4375 3.63171,6.25 4.05538,6.25 0.42368,0 1.307,-3.18178 1.96294,-7.07063 1.07686,-6.38434 2.8775,-9.37329 4.60567,-7.64512 0.5617,0.5617 -3.36649,19.79799 -4.21647,20.64797 -1.13664,1.13664 -4.01769,-1.97198 -7.19648,-7.76489 -1.86291,-3.39492 -3.74639,-5.95054 -4.18551,-5.67915 -0.43912,0.27139 -1.38061,3.42257 -2.09222,7.00263 -0.98012,4.931 -1.70315,6.50919 -2.98209,6.50919 -1.57153,0 -1.5612,-0.53595 0.1493,-7.75 z m 131.90589,7.57295 c 0,-0.17803 0.66719,-3.47353 1.48264,-7.32332 2.10973,-9.96021 2.05116,-10.32144 -1.73264,-10.68627 -6.37565,-0.61473 -2.61531,-2.31835 5.74395,-2.60229 7.11507,-0.24169 8.50605,-0.0373 8.50605,1.25 0,1.08885 -1.01235,1.53893 -3.46146,1.53893 -3.79043,0 -4.08456,0.59598 -6.16535,12.49223 -0.61664,3.52546 -1.38736,5.08951 -2.62319,5.32333 -0.9625,0.1821 -1.75,0.18542 -1.75,0.007 z M 414.23967,347.00566 c -5.36874,-1.91858 -9.34439,-5.08865 -12.66059,-10.09519 -2.42926,-3.66752 -3.0633,-5.86877 -3.5279,-12.24813 -0.91128,-12.51265 -0.10381,-65.26983 1.01612,-66.38976 0.54769,-0.54769 3.64889,-0.85889 6.89155,-0.69155 l 5.89575,0.30425 0.5,35.72845 0.5,35.72845 2.77309,2.77155 2.77309,2.77155 20.72691,0.0213 20.72691,0.0213 0.3046,5.8859 c 0.20863,4.0315 -0.10643,6.1466 -1,6.71335 -2.20352,1.39759 -40.80334,0.94941 -44.91953,-0.52155 z m 62.61493,-0.18978 c -4.14829,-2.15308 -8.13096,-6.12544 -9.53164,-9.507 -0.6979,-1.68486 -1.03275,-6.21623 -0.82266,-11.13252 0.28711,-6.71876 0.79594,-8.91027 2.68314,-11.55617 4.26923,-5.98556 6.78492,-6.68102 26.17116,-7.23491 l 17.5,-0.5 0.3222,-3.36858 c 0.36025,-3.76637 -1.24464,-8.40564 -3.57984,-10.34826 -1.07993,-0.89839 -7.10573,-1.43309 -20.09509,-1.78316 l -18.55264,-0.5 -0.0473,-5.5 -0.0473,-5.5 18.30852,-0.27278 c 20.99916,-0.31288 24.60779,0.34907 30.40103,5.57659 6.84613,6.17759 7.11793,7.48284 7.58934,36.44619 l 0.41908,25.75 h -6.609 c -6.25705,0 -6.609,-0.12426 -6.609,-2.33333 0,-3.53269 -0.94378,-3.80492 -4.37342,-1.26153 -4.88367,3.6217 -9.13279,4.59534 -20.0258,4.5887 -7.18189,-0.004 -10.96771,-0.45612 -13.10078,-1.56324 z m 25.65419,-10.55709 c 3.3703,-0.7228 6.25482,-2.12867 8.04922,-3.92307 2.45571,-2.45572 2.79659,-3.5461 2.79659,-8.94556 v -6.14897 l -15.09063,0.32204 c -14.46494,0.3087 -15.1698,0.41993 -17,2.68283 -1.24175,1.53533 -1.90937,3.9224 -1.90937,6.82693 0,3.60292 0.56497,5.03111 2.92308,7.38921 2.58418,2.58418 3.62191,2.92308 8.95078,2.92308 3.31523,0 8.39138,-0.50692 11.28033,-1.12649 z m 39.5574,11.50474 c -0.39138,-0.39137 -0.71159,-21.78658 -0.71159,-47.54492 v -46.83333 h 6.5 6.5 v 16.47939 16.47939 l 4.58158,-3.22939 4.58157,-3.22939 h 13.24145 c 12.74481,0 13.39605,0.10231 17.36315,2.72761 2.26694,1.50018 5.38407,4.87518 6.92697,7.5 2.71189,4.61351 2.81644,5.31173 3.14049,20.97338 0.4003,19.34727 -0.76005,24.85549 -6.47584,30.74085 -5.44388,5.60538 -8.60037,6.55816 -21.72676,6.55816 -11.40739,0 -11.44266,-0.007 -16.63261,-3.5 -2.86054,-1.925 -5.35225,-3.5 -5.53713,-3.5 -0.18488,0 -0.47716,1.4625 -0.64951,3.25 -0.30367,3.14947 -0.46921,3.25912 -5.35177,3.54492 -2.77113,0.16221 -5.35863,-0.0253 -5.75,-0.41667 z m 42.6852,-12.77068 c 2.25896,-0.94385 3.69831,-2.44162 4.46789,-4.64922 1.45896,-4.18518 1.47902,-28.67396 0.0269,-32.83951 -1.64482,-4.71834 -5.28215,-6.11884 -15.89158,-6.11884 -9.94868,0 -13.39511,1.14425 -16.9117,5.61488 -1.89552,2.40976 -2.0883,3.96847 -2.0883,16.88512 0,13.07797 0.17533,14.45318 2.16519,16.98287 1.19085,1.51392 3.55335,3.357 5.25,4.09572 4.12386,1.79553 18.70963,1.81392 22.9816,0.029 z m 30.19487,12.54073 c -0.28951,-0.46843 -0.42857,-3.16826 -0.30902,-5.99963 l 0.21736,-5.14793 19.31574,-3.7e-4 c 23.75137,-4.5e-4 25.13932,-0.4855 25.16895,-8.79582 0.0115,-3.2403 -0.58764,-4.89841 -2.43924,-6.75 -2.36502,-2.36503 -2.94975,-2.45455 -16.03211,-2.45455 -14.67983,0 -18.26639,-0.84653 -22.34685,-5.27447 -3.11992,-3.3856 -4.30442,-8.89319 -3.54973,-16.50524 0.76958,-7.76223 3.3913,-11.95843 9.3532,-14.97029 4.1717,-2.10748 5.70724,-2.25 24.24193,-2.25 h 19.78811 v 6 6 h -18 c -16.66667,0 -18.14815,0.14815 -20,2 -2.66154,2.66154 -2.76334,9.99922 -0.17126,12.34501 1.49672,1.35451 4.10222,1.65499 14.35078,1.65499 6.88712,0 14.05168,0.51234 15.92126,1.13852 6.98036,2.33798 10.58405,7.52511 11.52318,16.5864 1.15258,11.1208 -3.60672,19.78874 -12.17088,22.16643 -4.65789,1.29317 -44.08145,1.51898 -44.86142,0.25695 z m 70.37857,0.1017 c -0.19424,-4.89413 0.16701,-88.72058 0.38328,-88.93685 0.16211,-0.16211 12.09003,-0.31881 26.50649,-0.34823 l 26.21173,-0.0535 5.15314,2.79428 c 7.23988,3.9258 9.77513,8.95383 9.77513,19.38646 0,9.12488 -0.98539,12.22884 -5.30316,16.70492 l -3.18049,3.29711 3.72398,3.20289 c 7.21131,6.20228 9.48385,16.5827 6.28378,28.7029 -1.06753,4.04327 -2.48994,6.4737 -5.37039,9.17629 -6.47132,6.07175 -10.80611,6.82373 -39.33522,6.82373 -13.65018,0 -24.8319,-0.3375 -24.84827,-0.75 z m 50.91093,-13.35842 c 4.11335,-1.43392 6.11884,-5.43016 6.11884,-12.1927 0,-13.42197 -2.29351,-14.69888 -26.40113,-14.69888 H 698.3546 v 13.33333 c 0,7.33334 0.3,13.63334 0.66667,14 1.13609,1.1361 33.80055,0.74836 37.21449,-0.44175 z m -1.26151,-39.65296 c 6.31776,-3.48567 7.14853,-16.47044 1.42028,-22.19869 -1.90112,-1.90112 -3.25659,-2.03993 -19.91998,-2.03993 h -17.88004 l 0.24542,12.75 c 0.13499,7.0125 0.30601,12.91443 0.38005,13.11539 0.35073,0.95196 33.84226,-0.57186 35.75427,-1.62677 z m 44.88035,51.89045 c -5.25644,-2.4009 -10.08111,-7.46535 -12.0679,-12.6677 -1.30194,-3.40908 -1.53883,-7.45939 -1.26675,-21.65946 0.3339,-17.42718 0.34139,-17.47714 3.35009,-22.33985 2.19374,-3.54557 4.47296,-5.63503 8.36419,-7.66784 5.14892,-2.68983 5.89819,-2.79422 20.05525,-2.79422 14.06176,0 14.9443,0.12056 20.13094,2.75 4.07369,2.06521 6.1727,3.97547 8.42931,7.67128 2.93327,4.80402 3.01319,5.28055 3.3539,20 0.55457,23.95875 -1.72294,30.94232 -11.83498,36.28969 -3.96484,2.09666 -5.597,2.28718 -19.42133,2.26707 -12.45768,-0.0181 -15.79108,-0.34094 -19.09272,-1.84897 z m 31.02794,-11.32376 c 4.65023,-2.11878 5.47206,-5.31856 5.47206,-21.30531 0,-21.20907 -1.03829,-22.5 -18.09671,-22.5 -10.70424,0 -14.90155,1.25971 -16.94988,5.08706 -0.60824,1.13649 -1.3606,7.79359 -1.67192,14.79355 -0.6475,14.55913 0.24406,18.70093 4.86199,22.58666 2.79779,2.35419 3.74142,2.53273 13.38619,2.53273 5.91491,0 11.50359,-0.51366 12.99827,-1.19469 z m 47.97206,11.54866 c -4.6518,-2.48761 -6.62802,-4.51764 -8.61927,-8.85397 -1.59669,-3.47709 -1.83968,-6.77795 -1.85877,-25.25 l -0.022,-21.25 h -5.5 -5.5 v -6.07414 -6.07414 l 5.25,0.2807 5.25,0.28069 0.28678,-9.75332 0.28677,-9.75332 6.21323,0.29677 6.21322,0.29676 0.28206,9.5 0.28207,9.5 h 8.71793 8.71794 l 0.2999,5.75 0.29991,5.75 h -9.04991 -9.0499 v 19.57692 19.57693 l 2.92308,2.92307 c 2.64264,2.64264 3.55885,2.92308 9.5499,2.92308 h 6.62683 l -0.29991,5.75 -0.2999,5.75 -9,0.22913 c -6.6945,0.17044 -9.7685,-0.18183 -12,-1.37516 z"
       id="path1" />
  </g>
</svg>
