<?xml version="1.0" standalone="no"?>
<!DOCTYPE svg PUBLIC "-//W3C//DTD SVG 20010904//EN"
 "http://www.w3.org/TR/2001/REC-SVG-20010904/DTD/svg10.dtd">
<svg version="1.0" xmlns="http://www.w3.org/2000/svg"
 width="600.000000pt" height="680.000000pt" viewBox="0 0 600.000000 680.000000"
 preserveAspectRatio="xMidYMid meet">
<g transform="translate(0.000000,680.000000) scale(0.100000,-0.100000)"
fill="#000000" stroke="none">
<path d="M604 4151 c-2 -2 -4 -359 -4 -793 l0 -788 800 0 800 0 0 796 0 795
-796 -3 c-438 -2 -798 -5 -800 -7z m46 -31 c4 7 12 11 18 9 6 -2 0 -11 -12
-20 -21 -16 -22 -16 -23 5 0 11 1 15 4 7 4 -10 7 -10 13 -1z m213 3 c-13 -2
-33 -2 -45 0 -13 2 -3 4 22 4 25 0 35 -2 23 -4z m184 1 c-3 -3 -12 -4 -19 -1
-8 3 -5 6 6 6 11 1 17 -2 13 -5z m550 0 c-3 -3 -12 -4 -19 -1 -8 3 -5 6 6 6
11 1 17 -2 13 -5z m564 -7 c-1 -12 -15 -9 -19 4 -3 6 1 10 8 8 6 -3 11 -8 11
-12z m-21 -754 l0 -738 -740 0 -740 0 0 738 0 737 740 0 740 0 0 -737z m-1503
645 c-3 -7 -5 -2 -5 12 0 14 2 19 5 13 2 -7 2 -19 0 -25z m0 -530 c-2 -24 -4
-5 -4 42 0 47 2 66 4 43 2 -24 2 -62 0 -85z m0 -360 c-1 -46 -3 -9 -3 82 0 91
2 128 3 83 2 -46 2 -120 0 -165z m1530 -70 c-3 -8 -6 -5 -6 6 -1 11 2 17 5 13
3 -3 4 -12 1 -19z m-1530 -105 c-2 -16 -4 -3 -4 27 0 30 2 43 4 28 2 -16 2
-40 0 -55z m1530 -50 c-3 -10 -5 -4 -5 12 0 17 2 24 5 18 2 -7 2 -21 0 -30z
m-1530 -75 c-2 -13 -4 -3 -4 22 0 25 2 35 4 23 2 -13 2 -33 0 -45z m0 -160
c-2 -13 -4 -3 -4 22 0 25 2 35 4 23 2 -13 2 -33 0 -45z m1530 0 c-2 -13 -4 -3
-4 22 0 25 2 35 4 23 2 -13 2 -33 0 -45z m0 -48 c2 -20 -4 -20 -230 -18 l-232
3 216 2 c177 3 219 6 229 18 16 19 15 19 17 -5z m-1487 -16 c0 -2 -7 -4 -15
-4 -8 0 -15 4 -15 10 0 5 7 7 15 4 8 -4 15 -8 15 -10z m163 -1 c-23 -2 -64 -2
-90 0 -26 2 -7 3 42 3 50 0 71 -1 48 -3z m660 0 c-111 -2 -295 -2 -410 0 -114
1 -23 2 202 2 226 0 319 -1 208 -2z"/>
<path d="M802 3440 l3 -415 27 -47 c21 -34 41 -53 80 -72 51 -26 55 -26 280
-26 l228 0 0 68 0 68 -187 -4 c-166 -3 -192 -1 -223 15 -57 29 -59 45 -59 456
l0 368 -76 2 -76 2 3 -415z m127 383 c-7 -44 3 -783 10 -778 6 3 20 -8 32 -25
l23 -30 202 0 203 0 -6 -37 c-3 -21 -11 -41 -17 -46 -15 -10 -396 -4 -396 6 0
5 -6 7 -12 5 -7 -3 -19 1 -26 9 -7 7 -24 13 -38 13 -22 0 -29 10 -25 33 1 5
-7 11 -18 14 -25 6 -31 34 -11 51 8 8 10 11 3 8 -6 -4 -15 -1 -19 6 -10 15
-17 687 -9 736 3 18 10 30 16 27 5 -4 9 -1 9 4 0 6 18 11 40 11 22 0 39 -3 39
-7z"/>
<path d="M980 2980 c8 -5 20 -10 25 -10 6 0 3 5 -5 10 -8 5 -19 10 -25 10 -5
0 -3 -5 5 -10z"/>
<path d="M1264 3851 c-2 -2 -4 -177 -4 -388 l0 -383 80 0 80 0 0 121 0 121
168 -4 c189 -3 207 -9 243 -79 37 -74 16 -160 -49 -201 -32 -19 -49 -22 -169
-22 l-133 -1 0 -68 0 -69 163 4 c154 3 165 4 219 31 94 46 140 122 141 230 1
109 -39 189 -114 227 -35 18 -52 40 -31 40 18 0 63 51 82 91 22 50 26 131 8
190 -16 57 -69 113 -130 139 -50 22 -65 23 -301 24 -137 1 -250 -1 -253 -3z
m65 -32 c8 12 14 13 36 3 32 -15 151 -16 160 -1 5 7 49 10 125 8 65 -2 116 -7
114 -11 -3 -4 7 -8 22 -8 32 0 115 -59 109 -78 -3 -7 -1 -11 4 -8 10 7 21 -23
27 -74 3 -19 6 -41 9 -47 2 -7 1 -13 -3 -13 -4 0 -7 -16 -6 -35 1 -19 -2 -32
-7 -29 -5 3 -9 -8 -9 -24 0 -17 -9 -37 -22 -48 -14 -13 -19 -14 -14 -4 4 8 -6
-1 -22 -20 l-30 -34 22 -28 c11 -15 27 -25 34 -23 7 3 11 1 8 -4 -5 -8 17 -23
37 -25 11 -1 26 -29 21 -38 -3 -4 0 -8 6 -8 11 0 12 -14 13 -147 0 -75 -16
-133 -38 -133 -6 0 -18 -11 -25 -25 -13 -25 -37 -37 -25 -12 4 6 0 4 -9 -7 -9
-12 -23 -17 -36 -13 -11 3 -18 2 -15 -3 9 -15 -30 -22 -144 -25 -121 -3 -164
5 -155 29 3 8 1 17 -5 21 -6 3 -11 12 -11 20 0 10 25 13 115 14 122 0 188 8
180 21 -3 5 8 16 23 26 16 9 35 32 42 52 16 44 20 122 7 122 -5 0 -7 9 -4 20
3 11 1 18 -4 14 -5 -3 -9 2 -9 10 0 9 -4 16 -8 16 -5 0 -9 7 -9 15 0 8 5 15
10 15 6 0 7 3 4 6 -4 4 -15 1 -24 -7 -10 -7 -15 -10 -11 -5 7 9 -22 46 -37 46
-5 0 -3 -5 5 -10 8 -5 10 -10 5 -10 -6 0 -17 6 -24 13 -9 9 -55 12 -172 10
-120 -1 -158 1 -152 10 3 7 -3 4 -14 -6 -11 -9 -22 -14 -26 -11 -4 4 -5 -3 -2
-15 2 -11 1 -21 -3 -21 -10 0 -8 -174 2 -181 15 -11 -34 -21 -70 -14 l-34 6 0
344 c0 336 3 391 21 363 7 -11 11 -10 18 1z"/>
<path d="M1409 3737 c-11 -10 -16 -23 -13 -29 5 -8 1 -9 -11 -4 -14 5 -15 3
-7 -6 13 -17 21 -238 7 -238 -5 0 1 -7 13 -16 19 -13 51 -16 180 -14 145 1
158 2 179 22 13 12 23 18 23 14 0 -4 6 -1 14 6 8 7 12 16 9 21 -2 4 1 7 7 7 6
0 9 4 5 9 -3 5 1 16 9 23 8 9 12 27 10 44 -4 24 -3 26 5 9 5 -11 10 -15 10 -8
1 16 -51 116 -69 131 -40 33 -86 43 -218 45 -117 2 -136 0 -153 -16z m339 -37
c61 -38 79 -134 36 -194 -33 -44 -81 -56 -229 -56 l-135 0 0 135 0 135 148 0
c130 0 151 -2 180 -20z"/>
<path d="M1820 3681 c0 -6 4 -13 10 -16 6 -3 7 1 4 9 -7 18 -14 21 -14 7z"/>
<path d="M1864 3499 c0 -13 3 -15 13 -7 7 6 13 12 13 13 0 2 -6 5 -13 8 -7 3
-13 -3 -13 -14z"/>
<path d="M810 2926 c0 -2 8 -10 18 -17 15 -13 16 -12 3 4 -13 16 -21 21 -21
13z"/>
<path d="M3270 3485 l0 -295 40 0 c37 0 40 2 40 27 l0 26 25 -23 c28 -26 100
-41 160 -33 105 15 134 64 135 221 0 114 -9 143 -60 186 -28 23 -40 26 -109
26 -66 0 -84 -4 -113 -24 l-36 -24 6 104 5 104 -47 0 -46 0 0 -295z m50 190
c0 -64 4 -89 16 -104 16 -19 18 -19 47 -1 20 12 40 17 59 13 19 -4 28 -1 28 7
0 9 4 9 17 -1 13 -11 17 -11 20 -1 3 6 9 12 14 12 6 0 8 -4 5 -8 -2 -4 10 -6
29 -4 26 3 36 -1 45 -18 10 -18 9 -24 -1 -31 -10 -7 -5 -8 13 -5 23 4 27 0 31
-27 6 -37 1 -143 -8 -172 -6 -17 -5 -18 5 -5 10 13 11 12 6 -3 -3 -10 -6 -24
-6 -31 0 -6 -16 -28 -35 -48 -35 -35 -35 -35 -112 -33 -85 2 -108 8 -117 32
-5 13 -4 14 8 4 8 -7 20 -10 25 -7 5 4 12 3 15 -2 8 -14 100 -5 134 12 20 10
32 12 32 6 0 -6 5 -8 10 -5 7 4 7 11 2 18 -5 7 -6 22 -3 35 3 12 5 64 3 115
-3 79 -7 97 -25 118 -20 22 -29 24 -92 23 -104 -3 -150 -16 -141 -40 3 -7 0
-14 -7 -17 -19 -6 -20 -186 -1 -204 8 -8 11 -19 8 -25 -4 -7 -2 -8 4 -4 7 4
12 3 12 -2 0 -14 -26 -33 -33 -25 -4 3 -7 -1 -7 -10 0 -9 -4 -17 -9 -17 -6 0
-10 108 -11 270 0 179 3 270 10 270 6 0 10 -34 10 -85z m244 -157 c12 -17 16
-48 16 -118 0 -121 -7 -132 -86 -138 -117 -8 -146 26 -137 157 8 109 19 121
119 121 64 0 75 -3 88 -22z"/>
<path d="M2380 3525 c0 -212 2 -233 20 -263 38 -63 68 -72 228 -72 l142 0 0
43 0 42 -129 -3 c-183 -4 -171 -22 -171 261 l0 222 -45 0 -45 0 0 -230z m69
-20 c0 -140 4 -221 11 -223 6 -2 8 -8 5 -13 -4 -5 1 -6 9 -3 9 3 16 1 16 -5 0
-6 9 -11 21 -11 11 0 17 -4 14 -10 -4 -7 3 -7 20 0 15 6 62 10 106 10 71 0 80
-2 77 -17 -3 -16 -17 -18 -121 -19 -70 -1 -117 3 -117 8 0 6 -7 7 -16 4 -11
-4 -18 1 -21 14 -3 11 -11 20 -19 20 -25 0 -34 74 -34 272 l0 198 24 -2 24 -2
1 -221z"/>
<path d="M4170 3470 l0 -280 174 0 c163 0 175 1 207 23 68 45 89 143 47 218
-12 21 -31 42 -42 45 -17 6 -18 8 -5 18 49 37 66 134 34 196 -27 53 -56 60
-245 60 l-170 0 0 -280z m337 246 c-1 -6 10 -12 26 -14 15 -2 27 -6 27 -10 1
-4 5 -26 9 -49 6 -30 5 -41 -3 -36 -8 4 -8 3 0 -6 13 -14 6 -64 -7 -55 -5 3
-9 -5 -10 -18 0 -22 -1 -22 -8 -3 -5 11 -5 22 -2 25 10 8 8 109 -2 107 -7 -2
-17 11 -34 42 -1 2 -57 3 -125 2 -102 -1 -125 -4 -135 -18 -20 -26 -16 -145 4
-181 17 -29 17 -31 0 -50 -13 -14 -17 -36 -17 -93 0 -90 18 -125 65 -123 17 1
68 3 114 4 110 4 140 20 142 75 1 22 1 43 0 48 0 4 6 7 14 7 8 0 15 8 14 18 0
10 -3 12 -6 5 -7 -19 -22 -16 -19 4 2 9 -8 27 -20 38 -13 12 -21 25 -18 28 3
3 -2 3 -13 1 -10 -3 -29 0 -43 5 -22 10 -21 10 10 5 33 -6 34 -5 15 10 l-20
16 20 -7 c11 -3 17 -3 13 2 -7 7 14 35 26 35 3 0 6 -12 6 -27 0 -15 11 -39 26
-54 35 -37 46 -92 29 -143 -8 -22 -11 -44 -8 -49 3 -6 1 -7 -5 -3 -7 4 -12 2
-12 -4 0 -7 -7 -9 -16 -6 -8 3 -12 2 -9 -4 12 -19 -41 -27 -187 -29 l-148 -2
0 254 c0 139 3 257 6 260 12 12 303 5 301 -7z m-8 -62 c25 -32 27 -64 6 -104
l-16 -30 -98 0 c-55 0 -106 -3 -115 -6 -14 -5 -16 6 -16 80 l0 86 109 0 c106
0 110 -1 130 -26z m-204 -174 c3 -5 -1 -10 -10 -10 -9 0 -13 5 -10 10 3 6 8
10 10 10 2 0 7 -4 10 -10z m85 -4 c0 -2 -16 -6 -35 -8 -19 -2 -35 0 -35 4 0 4
16 8 35 8 19 0 35 -2 35 -4z m133 -58 c24 -29 23 -102 -3 -128 -18 -18 -33
-20 -135 -20 l-115 0 0 88 0 87 117 -3 c105 -3 120 -5 136 -24z"/>
<path d="M4626 3733 c-6 -14 -5 -15 5 -6 7 7 10 15 7 18 -3 3 -9 -2 -12 -12z"/>
<path d="M5192 3678 l3 -63 -37 3 -38 4 0 -42 0 -42 37 4 36 3 -2 -126 c-4
-190 20 -229 136 -229 l63 0 0 30 c0 17 0 33 0 38 0 4 -18 7 -40 7 -66 0 -74
16 -78 158 l-3 123 61 -4 60 -4 0 42 0 42 -61 -4 -61 -4 4 60 3 61 -43 3 -44
3 4 -63z m50 10 c2 -7 4 -29 4 -50 -1 -20 2 -34 7 -31 4 2 7 -1 7 -6 0 -6 3
-10 8 -10 33 5 92 -3 87 -12 -4 -6 -21 -9 -39 -8 -17 2 -36 0 -43 -4 -6 -4
-13 -1 -16 5 -3 7 -5 4 -5 -7 0 -11 -2 -83 -3 -159 -3 -106 -1 -140 9 -142 7
-1 8 0 2 3 -5 2 -8 9 -5 13 6 10 53 -32 48 -42 -2 -5 4 -7 14 -6 34 3 53 -2
53 -13 0 -7 -19 -9 -52 -7 -43 3 -53 7 -52 21 2 15 -1 16 -15 5 -9 -7 -13 -9
-9 -4 4 5 1 14 -6 21 -7 7 -11 28 -10 47 5 52 4 216 -2 231 -3 8 -22 24 -42
36 -25 15 -30 21 -14 18 12 -3 22 -1 22 4 0 5 8 9 18 9 14 0 17 9 17 50 0 47
8 65 17 38z"/>
<path d="M5274 3240 c0 -13 4 -16 10 -10 7 7 7 13 0 20 -6 6 -10 3 -10 -10z"/>
<path d="M2830 3580 l0 -40 118 0 c104 0 121 -2 136 -19 10 -11 16 -31 14 -48
l-3 -28 -105 -1 c-153 -1 -179 -19 -181 -122 -3 -109 30 -136 160 -131 67 3
94 8 108 22 26 23 36 22 28 -3 -6 -18 -2 -20 40 -20 l47 0 -3 169 c-4 153 -6
172 -25 198 -38 52 -76 63 -211 63 l-123 0 0 -40z m288 -13 c14 -16 14 -20 2
-28 -11 -8 -9 -9 8 -4 17 5 22 2 23 -12 0 -24 0 -251 0 -280 -1 -13 -7 -23
-14 -23 -26 0 -36 42 -20 82 13 33 13 41 -4 80 -17 39 -18 45 -4 61 15 17 23
80 10 71 -8 -5 -21 25 -15 35 6 10 -24 13 -138 14 -73 2 -101 6 -104 15 -3 11
20 13 117 11 103 -3 124 -6 139 -22z m-178 -151 c0 -2 -7 -6 -15 -10 -8 -3
-15 -1 -15 4 0 6 7 10 15 10 8 0 15 -2 15 -4z m98 -3 c-10 -2 -28 -2 -40 0
-13 2 -5 4 17 4 22 1 32 -1 23 -4z m-162 -25 c-4 7 -1 12 8 12 10 0 13 -6 10
-15 -4 -8 -11 -15 -18 -15 -19 0 -19 -70 0 -91 9 -10 14 -22 11 -26 -3 -5 -1
-15 5 -23 8 -12 9 -11 4 3 -5 15 -2 17 17 10 25 -9 86 -10 137 -2 19 4 27 4
17 2 -9 -2 -14 -9 -11 -15 4 -7 2 -8 -5 -4 -6 4 -18 3 -25 -3 -16 -13 -96 -12
-96 2 0 5 -6 4 -14 -2 -19 -16 -76 12 -77 37 -2 31 2 87 7 115 5 24 8 26 22
15 12 -10 14 -10 8 0z m224 -46 c0 -57 -26 -76 -111 -80 -83 -5 -99 5 -99 59
0 51 16 58 123 59 l87 0 0 -38z"/>
<path d="M3784 3601 c-51 -31 -72 -131 -38 -179 27 -39 66 -52 162 -52 98 0
102 -3 102 -60 0 -45 -26 -53 -161 -49 l-119 4 0 -37 0 -38 141 0 c84 0 149 5
162 11 43 22 57 50 57 117 0 57 -3 67 -29 93 -28 28 -33 29 -124 29 -106 0
-120 8 -115 62 l3 33 123 3 122 3 0 39 0 40 -127 0 c-108 0 -133 -3 -159 -19z
m220 -12 c-4 -8 0 -9 15 -4 15 4 19 3 16 -7 -4 -9 -27 -13 -83 -12 -127 3
-160 -11 -153 -65 2 -7 -3 -10 -9 -6 -6 4 -5 -8 4 -30 15 -36 15 -36 -7 -33
-19 3 -22 10 -25 55 -3 44 0 53 17 63 12 6 21 16 21 22 0 6 -7 5 -17 -3 -16
-12 -17 -12 -6 2 10 12 36 16 115 18 56 1 104 4 107 7 9 8 12 4 5 -7z m-77
-170 c37 -1 74 -6 81 -11 6 -6 12 -7 12 -2 0 4 7 -1 16 -12 8 -10 12 -13 8 -5
-5 9 -3 12 5 7 6 -4 9 -12 6 -17 -4 -5 -2 -9 3 -9 6 0 10 -25 10 -55 -1 -30
-5 -55 -9 -55 -5 0 -9 -8 -10 -17 0 -12 -2 -13 -6 -5 -4 10 -8 8 -18 -5 -11
-15 -30 -18 -126 -20 -115 -1 -139 2 -139 19 0 6 40 9 103 7 56 -1 114 1 129
5 35 10 64 67 48 96 -6 11 -7 20 -3 20 4 0 -3 6 -17 13 -14 8 -24 18 -23 24 1
7 -23 9 -70 6 -85 -5 -148 4 -126 18 8 5 24 7 36 4 12 -3 53 -6 90 -6z"/>
<path d="M4752 3600 c-60 -36 -72 -71 -72 -199 0 -128 14 -167 73 -198 44 -23
211 -22 256 2 58 29 71 65 71 195 0 185 -32 220 -200 220 -77 0 -101 -4 -128
-20z m147 -12 c86 0 86 0 117 -34 25 -28 33 -47 37 -92 3 -31 5 -68 3 -82 -2
-14 -4 -40 -5 -58 0 -18 -5 -31 -10 -28 -5 4 -7 -3 -4 -14 3 -12 -1 -22 -11
-26 -9 -3 -14 -10 -11 -15 11 -16 -32 -26 -130 -28 -88 -2 -103 0 -124 18 -13
12 -20 25 -15 32 4 7 3 9 -3 6 -6 -4 -17 1 -24 9 -15 19 -23 212 -9 229 5 5
10 15 12 20 1 6 8 9 14 9 6 -1 9 7 7 16 -5 19 43 51 61 42 5 -3 48 -5 95 -4z"/>
<path d="M4795 3554 c-22 -7 -36 -13 -31 -13 6 -1 2 -7 -9 -14 -15 -12 -18
-28 -17 -103 1 -144 1 -144 20 -151 9 -3 25 -13 34 -21 19 -16 110 -21 147 -8
18 6 22 5 17 -5 -4 -8 -1 -6 7 3 8 10 17 14 21 10 11 -10 36 27 29 44 -3 8 1
14 8 14 9 0 10 3 4 8 -5 4 -11 50 -12 102 -2 131 -2 133 -18 126 -8 -3 -17 -1
-20 4 -3 4 0 10 6 12 31 10 -152 3 -186 -8z m179 -30 c23 -23 23 -226 0 -245
-18 -14 -111 -24 -148 -15 -49 12 -56 30 -56 138 0 132 5 138 111 138 57 0 82
-4 93 -16z"/>
<path d="M3670 3235 c-7 -9 -11 -17 -9 -20 3 -2 10 5 17 15 14 24 10 26 -8 5z"/>
<path d="M2399 2990 c-40 -60 -44 -70 -28 -70 11 0 22 7 25 15 7 19 85 21 82
3 -2 -6 4 -13 14 -15 14 -4 15 1 7 34 -29 124 -38 127 -100 33z m71 -12 c0 -4
-11 -8 -25 -8 -29 0 -30 3 -12 30 11 19 13 19 25 3 6 -9 12 -20 12 -25z"/>
<path d="M2540 3008 c-6 -29 -14 -61 -17 -70 -3 -13 1 -18 15 -18 15 0 21 9
25 45 4 25 9 56 13 70 5 18 2 25 -9 25 -10 0 -19 -18 -27 -52z"/>
<path d="M2669 3041 c-19 -16 -22 -23 -13 -38 6 -9 22 -20 35 -23 13 -3 26
-14 27 -24 4 -17 -1 -18 -42 -13 -25 4 -46 3 -46 -2 0 -24 81 -28 104 -5 31
31 20 47 -48 68 -31 10 1 39 36 32 30 -6 48 8 22 18 -28 11 -51 6 -75 -13z"/>
<path d="M2796 3039 c-20 -15 -26 -29 -26 -58 0 -44 14 -61 51 -61 41 0 58 9
74 41 20 38 19 55 -5 79 -26 26 -60 25 -94 -1z m78 -14 c12 -12 13 -22 4 -45
-18 -52 -88 -54 -88 -4 0 52 51 82 84 49z"/>
<path d="M2947 3053 c-3 -5 -8 -28 -12 -53 -3 -25 -9 -53 -11 -62 -5 -16 2
-18 45 -18 28 0 51 5 51 10 0 6 -16 10 -36 10 -32 0 -36 2 -31 23 16 64 19 97
9 97 -6 0 -13 -3 -15 -7z"/>
<path d="M3057 3053 c-13 -23 -17 -106 -6 -119 13 -16 52 -18 79 -4 28 15 61
130 37 130 -7 0 -19 -24 -27 -57 -14 -52 -18 -58 -44 -61 l-29 -4 6 61 c4 35
3 61 -3 61 -5 0 -11 -3 -13 -7z"/>
<path d="M3195 3050 c-3 -5 4 -10 16 -10 20 0 21 -3 14 -46 -3 -26 -9 -53 -12
-60 -3 -8 1 -14 10 -14 10 0 17 14 22 43 11 70 15 78 37 75 12 -2 23 3 25 10
6 15 -103 17 -112 2z"/>
<path d="M3325 3048 c-4 -15 -25 -116 -25 -124 0 -3 5 -4 12 -2 6 2 17 29 24
59 16 67 17 79 4 79 -6 0 -12 -6 -15 -12z"/>
<path d="M3404 3052 c-20 -14 -44 -56 -44 -78 0 -44 63 -69 110 -44 16 8 40
58 40 81 0 33 -75 62 -106 41z m70 -28 c19 -19 19 -17 4 -49 -12 -26 -47 -41
-72 -32 -23 9 -25 45 -4 72 22 29 49 32 72 9z"/>
<path d="M3546 3048 c-3 -7 -7 -27 -10 -44 -3 -18 -8 -43 -12 -58 -5 -20 -2
-26 10 -26 11 0 16 9 16 33 0 58 15 63 41 16 13 -23 29 -44 35 -46 6 -2 16 19
22 49 6 29 14 61 17 71 5 11 2 17 -8 17 -18 0 -27 -21 -27 -66 0 -47 -13 -42
-40 16 -23 50 -37 61 -44 38z"/>
<path d="M3700 3040 c-30 -30 -21 -48 33 -64 9 -3 17 -13 17 -22 0 -14 -7 -16
-45 -11 -25 4 -45 3 -45 -2 0 -24 91 -29 110 -6 12 15 5 55 -10 55 -5 0 -21 5
-35 10 -23 9 -25 13 -14 26 9 11 22 14 47 9 26 -5 33 -3 30 7 -8 23 -64 22
-88 -2z"/>
<path d="M3887 3049 c-13 -8 -17 -18 -13 -35 4 -13 2 -24 -3 -24 -19 0 -33
-40 -21 -56 17 -19 113 -16 105 4 -3 8 0 21 6 29 7 7 9 17 5 20 -4 4 -11 1
-16 -7 -7 -11 -12 -12 -21 -3 -9 9 -8 16 5 29 35 34 -3 69 -47 43z m43 -19 c0
-12 -28 -25 -36 -17 -9 9 6 27 22 27 8 0 14 -5 14 -10z m-22 -62 c19 -19 14
-28 -13 -28 -24 0 -34 18 -18 33 9 10 17 9 31 -5z"/>
<path d="M4063 2993 c-24 -39 -37 -70 -31 -72 6 -2 15 4 20 13 12 21 76 22 84
1 4 -8 13 -15 20 -15 11 0 12 4 4 19 -5 11 -15 42 -21 70 -6 28 -16 51 -22 51
-7 0 -31 -30 -54 -67z m57 23 c0 -8 3 -21 6 -30 5 -12 0 -16 -20 -16 -30 0
-30 0 -14 35 12 27 28 33 28 11z"/>
<path d="M4193 3012 c-13 -65 0 -92 42 -92 40 0 61 23 74 80 14 58 13 62 -1
58 -7 -3 -17 -26 -23 -53 -11 -51 -31 -72 -60 -61 -14 5 -16 14 -11 45 3 22 9
46 12 55 4 10 1 16 -9 16 -9 0 -18 -17 -24 -48z"/>
<path d="M4330 3050 c0 -5 11 -10 25 -10 27 0 28 -10 4 -84 -11 -37 -12 -36 5
-36 8 0 17 13 20 30 3 17 9 44 12 60 4 24 10 30 26 28 12 -2 23 3 25 10 4 9
-12 12 -56 12 -34 0 -61 -4 -61 -10z"/>
<path d="M4469 3031 c-50 -50 -29 -111 38 -111 65 0 106 77 64 119 -30 30 -67
27 -102 -8z m85 -7 c21 -21 20 -36 -5 -63 -30 -32 -73 -26 -77 12 -6 53 48 86
82 51z"/>
<path d="M4624 3033 c-3 -16 -10 -45 -16 -67 -10 -40 -7 -52 11 -41 6 3 11 21
11 40 0 49 15 51 30 4 l14 -41 33 39 34 38 -6 -42 c-4 -27 -3 -43 4 -43 5 0
13 17 16 38 3 20 10 52 14 70 12 44 -1 40 -45 -13 -20 -25 -40 -42 -44 -38 -4
4 -13 25 -20 46 -14 44 -27 48 -36 10z"/>
<path d="M4812 2993 c-42 -66 -48 -91 -14 -60 24 22 71 22 88 0 7 -10 15 -15
19 -12 9 10 -27 139 -40 139 -5 0 -29 -30 -53 -67z m60 7 c4 -26 1 -30 -19
-30 -27 0 -27 1 -11 35 15 33 25 32 30 -5z"/>
<path d="M4925 3050 c-7 -11 0 -13 28 -11 20 3 22 -17 6 -72 -10 -36 -7 -58 7
-44 3 3 11 29 18 59 10 47 15 53 39 56 15 2 27 8 27 13 0 12 -117 12 -125 -1z"/>
<path d="M5065 3048 c-12 -41 -26 -120 -22 -125 13 -12 25 10 31 57 4 28 9 57
12 65 4 8 1 15 -5 15 -7 0 -13 -6 -16 -12z"/>
<path d="M5150 3053 c-24 -9 -50 -46 -50 -74 0 -48 60 -75 109 -49 29 15 45
64 30 92 -19 37 -47 46 -89 31z m58 -25 c17 -17 15 -54 -4 -72 -21 -22 -61
-20 -74 3 -14 28 -13 38 10 61 23 23 50 26 68 8z"/>
<path d="M5286 3049 c-12 -36 -26 -123 -21 -128 10 -10 25 23 25 57 0 45 16
40 42 -13 12 -25 27 -45 33 -45 7 0 18 32 27 70 11 53 12 70 2 70 -13 0 -24
-31 -24 -72 0 -39 -12 -35 -34 12 -23 49 -44 68 -50 49z"/>
<path d="M3999 3023 c-13 -16 -12 -17 4 -4 16 13 21 21 13 21 -2 0 -10 -8 -17
-17z"/>
<path d="M4086 2888 c3 -5 10 -6 15 -3 13 9 11 12 -6 12 -8 0 -12 -4 -9 -9z"/>
<path d="M4726 2892 c-3 -5 1 -9 9 -9 8 0 12 4 9 9 -3 4 -7 8 -9 8 -2 0 -6 -4
-9 -8z"/>
</g>
</svg>
