<?xml version="1.0" encoding="UTF-8" standalone="no"?>
<!-- Created with Inkscape (http://www.inkscape.org/) -->

<svg
   version="1.1"
   id="svg1"
   width="1461.8663"
   height="1443.0919"
   viewBox="0 0 1461.8663 1443.0919"
   sodipodi:docname="maps-eu.svg"
   inkscape:version="1.4.2 (f4327f4, 2025-05-13)"
   xmlns:inkscape="http://www.inkscape.org/namespaces/inkscape"
   xmlns:sodipodi="http://sodipodi.sourceforge.net/DTD/sodipodi-0.dtd"
   xmlns="http://www.w3.org/2000/svg"
   xmlns:svg="http://www.w3.org/2000/svg">
  <defs
     id="defs1" />
  <sodipodi:namedview
     id="namedview1"
     pagecolor="#ffffff"
     bordercolor="#000000"
     borderopacity="0.25"
     inkscape:showpageshadow="2"
     inkscape:pageopacity="0.0"
     inkscape:pagecheckerboard="0"
     inkscape:deskcolor="#d1d1d1"
     inkscape:zoom="0.52143314"
     inkscape:cx="782.4589"
     inkscape:cy="762.32209"
     inkscape:window-width="1920"
     inkscape:window-height="1017"
     inkscape:window-x="-8"
     inkscape:window-y="-8"
     inkscape:window-maximized="1"
     inkscape:current-layer="g1" />
  <g
     inkscape:groupmode="layer"
     inkscape:label="Image"
     id="g1"
     transform="translate(-62.954876,-33.668522)">
    <path
       style="fill:#000000"
       d="m 1128.1872,1527.7605 c -1.0267,-1.0815 -2.6498,-2.9341 -3.6069,-4.1167 -1.3308,-1.6444 -2.86,-2.1578 -6.5,-2.1821 -2.6179,-0.017 -5.6333,-0.6925 -6.7009,-1.5 -1.226,-0.9273 -4.2438,-1.4682 -8.191,-1.4682 -3.4374,0 -6.528,-0.45 -6.8679,-1 -0.3399,-0.55 -1.7461,-1 -3.1247,-1 -5.3991,0 -7.9,-3.0101 -6.4158,-7.7218 0.4814,-1.528 1.1366,-3.9785 1.4562,-5.4456 0.351,-1.6119 1.9993,-3.544 4.1651,-4.8826 l 3.5842,-2.2151 2.9326,3.2108 c 1.613,1.766 3.2634,3.0487 3.6675,2.8505 0.4042,-0.1982 2.0074,-0.9966 3.5626,-1.7742 3.5504,-1.7752 5.7758,-0.5614 6.8959,3.7611 0.4445,1.7151 1.3604,3.4597 2.0354,3.8769 0.675,0.4172 6.6303,0.7769 13.2341,0.7993 6.6038,0.022 12.6527,0.4562 13.442,0.9641 0.7893,0.5079 6.1893,0.8144 12,0.6811 l 10.5649,-0.2422 2.9371,3.0688 c 3.4213,3.5748 5.7619,3.8441 9.29,1.0689 2.7162,-2.1365 8.2729,-2.7341 8.2729,-0.8897 0,2.2679 -6.4453,10.9604 -8.4364,11.3777 -3.7809,0.7925 -26.5741,3.2726 -37.6969,4.1018 -7.7677,0.5791 -8.8204,0.4465 -10.5,-1.3228 z"
       id="path1" />
    <path
       style="fill:#000000"
       d="m 435.24094,592.3645 c -1.2972,-2.0989 13.44872,-13.33535 15.20091,-11.58316 0.89013,0.89013 -2.49073,7.25073 -5.12121,9.63485 -2.31092,2.09448 -9.16998,3.42028 -10.0797,1.94831 z"
       id="path51" />
    <path
       style="fill:#000000"
       d="m 979.1627,613.94258 c -0.3369,-0.87794 0.3276,-2.53306 1.5314,-3.81445 2.5704,-2.73607 2.6528,-4.69396 0.4553,-10.82512 -1.4172,-3.95416 -1.4901,-5.32769 -0.4648,-8.75 0.669,-2.23275 1.6087,-4.05955 2.0884,-4.05955 0.4796,0 2.9465,-2.90706 5.4819,-6.46014 4.5433,-6.36681 6.6454,-7.38046 7.9977,-3.85647 0.4042,1.05336 1.3421,1.33914 3.016,0.91901 3.6062,-0.90509 3.8712,0.69218 1.0073,6.0718 -2.1276,3.99642 -2.4593,5.62774 -1.9299,9.49188 l 0.6392,4.66608 -8.802,9.08392 c -4.8412,4.99616 -9.1673,9.08392 -9.6137,9.08392 -0.4464,0 -1.0795,-0.69789 -1.4068,-1.55088 z"
       id="path50" />
    <path
       style="fill:#000000"
       d="m 359.91335,644.94245 c -2.424,-1.347 -5.92943,-2.449 -7.78983,-2.449 -1.86041,0 -5.1467,-0.9 -7.30288,-2 -5.20606,-2.6559 -6.64369,-2.5422 -13.27573,1.0498 -5.4922,2.9747 -5.70956,3.0092 -8.82442,1.3984 -3.04789,-1.5761 -3.37073,-1.5518 -7.07923,0.5325 -3.429,1.9272 -4.79274,2.1065 -11.60316,1.5254 -8.82782,-0.7531 -13.9494,-2.088 -16.47435,-4.2937 -0.96628,-0.8442 -2.76628,-2.0352 -4,-2.6468 -1.41345,-0.7007 -2.36421,-2.213 -2.57051,-4.0888 -0.18007,-1.6372 -1.47371,-4.185 -2.87474,-5.6617 -1.9332,-2.0376 -2.39111,-3.3074 -1.89933,-5.2668 0.4674,-1.8623 0.0719,-3.2003 -1.41896,-4.80059 -1.22312,-1.31286 -1.94707,-3.24521 -1.77327,-4.73317 0.25957,-2.22232 0.86294,-2.57263 5.19218,-3.01453 7.35234,-0.75047 9.13057,-5.70776 2.8975,-8.07757 -3.40144,-1.29322 -4.51602,-2.95236 -3.11633,-4.63889 1.49178,-1.79749 3.14427,-1.60318 6.09322,0.71646 1.39842,1.1 2.93732,2 3.41977,2 0.48245,0 3.11147,-2.24021 5.84227,-4.97824 3.46756,-3.47676 5.77672,-4.98481 7.65607,-5 1.48004,-0.012 2.9691,-0.47176 3.30902,-1.02176 0.33992,-0.55 1.87173,-1 3.40403,-1 2.68084,0 6.09597,-2.59983 6.09597,-4.64068 0,-0.54076 1.3556,-1.98544 3.01246,-3.21041 3.29493,-2.43605 3.50625,-5.77306 0.55261,-8.7267 -0.86079,-0.86078 -1.56507,-2.82866 -1.56507,-4.37305 0,-1.92237 -1.26158,-4.10796 -4,-6.92972 -2.2,-2.26695 -4,-4.77331 -4,-5.56969 0,-0.79638 1.54958,-2.62989 3.44352,-4.07447 l 3.44353,-2.6265 5.80647,4.05103 c 3.19356,2.22806 8.50648,6.07896 11.80648,8.55754 6.61303,4.96695 8.36846,6.00753 9.02574,5.35025 0.40371,-0.40372 -0.69946,-4.36756 -2.59038,-9.3076 -0.42105,-1.1 -1.47545,-4.25 -2.3431,-7 -0.86765,-2.75 -2.69264,-8.35417 -4.05554,-12.45371 -2.29669,-6.90835 -2.35905,-7.58513 -0.85237,-9.25 2.46971,-2.72899 4.52826,-2.19254 8.8627,2.3096 7.68898,7.98646 13.70396,10.45702 18.76869,7.70896 1.20134,-0.65183 3.75926,-1.44697 5.68426,-1.76696 3.76597,-0.62603 4.6581,-2.76146 1.75,-4.1889 -0.9625,-0.47244 -2.5375,-1.24553 -3.5,-1.71797 -2.55386,-1.25356 -2.13837,-3.54218 0.75,-4.1312 2.50788,-0.51142 4.90627,-2.37311 11.80002,-9.15942 4.57174,-4.50048 5.3153,-4.65364 12.35389,-2.54456 3.10965,0.93179 8.18179,1.69416 11.27143,1.69416 5.01001,0 5.73978,0.26829 6.74785,2.48078 0.62168,1.36443 1.90268,2.72592 2.84668,3.02553 0.944,0.29961 2.52045,1.43326 3.50323,2.51922 0.98278,1.08596 2.9376,1.97447 4.34403,1.97447 1.6585,0 4.06406,1.47891 6.84502,4.20821 4.0514,3.97615 4.28785,4.52084 4.28785,9.87756 0,3.81946 0.48944,6.07554 1.5,6.91423 2.24023,1.85923 1.78552,5.1963 -1.07835,7.91374 l -2.54379,2.41374 2.81107,2.2455 2.81107,2.24551 -2.29578,3.11218 c -1.26267,1.7117 -2.04872,3.51193 -1.74675,4.00051 1.14122,1.84655 -0.86996,4.24415 -5.54902,6.61521 -2.66308,1.34949 -5.79845,2.45361 -6.96748,2.45361 -1.16903,0 -3.26968,0.9 -4.6681,2 -1.39842,1.1 -3.59107,2 -4.87255,2 -3.18321,0 -4.40032,2.75646 -4.40032,9.96565 0,4.49717 -0.39362,6.24817 -1.5,6.67273 -0.825,0.31658 -1.5,1.44521 -1.5,2.50806 0,1.06286 -1.575,4.2712 -3.5,7.12966 -2.34124,3.47654 -3.5,6.35446 -3.5,8.69266 0,3.08413 -1.13957,4.63933 -9.68428,13.21623 -5.79857,5.8204 -10.11188,11.0437 -10.75,13.0179 -1.3639,4.2196 -4.45892,4.5879 -10.47301,1.2461 z"
       id="path49" />
    <path
       style="fill:#000000"
       d="m 892.5706,685.19075 c -2.3129,-0.6476 -3.75,-1.657 -3.75,-2.6339 0,-1.4241 4.4184,-7.0634 5.5342,-7.0634 0.2493,0 1.8303,1.9009 3.5133,4.2242 2.8468,3.9299 2.9384,4.313 1.3151,5.5 -0.9596,0.7017 -1.9963,1.2189 -2.3037,1.1494 -0.3074,-0.07 -2.2464,-0.5988 -4.3089,-1.1763 z"
       id="path48" />
    <path
       style="fill:#000000"
       d="m 497.18445,770.12305 c -1.09396,-0.6213 -3.54575,-2.3423 -5.44843,-3.8244 -2.28126,-1.777 -4.64389,-2.6828 -6.9374,-2.6596 -8.62322,0.087 -18.92362,-4.2344 -20.61819,-8.6504 -0.36187,-0.943 -2.09379,-1.1483 -6.396,-0.7582 -4.44112,0.4027 -6.509,0.1358 -8.36395,-1.0796 -2.3569,-1.5443 -2.54598,-1.5023 -4.34258,0.964 -1.4212,1.951 -2.75982,2.5786 -5.49981,2.5786 -6.64404,0 -10.09319,-1.822 -12.77963,-6.7507 -2.64157,-4.8464 -8.04855,-8.6981 -13.72989,-9.7805 -2.9166,-0.5557 -3.69026,-0.1485 -7.5,3.9473 -2.33636,2.5119 -4.6542,5.4258 -5.15075,6.4755 -1.26516,2.6744 -2.76665,2.3877 -6.16009,-1.1762 -4.21226,-4.4239 -11.1626,-8.9154 -13.79609,-8.9154 -1.24231,0 -3.13225,-0.6607 -4.19987,-1.4682 -1.06762,-0.8075 -3.79801,-1.4825 -6.06753,-1.5 -3.46849,-0.027 -4.81054,0.6125 -8.41726,4.0093 -2.35996,2.2226 -4.97287,3.9098 -5.80646,3.7493 -2.00528,-0.3862 -9.11921,-10.7067 -8.49729,-12.3274 0.57262,-1.4923 3.62219,-2.4303 7.96255,-2.4493 1.71333,-0.01 4.25931,-0.9137 5.65773,-2.0137 1.39842,-1.1 3.3122,-2 4.25284,-2 0.94064,0 3.24782,-1.35 5.12707,-3 1.87925,-1.65 4.42677,-3 5.66117,-3 1.2344,0 3.89697,-1.6052 5.91683,-3.567 11.17001,-10.8495 19.48219,-13.5866 25.91777,-8.5345 1.2933,1.0153 4.37645,2.1807 6.85145,2.5899 2.475,0.4091 5.19925,1.1102 6.05388,1.558 0.85464,0.4477 2.20464,0.4002 3,-0.1057 1.16767,-0.7426 0.72405,-1.6078 -2.30388,-4.4932 -2.0625,-1.9654 -3.75,-4.1359 -3.75,-4.8234 0,-2.6277 -5.63314,-6.7142 -9.60425,-6.9673 -3.53939,-0.2257 -3.9052,-0.5115 -3.99903,-3.1246 -0.14738,-4.1042 -3.5922,-6.5322 -9.26772,-6.5322 -6.42277,0 -9.67608,-3.0714 -10.6345,-10.04 -0.46039,-3.3474 -0.31964,-5.5349 0.4026,-6.2571 1.73788,-1.7379 10.04381,-3.6102 16.23045,-3.6588 3.7382,-0.029 6.04551,-0.5477 6.87245,-1.5441 0.68469,-0.825 2.71335,-1.5 4.50814,-1.5 4.34402,0 7.29963,-1.6621 11.7737,-6.6212 5.71846,-6.3383 4.4668,-10.69 -3.11143,-10.8176 -4.54925,-0.077 -5.77267,-0.8403 -6.59515,-4.1174 -0.51909,-2.0682 3.6e-4,-3.188 2.63922,-5.6893 2.57124,-2.4373 5.08727,-3.5027 11.57315,-4.9006 4.55819,-0.9825 8.97784,-2.4765 9.82143,-3.3201 0.84359,-0.8436 1.85153,-1.5338 2.23986,-1.5338 1.15953,0 5.41635,3.0766 9.17384,6.6304 l 3.52276,3.3317 3.74724,-1.6984 c 2.89138,-1.3106 3.9701,-2.5262 4.72302,-5.3223 0.53668,-1.9931 1.87768,-4.44 2.98,-5.4376 1.10232,-0.9976 2.01853,-2.9815 2.03602,-4.4088 0.0175,-1.42723 0.71257,-3.49499 1.54461,-4.59499 1.91611,-2.53317 1.0075,-8.79119 -1.83451,-12.63522 -1.10687,-1.49712 -1.78664,-3.5857 -1.5106,-4.64128 0.27604,-1.05559 -0.0971,-3.0002 -0.82927,-4.32137 -2.35531,-4.25023 -1.61095,-6.258 4.59797,-12.40213 8.37313,-8.28576 7.91879,-12.05002 -0.91074,-7.54554 l -3.83106,1.95447 -3.30921,-2.95447 c -3.66298,-3.27031 -5.71656,-3.72373 -6.58736,-1.45446 -0.69605,1.81386 -4.27521,2.00038 -4.79708,0.25 -1.52119,-5.10217 -1.29203,-4.94229 -4.61842,-3.22214 -4.48558,2.31958 -6.1257,0.6261 -5.7428,-5.92967 0.24348,-4.16874 0.65526,-5.14303 2.29667,-5.43405 2.70138,-0.47894 8.5,-6.13581 8.5,-8.29221 0,-0.95466 1.35679,-2.70186 3.01509,-3.88267 4.47071,-3.18343 6.37884,-7.42047 5.05368,-11.22182 -0.58782,-1.68623 -1.06877,-4.81286 -1.06877,-6.94805 0,-6.99086 -4.65899,-6.43148 -8.84742,1.06227 -3.54097,6.33535 -6.68498,7.8577 -14.90258,7.21596 -0.6875,-0.0537 -1.25,-0.75488 -1.25,-1.55819 0,-0.80332 0.5625,-1.91267 1.25,-2.46522 0.6875,-0.55256 2.825,-2.31656 4.75,-3.92001 1.925,-1.60345 4.4,-3.09257 5.5,-3.30915 1.51833,-0.29895 2.0211,-1.23083 2.08763,-3.86942 0.29389,-11.65704 0.35206,-11.90646 3.41237,-14.63321 1.65,-1.47016 3,-3.26326 3,-3.98466 0,-0.72141 1.08721,-2.02402 2.41603,-2.8947 3.75618,-2.46114 3.88428,-4.29607 0.59025,-8.45512 -1.65345,-2.08766 -3.00628,-4.87849 -3.00628,-6.20184 0,-1.32335 -0.50975,-2.91585 -1.13278,-3.53888 -1.33288,-1.33288 -0.34277,-4.67916 1.11746,-3.77668 0.54935,0.33951 4.16408,-2.10697 8.03274,-5.43662 3.86866,-3.32965 7.47238,-6.05392 8.00826,-6.05392 0.53587,0 0.97432,-0.8449 0.97432,-1.87755 0,-1.03266 0.675,-2.43776 1.5,-3.12245 1.77903,-1.47646 1.93654,-4.32812 0.37699,-6.82536 -0.87105,-1.39476 -0.74344,-2.45744 0.56875,-4.73643 0.93047,-1.61601 2.70195,-4.73523 3.93664,-6.93159 1.85404,-3.29811 2.92399,-4.10376 6.14551,-4.62741 2.41266,-0.39216 4.48647,-1.48685 5.43637,-2.86966 2.711,-3.94651 7.24926,-7.84632 9.90716,-8.51341 1.42128,-0.35672 4.73015,-2.65591 7.35304,-5.10932 4.30898,-4.03055 4.97384,-4.33663 6.89408,-3.17378 1.16885,0.70783 2.99444,1.79047 4.05686,2.40587 1.06242,0.6154 2.85235,2.10713 3.97761,3.31496 1.86927,2.00643 2.19527,2.06092 3.77521,0.6311 2.11858,-1.9173 4.45928,-2.0079 5.93502,-0.22975 0.60947,0.73437 3.02707,1.90035 5.37245,2.59106 8.12832,2.39381 12.76431,4.93682 12.76431,7.00171 0,1.07469 -0.45682,2.23631 -1.01515,2.58138 -0.55834,0.34507 -1.6493,2.14511 -2.42436,4.0001 -1.49429,3.57634 -5.67407,6.25599 -13.32237,8.54096 -2.34403,0.7003 -4.76163,1.87543 -5.37244,2.61142 -0.61081,0.73598 -1.69983,1.33815 -2.42003,1.33815 -0.72021,0 -2.27075,1.35 -3.44565,3 -1.1749,1.65 -2.97899,3 -4.00908,3 -2.49199,0 -3.45164,1.73994 -1.95457,3.54381 0.76232,0.91853 3.04897,1.45619 6.19313,1.45619 5.81708,0 16.0385,4.42183 20.47365,8.85698 1.5411,1.5411 3.96523,3.09395 5.38695,3.45078 3.20447,0.80427 7.90992,4.41439 7.90992,6.06866 0,0.67719 -1.575,2.7578 -3.5,4.62358 -1.925,1.86579 -3.5,4.05925 -3.5,4.87437 0,0.81512 -3.375,4.95016 -7.5,9.189 -4.125,4.23883 -7.5,8.42208 -7.5,9.29612 0,0.87403 -1.36951,2.29735 -3.04336,3.16293 -1.67384,0.86558 -3.54607,2.67714 -4.16051,4.02568 -0.67908,1.49041 -1.95614,2.4519 -3.25665,2.4519 -3.57795,0 -4.55319,1.81403 -2.70578,5.03297 0.89581,1.56085 1.26423,3.20447 0.81871,3.65248 -0.44551,0.448 -4.67654,1.03955 -9.40227,1.31455 -5.06609,0.29481 -8.74453,0.96225 -8.96332,1.62637 -0.20409,0.61951 1.11039,2.07164 2.92106,3.22698 1.81066,1.15533 4.19212,2.67346 5.29212,3.37362 1.1,0.70017 4.25,3.11057 7,5.35645 2.75,2.24588 5.87593,4.56326 6.94652,5.14973 2.09961,1.15018 5.44344,9.44205 6.2603,15.52401 0.29545,2.19984 -0.12832,5.33901 -1.0224,7.57353 -0.83986,2.09902 -1.84651,8.7333 -2.237,14.74285 -0.39457,6.07235 -1.34499,12.17823 -2.13938,13.74415 -1.8648,3.67595 -1.33387,7.06154 1.18271,7.54179 2.97774,0.56825 10.61842,9.14306 11.70901,13.14051 0.52518,1.925 1.37379,6.1605 1.88579,9.4122 0.78581,4.9905 0.67108,6.1992 -0.73598,7.754 -1.36932,1.5131 -1.46005,2.2959 -0.50824,4.3849 0.63727,1.3987 1.15867,4.9865 1.15867,7.9729 0,4.6884 -0.34139,5.6536 -2.5,7.068 -2.8199,1.8476 -3.12401,3.9989 -0.9682,6.8491 0.80751,1.0677 1.4682,3.2347 1.4682,4.8158 0,1.581 0.44838,3.7124 0.99641,4.7364 0.77559,1.4492 0.44383,2.5185 -1.49706,4.8251 -1.3714,1.6298 -3.54263,3.2266 -4.82496,3.5485 -3.02164,0.7584 -5.24807,5.199 -3.03286,6.049 2.00877,0.7709 1.73427,0.8601 4.35847,-1.4159 2.72071,-2.3597 8.22808,-2.635 10,-0.5 0.68469,0.825 2.06323,1.5 3.06343,1.5 1.00019,0 2.12503,0.4959 2.49963,1.102 0.3746,0.6062 2.1786,1.7278 4.00889,2.4925 3.66618,1.5318 7.35634,8.1962 7.87468,14.2215 0.1569,1.8237 0.79559,3.8262 1.41932,4.45 1.95641,1.9564 1.24602,4.7689 -1.86595,7.3875 -1.65,1.3883 -3,3.2906 -3,4.2272 0,2.9903 -8.08894,9.9482 -11.9772,10.3025 -2.5327,0.2308 -3.81355,0.9959 -4.71552,2.8168 -0.85664,1.7294 -2.5589,2.8214 -5.5228,3.5426 -4.10684,0.9993 -4.29706,1.2135 -4.58786,5.1656 -0.26119,3.5498 0.0142,4.2239 1.98066,4.8481 3.42292,1.0864 7.82272,4.6226 7.82272,6.2874 0,1.4399 -3.42353,6.437 -6.5563,9.5697 -0.87261,0.8727 -2.53148,1.5866 -3.68639,1.5866 -1.15491,0 -2.81026,0.6413 -3.67857,1.4251 -1.00627,0.9084 -4.29836,1.5147 -9.07874,1.6721 -4.125,0.1359 -8.35023,0.669 -9.38939,1.1847 -3.98691,1.9786 -7.28851,2.4599 -9.2468,1.3477 z"
       id="path47" />
    <path
       style="fill:#000000"
       d="m 408.53321,796.87275 c -1.18956,-1.1896 -0.79932,-4.0624 0.72351,-5.3262 2.1391,-1.7753 5.77748,0.4347 5.3746,3.2646 -0.31174,2.1897 -4.54035,3.6193 -6.09811,2.0616 z"
       id="path46" />
    <path
       style="fill:#000000"
       d="m 414.48731,815.82675 c -0.36667,-0.3666 -0.66667,-1.9513 -0.66667,-3.5214 0,-2.0547 0.68273,-3.1658 2.43623,-3.9648 3.26026,-1.4855 5.56377,-0.4477 5.56377,2.5065 0,3.2608 -5.39131,6.9218 -7.33333,4.9797 z"
       id="path45" />
    <path
       style="fill:#000000"
       d="m 477.50722,1230.9088 c -6.445,-6.1657 -7.92135,-9.172 -4.98448,-10.1498 0.66116,-0.2201 1.99867,0.5301 2.97224,1.6671 1.08353,1.2655 2.97391,2.0674 4.87359,2.0674 4.25548,0 7.95382,3.9982 7.62995,8.2485 -0.21051,2.7627 -1.56075,4.7609 -3.17788,4.7029 -0.275,-0.01 -3.56604,-2.9511 -7.31342,-6.5361 z"
       id="path44" />
    <path
       style="fill:#000000"
       d="m 383.37385,1245.9343 c -2.2742,-3.4708 -1.61885,-6.6518 1.69679,-8.236 1.5125,-0.7227 2.75,-1.7394 2.75,-2.2594 0,-1.3655 5.38139,-1.164 6.8,0.2546 0.66,0.66 1.2,1.8804 1.2,2.7121 0,1.7892 -7.89175,10.0879 -9.5932,10.0879 -0.64723,0 -1.93135,-1.1516 -2.85359,-2.5592 z"
       id="path43" />
    <path
       style="fill:#000000"
       d="m 439.92875,1247.4309 c -1.04941,-1.7257 -3.30304,-3.9859 -5.00806,-5.0228 -1.70503,-1.0369 -3.10005,-2.6262 -3.10005,-3.5319 0,-2.8413 -4.04094,-8.3827 -6.11295,-8.3827 -1.0724,0 -2.21104,-0.6807 -2.53031,-1.5128 -1.03616,-2.7001 1.60463,-4.4872 6.63084,-4.4872 3.3552,0 5.55136,-0.6361 7.50681,-2.1743 1.52026,-1.1958 4.39345,-2.2817 6.38486,-2.4132 1.99141,-0.1314 4.85265,-0.5544 6.35831,-0.9399 3.30021,-0.8451 4.78846,1.6548 2.8413,4.7727 -1.06589,1.7068 -0.8561,2.3778 1.51825,4.856 1.51526,1.5816 3.57579,3.1362 4.57896,3.4546 1.00316,0.3184 1.82393,1.1633 1.82393,1.8777 0,2.1355 -9.1508,11.1159 -14.24194,13.9767 l -4.74193,2.6645 z"
       id="path42" />
    <path
       style="fill:#000000"
       d="m 1154.0987,1309.3716 c -1.6626,-1.6625 -0.3933,-3.8781 2.2218,-3.8781 2.3648,0 3.528,1.5751 2.7694,3.75 -0.5422,1.5542 -3.4895,1.6298 -4.9912,0.1281 z"
       id="path41" />
    <path
       style="fill:#000000"
       d="m 611.50586,1310.5254 c -3.99234,-0.7725 -8.29176,-3.4611 -10.08766,-6.3081 -0.79105,-1.2541 -0.60967,-2.4333 0.72069,-4.6854 1.27383,-2.1564 1.58987,-4.0113 1.11488,-6.5432 -0.69713,-3.716 2.16879,-12.1627 5.3485,-15.7635 1.10773,-1.2545 1.61512,-4.1741 1.74602,-10.0469 0.10148,-4.5532 0.69928,-9.2403 1.32843,-10.4159 1.41015,-2.6349 1.49709,-7.9326 0.14392,-8.7689 -0.55,-0.3399 -1.00412,-1.604 -1.00914,-2.809 -0.005,-1.2051 -1.08421,-4.4111 -2.39818,-7.1246 -2.44959,-5.0586 -2.44485,-7.5664 0.0143,-7.5664 0.80198,0 1.39301,-1.0137 1.39301,-2.3892 0,-1.3141 0.84842,-3.437 1.88538,-4.7176 1.68971,-2.0867 2.06904,-2.176 3.65491,-0.8608 0.97323,0.8072 2.38085,2.9301 3.12803,4.7176 1.46227,3.4982 3.35519,4.1315 5.30972,1.7764 0.67261,-0.8104 2.86521,-1.739 4.87244,-2.0636 2.00724,-0.3246 4.68988,-1.0145 5.96143,-1.5333 3.15209,-1.2858 9.18802,-6.1912 9.18806,-7.4671 2e-5,-0.5707 -2.27811,-3.2707 -5.0625,-6 -4.16414,-4.0818 -4.97151,-5.4286 -4.54964,-7.5892 0.28208,-1.4447 -0.034,-3.3747 -0.7025,-4.2889 -0.84051,-1.1494 -1.15049,-5.891 -1.00501,-15.3732 l 0.21035,-13.7111 4.59159,-4.3399 c 4.44744,-4.2036 4.77094,-4.3302 10.30466,-4.0324 7.132,0.3839 10.67922,-1.7165 13.32563,-7.8903 1.52402,-3.5554 2.30037,-4.3178 4.13203,-4.0577 1.99502,0.2833 2.23231,0.8398 2.05525,4.8203 -0.11009,2.475 -0.20306,8.325 -0.20659,13 -0.006,7.3681 -0.32216,8.9275 -2.37748,11.7106 l -2.37105,3.2107 -13.17313,-0.1265 c -7.24521,-0.07 -13.40634,0.1066 -13.69139,0.3917 -0.28505,0.285 4.44029,3.9999 10.50077,8.2553 6.06047,4.2554 11.01904,8.2298 11.01904,8.8319 0,1.7654 -4.15102,9.8958 -7.2548,14.2097 -2.79013,3.878 -2.81258,4.0073 -0.84789,4.884 1.10997,0.4952 4.10821,3.5608 6.66275,6.8123 4.4061,5.6083 4.5806,6.0665 3.39792,8.9217 -0.93599,2.2597 -0.9615,3.2951 -0.10235,4.1542 0.6294,0.6294 1.14437,2.2599 1.14437,3.6234 0,1.3634 0.54179,3.9773 1.20398,5.8085 1.17222,3.2418 1.07679,3.4587 -3.61816,8.2253 -2.65217,2.6927 -4.57463,5.2963 -4.27212,5.7857 0.30251,0.4895 -0.29589,2.7794 -1.32979,5.0887 -1.26946,2.8354 -2.04074,7.4736 -2.37548,14.2853 -0.27418,5.5794 -1.02697,10.7269 -1.68465,11.5193 -0.65393,0.788 -1.35537,2.8618 -1.55875,4.6085 -0.20337,1.7467 -1.20165,4.1037 -2.21839,5.2378 -1.01674,1.134 -2.12655,2.8494 -2.46624,3.8119 -0.95313,2.7006 -2.98701,2.1125 -8.02228,-2.3197 -2.5429,-2.2384 -5.06527,-3.7967 -5.60527,-3.463 -0.54,0.3338 -2.42408,2.6151 -4.18685,5.0697 -3.41304,4.7526 -4.32625,5.0146 -12.18078,3.4949 z"
       id="path40" />
    <path
       style="fill:#000000"
       d="m 1141.209,1333.5135 c -3.0411,-1.2287 -3.662,-4.7465 -1.2616,-7.1469 1.515,-1.515 3.0547,-1.9075 6.5733,-1.6758 6.4287,0.4235 7.7232,2.7076 3.8347,6.7663 -2.9448,3.0737 -5.3117,3.6058 -9.1464,2.0564 z"
       id="path39" />
    <path
       style="fill:#000000"
       d="m 1002.3261,136.48451 c 0.9135,-1.47806 -0.4325,-4.99105 -1.9124,-4.99105 -1.4261,0 -3.7919,4.46784 -2.8595,5.40023 0.9605,0.9605 4.0913,0.69204 4.7719,-0.40918 z"
       id="path38" />
    <path
       style="fill:#000000"
       d="m 1268.8205,205.3222 c 0,-1.63164 -3.043,-4.82874 -4.596,-4.82874 -2.1001,0 -2.4214,1.53015 -0.8056,3.83704 1.5993,2.28328 5.4016,2.98137 5.4016,0.9917 z"
       id="path37" />
    <path
       style="fill:#000000"
       d="m 1327.2681,368.24346 c -0.176,-1.7875 -0.363,-3.475 -0.4156,-3.75 -0.053,-0.275 -0.7563,0.37351 -1.5638,1.44113 -2.0777,2.74697 -1.8675,5.55887 0.4155,5.55887 1.5242,0 1.8227,-0.62032 1.5639,-3.25 z"
       id="path36" />
    <path
       style="fill:#000000"
       d="m 1340.6666,373.46298 c 0.3021,-2.07253 0.1434,-2.2057 -1.25,-1.04922 -1.8871,1.56609 -2.1453,4.42723 -0.3461,3.83471 0.6875,-0.22642 1.4057,-1.47988 1.5961,-2.78549 z"
       id="path35" />
    <path
       style="fill:#000000"
       d="m 897.2177,394.22224 c 2.2566,-1.79917 5.9029,-4.53123 8.1029,-6.07124 2.2,-1.54 7.375,-5.25961 11.5,-8.26579 15.7119,-11.45038 15.8503,-11.51965 19.3802,-9.70191 2.7554,1.41893 7.7511,4.86107 11.3351,7.81016 2.5692,2.11406 4.1198,3.27544 15.0405,11.26514 6.1906,4.52917 11.4867,8.23486 11.769,8.23486 0.7205,0 -0.4022,-4.83948 -2.0879,-9 -0.78,-1.925 -2.0851,-5.975 -2.9002,-9 -1.9887,-7.38024 -6.4818,-21.08234 -7.6196,-23.23643 -0.5044,-0.95504 -0.9171,-3.2725 -0.9171,-5.14993 0,-3.2915 0.7135,-3.92637 19.9648,-17.76357 10.9806,-7.89254 19.9806,-14.68757 20,-15.10007 0.019,-0.4125 -11.3847,-0.75 -25.3423,-0.75 -19.1486,0 -25.6016,-0.30681 -26.2903,-1.25 -0.502,-0.6875 -1.7263,-3.95 -2.7207,-7.25 -0.9943,-3.3 -2.4387,-7.47776 -3.2097,-9.28392 -0.771,-1.80616 -1.4018,-4.14211 -1.4018,-5.19099 0,-1.04888 -0.45,-2.18517 -1,-2.52509 -0.55,-0.33992 -1,-1.47621 -1,-2.52509 0,-1.04888 -0.6378,-3.38482 -1.4175,-5.19098 -0.7796,-1.80616 -2.1714,-5.87143 -3.093,-9.03393 -0.9216,-3.1625 -1.7939,-5.75 -1.9385,-5.75 -0.1446,0 -2.1751,5.9625 -4.5123,13.25 -2.3372,7.2875 -4.5817,14.15 -4.9879,15.25 -1.8425,4.98942 -4.0508,12.38691 -4.0508,13.56977 0,0.71573 -0.9784,2.34283 -2.1743,3.61578 -2.1617,2.30111 -2.3203,2.31445 -27.5,2.31445 -24.5238,0 -29.167,0.58904 -23.0314,2.92179 4.3075,1.63771 38.6037,27.18124 39.2564,29.2379 0.358,1.12795 -0.026,3.46594 -0.8532,5.19556 -0.8272,1.72961 -2.7181,7.19475 -4.202,12.14475 -1.4839,4.95 -3.2716,10.575 -3.9726,12.5 -1.8234,5.00702 -5.5229,16.6497 -5.5229,17.38127 0,1.23158 1.3697,0.55842 5.3971,-2.65249 z"
       id="path34" />
    <path
       style="fill:#000000"
       d="m 1358.7463,433.58432 c 2.1168,-1.62713 2.4353,-2.70467 2.5,-8.45833 0.065,-5.76431 -0.2109,-6.79339 -2.1925,-8.18152 -1.2467,-0.87332 -2.0276,-1.97474 -1.7354,-2.44761 0.6334,-1.02489 -4.4847,-8.77532 -7.425,-11.24361 -1.1401,-0.95712 -2.0729,-2.40378 -2.0729,-3.21482 0,-0.81103 -0.9134,-1.96345 -2.0298,-2.56093 -1.4111,-0.75516 -1.9445,-1.90909 -1.75,-3.78519 0.2646,-2.55232 0.063,-2.68963 -3.7202,-2.52908 -2.2,0.0934 -5.3756,0.4692 -7.0569,0.83516 -2.1906,0.47684 -3.4296,0.2162 -4.3724,-0.91977 -2.1496,-2.59006 -4.3955,-2.01529 -3.6549,0.93536 0.3479,1.38629 0.1812,3.36404 -0.3706,4.395 -0.7399,1.3826 -0.6151,2.19656 0.4758,3.10192 0.8135,0.6751 1.479,2.34042 1.479,3.70072 0,2.45891 2.8564,8.28184 4.0626,8.28184 0.3473,0 1.6691,0.9 2.9374,2 1.2683,1.1 3.4066,2 4.7518,2 4.1043,0 12.2482,10.88108 12.2482,16.36479 0,3.89022 3.9822,4.75746 7.9258,1.72607 z"
       id="path33" />
    <path
       style="fill:#000000"
       d="m 744.82064,435.49346 c 0,-0.55 -0.19844,-1 -0.44098,-1 -0.24255,0 -0.7191,0.45 -1.05902,1 -0.33992,0.55 -0.14148,1 0.44098,1 0.58246,0 1.05902,-0.45 1.05902,-1 z"
       id="path32" />
    <path
       style="fill:#000000"
       d="m 1399.6323,460.23198 c 0.2286,-1.18678 -0.3044,-1.73852 -1.6795,-1.73852 -2.2933,0 -3.5633,1.49355 -2.5981,3.05537 0.9733,1.57479 3.8939,0.67569 4.2776,-1.31685 z"
       id="path31" />
    <path
       style="fill:#000000"
       d="m 1270.1451,487.08991 c 0.2962,-0.77195 0.3028,-2.30534 0.015,-3.40754 -0.8225,-3.14502 2.9306,-6.28495 6.6283,-5.54541 1.9642,0.39283 3.8692,0.0383 5.4856,-1.02083 1.3621,-0.89247 3.3024,-1.62267 4.3117,-1.62267 3.0023,0 4.2352,-2.11106 4.2352,-7.25202 0,-4.47717 0.2286,-4.93171 2.9591,-5.88358 3.9459,-1.37553 4.9772,-4.6878 2.1679,-6.96262 -1.1698,-0.9473 -2.127,-2.60763 -2.127,-3.68963 0,-1.08199 -0.675,-2.52746 -1.5,-3.21215 -0.825,-0.68469 -1.5142,-1.97729 -1.5316,-2.87244 -0.036,-1.8724 -4.3756,-7.12756 -5.8852,-7.12756 -0.5571,0 -1.4945,-0.9 -2.0832,-2 -0.5887,-1.1 -1.6744,-2 -2.4127,-2 -0.7383,0 -1.9026,-0.675 -2.5873,-1.5 -0.6847,-0.825 -2.1039,-1.5 -3.1538,-1.5 -1.0499,0 -2.1445,-0.61391 -2.4325,-1.36425 -0.2879,-0.75035 -2.9347,-2.58422 -5.8817,-4.07528 -2.9471,-1.49107 -6.1421,-3.57715 -7.1001,-4.63575 -0.958,-1.05859 -2.3259,-1.92472 -3.0398,-1.92472 -2.486,0 -6.3576,2.3161 -6.9403,4.15176 -0.3226,1.01653 -1.4984,1.84824 -2.6128,1.84824 -1.1852,0 -2.2433,0.83012 -2.5492,2 -0.2877,1.1 -0.9071,2 -1.3765,2 -0.4694,0 -0.7544,1.65602 -0.6334,3.68003 0.188,3.14281 -0.131,3.76656 -2.1853,4.27275 -2.892,0.71264 -4.6406,3.18201 -3.8015,5.3686 0.3362,0.87627 2.4692,2.76604 4.74,4.19948 2.2707,1.43345 5.5094,4.82766 7.1972,7.54271 1.6878,2.71504 3.4514,4.93643 3.9192,4.93643 0.4678,0 0.8505,1.06432 0.8505,2.36514 0,1.30083 0.9,3.50931 2,4.90773 1.1,1.39843 2.0143,3.37161 2.0318,4.38486 0.017,1.01325 0.6925,2.71578 1.5,3.7834 0.8075,1.06762 1.4682,2.68538 1.4682,3.59501 0,0.90964 0.9,2.46838 2,3.46386 1.1,0.99549 2,2.39287 2,3.1053 0,1.36002 2.6945,3.31246 4.643,3.36429 0.6287,0.0167 1.3854,-0.60118 1.6816,-1.37314 z"
       id="path30" />
    <path
       style="fill:#000000"
       d="m 981.2558,514.56513 c 2.3636,-2.61179 1.2896,-5.35892 -2.6827,-6.86208 -4.8718,-1.84352 -6.2778,0.68369 -4.195,7.54041 0.5814,1.91381 4.919,1.486 6.8777,-0.67833 z"
       id="path29" />
    <path
       style="fill:#000000"
       d="m 1431.8205,538.93445 c 0,-2.0068 0.4981,-2.44099 2.8,-2.44099 3.1421,0 5.2,-1.59317 5.2,-4.02568 0,-1.64502 -3.2477,-5.09462 -6,-6.37301 -5.5679,-2.58621 -9.6839,-5.59988 -10.8046,-7.91091 -0.7175,-1.47972 -1.7441,-2.6904 -2.2813,-2.6904 -1.8709,0 -2.1227,3.03274 -0.4622,5.56686 0.9194,1.40328 1.5314,3.53731 1.3599,4.74228 -0.2724,1.91395 -0.9122,2.18292 -5.0618,2.12802 -3.8413,-0.0508 -4.75,0.26465 -4.75,1.64903 0,1.94452 6.8683,5.90558 10.2808,5.92913 2.7625,0.0191 3.7987,0.75148 6.0362,4.26655 2.0097,3.157 3.683,2.77495 3.683,-0.84088 z"
       id="path28" />
    <path
       style="fill:#000000"
       d="m 1194.7969,559.31421 c 1.8136,-3.47951 2.0677,-5.13251 1.5176,-9.87257 -0.3634,-3.13132 -1.5457,-7.14839 -2.6272,-8.92682 -1.8942,-3.11469 -2.1391,-3.2078 -6.6666,-2.53385 -2.5851,0.38482 -5.2129,1.12129 -5.8395,1.63662 -2.1309,1.7525 -2.2622,6.20539 -0.2658,9.00916 1.0478,1.4715 1.9051,3.11339 1.9051,3.64864 0,0.53525 0.675,1.53338 1.5,2.21807 0.825,0.68469 1.5,2.16686 1.5,3.29371 0,2.58438 2.7651,5.70629 5.054,5.70629 1.0331,0 2.6321,-1.70379 3.9224,-4.17925 z"
       id="path27" />
    <path
       style="fill:#000000"
       d="m 1198.8824,572.83062 c 1.2153,-3.1964 0.1123,-4.64056 -3.1863,-4.17182 -2.9498,0.41916 -3.7276,3.73848 -1.2932,5.51857 2.5779,1.88497 3.3377,1.65654 4.4795,-1.34675 z"
       id="path26" />
    <path
       style="fill:#000000"
       d="m 771.17438,587.64612 c 3.57616,-3.7327 4.05108,-8.52174 0.88974,-8.97205 -4.69324,-0.66851 -11.07374,9.51069 -6.99348,11.15711 2.43066,0.9808 3.40475,0.63208 6.10374,-2.18506 z"
       id="path25" />
    <path
       style="fill:#000000"
       d="m 826.8206,641.49345 c 0,-0.55 -0.45,-1 -1,-1 -0.55,0 -1,0.45 -1,1 0,0.55 0.45,1 1,1 0.55,0 1,-0.45 1,-1 z"
       id="path24" />
    <path
       style="fill:#000000"
       d="m 827.1542,679.06655 c 0.7729,-2.014 -2.0653,-4.2414 -3.5336,-2.7731 -0.8203,0.8203 -0.7767,1.5231 0.1649,2.6576 1.5959,1.9231 2.6611,1.9596 3.3687,0.1155 z"
       id="path23" />
    <path
       style="fill:#000000"
       d="m 877.644,737.84945 c -0.5232,-2.6604 -5.6236,-5.9718 -7.4366,-4.8281 -2.4206,1.5268 -1.9381,2.8343 1.7248,4.6741 4.3321,2.1759 6.1189,2.2241 5.7118,0.154 z"
       id="path22" />
    <path
       style="fill:#000000"
       d="m 587.82064,768.49345 c 0,-0.55 -0.45,-1 -1,-1 -0.55,0 -1,0.45 -1,1 0,0.55 0.45,1 1,1 0.55,0 1,-0.45 1,-1 z"
       id="path21" />
    <path
       style="fill:#000000"
       d="m 592.82064,774.49345 c 0,-0.55 -0.45,-1 -1,-1 -0.55,0 -1,0.45 -1,1 0,0.55 0.45,1 1,1 0.55,0 1,-0.45 1,-1 z"
       id="path20" />
    <path
       style="fill:#000000"
       d="m 1141.5994,786.32075 c 9.1966,-6.695 17.6501,-12.995 18.7856,-14 1.1354,-1.005 3.1604,-1.8047 4.5,-1.777 1.4979,0.031 9.7499,5.3869 21.4355,13.9127 16.3086,11.8987 19.0479,13.5714 19.3381,11.8082 0.1859,-1.1297 -0.3214,-3.6779 -1.1274,-5.6626 -3.6517,-8.9917 -11.7107,-35.4507 -11.7107,-38.4482 0,-2.9865 0.7401,-3.8541 7.25,-8.4992 5.9016,-4.2111 18.9275,-13.6473 31.25,-22.6383 1.7731,-1.2937 -0.8431,-1.4629 -23.0589,-1.4911 -18.5485,-0.024 -25.4449,-0.3565 -26.5448,-1.2818 -0.8172,-0.6875 -2.2981,-3.95 -3.2908,-7.25 -0.9926,-3.3 -2.1792,-6.7321 -2.6367,-7.6269 -0.4576,-0.8948 -1.1388,-3.2622 -1.5137,-5.261 -0.375,-1.9988 -1.0808,-3.8808 -1.5685,-4.1822 -0.4876,-0.3013 -0.8866,-1.4659 -0.8866,-2.5878 0,-1.1219 -0.6167,-3.4578 -1.3704,-5.191 -0.7538,-1.7331 -1.9318,-5.1761 -2.6179,-7.6511 -2.2026,-7.9453 -2.0303,-7.5879 -2.9447,-6.1084 -0.454,0.7346 -2.9569,7.922 -5.5621,15.972 -2.6052,8.05 -5.3269,16.2114 -6.0483,18.1364 -0.7214,1.925 -1.5496,4.625 -1.8406,6 -0.291,1.375 -1.1867,3.4 -1.9904,4.5 -1.3769,1.8845 -2.9246,2.0289 -26.7935,2.5 l -25.3321,0.5 3.0869,2 c 1.6977,1.1 4.6227,3.2071 6.5,4.6825 3.3051,2.5976 6.7726,5.1666 23.1631,17.1606 8.0979,5.9258 8.9509,7.5293 6.8406,12.8599 -0.5001,1.2633 -1.6976,4.997 -2.661,8.297 -0.9635,3.3 -2.0733,6.675 -2.4663,7.5 -0.393,0.825 -1.9469,5.55 -3.4532,10.5 -1.5062,4.95 -3.1371,10.0337 -3.6243,11.2971 -1.0015,2.5971 -1.1379,4.2029 -0.3569,4.2029 0.2908,0 8.0533,-5.4777 17.25,-12.1727 z"
       id="path19" />
    <path
       style="fill:#000000"
       d="m 1069.239,1025.3119 c 23.9047,-17.4911 31.7501,-22.8184 33.6044,-22.8184 2.356,0 7.4588,3.4343 32.4728,21.8543 4.7459,3.4949 8.8249,6.1584 9.0645,5.9189 0.2395,-0.2396 -1.0729,-4.899 -2.9165,-10.3544 -9.1492,-27.07373 -11.7029,-35.65693 -11.1381,-37.43633 0.3364,-1.0601 4.0728,-4.4093 8.3031,-7.4426 22.9854,-16.4822 30.5855,-22.2225 30.9768,-23.3965 0.3504,-1.0511 -4.3084,-1.2515 -24.1428,-1.0382 -22.6755,0.2438 -24.7343,0.1219 -26.6099,-1.5755 -1.118,-1.0118 -2.0328,-2.6487 -2.0328,-3.6376 0,-0.9889 -0.3946,-2.8317 -0.877,-4.095 -0.4823,-1.2634 -2.7841,-8.3721 -5.1151,-15.7971 -2.3311,-7.425 -5.0546,-15.525 -6.0523,-18 l -1.814,-4.5 -1.1887,3 c -0.6538,1.65 -1.5603,4.35 -2.0143,6 -1.3932,5.0626 -8.0489,24.8048 -9.5354,28.2839 -0.7718,1.8062 -1.4032,4.0827 -1.4032,5.0589 0,0.9762 -0.6141,2.6148 -1.3647,3.6413 -1.2749,1.7436 -3.0191,1.8563 -26.4999,1.7129 -13.8244,-0.084 -25.1353,0.1849 -25.1353,0.5984 0,0.7264 6.4733,5.5741 29.3125,21.9513 10.6559,7.6411 10.8058,7.804 10.3522,11.2533 -0.4886,3.715 -1.7016,8.2727 -3.7264,14 -4.3703,12.36163 -7.9884,23.35433 -8.5263,25.90473 -0.279,1.3226 -0.9516,3.2351 -1.4948,4.25 -1.5381,2.8741 -0.1311,2.2483 7.5012,-3.3363 z"
       id="path18" />
    <path
       style="fill:#000000"
       d="m 1351.8205,1045.734 c 0,-1.1577 -4.1051,-3.4688 -4.8458,-2.728 -0.3581,0.358 0.2218,1.2892 1.2885,2.0692 2.1396,1.5646 3.5573,1.8271 3.5573,0.6588 z"
       id="path17" />
    <path
       style="fill:#000000"
       d="m 1426.8205,1051.4935 c 0,-0.55 -0.4765,-1 -1.059,-1 -0.5825,0 -0.7809,0.45 -0.441,1 0.3399,0.55 0.8165,1 1.059,1 0.2426,0 0.441,-0.45 0.441,-1 z"
       id="path16" />
    <path
       style="fill:#000000"
       d="m 1276.8205,1280.9277 c 0,-1.6053 -2.2553,-4.4342 -3.5352,-4.4342 -1.9066,0 -1.8517,0.9149 0.1902,3.1712 1.5993,1.7672 3.345,2.4264 3.345,1.263 z"
       id="path15" />
    <path
       style="fill:#000000"
       d="m 1292.5913,1284.306 c -0.618,-1.8542 -2.7708,-2.1618 -2.7708,-0.3959 0,0.8709 0.7125,1.5834 1.5833,1.5834 0.8709,0 1.4053,-0.5344 1.1875,-1.1875 z"
       id="path14" />
    <path
       style="fill:#000000"
       d="m 1274.8205,1302.9935 c 0,-0.825 -0.45,-1.5 -1,-1.5 -0.55,0 -1,0.675 -1,1.5 0,0.825 0.45,1.5 1,1.5 0.55,0 1,-0.675 1,-1.5 z"
       id="path13" />
    <path
       style="fill:#000000"
       d="m 1222.0212,1309.0523 c 1.8953,-1.6689 2.6408,-3.2249 2.5,-5.2184 -0.1983,-2.8068 -0.1416,-2.8366 4.7993,-2.5202 4.1566,0.2662 5.4402,0.8424 7.6093,3.4155 l 2.6094,3.0953 7.8906,-1.3122 c 8.9984,-1.4963 9.8126,-1.9653 12.476,-7.1859 1.321,-2.5894 2.8117,-3.9881 4.6769,-4.3881 3.542,-0.7595 9.591,-4.0043 10.0539,-5.393 0.198,-0.5942 -1.2238,-1.7421 -3.1596,-2.5509 -1.9359,-0.8088 -3.7873,-1.9035 -4.1143,-2.4326 -0.8767,-1.4185 -26.2708,-0.7397 -27.7524,0.7418 -0.7408,0.7409 -4.5354,1.1899 -10.0555,1.1899 -9.1098,0 -12.7343,0.9964 -12.7343,3.5007 0,2.2618 -5.6654,7.4638 -10.4187,9.5663 -4.735,2.0946 -8.3579,6.335 -6.4303,7.5263 0.6209,0.3837 3.6859,0.6209 6.8113,0.5271 4.5735,-0.1372 6.0401,0.2247 7.5151,1.8546 2.3759,2.6253 4.3924,2.5167 7.7233,-0.4162 z"
       id="path12" />
    <path
       style="fill:#000000"
       d="m 1239.4023,1315.4935 c 5.8176,0 9.4182,-0.3953 9.4182,-1.0338 0,-1.7145 -21.2277,-0.7963 -21.8051,0.9431 -0.3285,0.9897 0.044,1.213 1.2504,0.75 0.9451,-0.3626 5.9565,-0.6593 11.1365,-0.6593 z"
       id="path11" />
    <path
       style="fill:#000000"
       d="m 1193.5705,1338.8393 c 4.5375,-0.3533 8.25,-1.0256 8.25,-1.494 0,-0.4685 -3.5734,-0.8518 -7.941,-0.8518 -4.3675,0 -8.18,-0.3868 -8.4722,-0.8595 -0.2921,-0.4727 0.8126,-2.0568 2.455,-3.5202 2.3328,-2.0785 2.85,-3.2032 2.3638,-5.1405 -0.4544,-1.8106 -0.2194,-2.4798 0.871,-2.4798 1.6934,0 4.7234,-4.1471 4.7234,-6.4648 0,-1.9835 3.3804,-1.9867 5.0253,0 1.0326,1.2442 3.425,1.478 12.7908,1.25 15.1039,-0.3676 15.9203,-2.2084 1.1057,-2.4928 -9.4444,-0.1814 -11.5883,-0.5364 -14.6443,-2.4252 l -3.5802,-2.2126 -8.9399,9.2161 c -5.9965,6.1817 -8.7452,9.7234 -8.3486,10.7569 0.3251,0.8474 0.5912,2.854 0.5912,4.459 0,3.3403 -0.024,3.3362 13.75,2.264 z"
       id="path10" />
    <path
       style="fill:#000000"
       d="m 1207.8205,1342.9345 c 0,-1.4514 -0.4328,-2.2915 -1,-1.941 -0.55,0.3399 -1,1.4915 -1,2.559 0,1.0675 0.45,1.941 1,1.941 0.55,0 1,-1.1516 1,-2.559 z"
       id="path9" />
    <path
       style="fill:#000000"
       d="m 1200.8205,1353.2202 c 0,-1.9859 -0.1272,-2.0281 -1.6183,-0.537 -0.8901,0.8901 -1.309,2.1189 -0.9309,2.7306 1.0061,1.6279 2.5492,0.3 2.5492,-2.1936 z"
       id="path8" />
    <path
       style="fill:#000000"
       d="m 1204.8205,1360.9345 c 0,-0.8575 -0.45,-1.2809 -1,-0.941 -0.55,0.3399 -1,1.0415 -1,1.559 0,0.5175 0.45,0.941 1,0.941 0.55,0 1,-0.7016 1,-1.559 z"
       id="path7" />
    <path
       style="fill:#000000"
       d="m 1204.8205,1379.4935 c 0,-0.55 -0.45,-1 -1,-1 -0.55,0 -1,0.45 -1,1 0,0.55 0.45,1 1,1 0.55,0 1,-0.45 1,-1 z"
       id="path6" />
    <path
       style="fill:#000000"
       d="m 1206.637,1398.0288 c -0.1741,-0.1454 -1.4415,-0.8408 -2.8165,-1.5454 -2.4935,-1.2776 -2.4951,-1.2754 -0.6163,0.841 1.036,1.1671 2.3034,1.8625 2.8165,1.5454 0.5131,-0.3171 0.7904,-0.6956 0.6163,-0.841 z"
       id="path5" />
    <path
       style="fill:#000000"
       d="m 1073.3262,1403.4874 c 2.0106,-2.2219 2.0195,-2.198 -1.5056,-4.0032 -1.375,-0.704 -4.1522,-2.5748 -6.1715,-4.1573 -2.2043,-1.7274 -4.8018,-2.843 -6.5,-2.7918 -1.5557,0.047 -3.5035,-0.014 -4.3285,-0.1356 -4.1701,-0.6146 -6,0.1302 -6,2.4421 0,1.7943 0.9976,2.7967 4.2297,4.25 2.3263,1.046 4.6103,1.778 5.0756,1.6267 0.4653,-0.1514 2.1965,0.8611 3.8471,2.25 3.7155,3.1263 8.7839,3.3581 11.3532,0.5191 z"
       id="path4" />
    <path
       style="fill:#000000"
       d="m 1290.5061,1474.5035 c -3.0572,-1.5421 -5.8094,-2.5529 -6.1159,-2.2464 -0.3066,0.3066 -1.4633,-0.2623 -2.5704,-1.2643 -1.1072,-1.002 -2.9872,-2.3117 -4.1778,-2.9105 -1.4112,-0.7098 -2.6662,-2.8961 -3.6049,-6.2799 -1.5618,-5.6305 -4.3439,-7.5807 -9.4277,-6.6089 -1.3927,0.2662 -3.9361,-0.2419 -5.6519,-1.1292 -4.1378,-2.1397 -7.4856,-1.2116 -13.3203,3.693 -4.7658,4.0061 -7.1508,4.1928 -6.6145,0.5176 0.2601,-1.7831 -0.3172,-2.4189 -4.0727,-4.4853 -0.2038,-0.1121 1.0784,-2.0334 2.8495,-4.2695 1.8399,-2.3232 2.9728,-4.7099 2.6432,-5.5688 -0.9406,-2.4512 -3.761,-2.9147 -6.8716,-1.1294 -4.1211,2.3652 -18.5371,2.3916 -19.4411,0.036 -0.903,-2.3531 0.9,-4.7035 4.5371,-5.9149 1.7352,-0.5779 3.7171,-1.6223 4.4042,-2.3209 1.8988,-1.9307 -2.8202,-5.4843 -6.2069,-4.674 -5.2125,1.2471 -5.411,1.1503 -6.2679,-3.0574 -0.5971,-2.9319 -1.5407,-4.4243 -3.3058,-5.2285 -3.2388,-1.4757 -3.1314,-2.1047 1.0298,-6.0296 1.925,-1.8157 3.5,-3.8997 3.5,-4.6312 0,-1.8822 -5.769,-6.5076 -8.1166,-6.5076 -1.0797,0 -3.6431,-0.8571 -5.6965,-1.9047 -2.2685,-1.1573 -4.8172,-1.6975 -6.4952,-1.3767 -1.727,0.3301 -3.4043,-0.051 -4.4767,-1.0174 -0.9433,-0.85 -2.9888,-1.8634 -4.5458,-2.252 -3.6827,-0.9192 -4.5336,-3.2687 -1.9293,-5.3272 1.7801,-1.4071 3.0136,-6.5043 3.2358,-13.372 0.013,-0.4125 0.9473,-0.75 2.0753,-0.75 1.3906,0 2.5122,1.1037 3.483,3.4272 1.5144,3.6244 4.9397,5.4991 6.7465,3.6923 0.7721,-0.7721 0.7145,-1.7604 -0.2028,-3.4743 -1.3797,-2.5781 -0.5765,-5.1565 2.3677,-7.5999 2.4673,-2.0476 1.9544,-5.9428 -0.9268,-7.0382 -2.0489,-0.779 -2.3849,-1.4283 -1.9281,-3.7253 0.439,-2.207 -0.081,-3.3887 -2.5186,-5.7189 -3.5418,-3.3864 -3.7059,-4.2049 -1.3617,-6.7952 2.6217,-2.897 0.073,-3.9418 -8.4623,-3.4693 -5.1835,0.287 -7.5634,0.026 -8.3437,-0.9139 -0.7147,-0.8611 -0.8971,-4.6942 -0.5282,-11.0999 1.2331,-21.409 2.5448,-27.2846 6.0915,-27.2846 0.6724,0 2.037,-0.9 3.0325,-2 0.9955,-1.1 2.6402,-2 3.655,-2 1.0148,0 1.845,-0.6269 1.845,-1.393 0,-2.3848 -3.0535,-2.71 -5.7237,-0.6097 -1.4003,1.1015 -3.4303,2.0027 -4.5112,2.0027 -2.1016,0 -6.6928,-4.3987 -10.7651,-10.3137 -2.1842,-3.1726 -3.0213,-3.6347 -6.6275,-3.6588 -2.4359,-0.016 -4.6423,-0.6477 -5.3834,-1.5407 -0.6908,-0.8323 -1.7584,-1.4261 -2.3725,-1.3197 -0.6141,0.1064 -2.7482,-0.2859 -4.7423,-0.8719 -4.012,-1.1789 -8.5729,-0.6834 -10.8743,1.1813 -2.7064,2.1929 -10.7603,5.6107 -14.6682,6.2247 -2.1075,0.3312 -4.1641,1.1596 -4.5701,1.8409 -0.4744,0.7957 -3.4863,1.28 -8.4226,1.3542 -7.9068,0.1189 -8.5836,0.2993 -8.9381,2.3826 -0.1143,0.6716 -0.4593,1.8961 -0.7668,2.7211 -0.886,2.3775 4.3337,7.4953 10.6882,10.4795 5.5511,2.6068 7.7295,4.8019 6.2418,6.2896 -0.3755,0.3756 -3.0186,-0.497 -5.8735,-1.9391 -10.0823,-5.0927 -11.6907,-5.7198 -11.6907,-4.5581 0,0.6153 1.1339,2.3021 2.5197,3.7486 2.5383,2.6495 4.7895,8.337 3.7222,9.4042 -1.2965,1.2966 -3.3636,0.3869 -6.6981,-2.9476 -3.4954,-3.4954 -9.5438,-5.8003 -9.5438,-3.6369 0,0.5996 1.35,2.6278 3,4.507 4.8486,5.5223 3.6034,7.1668 -3.0964,4.0894 -5.953,-2.7345 -6.3936,-3.0993 -6.9036,-5.7163 -0.581,-2.9816 -5.407,-8.7203 -7.3334,-8.7203 -1.7442,0 -5.6665,-4.2323 -5.6665,-6.1145 0,-1.607 -1.891,-3.8855 -3.2247,-3.8855 -1.5319,0 -3.036,5.4614 -3.3925,12.3176 -0.2781,5.3501 0.077,7.6642 1.6517,10.75 1.1034,2.1628 2.3945,3.9324 2.8692,3.9324 0.4747,0 1.1376,0.7875 1.4731,1.75 0.9905,2.8412 6.8058,11.5265 11.306,16.8859 4.3245,5.15 6.5158,10.3641 4.3557,10.3641 -0.648,0 -3.1579,-1.3621 -5.5775,-3.0268 -3.2585,-2.2419 -5.058,-2.8615 -6.9396,-2.3892 -3.8873,0.9756 -4.0315,2.2945 -0.6338,5.8 3.7757,3.8957 3.9851,6.3588 0.6124,7.2053 -1.375,0.3451 -2.5,1.0583 -2.5,1.5848 0,2.0188 2.1408,4.8259 3.6803,4.8259 2.6871,0 9.7792,5.0454 12.1274,8.6276 1.2158,1.8548 3.0556,3.3724 4.0884,3.3724 1.0328,0 4.0661,1.5525 6.7408,3.45 2.6747,1.8975 6.5505,4.6031 8.613,6.0125 3.2815,2.2424 3.75,3.0624 3.75,6.5636 0,2.2006 -0.4269,4.7824 -0.9487,5.7375 -0.5219,0.955 -1.2229,3.8634 -1.5578,6.4631 -0.335,2.5997 -1.0059,4.9719 -1.4909,5.2717 -0.8762,0.5415 -5.7412,-4.2571 -10.1368,-9.9984 -3.262,-4.2606 -4.0793,-4.6164 -6.2008,-2.6994 -1.0343,0.9346 -2.7324,1.5585 -3.7736,1.3864 -1.2812,-0.2118 -2.2159,0.5364 -2.8922,2.3151 -1.5792,4.1537 -1.2688,5.0339 3.4038,9.649 6.3292,6.2514 6.3483,8.0575 0.097,9.1672 -5.5794,0.9904 -7.2027,1.0055 -13.0556,0.1213 -3.0614,-0.4624 -4.3846,-0.2165 -5.3968,1.0032 -1.1445,1.3789 -1.0223,1.9551 0.8335,3.9305 1.196,1.2731 2.3541,3.6224 2.5736,5.2207 0.2194,1.5983 1.8207,5.8057 3.5584,9.3499 2.2918,4.6745 2.9974,7.2537 2.5695,9.3932 -0.3244,1.622 -0.1212,3.5139 0.4515,4.204 1.7193,2.0716 1.9181,5.2536 0.4067,6.508 -1.1509,0.9552 -2.8061,-0.1663 -8.7445,-5.9245 l -7.3251,-7.1027 -3.1855,3.2866 c -2.1594,2.228 -3.1856,4.2646 -3.1856,6.3224 0,1.6697 -0.2842,3.3199 -0.6315,3.6672 -1.1829,1.183 -4.3685,-1.3612 -4.3685,-3.4889 0,-1.1662 -1.125,-3.5954 -2.5,-5.3981 -1.375,-1.8027 -2.5,-4.3326 -2.5,-5.6219 0,-2.781 -2.5873,-6.7892 -4.3824,-6.7892 -1.9508,0 -5.6176,4.3782 -5.6176,6.7074 0,1.1433 -0.7284,2.3581 -1.6186,2.6997 -2.0886,0.8015 -8.3692,-5.7144 -8.4132,-8.7283 -0.018,-1.1984 -0.6925,-3.0523 -1.5,-4.1199 -1.934,-2.557 -1.9137,-9.9443 0.032,-11.5589 0.825,-0.6847 1.5,-2.5526 1.5,-4.1509 0,-2.3046 -1.5668,-4.4277 -7.5711,-10.2592 -4.1641,-4.0443 -7.6939,-8.1896 -7.8439,-9.2116 -0.2983,-2.033 6.6509,-12.8711 8.7755,-13.6864 0.8491,-0.3258 1.1583,-1.6104 0.8664,-3.5993 -0.4897,-3.3366 -2.234,-3.9939 -4.2269,-1.5926 -2.1843,2.6319 -4.5975,1.719 -6.4777,-2.4505 -0.9798,-2.1728 -1.5521,-4.8274 -1.2719,-5.899 0.5823,-2.2268 -2.0499,-5.2911 -7.1043,-8.2705 -2.7405,-1.6154 -3.2228,-2.3797 -2.637,-4.1785 1.4959,-4.5926 0.6574,-6.7543 -4.9822,-12.8458 -3.1264,-3.3769 -6.1235,-7.0884 -6.6601,-8.2478 -2.2174,-4.7908 -4.5214,-8.2973 -7.1168,-10.8317 -1.5125,-1.4769 -2.75,-3.3552 -2.75,-4.1741 0,-0.8188 -0.9616,-2.1623 -2.137,-2.9855 -1.7027,-1.1927 -2.0097,-2.1329 -1.5108,-4.6274 0.8734,-4.3671 -0.9128,-7.2684 -9.7615,-15.8555 -4.1749,-4.0515 -7.5907,-7.5097 -7.5907,-7.6849 0,-0.1752 0.4703,-1.5557 1.0452,-3.0676 0.751,-1.9753 0.7139,-3.5487 -0.1319,-5.5906 -0.9774,-2.3597 -0.9003,-3.1475 0.4548,-4.6449 0.8976,-0.9917 1.6319,-2.3045 1.6319,-2.9173 0,-0.6128 0.9658,-2.751 2.1463,-4.7518 1.8668,-3.164 2.1319,-5.0642 2.0358,-14.5949 -0.1078,-10.6996 -0.053,-10.9835 2.3345,-12.0712 4.7488,-2.1637 3.9537,-7.8105 -1.0996,-7.8105 -1.286,0 -2.7848,-0.5625 -3.3308,-1.25 -7.9385,-9.9961 -20.4703,-23.3604 -23.3413,-24.8917 -1.4006,-0.7471 -6.0786,-4.6081 -10.3956,-8.5802 -8.6033,-7.9156 -14.6199,-12.2781 -16.9335,-12.2781 -1.5733,0 -9.4158,-3.7281 -9.4158,-4.476 0,-0.8807 32.348,-23.524 33.6062,-23.524 0.716,0 9.7151,6.115 19.998,13.589 10.2828,7.4739 19.2635,13.8067 19.957,14.0729 1.3536,0.5194 0.7065,-3.7025 -1.3276,-8.6619 -0.5639,-1.375 -1.5705,-4.525 -2.2369,-7 -0.6664,-2.475 -1.7927,-6.075 -2.5029,-8 -3.6188,-9.8088 -6.6546,-20.8099 -6.3437,-22.9879 0.2583,-1.8085 3.3627,-4.6191 11.8499,-10.7283 6.325,-4.5528 12.1854,-8.8623 13.0231,-9.5768 0.8377,-0.7144 4.0584,-2.9817 7.1571,-5.0385 10.4159,-6.9137 11.0271,-6.6685 -16.6235,-6.6685 -25.4537,0 -28.5567,-0.4348 -28.5567,-4.0013 0,-1.062 -0.6391,-3.4086 -1.4202,-5.2148 -1.192,-2.7563 -9.8674,-29.7089 -12.1402,-37.7167 -0.5423,-1.9109 -1.8423,1.0931 -6.0588,14 -2.9525,9.038 -5.8606,17.7828 -6.4623,19.4328 -0.6018,1.65 -1.4342,4.3606 -1.8499,6.0235 -0.4157,1.6629 -1.292,4.0254 -1.9474,5.25 -1.184,2.2125 -1.3516,2.2265 -26.6563,2.2265 -23.0065,0 -28.8918,0.5878 -23.7149,2.3687 0.9625,0.3311 3.6249,2.0711 5.9164,3.8667 2.2915,1.7955 7.8744,5.9646 12.4064,9.2646 4.5321,3.3 10.5201,7.6875 13.3068,9.75 2.7866,2.0625 5.3637,3.75 5.7269,3.75 1.4492,0 1.6985,4.4631 0.4402,7.8792 -0.7335,1.9915 -2.129,6.3208 -3.1012,9.6208 -0.9722,3.3 -2.118,6.675 -2.5461,7.5 -0.4282,0.825 -1.0565,2.8059 -1.3962,4.402 l -0.6176,2.9021 -4.2306,-4.1521 c -2.3269,-2.2836 -4.9788,-4.152 -5.8931,-4.152 -0.9144,0 -2.0738,-0.735 -2.5765,-1.6333 -1.272,-2.2729 -6.5755,-4.3668 -8.2979,-3.276 -0.7631,0.4833 -3.75,0.8855 -6.6375,0.894 -7.157,0.021 -9.6882,-2.4044 -8.9885,-8.6124 0.4806,-4.2637 0.3358,-4.5397 -4.8831,-9.3095 -2.9581,-2.7035 -5.3784,-5.4957 -5.3784,-6.2048 0,-0.7091 -2.1071,-3.4286 -4.6824,-6.0433 -4.6696,-4.7408 -4.6772,-4.7598 -2.7568,-6.8819 2.6497,-2.9279 1.9507,-6.7134 -2.019,-10.9328 -3.1914,-3.3922 -3.3118,-3.8311 -3.9077,-14.2482 -0.3381,-5.9114 -1.1816,-11.6747 -1.8744,-12.8072 -1.9228,-3.1431 -7.2354,-5.2914 -11.4102,-4.6139 -4.0542,0.6579 -7.663,3.4097 -6.9406,5.2924 0.2637,0.6871 -0.3009,2.2905 -1.2546,3.5631 -0.9536,1.2726 -2.2688,3.5513 -2.9226,5.0638 -1.5729,3.6386 -3.1586,3.4681 -6.4817,-0.6966 -2.2393,-2.8066 -2.75,-4.455 -2.75,-8.8775 0,-3.4254 -0.515,-5.8585 -1.3946,-6.5885 -0.7671,-0.6366 -1.635,-2.6042 -1.9287,-4.3725 -0.2937,-1.7682 -0.84197,-4.4442 -1.2184,-5.9467 -0.58377,-2.3299 -0.29634,-2.8793 1.9543,-3.735 3.7416,-1.4225 4.412,-3.9471 1.6434,-6.189 -2.89504,-2.3442 -10.56973,-2.5355 -11.82379,-0.2946 -0.96053,1.7164 -12.16063,4.5944 -19.31258,4.9626 -9.45751,0.487 -11.68664,4.9207 -5.55617,11.0512 2.32793,2.3279 3.53007,4.6058 3.9047,7.3989 0.50788,3.7865 0.26953,4.2747 -3.86369,7.9129 -5.11162,4.4994 -6.4953,8.7293 -4.01426,12.2714 0.91786,1.3105 1.60983,4.2915 1.60983,6.9351 v 4.6368 l 16.49801,16.4664 16.49802,16.4664 0.64991,7.9243 c 0.35745,4.3584 1.25834,8.812 2.00198,9.8969 0.74364,1.0849 1.35204,4.2923 1.35204,7.1275 0,3.3624 0.5217,5.588 1.5,6.4 0.825,0.6847 1.5,2.2598 1.5,3.5003 0,4.7651 5.2541,13.9436 9.0735,15.8508 1.2913,0.6448 2.6701,2.575 3.1423,4.3989 0.4628,1.7875 1.318,3.25 1.9004,3.25 0.5825,0 2.9759,2.1172 5.3187,4.705 3.6387,4.019 5.2661,4.9733 11.1625,6.5452 3.7964,1.012 9.3342,2.0532 12.3061,2.3136 3.2565,0.2854 5.8514,1.0862 6.5309,2.0155 0.6201,0.8481 2.6886,1.5739 4.5966,1.613 6.5782,0.1346 7.7189,3.2117 2.9562,7.9744 -5.1691,5.1691 -5.4817,6.4961 -2.4627,10.4542 1.5045,1.9726 4.9655,4.5451 7.9535,5.9118 2.9094,1.3308 5.5555,3.1121 5.8803,3.9585 0.3248,0.8463 1.727,1.9709 3.1161,2.499 1.3891,0.5282 2.5256,1.4214 2.5256,1.985 0,0.5636 1.1027,1.0248 2.4504,1.0248 1.3476,0 2.8101,0.6397 3.25,1.4217 1.361,2.4196 10.0724,8.5783 12.1339,8.5783 1.0748,0 3.3994,1.35 5.1657,3 1.7664,1.65 3.7692,3 4.4508,3 0.6816,0 2.0538,0.9 3.0492,2 0.9955,1.1 2.3368,2 2.9807,2 0.6439,0 2.1175,1.0125 3.2746,2.25 2.7273,2.9166 10.2393,13.9958 10.2424,15.1061 10e-4,0.4708 1.2855,2.4958 2.8537,4.5 3.9588,5.0589 4.6273,8.4007 2.1324,10.6585 -1.0911,0.9875 -1.9838,2.3848 -1.9838,3.1052 0,0.7204 -0.8216,1.7496 -1.8259,2.287 -4.0401,2.1622 -14.1539,-4.229 -14.1691,-8.9539 -0.01,-1.72 -6.9874,-8.9529 -8.6421,-8.9529 -0.5791,0 -1.8674,-0.9 -2.8629,-2 -0.9954,-1.1 -2.2264,-2 -2.7355,-2 -0.509,0 -3.2984,-1.575 -6.1985,-3.5 -2.9001,-1.925 -6.036,-3.5 -6.9687,-3.5 -2.4168,0 -13.6075,11.9614 -14.2868,15.2708 -0.3128,1.5239 -0.9607,3.013 -1.4396,3.309 -0.479,0.296 -0.8688,2.6492 -0.8662,5.2292 0,3.8464 0.553,5.2761 3.0507,7.941 1.6753,1.7875 3.5982,3.25 4.2731,3.25 0.6749,0 1.9897,0.8906 2.9217,1.9792 0.9557,1.1162 2.3571,1.725 3.2138,1.3962 0.9302,-0.3569 1.7877,0.1358 2.2118,1.2708 0.3809,1.0196 1.5097,2.4418 2.5084,3.1605 1.4204,1.0221 1.8158,2.6637 1.8158,7.5382 0,6.1492 -0.059,6.2806 -4.4404,9.9433 -3.2959,2.755 -5.3577,3.7118 -7.9989,3.7118 -5.075,0 -11.5607,6.2947 -11.5607,11.2203 0,3.0468 -1.1781,4.6236 -9.9875,13.367 -5.4932,5.452 -10.6682,9.8752 -11.5,9.8293 -0.8319,-0.046 -3.0553,-0.1583 -4.941,-0.25 -1.8857,-0.092 -4.2033,-0.9413 -5.1502,-1.8882 -1.8973,-1.8973 -6.1201,-4.2784 -7.5876,-4.2784 -0.5157,0 -1.3838,1.2798 -1.9291,2.8441 -0.5453,1.5642 -2.3219,3.8277 -3.948,5.0299 -1.6261,1.2022 -2.9566,3.0686 -2.9566,4.1474 0,1.0789 -0.9,2.5237 -2,3.2107 -2.0343,1.2704 -2.7193,5.5407 -1.1738,7.3179 0.4543,0.5225 1.3321,2.75 1.9505,4.95 2.4355,8.6636 2.4199,9.4777 -0.2416,12.6406 -1.3943,1.6571 -2.5351,3.565 -2.5351,4.2399 0,1.7259 -6.2938,7.6332 -8.0476,7.5533 -2.9911,-0.1362 -11.56013,-3.5147 -14.48466,-5.7109 -1.66777,-1.2524 -5.00516,-4.7495 -7.41643,-7.7713 -4.09825,-5.136 -9.80671,-9.6975 -11.71554,-9.3618 -2.17932,0.3833 -3.67965,-0.6291 -11.95769,-8.0691 -4.88292,-4.3886 -9.70231,-7.9886 -10.70974,-8 -1.00744,-0.011 -3.75379,-1.5957 -6.103,-3.5207 -2.34921,-1.925 -4.70001,-3.5 -5.22401,-3.5 -3.36153,0 -11.34129,-9.567 -11.34129,-13.5972 0,-3.4235 7.58049,-12.2516 10.61514,-12.3622 0.61333,-0.022 2.32966,0.9147 3.81407,2.0824 2.56182,2.0151 2.8862,2.0434 6.38486,0.5579 6.32228,-2.6844 8.22498,-2.9516 10.00759,-1.4054 0.92309,0.8007 2.93175,1.7539 4.46371,2.1181 1.61844,0.3848 3.15673,1.639 3.67177,2.9937 0.57711,1.5179 2.00413,2.5549 4.08963,2.972 5.01939,1.0039 18.76767,0.7499 19.45323,-0.3593 0.34008,-0.5503 4.78561,-1 9.8847,-1 8.59146,0 9.43776,0.1821 11.61526,2.5 2.648,2.8186 4.6506,3.1225 7.5275,1.1423 1.0849,-0.7467 5.4623,-1.8693 9.7276,-2.4947 4.2653,-0.6253 8.6578,-1.7007 9.7612,-2.3898 2.1779,-1.3601 3.4515,-4.1919 2.545,-5.6586 -1.064,-1.7217 0.4907,-3.686 6.446,-8.1445 5.0412,-3.774 5.9537,-4.935 5.9716,-7.5977 0.013,-1.8867 -0.5785,-3.3731 -1.4789,-3.7186 -0.9849,-0.378 -1.5,-1.9395 -1.5,-4.548 0,-2.1848 -0.4057,-4.2231 -0.9016,-4.5296 -0.4958,-0.3065 -1.2278,-3.3681 -1.6265,-6.8035 -0.4977,-4.2877 -1.2901,-6.6422 -2.5273,-7.5087 -1.1867,-0.8312 -2.0446,-3.201 -2.5115,-6.938 -0.56,-4.4824 -1.3231,-6.2363 -3.6298,-8.3431 -1.9175,-1.7514 -3.6991,-2.5189 -5.1866,-2.2346 -1.4468,0.2766 -3.3754,-0.5005 -5.3356,-2.1499 -1.6884,-1.4206 -3.7406,-2.583 -4.5604,-2.583 -2.33,0 -5.0011,-4.8478 -4.3806,-7.9503 0.6254,-3.1271 -1.7227,-10.6933 -4.1563,-13.3923 -3.1042,-3.4429 -4.926,-3.8504 -7.0449,-1.5761 -2.8773,3.0885 -5.3359,2.0528 -7.90815,-3.3313 -1.24811,-2.6125 -2.90373,-4.75 -3.67915,-4.75 -2.30445,0 -8.36016,-10.1063 -10.9354,-18.25 -0.38669,-1.2229 -1.59564,-1.75 -4.01335,-1.75 -1.90297,0 -4.13495,-0.675 -4.95995,-1.5 -0.825,-0.825 -3.21965,-1.5069 -5.32143,-1.5153 -4.22838,-0.017 -5.52284,-0.6241 -6.96444,-3.2665 -0.53464,-0.98 -2.52118,-2.555 -4.41454,-3.5 -2.09319,-1.0448 -3.56555,-2.5837 -3.75653,-3.9264 -0.17274,-1.2146 -2.76024,-4.4439 -5.75,-7.1764 -3.79245,-3.4661 -5.43592,-5.7201 -5.43592,-7.4552 0,-1.7127 -1.40125,-3.6818 -4.5,-6.3237 -2.475,-2.1101 -4.48694,-4.5115 -4.47097,-5.3365 0.0225,-1.1614 25.17753,-20.2458 32.94201,-24.9921 3.24628,-1.9843 -0.9811,-2.4244 -21.26737,-2.2137 -11.66202,0.1211 -22.77371,-0.1379 -24.69265,-0.5757 -3.29247,-0.7512 -3.62233,-1.2162 -5.85663,-8.2573 -1.30221,-4.1037 -2.95416,-9.0362 -3.67099,-10.9612 -0.71683,-1.925 -2.70183,-7.8792 -4.41112,-13.2316 -1.70928,-5.3524 -3.57071,-10.9492 -4.13651,-12.4374 l -1.02873,-2.7057 -1.5827,2.9373 c -0.87048,1.6156 -1.92851,4.2874 -2.35116,5.9374 l -0.76846,3 -0.1061,-3 c -0.0584,-1.65 -0.94959,-4.3832 -1.98052,-6.0738 -1.03094,-1.6906 -2.11761,-4.8406 -2.41483,-7 -0.81846,-5.9463 -2.2369,-11.7704 -3.35184,-13.7627 -1.97322,-3.526 -9.48037,-10.4961 -13.12996,-12.1907 -2.04681,-0.9504 -4.44734,-2.3596 -5.33451,-3.1315 -0.88718,-0.7719 -2.5965,-1.5928 -3.79851,-1.8243 -1.20201,-0.2315 -3.54817,-1.5675 -5.21369,-2.9689 -1.66551,-1.4015 -3.38873,-2.5481 -3.82936,-2.5481 -1.75291,0 -7.78058,2.976 -8.99745,4.4422 -0.71106,0.8568 -1.69668,1.5578 -2.19027,1.5578 -0.49358,0 -2.80098,1.2253 -5.12755,2.7229 -6.14123,3.953 -10.41453,5.3179 -17.6029,5.6224 -6.86478,0.2908 -8.00354,1.0684 -10.70889,7.3125 -1.1076,2.5564 -2.13069,3.2867 -5.37154,3.8343 -4.75618,0.8035 -9.44798,-0.066 -11.10015,-2.0564 -2.16155,-2.6045 -4.80413,-1.6354 -6.93614,2.5437 -2.91051,5.7051 -6.71419,7.3668 -15.56265,6.7989 -5.97151,-0.3832 -7.9801,-0.9958 -11.86808,-3.6198 -2.57403,-1.7372 -5.17147,-3.1585 -5.7721,-3.1585 -2.05741,0 -11.67357,-9.0383 -11.99077,-11.2702 -0.21408,-1.5062 -1.12815,-2.342 -2.81691,-2.5756 -1.375,-0.1902 -3.01946,-0.7721 -3.65435,-1.2931 -0.63489,-0.521 -2.22115,-0.6795 -3.52503,-0.3522 -1.59534,0.4004 -3.42865,-0.1579 -5.60547,-1.707 -1.77912,-1.266 -5.14286,-3.639 -7.47496,-5.2731 -2.33211,-1.6342 -5.71835,-4.2217 -7.52499,-5.75 -3.25551,-2.754 -6.59714,-3.5879 -7.63682,-1.9056 -0.92811,1.5017 -11.1645,6.1268 -13.56002,6.1268 -2.47216,0 -8.77897,3.401 -10.72299,5.7824 -1.47342,1.805 -2.58847,-0.531 -7.27432,-15.2393 -4.60416,-14.4519 -4.86467,-14.8023 -7.01993,-9.4423 -0.97288,2.4196 -2.31949,6.4242 -2.99246,8.8992 -0.67298,2.475 -1.82843,6.075 -2.56767,8 -0.73925,1.925 -2.78705,8.225 -4.55067,14 -1.76361,5.775 -3.69792,10.8306 -4.29845,11.2347 -0.60053,0.404 -12.22937,0.7415 -25.84187,0.75 -13.6125,0.01 -24.73786,0.3528 -24.72302,0.7653 0.0148,0.4125 8.19031,6.6 18.16772,13.75 20.99095,15.0425 21.81042,15.7476 21.78999,18.75 -0.0351,5.154 -0.3501,5.228 -23.66279,5.5568 -13.46937,0.19 -22.24296,0.7127 -23.03794,1.3725 -0.70618,0.5861 -1.28396,2.0987 -1.28396,3.3613 0,4.1227 -1.12868,5.4563 -5.16392,6.1016 -2.17009,0.347 -5.38347,1.683 -7.14085,2.9688 -1.75738,1.2859 -4.09523,2.758 -5.19523,3.2714 -1.1,0.5134 -4.00619,2.9999 -6.45821,5.5256 -2.50398,2.5791 -5.37751,4.592 -6.55542,4.592 -1.31253,0 -4.97622,2.9892 -9.7918,7.989 l -7.69457,7.9891 v 13.4758 c 0,12.4523 0.15189,13.557 2,14.5461 4.13933,2.2153 0.70121,10 -4.41651,10 -1.28623,0 -2.8988,0.675 -3.58349,1.5 -0.68469,0.825 -2.0043,1.5 -2.93246,1.5 -1.48603,0 -9.30253,3.4236 -20.03036,8.7732 -1.90455,0.9497 -3.70455,2.6268 -4,3.7268 -0.29545,1.1 -1.38851,3.2559 -2.42903,4.7909 -1.56047,2.3021 -1.69184,3.23 -0.75,5.2971 0.62802,1.3783 1.14185,2.6598 1.14185,2.8477 0,1.0571 -7.0845,1.3581 -10.5,0.4462 -7.39179,-1.9736 -10.56017,-2.1182 -16.6767,-0.7613 -4.26176,0.9455 -6.53036,2.0289 -7.56948,3.6148 -0.81611,1.2455 -2.47865,2.2646 -3.69452,2.2646 -1.21587,0 -3.25918,1.1161 -4.54069,2.4802 -1.28151,1.3641 -4.11008,3.408 -6.28572,4.542 -3.54463,1.8476 -4.18666,1.9105 -6.17826,0.6055 -2.89732,-1.8984 -10.34049,-2.2537 -13.70852,-0.6544 -3.02098,1.4344 -7.22819,-0.3196 -37.6061,-15.6785 l -16.25998,-8.221 -3.73292,2.5332 c -2.67496,1.8153 -4.44348,2.3489 -6.24002,1.8826 -1.3789,-0.3579 -4.19741,-0.887 -6.26337,-1.1758 -2.06595,-0.2888 -4.005,-0.9275 -4.30902,-1.4195 -0.30401,-0.4919 -2.06119,-0.8943 -3.90483,-0.8943 -2.57121,0 -3.96986,0.7571 -6.00397,3.25 -9.03567,11.0736 -8.75484,10.9093 -13.67381,8.0035 -1.93119,-1.1407 -2.80102,-2.3408 -2.50822,-3.4605 0.2873,-1.0986 -0.77124,-2.6443 -2.94781,-4.3045 -1.86783,-1.4247 -3.39606,-3.3814 -3.39606,-4.3483 0,-0.9669 -0.66069,-2.6315 -1.4682,-3.6991 -0.80751,-1.0676 -1.48251,-2.8985 -1.5,-4.0687 -0.0175,-1.1701 -0.7068,-2.6877 -1.5318,-3.3724 -2.1295,-1.7673 -2.13737,-17.2262 -0.01,-18.992 1.79054,-1.486 1.06887,-5.3925 -1.64282,-8.8929 -1.01613,-1.3116 -1.84751,-3.0092 -1.84751,-3.7723 0,-2.2264 -7.79644,-10.0581 -12.79263,-12.8505 -3.20648,-1.7921 -5.41511,-2.386 -7.31882,-1.9678 -1.77486,0.3898 -4.13701,-0.1208 -6.76769,-1.4629 -2.222652,-1.1339 -5.237212,-2.0616 -6.699012,-2.0616 -1.52718,0 -4.11134,-1.2762 -6.07463,-3 -1.87925,-1.65 -4.06032,-3 -4.84683,-3 -0.78651,0 -1.89339,-0.8658 -2.45973,-1.924 -1.48566,-2.776 -6.77639,-5.3003 -12.54066,-5.9835 -4.74992,-0.5629 -5.0155,-0.7528 -5.30994,-3.7966 -0.22901,-2.3675 0.22791,-3.54 1.75,-4.4906 1.13297,-0.7075 2.05994,-1.9778 2.05994,-2.8228 0,-1.5044 6.88369,-11.3217 9.41002,-13.4203 0.70333,-0.5842 1.84318,-3.7622 2.533,-7.0622 0.68982,-3.3 1.85218,-7.575 2.58302,-9.5 2.02977,-5.3463 2.70645,-12.015 1.3812,-13.6118 -0.63367,-0.7635 -2.01749,-1.3882 -3.07514,-1.3882 -7.33611,0 -10.07632,-16.0526 -4.52361,-26.5 0.58464,-1.1 2.3299,-4.5182 3.87834,-7.596 1.54845,-3.0778 3.67395,-6.373 4.72334,-7.3227 1.7187,-1.5554 2.19021,-1.5808 4.75303,-0.2555 2.8396,1.4684 2.86277,1.4544 12.090922,-7.3032 8.69926,-8.2557 9.24588,-9.0142 9.24588,-12.8304 0,-3.3472 0.51395,-4.422 2.94086,-6.1501 1.61747,-1.1517 3.25412,-3.0949 3.63699,-4.3181 0.38288,-1.2232 1.98449,-4.1051 3.55915,-6.4042 1.57465,-2.2991 2.863,-4.6434 2.863,-5.2095 0,-0.5662 1.05072,-2.0601 2.33494,-3.3198 1.28421,-1.2598 2.9036,-4.3155 3.59864,-6.7905 0.69503,-2.475 1.87351,-5.1875 2.61884,-6.0277 0.82154,-0.9261 1.66867,-5.6513 2.15136,-12 0.7113,-9.3555 1.02549,-10.573 2.94605,-11.4163 2.12822,-0.9345 4.96267,-7.75593 3.92225,-9.43943 -0.28629,-0.4632 1.04288,-2.2648 2.95369,-4.0036 3.99815,-3.6383 4.3581,-5.9117 1.34451,-8.492 -1.8484,-1.5827 -2.06137,-2.5771 -1.61238,-7.5287 0.32277,-3.5595 0.001,-7.1883 -0.85523,-9.6487 -0.75491,-2.169 -1.37934,-4.6527 -1.38763,-5.5193 -0.0216,-2.2629 3.63997,-5.2532 10.10577,-8.2529 4.71517,-2.1876 6.48754,-2.5079 11,-1.9879 2.95855,0.3409 6.45237,1.4515 7.76404,2.4681 4.02606,3.1204 7.22235,2.3585 13.19554,-3.1454 7.40711,-6.8253 9.817,-6.7685 17.28535,0.4074 3.09884,2.9775 5.63426,6.2588 5.63426,7.2918 0,1.033 1.92953,3.7719 4.28785,6.0864 3.41542,3.352 5.01161,4.2082 7.84501,4.2082 2.32955,0 4.20496,0.7158 5.43422,2.0741 1.20403,1.3305 2.70258,1.9164 4.1794,1.634 3.82777,-0.7317 15.52115,2.9042 17.60111,5.4728 1.02752,1.269 2.90229,2.7599 4.16617,3.3131 1.26388,0.5533 6.31497,4.8498 11.22466,9.5477 7.18648,6.8765 8.78683,8.9234 8.20919,10.5 -0.39464,1.077 -1.96284,6.00833 -3.48488,10.95833 -1.52205,4.95 -3.6213,11.64 -4.66499,14.8667 -1.0437,3.2267 -1.74945,6.0149 -1.56834,6.196 0.18112,0.1811 7.74109,-5.0631 16.79995,-11.6539 9.05886,-6.5908 17.55128,-12.2574 18.87205,-12.5925 3.25728,-0.8262 9.94429,2.9431 15.83971,8.9285 4.32048,4.3864 5.06282,4.7552 9.57243,4.7552 4.63016,0 5.26004,0.3438 11.90933,6.5 l 7.0206,6.5 h 8.20395 c 7.31349,0 8.44309,-0.2546 10.40713,-2.3452 2.28828,-2.4358 6.14545,-9.3634 6.14545,-11.0375 0,-0.5279 0.62547,-1.6703 1.38993,-2.5386 0.76447,-0.8683 2.4137,-4.0537 3.66497,-7.0787 1.25126,-3.025 3.00711,-6.4 3.90188,-7.5 2.14802,-2.64073 5.04322,-9.12383 5.04322,-11.29313 0,-0.9488 2.6885,-6.896 5.97444,-13.216 11.10162,-21.3522 10.50127,-19.7864 9.08654,-23.6988 -1.19983,-3.3181 -1.1092,-3.6471 1.84368,-6.6937 4.00079,-4.1278 7.25372,-13.0516 5.97939,-16.4034 -0.50665,-1.3326 -3.24136,-4.5089 -6.07714,-7.0585 -7.15716,-6.4349 -10.80691,-11.7465 -10.80691,-15.7275 0,-1.81 -0.45,-3.5691 -1,-3.909 -1.86066,-1.1499 -1.01433,-4.1121 2,-7 3.22146,-3.0863 3.71019,-5.3899 1.79439,-8.4576 -0.99073,-1.5864 -0.88151,-2.2886 0.61278,-3.9398 1.77376,-1.96 1.73585,-2.0849 -1.54439,-5.0895 -2.79317,-2.5584 -3.36278,-3.7907 -3.36278,-7.2752 0,-3.8681 -0.23179,-4.2362 -2.97304,-4.7217 -1.73725,-0.3076 -3.4419,-1.467 -4.10104,-2.7891 -1.65171,-3.313 -2.21546,-3.6466 -3.85795,-2.2835 -3.16965,2.6306 -4.87373,-1.835 -2.09977,-5.5025 2.52317,-3.3359 1.79397,-5.9684 -2.7182,-9.8129 -2.3375,-1.9916 -4.77789,-3.6227 -5.42308,-3.6246 -0.64519,0 -2.58234,-1.4129 -4.30477,-3.1353 -2.79584,-2.7958 -3.79608,-3.14442 -9.32692,-3.25002 l -6.19523,-0.1183 -0.32126,-3.9327 c -0.17669,-2.163 -0.96419,-4.8506 -1.75,-5.9725 -2.41476,-3.4475 -1.82523,-5.5948 1.53607,-5.5948 2.02896,0 3.33555,-0.6927 4.13929,-2.1945 1.04682,-1.956 0.76268,-2.5402 -2.61434,-5.3754 l -3.78881,-3.1809 2.23873,-4.6246 2.23873,-4.6246 h 5.97654 c 3.28709,0 6.95945,0.5321 8.16079,1.1824 1.20134,0.6503 4.39573,1.322 7.09863,1.4927 2.70291,0.1707 5.94958,0.9886 7.21482,1.8176 2.86826,1.8794 5.30492,1.8717 7.81194,-0.024 4.23966,-3.2067 9.85944,-0.5461 11.10264,5.2564 0.68332,3.1893 1.72145,5.5411 4.31502,9.7754 1.87413,3.0597 4.03053,3.5536 8.79305,2.0138 1.71976,-0.556 2.42442,-0.1253 3.50936,2.1452 1.58166,3.31 4.87177,4.1317 7.93961,1.9829 1.62735,-1.1398 2.68063,-1.243 4.45169,-0.436 3.56993,1.6266 4.94287,0.4914 7.42131,-6.1359 1.25726,-3.3619 2.66637,-6.3476 3.13135,-6.635 0.46497,-0.2874 -0.38097,-2.7336 -1.87988,-5.4361 -2.32335,-4.189 -2.54093,-5.2129 -1.47528,-6.9427 0.6875,-1.116 1.25001,-3.4977 1.25003,-5.2926 2e-5,-2.5216 0.78367,-3.8889 3.44657,-6.0136 4.10449,-3.275 5.54144,-3.4128 7.82137,-0.75 0.94185,1.1 2.44452,2 3.33926,2 1.66034,0 9.39277,7.299 9.39277,8.8663 0,0.4752 -0.931,2.0476 -2.06888,3.4941 -1.17468,1.4934 -1.82579,3.3961 -1.50645,4.4023 0.77057,2.4278 10.81784,7.289 18.57533,8.9873 1.375,0.301 3.57319,1.3804 4.88486,2.3986 4.07797,3.1658 5.95674,2.4513 6.30764,-2.3986 0.25795,-3.5651 0.67875,-4.3026 2.61138,-4.5766 1.33442,-0.1892 2.69158,-1.3464 3.22525,-2.75 0.70976,-1.8668 1.65538,-2.4234 4.11738,-2.4234 1.7578,0 3.90644,-0.6368 4.77475,-1.4151 1.09455,-0.9811 5.02243,-1.541 12.80714,-1.8255 8.6802,-0.3172 11.64832,-0.7903 13.07874,-2.0849 1.01769,-0.921 2.57585,-1.6745 3.46258,-1.6745 2.09934,0 2.97005,-1.5111 3.30529,-5.7362 0.15004,-1.891 0.98205,-4.2219 1.8489,-5.1797 0.86685,-0.9579 1.57609,-2.9581 1.57609,-4.445 0,-4.0223 2.52459,-9.3143 5.10132,-10.6933 1.60541,-0.8592 6.18061,-1.066 15.61662,-0.706 12.60489,0.481 13.4055,0.3981 14.41801,-1.4938 0.94603,-1.7677 1.8049,-1.9443 7.30745,-1.5026 5.33771,0.4285 6.40374,0.231 7.40449,-1.3714 0.64298,-1.0296 1.84989,-1.872 2.68202,-1.872 0.83213,0 2.02555,-1.125 2.65204,-2.5 0.62649,-1.375 1.46189,-2.5 1.85644,-2.5 1.65007,0 7.96161,3.0968 7.96161,3.9064 0,1.3843 3.22836,2.2652 4.31588,1.1777 0.64193,-0.6419 -0.1154,-2.2307 -2.18923,-4.5926 -3.52181,-4.0111 -3.33903,-5.4854 0.68237,-5.5039 1.97868,-0.01 3.302,-0.9554 4.99935,-3.575 1.31463,-2.0289 4.05138,-4.343 6.3572,-5.3754 5.87814,-2.6317 14.82968,-12.5584 14.85171,-16.4695 0.0112,-1.9841 0.93051,-3.9344 2.60277,-5.5216 1.42202,-1.3496 3.63948,-4.8371 4.92769,-7.75 1.97785,-4.4722 2.75422,-5.2961 4.99085,-5.2961 1.80764,0 2.81472,0.6351 3.17166,2 0.39164,1.4976 1.36402,2 3.8712,2 2.32473,0 3.67537,-0.6113 4.41855,-2 0.60269,-1.1261 2.09382,-2 3.41274,-2 1.2883,0 2.90257,-0.675 3.58726,-1.5 0.68469,-0.825 2.26664,-1.5 3.51545,-1.5 1.24882,0 2.52959,-0.675 2.84618,-1.5 0.31658,-0.825 1.62472,-1.5 2.90698,-1.5 1.28227,0 2.85232,-0.5209 3.48901,-1.1576 0.87682,-0.8768 1.51335,-0.8624 2.62419,0.06 0.91931,0.7629 2.76881,0.9728 4.95629,0.5625 2.87372,-0.5392 3.68078,-0.2977 4.57223,1.368 0.79351,1.4827 2.52514,2.203 6.48563,2.6978 5.23675,0.6543 5.56289,0.5488 10.59337,-3.4276 4.59905,-3.6353 5.79434,-4.1026 10.49348,-4.1026 3.72438,0 5.46983,0.4342 5.86288,1.4584 0.36605,0.954 1.57919,1.3295 3.50659,1.0856 3.15038,-0.3987 7.14772,1.7479 7.14772,3.8384 0,0.6979 1.1024,2.3046 2.44978,3.5704 l 2.44979,2.3014 2.8797,-2.8797 c 1.58384,-1.5838 3.16402,-4.0125 3.51152,-5.397 0.3475,-1.3845 1.57076,-3.5252 2.71838,-4.757 1.7085,-1.8339 2.45534,-2.0423 4.12188,-1.1504 2.92407,1.5649 5.86895,-1.3408 5.86895,-5.7909 0,-4.5749 -1.31524,-6.753 -4.99947,-8.279 -3.3125,-1.3721 -3.5211,-3.2899 -0.41767,-3.8401 1.05443,-0.1869 2.69463,-1.3119 3.6449,-2.5 2.19078,-2.739 2.37198,-10.493 0.28159,-12.0499 -0.83754,-0.6238 -1.47849,-2.6437 -1.46289,-4.6102 0.0153,-1.925 -0.003,-5.8625 -0.0409,-8.75 -0.0378,-2.8875 0.37971,-5.25 0.9277,-5.25 0.54799,0 1.48981,-0.9221 2.09293,-2.049 1.21754,-2.275 -0.3885,-8.951 -2.15333,-8.951 -0.53461,0 -2.59866,-1.5798 -4.58678,-3.5107 l -3.61477,-3.5106 2.16433,-2.3038 c 1.19039,-1.2671 2.16434,-3.3169 2.16434,-4.5551 0,-1.2382 0.43343,-3.0612 0.96317,-4.051 0.52975,-0.9899 1.15287,-5.00863 1.38471,-8.93062 0.34557,-5.84592 0.81944,-7.45311 2.62969,-8.91896 1.56174,-1.26463 2.23675,-2.94895 2.30582,-5.75365 0.0679,-2.7583 1.10521,-5.40858 3.40714,-8.70534 1.82021,-2.60686 3.30947,-5.23812 3.30947,-5.84724 0,-0.60912 2.25,-3.13044 5,-5.60293 2.75,-2.47248 5,-5.08058 5,-5.79577 0,-2.9856 5.7273,-3.30326 9.27287,-0.51432 1.66303,1.30814 4.05678,2 6.91975,2 4.14785,0 4.82064,-0.439 12.84227,-8.37966 l 8.46512,-8.37966 7,0.12966 c 6.8964,0.12774 7.0048,0.17134 7.3227,2.9443 0.1774,1.54805 -0.3851,3.89471 -1.25,5.21481 -0.865,1.3201 -1.5727,3.60717 -1.5727,5.08238 0,1.58511 -1.4316,4.42924 -3.5,6.95348 -1.925,2.34921 -3.5,4.6629 -3.5,5.14155 0,0.47864 -0.9,2.63556 -2,4.79314 -1.1,2.15759 -2,5.60118 -2,7.65243 0,2.05125 -0.45,4.00765 -1,4.34757 -2.21064,1.36625 -0.7271,3.50937 4.4993,6.49958 8.2345,4.71131 8.1774,7.96563 -0.3018,17.20285 -2.3721,2.5843 -2.6087,2.6363 -5.4068,1.1894 -1.60933,-0.8323 -3.90812,-1.3734 -5.1084,-1.2025 -1.73522,0.247 -2.12207,0.8822 -1.88824,3.1003 0.1923,1.8243 -0.77838,4.3788 -2.80484,7.3814 l -3.09891,4.5917 3.30484,2.828 c 1.81766,1.5554 4.49419,2.8463 5.94785,2.8686 1.45827,0.022 2.9151,0.7497 3.25,1.6225 1.0932,2.8488 0.6371,7.1483 -0.89301,8.4182 -1.99355,1.6545 -1.99355,9.3455 0,11 2.08521,1.7306 1.87211,5.2572 -0.5,8.2728 -1.1,1.3985 -2,3.05 -2,3.6701 0,1.9267 -3.15787,6.0571 -4.6309,6.0571 -1.80886,0 -1.52532,-5.6377 0.44008,-8.75 1.24438,-1.9706 1.2174,-2.5605 -0.21722,-4.75 -1.38666,-2.1163 -2.40739,-2.5 -6.65055,-2.5 -4.98829,0 -5.0218,-0.022 -6.94141,-4.5 -2.20443,-5.1428 -3.66453,-5.5505 -7.03375,-1.9641 -2.30363,2.4521 -2.32819,2.6421 -0.74297,5.75 0.90167,1.7677 1.92577,4.227 2.27578,5.4651 0.35001,1.2381 1.50591,2.7164 2.56866,3.2852 2.49882,1.3373 2.46785,3.6068 -0.0677,4.9638 -2.21761,1.1868 -2.65925,4.9407 -0.8,6.8 0.66,0.66 2.4049,1.2 3.87755,1.2 1.47266,0 3.23776,0.675 3.92245,1.5 0.68469,0.825 2.51743,1.5 4.07275,1.5 1.55533,0 3.18773,0.6067 3.62756,1.3483 0.43983,0.7416 2.57279,1.6272 4.73991,1.968 4.70365,0.7397 8.41417,3.9172 6.86537,5.8791 -0.5664,0.7175 -1.3179,2.5121 -1.67,3.9879 -0.35214,1.4759 -1.53919,2.9687 -2.63792,3.3174 -3.06897,0.9741 -2.40549,2.8386 2.00233,5.6269 3.08119,1.9492 6.33219,1.7867 8.79199,-0.4394 1.026,-0.9285 2.6591,-1.6882 3.629,-1.6882 0.97,0 2.8675,-0.8684 4.2168,-1.9298 1.7807,-1.4006 3.3895,-1.7778 5.8681,-1.3756 3.0818,0.5002 3.6135,0.2174 5.4531,-2.9005 2.6535,-4.4975 6.0669,-6.3858 8.8503,-4.8962 4.9516,2.65 14.6016,0.4046 18.0308,-4.1956 1.7471,-2.3437 3.6253,-0.8682 5.2542,4.1277 0.6581,2.0185 2.0311,4.7432 3.0511,6.0548 2.3058,2.9651 2.3255,3.8233 0.1046,4.5643 -0.9625,0.3212 -2.8528,1.434 -4.2007,2.4731 -2.0918,1.6125 -2.2569,2.1227 -1.1276,3.4835 0.7278,0.8768 2.1065,1.5943 3.0639,1.5943 0.9574,0 3.8852,2.2925 6.5062,5.0946 4.2892,4.5856 5.0773,5.0301 7.8868,4.4486 4.3585,-0.9021 13.1086,-2.2993 19.6214,-3.133 3.025,-0.3872 6.489,-1.3493 7.6979,-2.138 1.2088,-0.7886 3.4588,-1.3201 5,-1.1811 6.6713,0.6019 11.5461,-1.2087 16.9082,-6.2799 5.5315,-5.2315 11.9545,-7.7752 19.6936,-7.7994 2.0898,-0.01 5.0148,-0.6385 6.5,-1.4045 1.5422,-0.7954 4.3788,-1.2064 6.614,-0.9584 2.1569,0.2393 6.3566,-0.3341 9.3561,-1.2776 5.1899,-1.6324 5.5989,-1.6276 8.8153,0.1046 3.565,1.9198 5.2712,5.0678 3.6341,6.7049 -0.6393,0.6392 -0.2804,2.634 1.0332,5.7433 2.6382,6.2442 7.2624,9.0147 12.1168,7.2593 1.8001,-0.6509 4.3659,-1.1994 5.7018,-1.2189 4.5798,-0.067 7.1596,-2.5934 11.8176,-11.5739 4.215,-8.1264 4.8868,-8.9173 7.8152,-9.2005 1.7621,-0.1705 4.0406,0.1379 5.0633,0.6852 1.3197,0.7063 2.567,0.5899 4.2962,-0.4008 4.589,-2.6292 5.0754,-2.7384 7.2542,-1.628 4.4548,2.2702 7.238,2.8775 9.4325,2.058 1.9172,-0.7158 2.25,-1.5723 2.25,-5.7905 0,-6.9196 -0.66,-8.2375 -3.7386,-7.4648 -2.3462,0.5889 -2.4909,0.4248 -1.9909,-2.2571 0.2966,-1.5907 0.9195,-4.2421 1.3844,-5.8921 0.7479,-2.6551 1.0329,-25.0092 0.4206,-33 -0.1265,-1.65 0.1423,-7.29 0.5973,-12.5333 0.7686,-8.8583 1.0912,-9.885 4.5554,-14.5 2.0504,-2.73171 6.0529,-9.57052 8.8943,-15.19738 4.5935,-9.0966 5.6212,-10.44234 9.2718,-12.14047 2.2581,-1.0504 5.6512,-2.18946 7.5401,-2.53123 1.8888,-0.34177 4.1862,-1.30191 5.1053,-2.13363 2.2547,-2.04053 4.4828,-0.98976 6.3804,3.00897 0.866,1.82506 3.1508,5.66048 5.0772,8.52314 1.9264,2.86267 3.5026,5.7375 3.5026,6.38852 0,0.65102 2.4097,3.56344 5.3549,6.47205 4.9468,4.88534 5.6205,5.23854 8.8405,4.63446 1.9171,-0.35965 5.661,-2.30479 8.3198,-4.32253 5.3248,-4.04099 7.4706,-8.36054 5.6229,-11.31919 -2.0649,-3.3063 -1.4088,-19.59569 1.0673,-26.50052 1.8371,-5.12297 2.0079,-6.58548 1.0216,-8.75 -1.4963,-3.28405 -3.0061,-3.31017 -4.2367,-0.0733 -1.3373,3.5172 -3.4738,4.0258 -6.5957,1.57008 -1.4654,-1.15264 -3.2346,-2.09571 -3.9316,-2.09571 -0.697,0 -1.7258,-1.31513 -2.2861,-2.92252 -1.1335,-3.25152 -5.3068,-6.18769 -5.9694,-4.19984 -0.5051,1.51506 -6.0138,4.36011 -7.1193,3.67685 -0.4692,-0.28998 -1.9185,0.30799 -3.2207,1.32882 -1.3021,1.02083 -3.8566,2.1813 -5.6766,2.57881 -1.82,0.39752 -4.8646,2.2783 -6.7659,4.17953 -3.2478,3.24792 -5.4249,3.69099 -5.4249,1.10405 0,-0.62494 -1.2375,-2.43528 -2.75,-4.02298 l -2.75,-2.88672 2.8681,-2.29971 c 1.5774,-1.26484 4.7274,-3.26989 6.9999,-4.45567 2.2725,-1.18577 4.8069,-2.56047 5.6319,-3.05487 3.428,-2.05432 8.4325,-4.02575 10.2194,-4.02575 1.0516,0 2.7203,-0.43256 3.7082,-0.96125 1.2603,-0.67447 2.3594,-0.53478 3.6843,0.4682 1.0384,0.78619 2.2256,1.44376 2.6381,1.46125 1.3721,0.0582 0.7737,-4.70361 -0.75,-5.9682 -1.9162,-1.59032 -1.9063,-3.45081 0.029,-5.38576 2.4843,-2.48424 1.1626,-3.29621 33.6119,20.6494 5.0411,3.72 9.3386,6.59065 9.55,6.37923 0.2114,-0.21143 -0.031,-1.45507 -0.5388,-2.76364 -0.5078,-1.30858 -2.1579,-6.42923 -3.6668,-11.37923 -1.509,-4.95 -3.1696,-10.10871 -3.6902,-11.4638 -2.3017,-5.99063 -6.7947,-20.19419 -6.7947,-21.47965 0,-2.93668 3.0427,-4.55655 8.5589,-4.55655 5.2418,0 5.4982,-0.13018 7.9713,-4.04777 3.1458,-4.98329 4.8922,-5.72463 8.4856,-3.60199 1.6119,0.95221 4.9489,1.64976 7.8921,1.64976 3.1888,0 6.4974,0.74933 8.8309,2 3.0553,1.63755 5.6421,2 14.2739,2 13.298,0 14.9873,-0.91026 14.9873,-8.07575 0,-4.71337 0.1183,-4.93267 2.3567,-4.37086 1.4925,0.37458 3.6011,-0.16715 5.75,-1.47721 1.8663,-1.13778 4.4058,-2.07038 5.6433,-2.07244 1.316,-0.002 2.25,-0.61681 2.25,-1.48068 0,-0.81233 1.1196,-2.21053 2.488,-3.10712 2.0673,-1.35455 4.0146,-1.50933 11.5179,-0.91547 8.7859,0.69538 11.9941,6.8e-4 11.9941,-2.59723 0,-2.28408 -6.8569,-4.30706 -15.4195,-4.54917 l -8.9196,-0.25221 -5.8304,-5.76963 c -6.2653,-6.1999 -6.9876,-8.12852 -3.7917,-10.12439 2.6407,-1.64912 1.6312,-3.20784 -2.0776,-3.20784 -4.2421,0 -10.9991,2.86316 -14.5088,6.1478 -3.4098,3.19122 -5.056,3.46658 -7.8935,1.3204 -2.4893,-1.88278 -6.0142,-1.87121 -8.9147,0.0293 -1.257,0.82361 -4.9536,2.02423 -8.2148,2.66804 -4.7694,0.94157 -6.5327,1.85961 -9.0133,4.69266 -2.9045,3.31727 -3.2559,3.45082 -6.0427,2.29648 -2.6522,-1.09856 -3.5485,-0.91095 -8.6472,1.80988 -5.0559,2.69793 -6.6357,3.03547 -14.2073,3.03547 -7.1856,0 -8.8319,-0.31303 -10.5189,-2 -1.1,-1.1 -2,-2.7059 -2,-3.56868 0,-0.86277 -1.6089,-6.37527 -3.5754,-12.25 -1.9665,-5.87472 -3.7932,-11.79234 -4.0593,-13.15026 -0.2661,-1.35791 -0.8468,-2.93291 -1.2904,-3.5 -0.4436,-0.56708 -1.0552,-2.15606 -1.3593,-3.53106 -0.304,-1.375 -1.2289,-4.3 -2.0552,-6.5 -1.268,-3.37578 -1.607,-3.68789 -2.1721,-2 -0.3683,1.1 -1.0312,2.9 -1.4731,4 -0.4419,1.1 -2.7148,8.075 -5.0509,15.5 -2.3361,7.425 -4.8588,14.91801 -5.6059,16.65113 -0.7471,1.73312 -1.3584,4.0653 -1.3584,5.18261 0,2.48915 -3.8487,4.01315 -5.1095,2.02327 -0.4729,-0.74635 -0.8668,-2.36951 -0.8752,-3.60701 -0.028,-4.13478 -3.3762,-6.25 -9.8927,-6.25 -4.0046,0 -6.2743,-0.47801 -7.1225,-1.5 -0.6847,-0.825 -1.795,-1.5 -2.4674,-1.5 -0.6725,0 -1.9284,-0.7875 -2.791,-1.75 -1.3023,-1.45301 -1.5305,-4.33976 -1.3449,-17.01007 0.1492,-10.18984 0.6188,-15.65544 1.4134,-16.45 0.6544,-0.65446 1.1899,-1.98646 1.1899,-2.95999 0,-0.97353 1.3648,-2.77908 3.0328,-4.01232 2.5953,-1.91879 2.938,-2.6805 2.3757,-5.27994 -0.3614,-1.67072 -1.5012,-4.23214 -2.5328,-5.69205 -1.0316,-1.4599 -1.8757,-3.35657 -1.8757,-4.21481 0,-0.85825 -0.9,-2.04212 -2,-2.63082 -1.1,-0.5887 -2,-1.9387 -2,-3 0,-1.0613 0.9,-2.4113 2,-3 2.7988,-1.49785 2.777,-8.54405 -0.036,-11.538 -1.8295,-1.94737 -1.9685,-2.97265 -1.3725,-10.11978 0.5953,-7.13797 0.9941,-8.30583 3.8914,-11.39754 1.7755,-1.89457 4.0806,-3.95835 5.1225,-4.58618 2.1984,-1.32474 2.1276,-5.28017 -0.1248,-6.96874 -2.3534,-1.76437 -1.729,-4.04434 1.4706,-5.36967 2.4658,-1.02135 3.7143,-0.93123 7.5865,0.54761 5.5945,2.13658 6.807,1.12869 6.0678,-5.04382 -0.4116,-3.43665 0.015,-4.5899 3.1449,-8.5 1.9917,-2.48813 3.7598,-4.70862 3.9291,-4.93441 0.1693,-0.2258 1.1959,0.39314 2.2813,1.37541 1.9213,1.73873 2.16,1.60583 9.0289,-5.02549 3.8805,-3.74629 8.0462,-8.86523 9.2572,-11.37542 1.211,-2.51018 3.0008,-5.63715 3.9773,-6.94883 0.9765,-1.31167 1.7754,-3.16907 1.7754,-4.12755 0,-0.95848 0.675,-2.3029 1.5,-2.98759 0.825,-0.68469 1.5,-1.90631 1.5,-2.71471 0,-0.80841 0.9,-2.61399 2,-4.01242 1.1,-1.39842 2,-3.32954 2,-4.29136 0,-1.93185 7.2707,-8.98151 9.2631,-8.98151 0.6915,0 2.4902,-1.14321 3.9971,-2.54047 2.4759,-2.29574 2.7398,-3.20469 2.7398,-9.43579 0,-6.67412 -0.1316,-7.03994 -4.1027,-11.40344 -2.2566,-2.47947 -5.0691,-4.64586 -6.25,-4.81421 -1.6851,-0.2402 -2.2135,-1.10268 -2.4547,-4.00693 -0.3929,-4.72909 -1.5091,-5.06047 -13.0304,-3.86848 -6.7749,0.70092 -9.8935,1.49945 -11.842,3.03211 l -2.6451,2.08062 -2.152,-2.02171 c -4.4545,-4.18482 -11.1967,-1.01735 -8.512,3.99897 1.6641,3.1095 0.3754,3.97933 -5.8958,3.97933 -4.7059,0 -6.1439,0.41387 -7.8174,2.25 -2.8009,3.07314 -3.8169,9.07429 -1.8171,10.73396 2.3156,1.92188 1.9004,2.92839 -2.9807,7.22496 -3.6031,3.17155 -4.5,4.61084 -4.5,7.22108 0,1.97707 0.7778,3.96393 1.9764,5.04866 1.0871,0.98375 1.7233,2.19828 1.4138,2.69897 -0.3094,0.50068 0.1512,1.9997 1.0236,3.33117 2.7289,4.16479 1.9645,7.69484 -3.1638,14.61053 -2.6125,3.52306 -5.8096,8.56858 -7.1047,11.21225 -1.4153,2.88921 -3.4099,5.26936 -5,5.9665 -1.4549,0.6379 -3.0052,1.73179 -3.445,2.43087 -0.4398,0.69908 -2.1164,1.27105 -3.7258,1.27105 -1.6094,0 -4.3995,0.89832 -6.2003,1.99626 -1.8008,1.09795 -3.9492,2.01217 -4.7742,2.03161 -0.825,0.0194 -2.6974,2.00958 -4.1609,4.42252 -1.7101,2.81941 -3.4969,4.50554 -5,4.71839 -1.6866,0.23883 -2.4254,1.07795 -2.6485,3.00804 -0.3759,3.25264 -1.6248,4.37007 -6.1906,5.53883 -2.1494,0.55021 -4.259,2.04476 -5.467,3.87311 -1.0819,1.63745 -3.3319,3.86979 -5,4.96076 -2.6176,1.71193 -4.1026,3.96252 -7.5296,11.41151 -0.3697,0.80356 -1.9775,1.47856 -3.5729,1.5 -2.304,0.031 -3.2535,0.75894 -4.6158,3.53897 -1.0561,2.15514 -1.5081,4.70213 -1.1764,6.62852 0.3474,2.01773 -0.1117,4.32558 -1.2932,6.5 -1.1907,2.1914 -2.0092,6.34664 -2.3385,11.87148 l -0.5066,8.5 h -3.786 c -5.7774,0 -7.4951,3.97524 -3.5378,8.1876 l 2.1763,2.31649 -2.2428,4.74796 c -1.2336,2.61137 -3.0862,6.52306 -4.1169,8.69264 -1.8603,3.91593 -1.858,3.97105 0.3166,7.56257 3.7218,6.14679 6.392,8.9927 9.4318,10.05238 3.4762,1.21179 14.1331,12.81353 17.085,18.59957 1.1487,2.25177 2.7145,4.33431 3.4796,4.62788 0.765,0.29357 2.5828,2.81321 4.0396,5.59921 l 2.6486,5.06544 -2.997,1.54981 c -3.4716,1.79522 -3.5835,2.19293 -1.3206,4.69334 2.1003,2.32083 0.8275,3.84296 -4.4522,5.32428 -4.6533,1.30559 -6.9132,5.06201 -4.5899,7.62928 2.2931,2.5338 1.3047,5.11066 -2.3205,6.05005 -2.4722,0.6406 -3.2536,1.43651 -3.4985,3.56317 -0.2244,1.94865 -0.9582,2.8297 -2.5446,3.05517 -1.2261,0.17426 -3.7443,2.08676 -5.5959,4.25 -3.9167,4.57579 -5.362,4.88611 -6.6748,1.43316 -1.418,-3.72954 -3.2544,-3.04859 -6.0679,2.25 -2.3242,4.37705 -2.8721,4.7913 -6.9772,5.27594 -2.4502,0.28927 -5.0174,0.87833 -5.7049,1.30902 -1.4952,0.93669 -1.6577,4.295 -0.25,5.16504 1.9655,1.21473 0.9354,4.02958 -2.1086,5.76221 -2.3006,1.30946 -2.9121,2.20867 -2.3802,3.5 1.7124,4.15762 1.5868,5.16585 -0.9148,7.34089 -2.88,2.50417 -3.1811,3.98779 -1.391,6.85424 1.0051,1.60939 0.6723,3.14454 -2.0024,9.23643 -1.7644,4.01843 -3.2068,8.85223 -3.2055,10.74178 0,2.14449 -0.8075,4.29778 -2.153,5.72997 -1.1855,1.26193 -2.5113,4.21593 -2.9462,6.56445 -0.435,2.34852 -1.0663,5.39503 -1.403,6.77003 -0.3804,1.55378 -0.027,3.25698 0.9338,4.5 1.531,1.98071 1.5651,1.97589 3.537,-0.5 1.0952,-1.375 3.226,-4.91506 4.7352,-7.86681 2.8821,-5.63699 4.7087,-7.12322 6.5237,-5.30817 0.7875,0.78744 0.4252,2.49212 -1.3033,6.13278 -1.3166,2.77321 -2.6932,5.0422 -3.059,5.0422 -1.1971,0 -4.8627,7.06027 -4.8627,9.36601 0,1.2385 -0.6607,3.1252 -1.4682,4.1929 -0.8075,1.0676 -1.4825,2.5807 -1.5,3.3623 -0.018,0.7817 -0.7017,2.1616 -1.5205,3.0664 -0.8189,0.9047 -2.1011,3.4152 -2.8495,5.5787 -1.6823,4.8632 -4.6618,5.9486 -4.6618,1.6981 0,-1.5852 -0.6134,-3.721 -1.363,-4.7462 -1.2632,-1.7275 -1.7502,-1.3319 -6.6449,5.3977 -4.7469,6.5263 -5.5457,7.1977 -7.887,6.6282 -7.8696,-1.9141 -10.8739,-2.3274 -13.3551,-1.8373 -1.5548,0.3071 -2.75,0.1008 -2.75,-0.4748 0,-1.3696 -2.6439,-2.3059 -4.5,-1.5936 -0.825,0.3165 -1.5,1.3723 -1.5,2.3461 0,0.9738 -0.6834,2.3378 -1.5187,3.0311 -1.239,1.0282 -1.8572,0.9542 -3.3554,-0.4017 -2.0747,-1.8775 -5.1259,-1.2032 -5.1259,1.1328 0,0.8431 -0.6846,2.0334 -1.5213,2.6452 -2.4901,1.8208 -2.7366,6.0647 -0.4713,8.1147 2.8688,2.5963 2.5274,3.7457 -2.485,8.366 -4.8368,4.4584 -7.0574,4.9296 -14.758,3.1318 -2.3454,-0.5475 -7.7569,-1.2614 -12.0254,-1.5863 -6.4011,-0.4873 -7.95,-0.944 -8.8396,-2.6062 -0.8788,-1.642 -0.6338,-2.506 1.3223,-4.6636 3.2435,-3.5775 4.8095,-7.4882 3.7002,-9.2404 -0.4902,-0.7744 -0.8982,-2.8439 -0.9066,-4.5989 -0.018,-3.683 -0.812,-4.4364 -3.8417,-3.6441 -1.3078,0.3419 -2.1736,1.3567 -2.1736,2.5473 0,2.8718 -3.6862,7.6023 -6.2114,7.9709 -2.9981,0.4377 -4.5682,6.298 -2.3453,8.7542 2.3412,2.587 1.8804,4.9778 -1.1933,6.1909 -6.6014,2.6055 -7.8095,4.3283 -4.0402,5.7615 4.1761,1.5877 5.2754,3.7209 3.3959,6.5894 -0.8971,1.369 -2.8628,2.7803 -4.3683,3.1362 -3.435,0.8121 -7.2374,4.1937 -7.2374,6.4366 0,0.9367 -0.6938,2.279 -1.5418,2.9828 -1.2805,1.0627 -2.0617,0.8952 -4.6093,-0.9883 -2.3806,-1.7601 -3.5467,-2.0531 -5.2082,-1.3088 -1.1774,0.5275 -2.6831,0.7715 -3.3461,0.5423 -1.3259,-0.4585 -8.2946,-9.7907 -8.2946,-11.1079 0,-1.0259 4.345,-5.172 5.4201,-5.172 0.4352,0 2.0818,1.086 3.6592,2.4133 3.4621,2.9131 6.6537,2.4192 8.0469,-1.2453 1.2704,-3.3414 -1.4766,-7.2257 -6.2199,-8.795 l -3.4063,-1.1269 -0.5,-8.8731 c -0.275,-4.8801 -1.0625,-9.8559 -1.75,-11.0573 -0.6875,-1.2013 -1.25,-3.3302 -1.25,-4.7309 0,-2.7054 1.2319,-3.2929 8,-3.8149 2.5421,-0.196 3.3924,-0.6804 3.1069,-1.7699 -0.7755,-2.9596 -0.5888,-5.4971 0.3931,-5.3417 0.55,0.087 2.4005,0.3755 4.1122,0.641 1.7116,0.2655 4.0445,0.9818 5.1842,1.5917 2.5811,1.3814 11.868,1.461 12.7036,0.109 0.3399,-0.55 1.6614,-1 2.9366,-1 3.1431,0 4.7935,-2.235 3.9962,-5.4116 -0.8034,-3.2011 1.4446,-6.9412 5.2754,-8.77729 3.3599,-1.61036 5.2347,-6.15968 3.5498,-8.61389 -0.6409,-0.93347 -3.2006,-5.83148 -5.6882,-10.88446 -2.4877,-5.05298 -5.1901,-9.56053 -6.0054,-10.01679 -1.4241,-0.79695 -1.7981,-5.17103 -1.5995,-18.70452 0.032,-2.1497 -0.6226,-4.94637 -1.4538,-6.21482 -1.9306,-2.94659 -1.9357,-6.77932 -0.011,-8.37664 0.825,-0.68469 1.5,-2.49164 1.5,-4.01545 0,-1.54024 0.6661,-3.02618 1.5,-3.34617 1.5109,-0.57976 2.146,-4.57248 0.75,-4.71489 -3.0895,-0.31518 -4.8398,-1.0689 -6.6229,-2.85198 -1.8883,-1.88826 -2.0567,-3.23259 -2.0265,-16.17296 0.032,-13.5397 0.1265,-14.18406 2.3335,-15.8488 2.3179,-1.74843 2.2824,-4.71703 -0.092,-7.69514 -2.9297,-3.67442 -12.24,-1.72926 -15.4941,3.23712 -2.0623,3.14757 -8.3813,3.37491 -11.3479,0.40827 -2.7019,-2.70194 -4.8531,-2.51645 -6.0068,0.51794 -0.5265,1.38486 -2.0904,2.94872 -3.4753,3.47524 -1.38483,0.52653 -2.5179,1.40426 -2.5179,1.95053 0,1.12154 -9.54457,8.65927 -14.27622,11.2745 -1.70978,0.94502 -3.49445,2.40752 -3.96593,3.25 -0.47148,0.84249 -1.55741,1.53179 -2.41319,1.53179 -0.85577,0 -2.89294,1.125 -4.52703,2.5 -3.23,2.71787 -4.36677,3.03853 -5.31763,1.5 -1.05378,-1.70505 -4.37553,-1.10109 -5.5,1 -0.94826,1.77184 -2.09382,2 -10.0418,2 -8.45263,0 -9.10116,-0.15209 -11.21481,-2.63017 -1.23387,-1.4466 -3.74539,-3.26914 -5.58116,-4.05009 -2.56864,-1.09273 -3.16401,-1.81163 -2.58371,-3.11983 0.41473,-0.93495 0.79172,-3.03865 0.83776,-4.6749 0.0625,-2.22128 -0.42297,-3.06929 -1.91628,-3.34723 -4.17346,-0.77678 -12.00509,-10.43209 -11.28888,-13.91762 0.19892,-0.96809 -0.25884,-2.23457 -1.01726,-2.8144 -2.18587,-1.67119 -3.2673,-9.56742 -1.85308,-13.5306 2.6789,-7.50728 5.57897,-10.06961 6.24681,-5.51932 0.46531,3.17037 1.17898,2.88209 6.31941,-2.55262 6.03048,-6.3757 6.5214,-8.35361 1.843,-7.42542 -6.90667,1.37029 -7.13966,1.29859 -7.85786,-2.4178 -0.37202,-1.925 -1.27155,-4.95708 -1.99896,-6.73797 -1.28095,-3.13606 -1.19927,-3.36424 2.59507,-7.25 3.991,-4.08715 8.51175,-5.42134 8.51175,-2.51203 0,0.83334 0.88889,1.5 2,1.5 2.59614,0 2.59614,-2.67601 0,-3.5 -2.3434,-0.74376 -2.46352,-2.06517 -0.5,-5.5 1.93683,-3.38813 1.87892,-3.74432 -1.0501,-6.45885 -2.47703,-2.29563 -3.63999,-5.46428 -3.84843,-10.48557 -0.1055,-2.54147 1.87598,-3.97921 7.89853,-5.73108 3.52523,-1.02544 4.21147,-4.5722 1,-5.16841 -2.97666,-0.55262 -4.5,-2.1288 -4.5,-4.65609 0,-1.24031 -0.675,-2.81531 -1.5,-3.5 -1.98282,-1.64559 -1.89205,-3.22525 0.35136,-6.11514 2.15995,-2.78237 3.02841,-6.20405 3.5753,-14.08654 0.46201,-6.65907 0.99579,-7.79832 3.65379,-7.79832 1.13363,0 2.45363,-1.07807 3.12549,-2.55265 0.9493,-2.08347 0.8495,-3.08348 -0.54295,-5.4407 -1.68566,-2.85361 -1.66718,-2.93229 1.54988,-6.59631 1.79073,-2.03954 4.72541,-4.32226 6.52151,-5.07271 3.69734,-1.54485 3.93493,-2.3865 1.65567,-5.86509 -1.75025,-2.67122 -1.27439,-5.47254 0.92962,-5.47254 0.76035,0 3.49828,1.125 6.0843,2.5 5.68228,3.0213 6.76064,3.08058 9.09603,0.5 0.99548,-1.1 2.42626,-2 3.1795,-2 0.75323,0 2.82099,-3.0375 4.59501,-6.75 3.59171,-7.51639 5.60518,-8.6511 9.25934,-5.2182 1.64795,1.54818 3.07145,2.0331 4.73935,1.61448 2.72218,-0.68322 4.94659,-4.67261 3.71578,-6.6641 -1.3587,-2.19843 4.56646,-6.98218 8.64812,-6.98218 2.1226,0 3.6446,0.57061 4.0013,1.5 0.7565,1.97136 6.7255,1.97136 8.3616,0 0.7939,-0.95659 3.0045,-1.5 6.1021,-1.5 4.6532,0 4.9423,-0.16664 6.8808,-3.96656 2.5006,-4.90148 4.3004,-5.88875 9.9314,-5.44783 3.9653,0.31048 4.7537,-0.0142 7.75,-3.19119 1.8347,-1.94525 3.3357,-4.16634 3.3357,-4.93576 0,-0.76942 1.8005,-2.42488 4.0011,-3.6788 2.2006,-1.25392 4.2363,-3.00568 4.5239,-3.8928 0.2875,-0.88712 3.2544,-3.8039 6.593,-6.48173 3.3387,-2.67784 6.7246,-6.13402 7.5243,-7.68041 0.7996,-1.5464 2.6698,-3.3371 4.1558,-3.97934 1.486,-0.64225 3.9739,-2.19774 5.5286,-3.45665 3.4966,-2.83135 5.6733,-2.93016 5.6733,-0.25754 0,2.45969 2.6807,3.70531 4.3172,2.00604 0.9175,-0.95262 0.678,-1.57061 -1.0672,-2.75475 -1.2375,-0.83964 -2.25,-2.29329 -2.25,-3.23034 0,-2.08924 4.0545,-6.05234 6.192,-6.05234 0.8597,0 2.1063,-0.65451 2.7702,-1.45448 0.7563,-0.9112 3.505,-1.56486 7.3591,-1.75 l 6.152,-0.29552 0.6011,-3.72012 c 0.4403,-2.72489 1.7815,-4.77176 5.0133,-7.65107 l 4.4123,-3.93094 -2.25,-2.41339 c -2.761,-2.96149 -2.8819,-4.78448 -0.3174,-4.78448 2.3348,0 3.4463,-2.99826 2.5777,-6.95293 -0.5221,-2.37729 -0.2163,-3.133 1.6755,-4.14088 3.4912,-1.8599 4.8376,-4.11331 4.2326,-7.08364 -0.4788,-2.35012 -0.2015,-2.71688 2.2681,-3 2.4257,-0.27809 2.8498,-0.80498 3.077,-3.82255 0.3782,-5.02296 2.344,-12 3.3812,-12 0.4866,0 1.7709,-1.4625 2.8541,-3.25 1.2318,-2.03289 3.0052,-3.43888 4.7353,-3.75437 2.26,-0.41212 2.8232,-1.09805 3.0793,-3.75 0.2882,-2.98555 0.5949,-3.24563 3.8269,-3.24563 2.5501,0 4.3151,-0.80156 6.4366,-2.92307 1.6077,-1.6077 2.9231,-3.41854 2.9231,-4.02411 0,-1.34535 5.7735,-9.84354 8.9312,-13.14597 2.8179,-2.94716 5.0313,-7.84099 4.3497,-9.61721 -0.8496,-2.21394 1.8497,-4.42102 5.1403,-4.20295 5.8831,0.3899 10.5788,-0.0925 10.5788,-1.08669 0,-0.55 -1.0125,-1.00689 -2.25,-1.01531 -6.0307,-0.041 -6.4822,-5.08792 -0.5416,-6.05354 7.1803,-1.16713 9.1178,-5.67685 3.653,-8.50283 -2.4923,-1.28882 -3.6479,-1.39098 -5.6119,-0.49612 -3.0433,1.38662 -5.2834,-0.0864 -4.5275,-2.97718 0.2836,-1.0843 2.9371,-4.18461 5.8968,-6.88958 3.8909,-3.55607 5.3812,-5.64465 5.3812,-7.54144 0,-3.27274 2.4227,-8.08849 4.463,-8.87143 1.8786,-0.72089 4.1669,0.0778 7.787,2.71796 2.0063,1.46323 2.75,2.8684 2.75,5.19621 0,2.58446 0.5559,3.4209 2.9263,4.40273 5.062,2.09674 12.0737,-1.92285 12.0737,-6.92147 0,-1.95237 1.2938,-4.13255 4.25,-7.1617 2.3375,-2.39518 5.3884,-6.60649 6.7798,-9.35847 2.2284,-4.407423 2.9891,-5.078253 6.3844,-5.630143 2.12,-0.34459 4.2694,-1.36778 4.7764,-2.273736 0.507,-0.90597 3.0824,-2.74206 5.7231,-4.08019 2.6406,-1.33814 6.1678,-3.5829 7.8381,-4.98837 1.6703,-1.40547 3.5406,-2.55539 4.1561,-2.55539 0.6156,0 1.9854,-0.5409 3.044,-1.20201 1.5194,-0.94888 2.457,-0.91714 4.4523,0.15074 2.0413,1.09246 2.8203,1.10984 4.0487,0.0903 0.9094,-0.75468 2.5723,-0.99857 4.1347,-0.60642 2.781,0.698 9.4123,-1.01647 9.4123,-2.43348 0,-0.46515 -1.1572,-2.22103 -2.5717,-3.90197 -2.8273,-3.36007 -2.5605,-5.20604 0.6318,-4.37124 1.5121,0.39543 2.206,-0.0274 2.6156,-1.59388 0.7533,-2.88047 7.2175,-3.01257 9.7633,-0.19952 0.9619,1.06291 2.3826,1.68938 3.1572,1.39215 2.9663,-1.13827 6.1349,0.58057 6.7512,3.66232 0.3314,1.65713 1.0239,3.01297 1.5387,3.01297 1.6692,0 6.1139,-6.08981 6.1139,-8.37673 0,-2.66826 1.7542,-4.62327 4.1485,-4.62327 0.9616,0 2.9624,-1.125 4.446,-2.5 1.4837,-1.375 3.0515,-2.5 3.4841,-2.5 2.0048,0 2.0153,-4.27118 0.016,-6.39953 -2.7223,-2.89774 -2.6081,-4.2678 0.7588,-9.10047 l 2.7867,-4 6.93,0.34984 c 7.0227,0.35451 8.7805,1.06778 10.4863,4.25521 0.7422,1.38682 0.082,2.76954 -3.0546,6.39307 -2.2009,2.54293 -4.0016,5.42115 -4.0016,6.39603 0,0.97488 -0.3218,2.09432 -0.7151,2.48763 -0.3933,0.39332 -1.2605,2.83082 -1.927,5.41667 -1.0071,3.90751 -0.9669,5.08155 0.2382,6.95155 0.7975,1.2375 1.7771,2.2379 2.177,2.22312 0.3998,-0.0148 2.0718,-3.03521 3.7155,-6.71205 1.6437,-3.67684 4.0062,-8.18473 5.25,-10.01753 1.2438,-1.8328 2.2614,-3.95523 2.2614,-4.71652 0,-0.76129 0.6156,-1.99979 1.3681,-2.75223 0.7524,-0.75244 1.6829,-2.36006 2.0677,-3.57249 0.839,-2.64355 4.3736,-4.79289 5.7002,-3.46626 0.5618,0.56176 0.1296,1.92783 -1.1073,3.50037 -2.3675,3.0098 -2.5321,5.51462 -0.5356,8.15173 1.0729,1.41724 1.1639,2.3842 0.3649,3.87717 -0.7874,1.47137 -0.7388,2.19033 0.187,2.76247 1.598,0.98766 6.3684,-4.50812 5.6157,-6.46967 -0.2981,-0.77679 -0.037,-2.74972 0.5798,-4.3843 0.9209,-2.43975 0.8133,-3.44277 -0.6009,-5.60113 -1.7723,-2.70484 -1.4735,-4.57268 0.7314,-4.57268 0.6891,0 2.251,-1.35 3.4709,-3 2.6601,-3.598 3.4169,-3.66188 8.9184,-0.75278 4.6422,2.45478 6.0978,5.01397 4.1716,7.33486 -0.9801,1.18089 -0.9666,1.98461 0.066,3.91345 l 1.2991,2.42736 3.6642,-4.12905 3.6642,-4.12906 2.2193,3.11672 c 2.1088,2.96148 2.4699,3.08705 7.2499,2.52093 4.6614,-0.55208 5.2644,-0.36655 8.2181,2.52833 1.7532,1.71826 5.5947,5.36462 8.5368,8.10301 l 5.3492,4.97889 -2.009,2.82137 c -2.793,3.92234 -9.9211,7.26597 -15.4899,7.26597 -2.5198,0 -4.8405,0.41906 -5.157,0.93124 -0.3165,0.51219 0.5911,2.64969 2.017,4.75 1.7191,2.53217 2.4559,4.75166 2.187,6.58774 -0.2268,1.54772 0.1807,3.25566 0.9239,3.87244 1.9538,1.62153 4.3296,-0.7354 4.3296,-4.29525 0,-3.71346 2.08,-4.51061 6.4092,-2.45627 1.8662,0.88556 4.9226,1.6101 6.7919,1.6101 1.8694,0 3.8936,0.4947 4.4982,1.09934 1.9106,1.91053 4.9579,10e-4 6.5772,-4.12132 1.3648,-3.47437 1.9647,-3.97802 4.7387,-3.97802 1.7468,0 4.3705,0.82143 5.8304,1.8254 1.4599,1.00398 4.1169,2.40857 5.9044,3.12132 3.2932,1.31314 4.1965,3.7068 2.1653,5.73794 -0.5965,0.59657 -0.934,2.14907 -0.75,3.45 0.2756,1.94756 1.0102,2.42095 4.1593,2.68016 3.2059,0.26388 3.9902,0.78964 4.8478,3.249996 1.1245,3.22569 3.2348,3.698123 6.2687,1.40338 2.8607,-2.16366 23.7893,-2.10045 25.5967,0.0773 0.7054,0.85003 1.8746,1.31834 2.5982,1.04068 1.4027,-0.53826 10.8859,4.108333 15.864,7.773043 1.65,1.21468 4.125,2.75854 5.5,3.43081 1.375,0.67228 5.2,2.98785 8.5,5.14572 3.3,2.15788 6.7651,3.9551 7.7003,3.99383 0.9352,0.0387 2.0602,0.66944 2.5,1.40158 1.186,1.97421 7.3268,4.84342 11.1336,5.20205 1.8337,0.17275 3.8587,0.96783 4.5,1.76686 1.7029,2.1215 7.4837,2.89534 11.3055,1.51337 3.0017,-1.08545 3.5612,-0.97361 5.8402,1.16736 1.3862,1.3023 2.5204,2.87305 2.5204,3.49056 0,0.61751 1.7065,2.78906 3.7922,4.82568 3.018,2.94699 4.5628,3.70295 7.5672,3.70295 4.6131,0 11.5943,5.23483 11.6226,8.71521 0.01,1.21836 1.368,3.75277 3.018,5.63201 2.4595,2.80126 3,4.2988 3,8.31256 0,3.65826 0.5055,5.32859 2,6.60819 2.5932,2.22034 2.5932,6.34421 0,7.73203 -1.18,0.63151 -2,2.09383 -2,3.56657 0,1.37291 -0.675,2.75522 -1.5,3.07181 -0.825,0.31658 -1.5,1.62031 -1.5,2.89718 0,1.27687 -0.675,2.99659 -1.5,3.82159 -0.825,0.825 -1.5,2.21154 -1.5,3.08121 0,0.86967 -0.9,2.35182 -2,3.29367 -1.1,0.94185 -2,2.51879 -2,3.50431 0,1.82367 -5.6786,7.68032 -7.5,7.73513 -0.55,0.0165 -2.7692,1.60474 -4.9316,3.52931 -2.9872,2.65858 -4.8196,3.49922 -7.6276,3.49922 -2.0653,0 -4.2451,0.66179 -4.9408,1.5 -1.0034,1.20904 -4.1007,1.5 -15.9674,1.5 -13.1851,0 -14.9019,-0.19807 -16.439,-1.8966 -1.3106,-1.44815 -2.6139,-1.77623 -5.5121,-1.3875 -2.1057,0.28243 -6.2653,-0.20884 -9.3425,-1.1034 -3.0507,-0.88687 -7.5885,-1.6125 -10.0839,-1.6125 -2.4954,0 -4.8237,-0.4638 -5.1741,-1.03068 -0.3637,-0.58862 -2.0599,-0.76374 -3.9546,-0.40829 -2.8379,0.53239 -3.8812,0.1132 -7.2155,-2.89909 -2.1438,-1.93682 -5.0033,-3.62307 -6.3544,-3.74724 -4.9727,-0.45698 -8.0343,0.12453 -8.6144,1.63618 -0.6654,1.73397 3.2332,6.44912 5.3322,6.44912 0.7291,0 1.3257,0.87883 1.3257,1.95295 0,3.74577 2.2065,7.04705 4.7102,7.04705 3.7766,0 8.0947,2.73681 10.6951,6.7785 1.3168,2.04683 4.0297,5.42623 6.0284,7.50979 3.6239,3.77761 3.6293,3.79647 1.9157,6.69734 -1.4334,2.42666 -1.5168,3.35143 -0.503,5.57663 1.3787,3.02588 0.7776,5.98432 -1.3845,6.81398 -2.268,0.87032 -1.7612,2.55005 2.0381,6.75544 2.3197,2.56763 3.5,4.86072 3.5,6.79977 0,1.60913 0.5625,3.53248 1.25,4.27411 0.6875,0.74163 2.3023,2.83442 3.5885,4.65065 2.0279,2.86359 2.1838,3.67577 1.1737,6.11437 -0.9138,2.20615 -0.879,3.32041 0.1615,5.17078 1.9631,3.49115 2.7679,3.82657 9.2216,3.84333 l 5.8952,0.0153 6.4681,6.5 c 5.4505,5.47736 7.0073,6.5 9.8953,6.5 1.904,0 4.679,0.92555 6.244,2.08266 6.0896,4.50218 19.1021,-1.31566 19.1021,-8.54045 0,-4.59276 -3.2307,-6.54221 -10.8422,-6.54221 h -5.9126 l -9.6226,-10.02539 c -7.76,-8.0848 -9.6226,-10.60118 -9.6226,-13 0,-1.63603 0.45,-2.97461 1,-2.97461 2.0818,0 5,-4.10376 5,-7.03138 0,-3.64111 2.3326,-4.88261 4.866,-2.5899 0.9853,0.89171 3.2027,1.62128 4.9276,1.62128 2.1126,0 3.4854,0.6527 4.2064,2 0.6315,1.17999 2.0938,2 3.5666,2 1.3729,0 2.7552,0.675 3.0718,1.5 0.741,1.93096 3.7591,1.93096 5.3616,0 1.6182,-1.94977 6.3997,-1.92831 8.0299,0.036 0.8053,0.97028 2.3251,1.3705 4.1264,1.08661 1.9568,-0.30839 3.2427,0.1016 4.0977,1.30649 0.6853,0.96575 3.046,2.00744 5.246,2.31485 2.2,0.30742 4.7704,0.86988 5.7121,1.24992 1.1734,0.47359 2.5418,-0.20328 4.3494,-2.15147 1.8221,-1.9637 3.6114,-2.84244 5.788,-2.84244 2.4013,0 3.2195,-0.48154 3.4406,-2.02501 0.3159,-2.20526 -3.9231,-7.47084 -7.5401,-9.36628 -1.2375,-0.64849 -2.2548,-1.95074 -2.2608,-2.89389 -0.011,-1.80356 -7.4753,-10.21482 -9.0644,-10.21482 -0.5086,0 -0.9248,-2.63931 -0.9248,-5.86514 0,-4.35094 0.5163,-6.52156 2,-8.40773 1.1,-1.39842 2,-3.24327 2,-4.09967 0,-0.8564 1.0125,-2.07613 2.25,-2.71051 3.5489,-1.81927 9.75,-8.15705 9.75,-9.96491 0,-0.90313 0.9461,-2.49824 2.1024,-3.54469 2.7937,-2.52826 4.8976,-6.73225 4.8976,-9.78626 0,-1.36303 0.6027,-3.08091 1.3393,-3.81752 0.7366,-0.7366 1.7759,-2.68125 2.3095,-4.32142 1.4334,-4.40553 6.2964,-6.47871 15.2012,-6.48059 7.0675,-10e-4 7.4845,0.13295 10.85,3.49844 5.4345,5.43449 8.3677,4.28048 7.5504,-2.97052 -0.4136,-3.67005 -0.1645,-4.50507 1.6307,-5.46584 2.8197,-1.50904 2.8891,-6.95968 0.1189,-9.33161 -1.1,-0.94185 -2,-2.40978 -2,-3.26208 0,-0.85229 -0.8796,-3.27389 -1.9548,-5.38133 -1.9076,-3.73933 -4.1543,-5.04632 -8.7238,-5.07496 -3.0549,-0.0191 -5.3214,-2.62809 -5.3214,-6.12558 0,-1.63298 -0.8947,-4.18834 -1.9882,-5.67857 -1.6365,-2.23022 -2.0084,-4.42174 -2.1025,-12.38911 -0.063,-5.32379 0.1884,-10.16949 0.5585,-10.76824 0.37,-0.59875 -0.2844,-2.63743 -1.4543,-4.53039 -1.17,-1.89297 -2.2233,-4.69288 -2.3409,-6.22203 -0.1438,-1.87107 -0.8576,-2.90426 -2.1826,-3.15945 -1.083,-0.20855 -2.4896,-1.12236 -3.1258,-2.03067 -0.6362,-0.90832 -3.2284,-2.68614 -5.7605,-3.95071 -3.1251,-1.560793 -4.6037,-2.929093 -4.6037,-4.260453 0,-2.665646 2.6762,-3.501476 4.866,-1.51974 2.8637,2.59159 23.3634,2.31818 28.3952,-0.378716 2.0524,-1.1 4.7569,-2 6.01,-2 2.6218,0 13.7288,9.980539 13.7288,12.336409 0,0.82967 2.326,3.54322 5.1689,6.0301 6.0754,5.31462 5.85,6.07762 -3.0213,10.22617 -6.989,3.26836 -8.9251,4.93904 -10.7301,9.25914 -2.8297,6.77222 -0.6907,12.14818 4.8333,12.14818 0.9932,0 4.0185,2.37741 6.7229,5.28313 5.2308,5.62014 9.5906,7.15174 12.0212,4.22304 1.4943,-1.8005 4.1569,-1.95434 5.7775,-0.33381 0.8964,0.89648 2.0613,0.74436 4.95,-0.64644 2.0777,-1.00034 4.4526,-2.13578 5.2776,-2.52322 2.0781,-0.97589 2.4282,-5.40245 0.5506,-6.96074 -0.8528,-0.70776 -1.5506,-2.61133 -1.5506,-4.23014 0,-1.61882 -0.4408,-3.76693 -0.9795,-4.77358 -0.5388,-1.00666 -1.1816,-3.89291 -1.4284,-6.41389 -0.2469,-2.52098 -0.7384,-5.05199 -1.0922,-5.62445 -0.9711,-1.57127 3.9734,-6.88771 8.7599,-9.41887 4.5203,-2.39038 5.5236,-4.81817 2.2402,-5.42057 -2.5972,-0.4765 -5.5,-3.0752 -5.5,-4.92385 0,-1.046433 0.692,-1.279763 2.471,-0.833233 3.8545,0.967403 7.8394,-3.48333 14.3016,-15.973106 3.8873,-7.51329 7.0928,-12.28949 9.9774,-14.86636 l 4.25,-3.79664 V 529.83952 994.41727 l -3.9578,1.0657 c -2.1767,0.5862 -4.2283,1.5035 -4.559,2.0386 -0.3307,0.535 -1.8549,0.9728 -3.3872,0.9728 -1.5323,0 -3.6005,0.9 -4.596,2.00003 -0.9955,1.1 -2.6137,2 -3.596,2 -0.9823,0 -2.0279,0.3915 -2.3236,0.87 -0.4603,0.7447 -7.7675,4.5671 -12.5804,6.5808 -1.6926,0.7082 -4.2832,2.2523 -8.0959,4.8254 -1.4638,0.9878 -3.1168,3.4903 -3.7902,5.7378 -0.9615,3.2095 -1.6618,3.986 -3.595,3.986 -1.3205,0 -2.679,-0.45 -3.0189,-1 -0.3399,-0.55 -1.9186,-1 -3.5081,-1 -2.1264,0 -3.5937,0.9225 -5.5528,3.491 -2.0267,2.6571 -3.1838,3.3602 -4.8442,2.9434 -1.3591,-0.3411 -3.167,0.2278 -4.7959,1.5091 -1.4379,1.131 -3.3206,2.0565 -4.1837,2.0565 -0.863,0 -2.3332,1.166 -3.267,2.5912 -0.9338,1.4251 -2.7442,2.989 -4.0231,3.4752 -1.3584,0.5165 -2.3252,1.7114 -2.3252,2.874 0,1.0945 -1.2657,3.4681 -2.8126,5.2748 -3.4067,3.9784 -8.1874,12.1371 -8.1874,13.9723 0,0.7323 0.9,1.8934 2,2.5804 1.1,0.687 2,2.0401 2,3.0069 0,3.0195 9.2083,12.1678 13.4175,13.33 3.311,0.9142 4.0723,0.7837 6.0017,-1.0289 1.2153,-1.1418 3.1774,-2.0759 4.3601,-2.0759 1.1827,0 2.632,-0.9 3.2207,-2 0.8849,-1.6534 2.0938,-2 6.9762,-2 3.2482,0 6.1839,-0.45 6.5238,-1 0.9355,-1.5137 3.6217,-1.1999 5.681,0.6638 1.5507,1.4033 2.2087,1.4656 4.2037,0.3979 1.6501,-0.8831 2.9323,-0.9647 4.2403,-0.2698 2.7849,1.4795 14.4735,0.4289 16.5958,-1.4917 2.173,-1.9666 2.2911,-4.6305 0.2792,-6.3002 -0.825,-0.6847 -1.5,-2.7582 -1.5,-4.6078 0,-3.8513 5.5223,-15.0662 8.0973,-16.4443 0.9482,-0.5074 2.7472,-2.5782 3.9978,-4.6017 2.5728,-4.163 3.2702,-3.0388 -5.8138,-9.3722 -3.8646,-2.6944 -8.2813,-9.4147 -8.2813,-12.6006 0,-0.7372 1.9505,-1.5095 4.75,-1.8807 6.2619,-0.8303 9.1121,-2.3253 10.8535,-5.6929 0.818,-1.5818 2.6051,-3.0508 4.1647,-3.4232 1.5025,-0.3588 3.2943,-1.0954 3.9818,-1.6369 0.9965,-0.7849 1.25,9.2124 1.25,49.2928 0,47.8047 -0.086,50.2015 -1.75,48.7338 -0.9625,-0.849 -4,-1.8173 -6.75,-2.1518 -7.6973,-0.9363 -10.0255,-1.8422 -13.9582,-5.4308 -3.8442,-3.508 -5.1865,-4.0204 -12.8265,-4.8963 -3.263,-0.3741 -5.1029,-1.1431 -5.7852,-2.418 -1.7932,-3.3507 -8.9301,-1.6385 -8.9301,2.1424 0,2.649 -6.3904,5.605 -14.0354,6.4923 -5.0157,0.5821 -6.4081,0.4045 -7.9799,-1.018 -3.5265,-3.1914 -10.8453,0.6401 -11.4321,5.9849 -0.1782,1.624 -0.8546,3.1296 -1.503,3.3458 -0.6483,0.2161 -1.5886,1.4707 -2.0895,2.7881 -0.7229,1.9015 -1.6369,2.3951 -4.4353,2.3951 -2.3462,0 -3.5248,0.4658 -3.5248,1.393 0,1.6804 -2.1535,2.607 -6.0587,2.607 -1.9847,0 -3.4103,0.7862 -4.5332,2.5 -0.901,1.375 -2.2614,2.5 -3.0231,2.5 -0.7617,0 -1.385,0.8693 -1.385,1.9319 0,2.5678 -5.0656,6.0681 -8.7819,6.0681 -1.6353,0 -3.5334,0.675 -4.2181,1.5 -1.6443,1.9812 -7.6055,1.9705 -8.3674,-0.015 -0.3197,-0.8333 -1.7179,-1.9471 -3.107,-2.4753 -2.9016,-1.1032 -3.1357,-2.6112 -1.0318,-6.6454 1.884,-3.6123 1.9234,-7.0289 0.093,-8.0646 -0.7773,-0.4399 -1.5648,-2.1355 -1.75,-3.7682 -0.3276,-2.8871 -0.6801,-3.1804 -7.9644,-6.6258 -0.8952,-0.4234 -3.0162,-0.551 -4.7133,-0.2835 -2.2807,0.3594 -3.5446,-0.05 -4.8447,-1.568 -1.0473,-1.2231 -2.9838,-2.0602 -4.7866,-2.069 -1.6653,-0.01 -4.1488,-0.5819 -5.5189,-1.2751 -2.7454,-1.389 -3.9839,-4.7101 -1.7565,-4.7101 1.8966,0 5.7476,-4.2297 5.7476,-6.3127 0,-2.5305 13.0508,-14.6782 15.7748,-14.6832 2.5315,0 5.363,-5.1249 3.2276,-5.8366 -0.6173,-0.2058 -2.2374,-1.4076 -3.6002,-2.6706 -2.0442,-1.8945 -3.2152,-2.1989 -6.6901,-1.7392 -2.5398,0.336 -4.7548,1.3229 -5.5791,2.4858 -0.8166,1.1522 -2.1102,1.7342 -3.2132,1.4458 -1.0154,-0.2656 -2.3679,0.1457 -3.0055,0.9139 -1.6344,1.9694 -11.7794,1.9119 -12.5403,-0.071 -0.4257,-1.1092 -1.6061,-1.325 -4.8301,-0.8831 -3.5334,0.4843 -4.5071,0.2415 -5.6658,-1.4126 -0.7695,-1.0987 -2.2943,-2.1718 -3.3886,-2.3849 -1.4507,-0.2824 -1.9895,-1.189 -1.9895,-3.3477 0,-2.1689 -0.5347,-3.0605 -2,-3.3349 -1.1,-0.2059 -3.2719,-1.6588 -4.8265,-3.2286 -4.0122,-4.0514 -6.7453,-4.7179 -8.5014,-2.0731 -0.9627,1.4501 -2.4578,2.1328 -4.6705,2.1328 -2.406,0 -4.3294,1.0124 -7.378,3.8836 -2.268,2.136 -4.1236,4.555 -4.1236,5.3755 0,1.3316 -3.6086,9.8046 -5.8522,13.7409 -0.4702,0.825 -1.6142,3.09 -2.5421,5.0333 -1.2183,2.5513 -3.0953,4.2017 -6.7539,5.9387 -3.0703,1.4577 -5.5151,3.4147 -6.2048,4.9668 -0.6259,1.4086 -2.1526,3.3813 -3.3925,4.3838 -2.7821,2.2491 -2.8529,5.0807 -0.2545,10.1774 2.5459,4.9936 2.5784,9.8828 0.081,12.211 -1.0553,0.984 -2.0678,3.3609 -2.25,5.282 -0.2629,2.772 -0.9506,3.7633 -3.3313,4.802 -1.65,0.7199 -3.675,1.7383 -4.5,2.2631 -0.825,0.5248 -2.9375,1.6979 -4.6944,2.6068 -1.7569,0.9089 -3.7304,2.9463 -4.3854,4.5277 -0.655,1.5813 -2.3577,3.7929 -3.7837,4.9147 -5.8382,4.5923 -6.1092,5.7646 -6.0626,26.2199 0.031,13.6934 -0.2996,19.2399 -1.2131,20.3405 -0.9713,1.1704 -2.4449,1.3648 -6.5027,0.8578 -9.1533,-1.1436 -10.4664,0.996 -10.7248,17.4745 -0.1432,9.1307 -1.6807,12.722 -6.3833,14.9102 -3.0308,1.4102 -2.8319,3.1581 0.75,6.5898 1.65,1.5808 3,3.6293 3,4.5522 0,0.9229 0.9,2.8222 2,4.2207 1.1,1.3984 2,2.979 2,3.5124 0,0.5334 0.675,1.53 1.5,2.2147 0.825,0.6847 1.5,2.0914 1.5,3.1261 0,1.0346 0.9,3.5603 2,5.6127 1.1,2.0524 2,4.2626 2,4.9116 0,3.3728 11.7231,10.0231 18.1276,10.2834 0.8951,0.036 2.1628,0.7112 2.8171,1.4995 1.2895,1.5538 7.8934,3.3838 15.0553,4.1719 2.475,0.2724 16.1097,0.6977 30.2994,0.9451 29.0996,0.5075 29.8338,0.3672 34.1901,-6.5337 1.3851,-2.1941 5.4635,-5.9381 9.2445,-8.4866 3.7213,-2.5081 8.791,-6.0986 11.266,-7.9787 2.475,-1.8802 4.8717,-3.4484 5.326,-3.4849 0.4542,-0.036 3.3792,-2.0167 6.5,-4.4003 3.1207,-2.3836 8.374,-5.5862 11.674,-7.1169 3.3,-1.5306 6.7208,-3.4148 7.6018,-4.187 2.1005,-1.8411 12.736,-3.4728 26.3239,-4.0385 8.8273,-0.3675 11.3979,-0.8264 13.3848,-2.3893 1.6605,-1.3062 4.028,-1.9344 7.2896,-1.9344 3.9411,0 5.4593,-0.5523 8.2471,-3 1.8793,-1.65 4.0665,-3 4.8605,-3 2.4723,0 6.315,4.9191 5.9598,7.6293 -0.505,3.8536 1.4742,5.3707 7.0068,5.3707 3.2772,0 6.2311,0.7491 8.8129,2.235 l 3.8835,2.2351 2.3791,-2.2351 c 4.32,-4.0583 6.9684,-2.7414 14.1079,7.015 2.8756,3.9296 5.572,4.7445 7.6028,2.2975 1.4976,-1.8044 13.3564,-1.1487 18.5623,1.0264 1.8771,0.7844 4.3274,1.4261 5.4451,1.4261 2.0296,0 2.0321,0.1246 2.0321,102.885 v 102.885 l -2.378,1.5581 c -1.4783,0.9686 -2.647,2.9916 -3.0888,5.3466 -1.2564,6.6975 -2.1343,7.5662 -6.8586,6.7874 -4.7419,-0.7818 -6.6746,-2.0141 -6.6746,-4.2558 0,-0.8519 -0.5906,-2.2593 -1.3124,-3.1276 -0.7218,-0.8683 -2.1464,-3.5053 -3.1659,-5.8599 l -1.8536,-4.2812 3.166,-3.2664 c 1.7412,-1.7965 3.1659,-3.6356 3.1659,-4.0868 0,-0.4512 1.35,-2.358 3,-4.2372 1.65,-1.8792 3,-3.767 3,-4.1949 0,-0.428 -1.3415,-2.0634 -2.9812,-3.6343 -2.5821,-2.4738 -3.3055,-2.7084 -5.4042,-1.7522 -1.3327,0.6072 -3.2536,2.3107 -4.2688,3.7854 -2.0152,2.9276 -10.684,11.4619 -12.9586,12.7576 -1.3928,0.7935 -5.7657,-0.2827 -12.0383,-2.9626 -1.7331,-0.7404 -3.6615,-1.3462 -4.2852,-1.3462 -0.6237,0 -2.2212,-0.7123 -3.5499,-1.5829 -3.0674,-2.0099 -6.1137,-1.0864 -7.9297,2.4038 -0.7667,1.4735 -3.905,5.3791 -6.974,8.6791 -3.069,3.3 -5.5868,6.359 -5.5951,6.7977 -0.028,1.4697 -5.2861,5.7023 -7.0843,5.7023 -0.9775,0 -3.1142,1.125 -4.7483,2.5 -1.6341,1.375 -3.4135,2.5 -3.9543,2.5 -0.5408,0 -1.5434,0.675 -2.2281,1.5 -0.6847,0.825 -2.3209,1.5 -3.636,1.5 -1.3151,0 -3.1725,0.3956 -4.1276,0.879 -2.5779,1.3051 -14.4323,4.35 -16.7364,4.2989 -7.8919,-0.1749 -16.3044,-3.9678 -21.5,-9.6938 -4.4309,-4.8832 -10.1395,-8.4841 -13.45,-8.4841 -1.7325,0 -3.6538,-0.5038 -4.2696,-1.1196 -0.6157,-0.6157 -2.9557,-1.5157 -5.2,-2 -2.2442,-0.4842 -5.9929,-1.3688 -8.3304,-1.9657 -2.3375,-0.597 -7.7607,-1.3207 -12.0517,-1.6083 -8.7552,-0.5868 -11.6983,0.8019 -11.6983,5.5198 0,1.384 -0.5913,3.2267 -1.314,4.095 -0.7227,0.8683 -1.8701,4.5038 -2.5496,8.0788 -1.3952,7.3399 -3.6366,10 -8.4262,10 -2.9307,0 -5.0422,0.5142 -14.3382,3.4916 -3.8798,1.2427 -4.4621,1.1536 -9.6864,-1.4816 z"
       id="path3" />
    <path
       style="fill:#000000"
       d="m 769.02862,1477.9266 c -1.23036,-0.8618 -2.90953,-3.1764 -3.73149,-5.1436 -1.34304,-3.2144 -1.32883,-3.9522 0.14018,-7.2817 1.07985,-2.4476 2.81313,-4.2392 5.10696,-5.2789 3.21258,-1.4561 3.79066,-1.4374 7.72823,0.2504 3.26675,1.4003 4.61804,2.7187 5.81394,5.6725 1.44919,3.5794 1.42838,4.0577 -0.2979,6.8482 -3.56416,5.7612 -10.34294,8.0269 -14.75992,4.9331 z"
       id="path2" />
  </g>
</svg>
