<?xml version="1.0" encoding="UTF-8" standalone="no"?>
<!-- Created with Inkscape (http://www.inkscape.org/) -->

<svg
   version="1.1"
   id="svg1"
   width="363.31607"
   height="352.80948"
   viewBox="0 0 363.31607 352.80948"
   sodipodi:docname="migreo-logo-new.svg"
   inkscape:version="1.4.2 (f4327f4, 2025-05-13)"
   xmlns:inkscape="http://www.inkscape.org/namespaces/inkscape"
   xmlns:sodipodi="http://sodipodi.sourceforge.net/DTD/sodipodi-0.dtd"
   xmlns="http://www.w3.org/2000/svg"
   xmlns:svg="http://www.w3.org/2000/svg">
  <defs
     id="defs1" />
  <sodipodi:namedview
     id="namedview1"
     pagecolor="#ffffff"
     bordercolor="#000000"
     borderopacity="0.25"
     inkscape:showpageshadow="2"
     inkscape:pageopacity="0.0"
     inkscape:pagecheckerboard="0"
     inkscape:deskcolor="#d1d1d1"
     inkscape:zoom="0.79589845"
     inkscape:cx="191.60736"
     inkscape:cy="135.06748"
     inkscape:window-width="1920"
     inkscape:window-height="1017"
     inkscape:window-x="-8"
     inkscape:window-y="-8"
     inkscape:window-maximized="1"
     inkscape:current-layer="g1" />
  <g
     inkscape:groupmode="layer"
     inkscape:label="Image"
     id="g1"
     transform="translate(-330.73845,-290.07525)">
    <g
       id="g3">
      <path
         style="fill:#000000"
         d="m 520.29774,328.64896 c 1.77843,-0.74308 4.67004,-2.98717 6.4258,-4.98687 1.75577,-1.99971 3.70026,-5.52224 4.3211,-7.82786 0.62083,-2.30561 0.84607,-6.07737 0.50051,-8.38169 -0.4148,-2.76609 -1.8677,-5.63765 -4.27602,-8.45122 -2.00625,-2.34386 -5.1231,-4.87801 -6.92631,-5.63144 C 518.5396,292.61644 515.24488,292 513.02122,292 c -2.22366,0 -5.98957,0.91499 -8.36868,2.0333 -2.37912,1.11832 -5.29428,3.34343 -6.47815,4.94469 -1.18386,1.60127 -2.70074,4.96128 -3.37084,7.4667 -0.96669,3.61434 -0.95717,5.5365 0.0461,9.30531 0.71413,2.68273 2.65406,6.21574 4.45741,8.11787 1.75614,1.85232 4.54298,3.97221 6.19298,4.71085 1.65,0.73865 4.92695,1.36061 7.28212,1.38214 2.35516,0.0215 5.73719,-0.56883 7.51562,-1.3119 z"
         id="path48" />
      <path
         style="fill:#000000"
         d="m 560.98624,377.51245 c 2.89615,-2.62098 4.31773,-7.07861 3.55464,-11.14625 -0.38382,-2.04591 -2.00202,-4.98119 -3.66032,-6.63948 -2.685,-2.68501 -3.45226,-2.92624 -7.93659,-2.49536 -2.75185,0.26442 -5.83427,1.26438 -6.91646,2.24374 -1.07372,0.97171 -2.43072,3.2166 -3.01554,4.98864 -0.78825,2.38843 -0.73332,4.22321 0.21235,7.09253 0.81016,2.45815 2.5529,4.73643 4.77568,6.24324 2.68586,1.82072 4.39034,2.25601 7.32762,1.8713 2.10518,-0.27573 4.65157,-1.24699 5.65862,-2.15836 z"
         id="path46" />
      <path
         style="fill:#000000"
         d="M 479.21756,376.08254 C 481.14843,373.92152 482,371.8869 482,369.43456 c 0,-1.94363 -0.63661,-4.76495 -1.41469,-6.26958 -1.32408,-2.5605 -3.64903,-4.20239 -7.86502,-5.55432 -2.80713,-0.90015 -9.15753,2.16666 -11.02194,5.32285 -0.93409,1.58129 -1.69835,4.55251 -1.69835,6.6027 0,3.00071 0.71896,4.4057 3.68678,7.20471 3.3571,3.16616 4.09192,3.43141 8.21756,2.9664 3.43719,-0.38743 5.20237,-1.26233 7.31322,-3.62478 z"
         id="path44" />
      <path
         style="fill:#000000"
         d="m 524.98682,383.40763 c 2.71983,-0.97804 6.09951,-2.70736 7.5104,-3.84294 2.43828,-1.96249 2.51603,-2.3217 1.57082,-7.25712 -0.75997,-3.96818 -0.65591,-6.33236 0.44136,-10.02727 0.83608,-2.81538 2.80474,-6.15978 4.7132,-8.00689 3.53784,-3.42412 9.3933,-6.27341 12.89221,-6.27341 2.12404,0 2.16488,-0.23739 1.6179,-9.40545 -0.30862,-5.17299 -1.06557,-10.34799 -1.68211,-11.5 -0.61653,-1.152 -1.79922,-2.09455 -2.6282,-2.09455 -0.82898,0 -7.00065,2.6407 -13.71482,5.86822 -6.71417,3.22752 -13.95984,6.43379 -16.1015,7.12505 -2.27143,0.73314 -6.10811,1.0283 -9.20791,0.70838 -3.72703,-0.38467 -9.37933,-2.51249 -18.92681,-7.12505 C 483.98431,327.95947 477.22575,325 476.45233,325 c -0.77342,0 -2.10917,1.07284 -2.96834,2.38409 -1.19666,1.82634 -1.49449,4.56611 -1.27305,11.71128 l 0.28906,9.32721 3.26986,0.66647 c 1.79842,0.36656 5.0451,1.89672 7.21483,3.40034 2.2777,1.57845 4.86292,4.63009 6.11694,7.22055 1.81725,3.75394 2.07913,5.59394 1.60355,11.26666 l -0.56841,6.77998 5.10466,2.77831 c 2.80756,1.52806 6.93929,3.37974 9.18162,4.11482 2.29918,0.75373 6.59333,1.16203 9.84778,0.93635 3.17396,-0.2201 7.99616,-1.2004 10.71599,-2.17843 z"
         id="path42" />
      <path
         style="fill:#000000"
         d="m 631.30161,405.83131 c 2.25475,-1.1415 5.0013,-3.81633 6.75,-6.57374 2.24918,-3.54659 2.94839,-5.83215 2.94839,-9.63763 0,-3.03965 -0.82866,-6.70028 -2.12115,-9.3702 -1.22808,-2.53687 -3.72416,-5.44253 -5.92849,-6.90129 -2.09404,-1.38577 -5.53564,-2.75139 -7.648,-3.03472 -2.11236,-0.28333 -5.74355,-0.003 -8.06929,0.62351 -2.40034,0.64635 -5.90526,2.7436 -8.10647,4.85071 -2.98389,2.85632 -4.14283,4.96067 -5.02733,9.12839 -0.94843,4.46887 -0.8788,6.23137 0.39804,10.07558 0.85116,2.56257 3.05192,6.11732 4.8906,7.89944 1.83867,1.78211 5.31608,3.86038 7.72757,4.61838 2.41148,0.758 5.73452,1.12348 7.38452,0.81218 1.65,-0.3113 4.71073,-1.43207 6.80161,-2.49061 z"
         id="path40" />
      <path
         style="fill:#000000"
         d="m 410.91405,406.04385 c 2.1089,-1.07588 4.99868,-3.33986 6.42173,-5.03105 1.42305,-1.6912 3.04472,-4.73132 3.60371,-6.75583 0.559,-2.0245 0.7387,-5.49803 0.39935,-7.71894 -0.33934,-2.22092 -1.18665,-5.16303 -1.8829,-6.53803 -0.69625,-1.375 -2.32731,-3.49102 -3.62457,-4.70227 -1.29727,-1.21125 -4.02557,-2.89875 -6.0629,-3.75 -2.03733,-0.85125 -5.18119,-1.53785 -6.98635,-1.52577 -1.80517,0.0121 -5.13436,0.8631 -7.39821,1.89116 -2.26385,1.02805 -5.27516,3.38882 -6.69181,5.24614 -1.41666,1.85733 -3.13482,5.46733 -3.81816,8.02223 -0.97826,3.65763 -0.98497,5.50457 -0.0315,8.68683 0.66598,2.22285 2.41777,5.47586 3.89287,7.22891 1.47509,1.75305 4.50061,4.01345 6.72336,5.02311 2.22275,1.00965 5.7468,1.84562 7.83121,1.8577 2.08441,0.0121 5.5153,-0.85831 7.62421,-1.93419 z"
         id="path38" />
      <path
         style="fill:#000000"
         d="M 607.26722,436.92042 C 614.22879,434.84717 619,431.45277 619,428.5733 c 0,-0.83468 -4.71324,-6.7786 -10.47386,-13.20872 -7.86988,-8.7845 -10.88787,-12.93757 -12.13909,-16.70463 -0.91587,-2.75744 -1.63013,-7.74647 -1.58725,-11.08673 0.0429,-3.34027 0.84754,-10.8963 1.78812,-16.79118 1.44646,-9.06527 1.50049,-10.97059 0.35041,-12.35635 -1.04162,-1.25507 -2.53879,-1.52867 -6.39904,-1.1694 -2.77161,0.25794 -7.62679,1.46314 -10.78929,2.6782 L 574,362.1437 v 5.21626 c 0,3.42471 -0.77277,6.74412 -2.25,9.66478 -1.28597,2.54251 -4.04082,5.6925 -6.42968,7.35192 -2.79484,1.94143 -5.85817,3.06469 -9.2456,3.39018 -4.96338,0.47692 -5.08848,0.57023 -6.18039,4.60997 -0.61296,2.26775 -0.91726,7.56059 -0.67622,11.76186 0.31925,5.56452 1.15114,9.09446 3.06365,13 1.44396,2.94873 4.68034,7.37642 7.19195,9.8393 4.25704,4.17445 4.7177,4.38272 6.79643,3.07264 5.29288,-3.33573 7.55733,-4.03864 13.02952,-4.04445 6.03615,-0.006 10.42168,1.60991 14.54535,5.36081 1.28976,1.17317 2.98882,3.37053 3.77568,4.88303 0.78687,1.5125 1.7081,2.75 2.04718,2.75 0.33908,0 3.75879,-0.93581 7.59935,-2.07958 z"
         id="path36" />
      <path
         style="fill:#000000"
         d="m 430.79243,435.10867 c 1.71994,-2.14023 5.08733,-4.84023 7.48309,-6 2.45886,-1.19031 6.32219,-2.10867 8.87073,-2.10867 2.81548,0 6.34787,0.92802 9.38498,2.4656 l 4.87019,2.4656 3.15907,-2.40954 c 1.73749,-1.32525 4.61368,-4.67635 6.39153,-7.44688 1.77785,-2.77054 3.86594,-7.14229 4.64021,-9.71499 1.45692,-4.84096 1.85759,-14.8607 0.80476,-20.12485 -0.58355,-2.91773 -0.80837,-3.02814 -6.96384,-3.42009 -5.13632,-0.32706 -7.1797,-0.99823 -10.6146,-3.48645 -2.33958,-1.69479 -5.15911,-4.8245 -6.26561,-6.95491 -1.37509,-2.64753 -2.03404,-5.92208 -2.082,-10.34613 l -0.0702,-6.47263 -6.45039,-2.25085 c -3.54771,-1.23796 -7.63279,-2.26278 -9.07795,-2.27736 -1.44515,-0.0146 -3.19808,0.66093 -3.8954,1.50114 -0.96683,1.16496 -1.05693,3.59854 -0.37948,10.25 0.48859,4.79729 0.87676,12.79301 0.86259,17.76827 -0.0222,7.78727 -0.40485,9.82076 -2.75024,14.61455 -1.62737,3.32623 -6.54705,9.64528 -12.21719,15.6923 C 411.07831,422.62707 407,427.83086 407,428.96517 c 0,1.0938 1.2081,2.7803 2.68466,3.74778 1.47657,0.96749 5.63907,2.76624 9.25,3.99724 3.61094,1.231 7.05253,2.24979 7.64798,2.26399 0.59544,0.0142 2.48985,-1.72528 4.20979,-3.86551 z"
         id="path34" />
      <path
         style="fill:#000000"
         d="m 520.54137,442.12034 c 2.22275,-1.00966 5.24296,-3.26375 6.71157,-5.0091 2.76979,-3.2917 4.74786,-8.78697 4.71952,-13.11124 -0.009,-1.375 -0.90034,-4.44788 -1.98073,-6.82862 -1.08039,-2.38074 -2.98301,-5.20071 -4.22804,-6.26659 -1.24503,-1.06588 -3.78115,-2.6055 -5.63581,-3.42138 C 518.27321,406.66753 514.92778,406 512.6936,406 c -2.23418,0 -5.98094,0.92887 -8.32614,2.06416 -2.70611,1.31001 -5.37895,3.74746 -7.31572,6.67144 -2.35351,3.55315 -3.05174,5.72116 -3.05174,9.47568 0,2.81875 0.80105,6.43041 1.90268,8.57856 1.04648,2.04059 2.95898,4.69277 4.25,5.89373 1.29103,1.20096 3.69732,2.88569 5.34732,3.74384 1.65,0.85815 4.8,1.55316 7,1.54447 2.2,-0.009 5.81862,-0.84189 8.04137,-1.85154 z"
         id="path32" />
      <path
         style="fill:#000000"
         d="m 586,454.11428 c 1.375,-0.9875 3.1399,-3.60559 3.922,-5.81798 1.30162,-3.68198 1.25694,-4.30923 -0.52783,-7.40941 -1.07242,-1.86279 -3.66877,-4.23245 -5.76968,-5.26591 -3.23738,-1.59251 -4.39805,-1.70579 -7.61179,-0.74293 -2.1495,0.64401 -4.54853,2.29079 -5.53869,3.80196 -0.9607,1.46622 -1.74674,4.37337 -1.74674,6.46033 0,2.08697 0.77033,4.97015 1.71184,6.40708 0.94152,1.43693 3.14038,3.24419 4.88637,4.01614 1.74598,0.77195 4.29952,1.16564 5.67452,0.87487 1.375,-0.29078 3.625,-1.33664 5,-2.32415 z"
         id="path30" />
      <path
         style="fill:#000000"
         d="m 573,457.24845 c -1.95859,-0.97843 -4.29509,-3.28986 -5.30538,-5.24845 -1.27198,-2.46593 -1.67932,-4.95892 -1.37873,-8.43797 0.35613,-4.12181 1.024,-5.48541 4.04069,-8.25 2.9874,-2.73775 4.40547,-3.31203 8.17839,-3.31203 2.51039,0 5.9119,0.69685 7.55891,1.54855 1.64701,0.8517 3.87298,2.9892 4.9466,4.75 1.07363,1.7608 1.95303,4.77645 1.95423,6.70145 10e-4,1.925 -0.78462,5.075 -1.74626,7 -1.0003,2.00237 -3.24608,4.24815 -5.24845,5.24845 -1.925,0.96164 -4.85,1.74844 -6.5,1.74844 -1.65,0 -4.575,-0.7868 -6.5,-1.74844 z"
         id="path29" />
      <path
         style="fill:#000000"
         d="m 451.64292,457.36516 c 1.89485,-0.89917 4.10036,-2.90182 4.90113,-4.45035 C 457.34482,451.36629 458,448.92963 458,447.5 c 0,-1.42963 -0.68262,-3.91936 -1.51693,-5.53273 -0.83431,-1.61338 -2.83696,-3.61603 -4.45034,-4.45034 -1.61337,-0.83431 -3.96826,-1.51525 -5.23307,-1.51319 -1.26481,0.002 -3.68552,0.84883 -5.37935,1.88173 -1.69383,1.03289 -3.65782,3.27371 -4.36442,4.97959 -0.74061,1.78799 -1.01802,4.52328 -0.655,6.45834 0.34635,1.84621 1.68903,4.35189 2.98372,5.5682 1.90882,1.79324 4.59226,3.06849 8.46426,4.02245 0.19188,0.0473 1.8992,-0.64973 3.79405,-1.54889 z"
         id="path28" />
      <path
         style="fill:#000000"
         d="m 518.91481,503.54405 c 1.54853,-0.80077 3.60301,-3.11551 4.56553,-5.14386 1.47793,-3.11451 1.56817,-4.29492 0.58038,-7.59188 -0.77814,-2.59718 -2.2393,-4.55616 -4.36519,-5.8524 -1.75754,-1.07164 -4.70106,-1.95012 -6.54116,-1.95217 -1.8401,-0.002 -4.64134,0.91889 -6.225,2.04655 -3.37686,2.40454 -5.42616,8.53164 -4.04777,12.10225 0.97639,2.52927 4.688,6.25278 7.1184,7.14123 2.74237,1.00249 6.06711,0.72289 8.91481,-0.74972 z"
         id="path26" />
      <path
         style="fill:#000000"
         d="m 544.65553,523.75 c 1.10228,-1.2375 4.54108,-6.79169 7.64177,-12.34264 3.31775,-5.93956 7.46183,-11.77415 10.07074,-14.17896 2.43822,-2.24748 6.1679,-4.97133 8.28817,-6.05301 2.12027,-1.08168 5.65251,-2.4429 7.84941,-3.02494 2.19691,-0.58203 7.76717,-1.52392 12.37835,-2.09308 4.61118,-0.56917 8.99868,-1.54502 9.75,-2.16856 0.75132,-0.62353 1.36603,-2.22153 1.36603,-3.55109 0,-1.32957 -0.85884,-4.08697 -1.90853,-6.12756 -1.0497,-2.04059 -3.28979,-5.60509 -4.978,-7.92112 l -3.06946,-4.21096 -4.272,1.939 c -2.34961,1.06645 -5.84701,1.94448 -7.77201,1.95119 -1.925,0.007 -5.78549,-1.05203 -8.57886,-2.35275 -2.79338,-1.30071 -5.99366,-3.5279 -7.11173,-4.9493 -1.11808,-1.4214 -2.62018,-4.00228 -3.33802,-5.73528 -1.26299,-3.04915 -1.46934,-3.13671 -6.38827,-2.71093 -2.79572,0.24199 -7.7744,1.72326 -11.06374,3.29171 -3.32877,1.58725 -8.03965,4.99925 -10.62429,7.69498 -2.55402,2.66379 -5.69209,6.81955 -6.97349,9.23502 l -2.32982,4.39175 4.07182,4.4174 c 2.2395,2.42957 4.63356,6.1195 5.32014,8.19985 0.68657,2.08034 1.03391,6.01377 0.77187,8.74094 -0.32433,3.37537 -1.45486,6.34658 -3.54091,9.30609 l -3.06447,4.34758 3.02348,4.82734 c 1.66292,2.65503 4.41739,6.28983 6.12105,8.07733 1.70367,1.7875 3.83086,3.25 4.72709,3.25 0.89624,0 2.53139,-1.0125 3.63368,-2.25 z"
         id="path24" />
      <path
         style="fill:#000000"
         d="m 490.7699,523.07626 c 1.60806,-1.60806 4.4215,-5.2578 6.25209,-8.11053 2.24795,-3.50313 3.02803,-5.59228 2.40318,-6.43599 -3.70265,-4.99949 -4.74133,-6.99066 -5.56959,-10.67699 -0.51751,-2.30325 -0.6418,-5.57485 -0.27621,-7.27024 1.06795,-4.9525 4.20934,-10.36642 7.37167,-12.70443 l 2.93482,-2.16981 -2.52706,-4.98692 c -1.38989,-2.74281 -4.50044,-7.09662 -6.91235,-9.67514 -2.4119,-2.57852 -6.8476,-5.93404 -9.85711,-7.45672 -3.39951,-1.71999 -7.67176,-2.94154 -11.28059,-3.22542 l -5.80875,-0.45693 -2.69889,5.79643 c -1.95523,4.19927 -3.83921,6.53402 -6.83737,8.47329 -2.27617,1.47228 -5.84849,2.96577 -7.93849,3.31887 -3.87682,0.65499 -11.50625,-0.85581 -13.79401,-2.73152 -0.91152,-0.74734 -1.83553,-0.52731 -3.28169,0.78145 -1.10712,1.00193 -3.34868,4.15631 -4.98125,7.00974 -2.98569,5.21844 -3.81505,9.80325 -1.97865,10.9382 0.54431,0.33641 5.60681,1.49822 11.25,2.58181 5.64319,1.08359 12.51035,2.70399 15.26035,3.60088 2.75,0.89689 6.125,2.31768 7.5,3.15731 1.375,0.83962 4.00444,2.90805 5.84321,4.5965 1.83876,1.68844 6.47919,8.35067 10.31205,14.80494 6.19768,10.43644 8.76165,13.63262 11.01782,13.73455 0.37019,0.0167 1.98876,-1.28527 3.59682,-2.89333 z"
         id="path22" />
      <path
         style="fill:#000000"
         d="m 586.27733,534.93987 c 2.07754,-0.57693 5.40707,-2.47989 7.39896,-4.2288 1.99189,-1.7489 4.22959,-4.6349 4.97267,-6.41333 0.74307,-1.77843 1.35104,-5.40985 1.35104,-8.06984 0,-3.61359 -0.7298,-5.98712 -2.88658,-9.38801 -1.91879,-3.02561 -4.37156,-5.27053 -7.31573,-6.69578 C 587.30361,498.93675 583.42443,498 580.91867,498 c -2.44743,0 -6.01785,0.8334 -7.93427,1.85199 -1.91642,1.0186 -4.9469,3.75358 -6.7344,6.07774 -2.83212,3.68241 -3.25,4.9936 -3.25,10.19767 0,3.28456 0.63483,7.18707 1.41072,8.67226 0.7759,1.48519 2.75017,3.97343 4.38726,5.52942 2.84145,2.70068 9.00401,5.53976 12.20202,5.62145 0.825,0.0211 3.1998,-0.43372 5.27733,-1.01066 z"
         id="path20" />
      <path
         style="fill:#000000"
         d="m 572.49142,536.13502 c -2.20472,-1.00158 -5.44267,-3.4544 -7.19545,-5.45071 -1.75278,-1.9963 -3.65891,-5.32944 -4.23584,-7.40698 -0.57694,-2.07753 -1.05149,-5.54775 -1.05455,-7.71161 -0.003,-2.16385 0.93483,-5.87689 2.08421,-8.25121 1.14939,-2.37431 3.70183,-5.64571 5.67209,-7.26976 1.97027,-1.62406 5.75486,-3.41877 8.41021,-3.98824 7.03487,-1.50871 14.03403,0.23147 19.00914,4.72619 2.17154,1.96185 4.53397,4.72582 5.24986,6.14215 0.71589,1.41633 1.59542,4.20012 1.95451,6.18619 0.35909,1.98608 0.17355,5.84614 -0.41231,8.57791 -0.62052,2.89337 -2.37325,6.55376 -4.19851,8.76811 -1.72331,2.09068 -4.96513,4.63324 -7.20404,5.65013 -2.23891,1.01689 -6.32074,1.84889 -9.07074,1.84889 -2.75,0 -6.80386,-0.81948 -9.00858,-1.82106 z"
         id="path19" />
      <path
         style="fill:#000000"
         d="m 454.54137,535.12034 c 2.22275,-1.00966 5.24842,-3.27024 6.7237,-5.02351 1.47528,-1.75327 3.19961,-5.07981 3.83184,-7.3923 0.86776,-3.17399 0.86567,-5.28164 -0.009,-8.59905 -0.63691,-2.41699 -2.05321,-5.65171 -3.14733,-7.18826 -1.09413,-1.53655 -4.44943,-3.99735 -7.45624,-5.46845 -4.329,-2.11798 -6.23965,-2.52975 -9.17935,-1.97825 -2.04185,0.38305 -5.33601,1.52474 -7.32037,2.53708 -1.98435,1.01234 -4.81343,3.58017 -6.28682,5.70629 -1.4734,2.12611 -2.95995,5.91604 -3.30344,8.42206 -0.46781,3.41305 -0.12366,5.68867 1.37148,9.06869 1.98217,4.48102 6.52868,8.79309 11.26356,10.68277 1.35857,0.5422 4.04512,1.00446 5.97012,1.02724 1.925,0.0228 5.31862,-0.78466 7.54137,-1.79431 z"
         id="path18" />
      <g
         id="g2"
         transform="translate(-0.16620296,-9.851099e-4)">
        <path
           style="fill:#000000"
           d="M 501.557,328.84455 C 495.20514,324.54673 492,318.66635 492,311.3106 c 0,-2.95616 0.69648,-7.04174 1.54773,-9.07907 0.85125,-2.03733 2.53875,-4.76667 3.75,-6.0652 1.21125,-1.29853 3.96324,-3.2638 6.11555,-4.36727 3.09208,-1.58529 5.33889,-1.92575 10.7069,-1.62243 5.55251,0.31375 7.5639,0.92641 11.00995,3.35362 2.31898,1.63336 5.29843,4.99475 6.62101,7.46975 1.95519,3.65883 2.33727,5.62536 2.04401,10.52032 -0.2081,3.47341 -1.2306,7.70393 -2.41698,10 -1.13096,2.18882 -3.95707,5.32237 -6.28025,6.96343 -3.54606,2.50489 -5.37739,3.04165 -11.41094,3.34455 -6.77812,0.34028 -7.46818,0.17054 -12.12998,-2.98375 z"
           id="path47" />
        <path
           style="fill:#000000"
           d="m 545.59585,378.95002 c -1.91056,-1.6775 -3.98919,-4.61183 -4.61919,-6.52074 -0.63302,-1.91808 -0.85397,-5.19599 -0.4939,-7.32727 0.38596,-2.28446 1.77586,-4.93367 3.40968,-6.49896 1.51696,-1.45334 4.27442,-3.07731 6.12769,-3.60882 2.19905,-0.63068 4.66604,-0.61728 7.10172,0.0386 2.05374,0.55302 4.8894,2.38028 6.30544,4.06315 1.41531,1.682 2.85377,4.17568 3.19657,5.54151 0.3428,1.36583 0.37044,4.36838 0.0614,6.67233 -0.41721,3.11059 -1.475,5.02583 -4.10888,7.4396 -3.00891,2.75746 -4.30251,3.2506 -8.52691,3.2506 -4.12539,0 -5.57595,-0.52335 -8.45363,-3.04998 z"
           id="path45" />
        <path
           style="fill:#000000"
           d="m 465.45809,381.16845 c -2.22305,-1.03639 -4.83661,-3.09719 -5.8079,-4.57957 -2.36316,-3.60665 -2.50428,-11.63643 -0.26457,-15.05466 0.94768,-1.44634 3.1611,-3.53327 4.91871,-4.63763 2.39607,-1.50551 4.39589,-1.90449 7.99242,-1.59456 3.55965,0.30676 5.56417,1.1486 7.77232,3.26414 1.63656,1.56793 3.45837,4.46224 4.04847,6.43181 0.77439,2.58467 0.75948,4.74502 -0.0536,7.76448 -0.7484,2.77935 -2.2595,5.04764 -4.50226,6.75828 -1.85668,1.41616 -4.88011,2.7902 -6.71874,3.05344 -2.07792,0.29749 -4.8725,-0.23447 -7.38487,-1.40573 z"
           id="path43" />
        <path
           style="fill:#000000"
           d="m 502,386.45781 c -2.475,-0.77159 -6.75,-2.89923 -9.5,-4.72809 -3.50103,-2.32832 -4.92738,-3.91047 -4.75775,-5.27746 0.13323,-1.07374 0.52241,-3.79554 0.86484,-6.04843 0.45297,-2.98022 0.0788,-5.3255 -1.37341,-8.60847 -1.0978,-2.48176 -3.65352,-5.77654 -5.67937,-7.32173 -2.02585,-1.5452 -5.34183,-3.07825 -7.36884,-3.4068 L 470.5,350.46948 470.21609,339.11097 c -0.22006,-8.80413 0.0551,-11.87585 1.22336,-13.6589 0.829,-1.26521 2.45717,-2.60187 3.61816,-2.97036 1.50047,-0.47622 6.43969,1.42803 17.0799,6.58494 13.5185,6.5519 15.53835,7.24954 20.84466,7.19956 5.11772,-0.0482 7.66192,-0.90742 19.72309,-6.66078 7.61608,-3.63299 14.96057,-6.59854 16.32108,-6.59012 1.36051,0.008 3.0687,0.3926 3.79598,0.85371 0.72727,0.46112 1.72904,2.59173 2.22614,4.73469 1.24192,5.35376 1.18783,20.13222 -0.0765,20.91365 -0.56545,0.34946 -2.39663,0.80859 -4.06929,1.02027 -1.67266,0.21169 -4.589,1.34149 -6.48076,2.51066 -1.89176,1.16917 -4.60233,4.10988 -6.02349,6.5349 -2.14295,3.65667 -2.50579,5.30575 -2.12608,9.66297 0.25181,2.88961 0.7908,6.24629 1.19775,7.45929 0.62949,1.8763 0.0153,2.66505 -4.11507,5.28501 -2.67024,1.69376 -7.07416,3.73881 -9.78648,4.54455 -2.71233,0.80575 -7.66233,1.43365 -11,1.39534 -3.33768,-0.0383 -8.0935,-0.70095 -10.5685,-1.47254 z"
           id="path41" />
        <path
           style="fill:#000000"
           d="m 617.35819,410.04607 c -1.72799,-0.41207 -4.76947,-1.75517 -6.75884,-2.98467 -1.98938,-1.2295 -4.85056,-4.33379 -6.3582,-6.89843 -2.26226,-3.84834 -2.72863,-5.79853 -2.6695,-11.16297 0.0428,-3.88488 0.71097,-7.70698 1.66072,-9.5 0.87399,-1.65 2.86675,-4.21363 4.42835,-5.69695 1.56161,-1.48333 4.51233,-3.39583 6.55716,-4.25 C 616.26272,368.69887 619.98967,368 622.5,368 c 2.51033,0 6.23114,0.69648 8.26847,1.54773 2.03733,0.85125 4.76667,2.53875 6.0652,3.75 1.29853,1.21125 3.21717,3.87184 4.26365,5.91243 1.25398,2.44523 1.90268,5.78033 1.90268,9.78212 0,3.33958 -0.60621,7.52 -1.34713,9.28984 -0.74092,1.76983 -3.18407,4.87543 -5.42922,6.90133 -3.94703,3.56158 -9.5895,5.90867 -13.72365,5.70861 -1.1,-0.0532 -3.41381,-0.43393 -5.14181,-0.84599 z"
           id="path39" />
        <path
           style="fill:#000000"
           d="m 398.7175,409.90842 c -2.08037,-0.48987 -5.06427,-1.5535 -6.63088,-2.36363 -1.56661,-0.81012 -3.98832,-2.82769 -5.38157,-4.48347 -1.39325,-1.65578 -3.07249,-4.64463 -3.73164,-6.64189 -0.65915,-1.99725 -1.00837,-6.17119 -0.77603,-9.2754 0.28917,-3.8635 1.26404,-6.96736 3.0902,-9.83879 1.46727,-2.30712 4.70664,-5.38962 7.19859,-6.85 3.51317,-2.05886 5.85142,-2.65524 10.41046,-2.65524 3.50273,0 7.3538,0.69953 9.52619,1.7304 2.0056,0.95172 4.99019,3.35922 6.63242,5.35 1.64223,1.99078 3.42411,5.1946 3.95974,7.1196 0.53563,1.925 0.97638,5.42695 0.97944,7.78212 0.003,2.35516 -0.69223,5.95516 -1.5451,8 -0.85288,2.04483 -2.9781,5.19271 -4.72273,6.99528 -1.8773,1.93965 -5.19608,3.87848 -8.13082,4.75 -2.72732,0.80993 -5.4396,1.4274 -6.02727,1.37215 -0.58768,-0.0553 -2.77062,-0.50126 -4.851,-0.99113 z"
           id="path37" />
        <path
           style="fill:#000000"
           d="m 597,440.1388 c 0,-0.62317 -1.6875,-3.00313 -3.75,-5.28879 -2.0625,-2.28566 -5.19805,-4.76196 -6.96788,-5.50288 C 584.51228,428.60621 581.22744,428 578.98246,428 c -4.29499,0 -8.74703,1.80647 -10.92774,4.43406 -0.71478,0.86127 -2.23154,1.56594 -3.37057,1.56594 -1.18638,0 -4.24134,-2.24244 -7.15226,-5.25 -2.79471,-2.8875 -6.1654,-7.5 -7.49041,-10.25 -1.9183,-3.98135 -2.4959,-7.06833 -2.8351,-15.15228 -0.26467,-6.30769 0.0237,-11.51471 0.76137,-13.75 1.08609,-3.29088 1.51148,-3.59772 4.98768,-3.59772 2.09018,0 5.31778,-0.63983 7.17245,-1.42183 1.85466,-0.78201 4.84214,-2.94869 6.63882,-4.81484 1.79669,-1.86616 3.70919,-4.93586 4.25,-6.82157 0.54082,-1.8857 0.9833,-5.36879 0.9833,-7.74019 0,-4.2497 0.0768,-4.34559 5.34639,-6.67606 2.94051,-1.30043 8.05715,-2.89773 11.37031,-3.54956 4.5081,-0.88691 6.55686,-0.89992 8.1418,-0.0517 1.16484,0.6234 2.42673,2.35797 2.80422,3.85459 0.37748,1.49663 -0.0703,7.22114 -0.99515,12.72114 -0.92481,5.5 -1.67395,12.925 -1.66475,16.5 0.0121,4.70893 0.66821,7.89912 2.38107,11.57759 1.37992,2.96348 6.15867,9.11515 11.4774,14.77481 5.01218,5.33347 9.40094,10.84424 9.7528,12.24615 0.35186,1.40191 0.14181,3.64178 -0.46678,4.97749 -0.60859,1.3357 -2.5782,3.33132 -4.37692,4.43469 -3.70734,2.27418 -8.32377,3.75158 -14.52039,4.64699 -2.8607,0.41337 -4.25,0.24374 -4.25,-0.51892 z"
           id="path35" />
        <path
           style="fill:#000000"
           d="m 419,439.68664 c -3.575,-1.20265 -8.075,-3.10886 -10,-4.23601 -2.99746,-1.75511 -3.5441,-2.65154 -3.80717,-6.24329 -0.29693,-4.05409 -0.009,-4.5071 8.64144,-13.58731 4.92173,-5.16636 10.1438,-11.43283 11.60459,-13.92549 1.46079,-2.49265 3.05535,-6.93114 3.54346,-9.86332 0.62482,-3.75345 0.40495,-9.21618 -0.74293,-18.45836 -1.51643,-12.20947 -1.51425,-13.30443 0.0312,-15.6631 0.91389,-1.39478 2.97523,-2.82448 4.58076,-3.17712 1.96076,-0.43065 5.66537,0.27952 11.28389,2.16311 L 452.5,359.5 l 0.52391,8.02812 c 0.40085,6.14243 1.05099,8.76832 2.76789,11.1795 1.23419,1.73326 3.86302,4.15199 5.84183,5.37497 2.53742,1.56821 5.31695,2.26149 9.43046,2.35219 3.20794,0.0707 6.09627,0.39224 6.4185,0.71448 0.32224,0.32224 1.05337,3.45798 1.62475,6.96831 0.57137,3.51034 0.73551,8.84952 0.36476,11.86485 -0.37075,3.01533 -1.56041,7.85133 -2.64369,10.74666 -1.13832,3.04243 -4.10643,7.60226 -7.03248,10.80383 -2.78458,3.04677 -5.90561,5.9906 -6.93562,6.54185 -1.44288,0.7722 -2.94234,0.37543 -6.53253,-1.72856 -3.30333,-1.93588 -6.04083,-2.73082 -9.40399,-2.73082 -3.483,0 -5.8315,0.71954 -8.83419,2.70663 -2.24949,1.48864 -5.10239,4.26961 -6.33979,6.17993 -1.37013,2.11523 -3.03182,3.45337 -4.24981,3.42233 -1.1,-0.028 -4.925,-1.03497 -8.5,-2.23763 z"
           id="path33" />
        <path
           style="fill:#000000"
           d="m 503.5,444.33837 c -1.65,-0.86986 -4.05629,-2.53934 -5.34732,-3.70997 -1.29102,-1.17062 -3.1496,-3.7034 -4.13016,-5.6284 -0.98057,-1.925 -2.09277,-5.36182 -2.47155,-7.63738 -0.38436,-2.30897 -0.19258,-5.97988 0.43396,-8.30667 0.61748,-2.29312 2.74716,-5.9674 4.73263,-8.16508 1.98547,-2.19768 4.51587,-4.48061 5.62311,-5.07319 1.10724,-0.59258 4.74606,-1.41507 8.08625,-1.82775 4.99146,-0.6167 6.92035,-0.39299 10.83036,1.25614 2.6165,1.10356 6.05637,3.48606 7.64414,5.29444 1.58777,1.80837 3.43514,4.94923 4.10525,6.97969 0.67011,2.03046 1.02636,6.34639 0.79167,9.59095 -0.3245,4.48617 -1.13989,6.91395 -3.40412,10.13555 -1.63757,2.32998 -4.75869,5.24525 -6.93581,6.47836 -2.99695,1.69747 -5.5372,2.23631 -10.45841,2.21845 -3.95312,-0.0143 -7.67548,-0.64328 -9.5,-1.60514 z"
           id="path31" />
        <path
           style="fill:#000000"
           d="m 441.5,460.05464 c -1.1,-0.45022 -2.83029,-1.74191 -3.84508,-2.87041 -1.0148,-1.12851 -2.43965,-3.76913 -3.16634,-5.86803 -0.72669,-2.09891 -1.06165,-5.1662 -0.74434,-6.8162 0.3173,-1.65 1.24648,-4.0355 2.06484,-5.30111 0.81835,-1.26561 2.74875,-2.95311 4.28976,-3.75 C 441.63985,434.652 445.15803,434 447.91701,434 c 4.38134,0 5.45105,0.43473 8.45067,3.43434 2.26334,2.26334 3.66467,4.79768 4.10987,7.43276 0.49546,2.93261 0.15798,5.16841 -1.26605,8.38768 -1.37017,3.09749 -2.98225,4.88308 -5.47767,6.06724 -3.74802,1.77855 -8.92143,2.08836 -12.23383,0.73262 z"
           id="path27" />
        <path
           style="fill:#000000"
           d="m 509.5,506.79056 c -1.65,-0.57834 -3.83357,-1.77925 -4.85238,-2.66869 -1.01881,-0.88943 -2.48131,-2.83336 -3.25,-4.31985 C 500.62893,498.31554 500,495.68248 500,493.95079 c 0,-1.73169 0.71377,-4.65269 1.58615,-6.4911 0.87239,-1.83841 2.64071,-4.03354 3.9296,-4.87805 1.2889,-0.84452 4.10725,-1.81753 6.263,-2.16225 2.66268,-0.42578 4.89173,-0.12403 6.95129,0.94101 1.66745,0.86227 4.25845,3.02564 5.75777,4.80749 2.39746,2.84921 2.67289,3.88077 2.28501,8.55804 -0.34243,4.12925 -1.08026,5.98553 -3.30008,8.30253 -1.57248,1.64131 -4.45963,3.42884 -6.41589,3.97229 -1.95627,0.54345 -3.78185,0.95508 -4.05685,0.91473 -0.275,-0.0404 -1.85,-0.54657 -3.5,-1.12492 z"
           id="path25" />
        <path
           style="fill:#000000"
           d="M 535.49507,525.81746 C 532.0333,523.09443 525,512.34571 525,509.77824 c 0,-1.05143 1.15155,-3.42144 2.559,-5.26671 1.40745,-1.84526 3.00167,-4.95825 3.54272,-6.91776 1.49061,-5.39854 -0.45041,-10.98315 -5.80819,-16.71105 l -4.56582,-4.88123 1.79936,-4.75074 c 1.20931,-3.19285 4.12332,-7.07736 8.88615,-11.84563 5.42738,-5.43359 8.45867,-7.60578 12.9457,-9.27672 3.2224,-1.20001 8.46119,-2.45382 11.64174,-2.78626 5.77234,-0.60333 5.784,-0.59907 6.43118,2.34752 0.35659,1.62357 2.05915,4.66348 3.78346,6.75537 1.72431,2.09189 4.61682,4.42253 6.42779,5.1792 1.81097,0.75667 5.21963,1.37409 7.57479,1.37203 2.5552,-0.002 5.64227,-0.83296 7.6548,-2.05991 1.85498,-1.13089 3.9923,-1.8184 4.74961,-1.5278 2.13862,0.82067 11.24435,15.36368 11.93944,19.06879 0.34174,1.82164 0.13361,4.22341 -0.46252,5.33728 -0.59612,1.11386 -2.54981,2.47929 -4.34153,3.03427 -1.79173,0.55499 -7.08268,1.49118 -11.75768,2.08042 -5.73123,0.72238 -10.48863,2.04562 -14.605,4.0623 -3.42914,1.68 -8.04725,5.07673 -10.53626,7.74967 -2.4372,2.6173 -6.38233,8.35872 -8.76696,12.75872 -2.38463,4.4 -5.42872,9.4625 -6.76463,11.25 -1.8866,2.52434 -3.16894,3.25 -5.74318,3.25 -1.89245,0 -4.50456,-0.9363 -6.0889,-2.18254 z"
           id="path23" />
        <path
           style="fill:#000000"
           d="m 481.76625,526.25 c -0.84905,-0.9625 -4.47858,-6.7 -8.06562,-12.75 -3.58704,-6.05 -8.02461,-12.43518 -9.86126,-14.1893 -1.83666,-1.75411 -5.7661,-4.30951 -8.7321,-5.67866 -2.966,-1.36916 -10.8053,-3.49827 -17.42066,-4.73137 -8.00662,-1.49242 -12.63953,-2.85359 -13.85727,-4.07133 C 422.8232,483.8232 422,481.73603 422,480.19117 c 0,-2.58615 3.89161,-10.07019 8.57306,-16.48707 1.05982,-1.45269 2.50737,-2.65539 3.21678,-2.67268 0.70941,-0.0173 3.15126,0.91821 5.42634,2.07887 3.08823,1.57549 5.35122,1.99356 8.92979,1.64971 2.70039,-0.25948 6.24872,-1.45785 8.12658,-2.74458 1.83331,-1.25621 4.32198,-3.79227 5.53037,-5.63569 1.20839,-1.84342 2.19708,-4.20289 2.19708,-5.24326 0,-1.04037 0.66346,-2.4422 1.47436,-3.11519 1.03149,-0.85606 3.30852,-1.01073 7.5806,-0.5149 8.34456,0.96849 18.69308,6.26698 24.00614,12.29125 4.34677,4.92864 8.9389,13.01142 8.9389,15.73369 0,0.87879 -1.36973,2.75035 -3.04385,4.15903 -1.67412,1.40868 -3.97375,4.38398 -5.11029,6.61178 -1.54099,3.02059 -1.94787,5.28448 -1.60014,8.90328 0.33532,3.48984 1.34928,5.95152 3.61028,8.76503 1.7292,2.15175 3.144,4.4066 3.144,5.01076 0,2.38475 -4.41785,9.5512 -8.72963,14.16084 -3.60763,3.85685 -5.20518,4.85796 -7.75222,4.85796 -1.80065,0 -3.88545,-0.76778 -4.7519,-1.75 z"
           id="path21" />
        <path
           style="fill:#000000"
           d="m 439.02988,537.88741 c -4.57997,-1.82785 -9.23603,-6.12981 -11.11676,-10.27132 -1.13712,-2.504 -1.8778,-6.43161 -1.89116,-10.02823 -0.0169,-4.55708 0.56148,-6.90771 2.52358,-10.25578 1.68909,-2.88222 4.29659,-5.3479 7.75,-7.32848 3.96603,-2.27457 6.46321,-2.98706 10.4943,-2.99422 3.23963,-0.006 6.73288,0.72681 9.0131,1.89009 2.0478,1.04471 5.01787,3.18221 6.60017,4.75 1.58229,1.56779 3.48889,4.29858 4.23689,6.06841 0.748,1.76984 1.36,5.72968 1.36,8.79966 0,3.1549 -0.70304,6.97324 -1.61697,8.78212 -0.88934,1.76019 -2.57684,4.25663 -3.75,5.54766 -1.17317,1.29102 -3.8026,3.20352 -5.84319,4.25 -2.45412,1.25854 -5.67027,1.88122 -9.5,1.83929 -3.18441,-0.0349 -6.90139,-0.507 -8.25996,-1.0492 z"
           id="path17" />
      </g>
      <path
         d="m 336.09404,630.29262 q -4.38456,0 -6.79607,-2.41151 -2.30189,-2.41151 -2.30189,-6.79607 v -60.83577 q 0,-4.49417 2.52112,-6.79607 2.52112,-2.4115 7.12491,-2.4115 3.83649,0 6.02877,1.53459 2.30189,1.42498 4.16533,4.82302 l 23.56701,42.311 h -3.83649 l 23.4574,-42.311 q 1.97305,-3.39804 4.16533,-4.82302 2.30189,-1.53459 6.13838,-1.53459 4.38456,0 6.68646,2.4115 2.41151,2.3019 2.41151,6.79607 v 60.83577 q 0,4.38456 -2.3019,6.79607 -2.30189,2.41151 -6.79607,2.41151 -4.38456,0 -6.79606,-2.41151 -2.3019,-2.41151 -2.3019,-6.79607 v -37.70721 h 2.3019 l -17.64786,30.69192 q -1.53459,2.4115 -3.28842,3.61726 -1.64421,1.20575 -4.49417,1.20575 -2.74035,0 -4.49418,-1.20575 -1.75382,-1.20576 -3.1788,-3.61726 l -17.75747,-30.80154 h 2.52112 v 37.81683 q 0,4.38456 -2.30189,6.79607 -2.3019,2.41151 -6.79607,2.41151 z m 95.91233,0 q -4.60379,0 -7.12491,-2.74035 -2.52112,-2.74035 -2.52112,-7.89221 v -34.63802 q 0,-5.15186 2.52112,-7.89221 2.52112,-2.74035 7.12491,-2.74035 4.7134,0 7.23453,2.74035 2.63073,2.74035 2.63073,7.89221 v 34.63802 q 0,5.15186 -2.52112,7.89221 -2.52112,2.74035 -7.34414,2.74035 z m 0,-63.68574 q -5.15186,0 -8.00182,-2.4115 -2.74035,-2.41151 -2.74035,-7.0153 0,-4.49417 2.74035,-6.90568 2.84996,-2.41151 8.00182,-2.41151 5.37109,0 8.11144,2.41151 2.74035,2.41151 2.74035,6.90568 0,4.60379 -2.74035,7.0153 -2.74035,2.4115 -8.11144,2.4115 z m 47.90134,83.63549 q -6.02877,0 -11.29024,-0.87692 -5.26148,-0.76729 -9.09797,-2.30189 -3.1788,-1.09614 -4.49417,-3.17881 -1.31537,-2.08266 -1.20575,-4.38456 0.10961,-2.30189 1.20575,-4.16533 1.20575,-1.86344 3.17881,-2.74035 1.97305,-0.7673 4.38456,0.10962 4.82301,1.97305 8.76912,2.52112 3.9461,0.65768 6.68645,0.65768 6.68645,0 9.97487,-2.84996 3.39804,-2.74035 3.39804,-8.65951 v -6.90568 h 0.87691 q -1.64421,4.60379 -6.68645,7.56337 -5.04225,2.84996 -10.9614,2.84996 -7.23453,0 -12.60561,-3.28842 -5.37109,-3.39803 -8.44028,-9.4268 -2.95958,-6.02877 -2.95958,-14.14021 0,-6.13838 1.75382,-11.07101 1.75383,-4.93263 4.82302,-8.44028 3.17881,-3.50765 7.56337,-5.37109 4.49417,-1.97305 9.86526,-1.97305 6.13838,0 10.9614,2.84996 4.93263,2.84997 6.57684,7.45376 l -1.09614,4.49417 v -4.82302 q 0,-4.7134 2.52112,-7.23452 2.63073,-2.52112 7.23452,-2.52112 4.60379,0 7.0153,2.52112 2.52112,2.52112 2.52112,7.23452 v 37.92645 q 0,14.03059 -7.89221,21.04589 -7.89221,7.12491 -22.58048,7.12491 z m 0.7673,-36.72069 q 3.28842,0 5.59031,-1.42499 2.30189,-1.53459 3.61726,-4.27494 1.31537,-2.84997 1.31537,-6.79607 0,-5.91916 -2.84996,-9.20758 -2.84997,-3.28842 -7.67298,-3.28842 -3.0692,0 -5.4807,1.5346 -2.41151,1.42498 -3.72688,4.27495 -1.20575,2.74035 -1.20575,6.68645 0,5.91916 2.84996,9.20758 2.84996,3.28842 7.56337,3.28842 z m 51.08006,16.77094 q -4.82302,0 -7.45375,-2.52112 -2.52113,-2.52113 -2.52113,-7.34414 v -36.28224 q 0,-4.7134 2.41151,-7.23452 2.52112,-2.52112 7.12491,-2.52112 4.60379,0 7.0153,2.52112 2.4115,2.52112 2.4115,7.23452 v 4.49418 h -1.09614 q 1.09614,-6.57684 5.59032,-10.41333 4.60379,-3.83649 11.39985,-4.05572 3.17881,-0.10961 4.71341,1.64421 1.64421,1.64421 1.75382,6.248 0,3.9461 -1.64421,6.248 -1.64421,2.30189 -6.248,2.74035 l -2.52112,0.21922 q -5.80954,0.54807 -8.44028,3.28842 -2.63073,2.63074 -2.63073,7.89221 v 17.9767 q 0,4.82301 -2.52113,7.34414 -2.52112,2.52112 -7.34413,2.52112 z m 65.98754,0.21923 q -9.86526,0 -17.09979,-3.39804 -7.12491,-3.50765 -10.9614,-9.86526 -3.83649,-6.35761 -3.83649,-15.01712 0,-8.33066 3.61726,-14.57866 3.72688,-6.35761 10.08449,-9.86526 6.46723,-3.61726 14.68828,-3.61726 6.02877,0 10.9614,1.97305 4.93263,1.86344 8.44028,5.59032 3.50764,3.61726 5.26147,8.76912 1.86344,5.15185 1.86344,11.50947 0,2.19228 -1.20576,3.28842 -1.20575,0.98652 -3.83649,0.98652 h -33.54188 v -9.20757 h 24.33431 l -1.75383,1.42498 q 0,-4.05572 -1.09614,-6.57684 -1.09614,-2.52112 -3.28842,-3.83649 -2.08266,-1.31537 -5.26147,-1.31537 -3.39803,0 -5.91916,1.64421 -2.4115,1.5346 -3.72687,4.60379 -1.31537,3.06919 -1.31537,7.67298 v 0.98652 q 0,7.7826 3.39803,11.18063 3.50765,3.28842 10.74218,3.28842 2.4115,0 5.4807,-0.54807 3.1788,-0.65768 6.02877,-1.75382 2.84996,-1.09614 4.93263,-0.32884 2.08266,0.65768 3.1788,2.4115 1.20576,1.64421 1.31537,3.83649 0.10961,2.08267 -0.98653,4.16534 -1.09614,1.97305 -3.61726,3.06919 -3.83649,1.75382 -8.22105,2.63073 -4.27494,0.87692 -8.6595,0.87692 z m 58.75315,0 q -8.98835,0 -15.67481,-3.39804 -6.68645,-3.39803 -10.41333,-9.75564 -3.72687,-6.35762 -3.72687,-15.01712 0,-6.57684 2.08266,-11.7287 2.08267,-5.26147 6.02877,-8.87873 3.94611,-3.72688 9.42681,-5.59032 5.4807,-1.97305 12.27677,-1.97305 8.98834,0 15.6748,3.39803 6.68645,3.39804 10.30371,9.75565 3.72688,6.248 3.72688,15.01712 0,6.46722 -2.08267,11.7287 -2.08266,5.26147 -6.02877,8.98834 -3.83649,3.61727 -9.4268,5.59032 -5.4807,1.86344 -12.16715,1.86344 z m 0,-14.35944 q 2.95957,0 5.26147,-1.42498 2.30189,-1.5346 3.50765,-4.49417 1.31536,-3.0692 1.31536,-7.89221 0,-7.34414 -2.84996,-10.52295 -2.84996,-3.28842 -7.23452,-3.28842 -2.95958,0 -5.26148,1.42499 -2.30189,1.42498 -3.61726,4.49417 -1.31537,2.95958 -1.31537,7.89221 0,7.23452 2.84997,10.52294 2.84996,3.28842 7.34414,3.28842 z"
         id="text48"
         style="font-weight:900;font-size:109.614px;line-height:0.4;font-family:Nunito;-inkscape-font-specification:'Nunito Heavy';text-align:center;text-anchor:middle;fill-opacity:0.702002;stroke-width:1.21381"
         transform="scale(1.0114447,0.98868479)"
         aria-label="Migreo" />
    </g>
  </g>
</svg>
