<?xml version="1.0" encoding="UTF-8" standalone="no"?>
<!-- Created with Inkscape (http://www.inkscape.org/) -->

<svg
   version="1.1"
   id="svg1"
   width="539.79126"
   height="358.01202"
   viewBox="0 0 539.79126 358.01202"
   sodipodi:docname="migreo.svg"
   inkscape:version="1.4.2 (f4327f4, 2025-05-13)"
   xmlns:inkscape="http://www.inkscape.org/namespaces/inkscape"
   xmlns:sodipodi="http://sodipodi.sourceforge.net/DTD/sodipodi-0.dtd"
   xmlns="http://www.w3.org/2000/svg"
   xmlns:svg="http://www.w3.org/2000/svg">
  <defs
     id="defs1">
    <linearGradient
       id="swatch240"
       inkscape:swatch="solid">
      <stop
         style="stop-color:#000000;stop-opacity:1;"
         offset="0"
         id="stop240" />
    </linearGradient>
  </defs>
  <sodipodi:namedview
     id="namedview1"
     pagecolor="#ffffff"
     bordercolor="#000000"
     borderopacity="0.25"
     inkscape:showpageshadow="2"
     inkscape:pageopacity="0.0"
     inkscape:pagecheckerboard="0"
     inkscape:deskcolor="#d1d1d1"
     inkscape:zoom="0.79589844"
     inkscape:cx="285.84049"
     inkscape:cy="486.87117"
     inkscape:window-width="1920"
     inkscape:window-height="1017"
     inkscape:window-x="-8"
     inkscape:window-y="-8"
     inkscape:window-maximized="1"
     inkscape:current-layer="g1" />
  <g
     inkscape:groupmode="layer"
     inkscape:label="Image"
     id="g1"
     transform="translate(-224.51418,-25.20269)">
    <g
       id="g284"
       transform="translate(-24.260134,-299.40257)" />
    <g
       id="g286"
       transform="translate(-17.590188,-316.18002)">
      <g
         id="g289">
        <path
           style="baseline-shift:baseline;display:inline;overflow:visible;opacity:1;vector-effect:none;enable-background:accumulate;stop-color:#000000;stop-opacity:1"
           d="m 512.4082,341.38281 c -5.62402,0 -7.53543,0.49497 -11.12304,2.86914 -7.7451,5.12547 -10.84395,13.76354 -8.26172,22.98633 0.77131,2.75484 2.85073,5.97519 5.23437,8.64649 2.38364,2.67129 5.02056,4.80111 7.20117,5.21484 10.56296,2.00412 18.89684,-0.99196 23.58789,-8.57227 4.18546,-6.76329 4.64936,-12.81231 1.5,-19.6914 -1.84142,-4.0222 -4.09286,-6.90556 -7.04296,-8.76758 -2.95011,-1.86202 -6.56879,-2.68555 -11.09571,-2.68555 z m 0,0.94531 c 4.41262,0 7.82992,0.79781 10.5918,2.54102 2.76188,1.74321 4.89599,4.44817 6.6875,8.36133 3.05005,6.66218 2.62707,12.21824 -1.44531,18.79883 -4.48852,7.25303 -12.29944,10.09636 -22.60742,8.14062 -1.69917,-0.32238 -4.35977,-2.32293 -6.67188,-4.91406 -2.31211,-2.59113 -4.32696,-5.76493 -5.0293,-8.27344 -2.48899,-8.88981 0.43573,-17.02157 7.87305,-21.94336 3.51634,-2.327 5.027,-2.71094 10.60156,-2.71094 z m 36.57813,31.55469 c -0.21965,0 -0.384,0.0529 -0.64063,0.12891 -0.25663,0.076 -0.57502,0.18268 -0.95117,0.32031 -0.75229,0.27527 -1.73886,0.67074 -2.89648,1.15625 -2.31525,0.97102 -5.31203,2.30692 -8.43946,3.77734 -11.81949,5.55719 -17.93197,8.30324 -23.51757,8.46094 -5.58561,0.15771 -10.814,-2.25397 -20.92579,-7.1914 -3.71987,-1.81636 -7.34778,-3.46745 -10.20312,-4.66797 -1.42767,-0.60027 -2.66137,-1.08929 -3.62305,-1.42969 -0.96168,-0.3404 -1.57988,-0.5476 -2.07422,-0.54883 -1.0766,-0.003 -2.02708,0.23679 -2.80859,0.80664 -0.78151,0.56985 -1.36826,1.44498 -1.80078,2.63477 -0.86505,2.37958 -1.16992,6.05931 -1.16992,11.6289 v 10.52735 l 4.91015,1.23633 c 3.03766,0.76488 5.74575,2.43129 8.72071,5.40625 2.45861,2.45861 3.92447,4.57339 4.67968,7.0957 0.75522,2.5223 0.80048,5.49066 0.3125,9.64258 l -0.66797,5.68554 4.31446,2.85352 c 2.29681,1.51996 6.454,3.56185 9.35742,4.60156 4.50238,1.61229 10.593,1.76878 16.51758,0.81836 5.92458,-0.95042 11.67701,-3.00735 15.48242,-5.95117 0.56684,-0.4385 1.01423,-0.79909 1.36133,-1.20313 0.3471,-0.40403 0.58366,-0.8649 0.67969,-1.40625 0.19204,-1.08269 -0.086,-2.42755 -0.61719,-4.90429 -2.1728,-10.13139 3.46124,-20.08427 12.73828,-22.60742 2.3695,-0.64446 4.87553,-1.33368 5.58789,-1.53711 0.28684,-0.0819 0.47172,-0.29065 0.60547,-0.51172 0.13375,-0.22108 0.23174,-0.47869 0.3164,-0.78125 0.16934,-0.60513 0.28211,-1.38912 0.35743,-2.31836 0.15063,-1.85849 0.14201,-4.28625 0.006,-6.80078 -0.13615,-2.51453 -0.40175,-5.11229 -0.76954,-7.30078 -0.36778,-2.1885 -0.79799,-3.93714 -1.43554,-4.91016 -0.47705,-0.72808 -1.0655,-1.3824 -1.65235,-1.86914 -0.58684,-0.48674 -1.14181,-0.8418 -1.7539,-0.8418 z m 0,0.94531 c 0.14374,0 0.64609,0.20674 1.15039,0.625 0.5043,0.41827 1.0422,1.01318 1.46484,1.65821 0.43756,0.6678 0.93517,2.4081 1.29492,4.54883 0.35976,2.14072 0.62139,4.71173 0.75586,7.19531 0.13448,2.48358 0.1411,4.88287 -0.004,6.67187 -0.0725,0.89451 -0.18366,1.64028 -0.32422,2.14258 -0.0703,0.25115 -0.15057,0.44065 -0.21485,0.54688 -0.0643,0.10623 -0.0987,0.10437 -0.0547,0.0918 -0.69131,0.19743 -3.21049,0.88926 -5.57813,1.53321 -9.79034,2.66276 -15.68584,13.13296 -13.41601,23.71679 0.52936,2.46835 0.74945,3.77525 0.61328,4.54297 -0.0681,0.38386 -0.20344,0.64852 -0.4668,0.95508 -0.26336,0.30656 -0.66658,0.64014 -1.22266,1.07031 -3.60711,2.79043 -9.24761,4.83406 -15.05468,5.76563 -5.80707,0.93157 -11.78558,0.75322 -16.04883,-0.77344 -2.80086,-1.00299 -6.97317,-3.05855 -9.1543,-4.50195 l -3.82812,-2.53321 0.59961,-5.10546 c 0.49483,-4.21024 0.46481,-7.31644 -0.34571,-10.02344 -0.81052,-2.70701 -2.39992,-4.9761 -4.91797,-7.49414 -3.05364,-3.05364 -5.93056,-4.84207 -9.15625,-5.6543 L 470.88086,398.75 v -9.79102 c 0,-5.53342 0.33108,-9.15837 1.11133,-11.30468 0.39012,-1.07316 0.87919,-1.764 1.4707,-2.19532 0.59151,-0.43131 1.31051,-0.62762 2.25,-0.625 0.10882,2.7e-4 0.82602,0.16558 1.75977,0.4961 0.93375,0.33051 2.15552,0.81253 3.57226,1.4082 2.83348,1.19133 6.44917,2.83733 10.1543,4.64649 10.1175,4.94022 15.49458,7.45291 21.36719,7.2871 5.8726,-0.1658 12.07076,-2.99158 23.89453,-8.55078 3.11655,-1.46531 6.10602,-2.79782 8.40429,-3.76172 1.14914,-0.48194 2.12623,-0.87183 2.85547,-1.13867 0.36463,-0.13342 0.66695,-0.23591 0.89258,-0.30273 0.22564,-0.0668 0.40374,-0.0899 0.37305,-0.0899 z m 44.11328,31.06641 c -1.41855,-0.10891 -3.05301,0.0116 -4.85938,0.32813 -3.61272,0.63302 -7.9256,2.08563 -12.55664,4.2832 -1.65806,0.7868 -2.65543,1.31427 -3.19336,2.35351 -0.53792,1.03925 -0.55468,2.38607 -0.55468,4.79493 0,10.53113 -8.00481,19.22851 -17.59961,19.22851 h -5.10157 l -1.31054,5.45899 c -1.91259,7.97256 -0.88754,19.50866 2.34375,25.83593 3.09572,6.06182 6.78682,10.65876 11.01562,13.66993 l 3.31055,2.35742 2.96094,-2.83203 c 2.23389,-2.13599 5.71911,-3.45365 9.43945,-3.79102 3.72034,-0.33737 7.66563,0.30259 10.80078,1.98047 1.14533,0.61296 3.54076,2.83057 5.54492,5.0332 1.00209,1.10132 1.92462,2.20686 2.58594,3.11328 0.33066,0.45322 0.59642,0.85676 0.77149,1.17579 0.17506,0.31903 0.23828,0.57997 0.23828,0.58203 0,0.28908 0.12989,0.58794 0.3457,0.77734 0.21581,0.1894 0.48205,0.28383 0.77344,0.33203 0.58277,0.0964 1.30974,0.0179 2.21093,-0.19531 6.74382,-1.59539 11.39925,-3.12976 14.42383,-4.90234 3.02459,-1.77258 4.44141,-3.87894 4.44141,-6.39844 0,-0.83855 -0.41866,-1.84098 -1.11133,-3.07813 -0.69267,-1.23714 -1.68068,-2.68609 -2.89453,-4.26172 -2.4277,-3.15124 -5.75865,-6.81132 -9.41406,-10.23046 -4.39087,-4.10708 -7.42429,-9.11596 -9.26563,-15.31641 -1.97114,-6.63772 -1.97787,-10.71334 -0.0215,-19.92383 1.087,-5.11753 1.67697,-9.54678 1.75586,-12.87695 0.0394,-1.66509 -0.0471,-3.0539 -0.27539,-4.13672 -0.22826,-1.08282 -0.5812,-1.89821 -1.24414,-2.31836 -0.94043,-0.59601 -2.142,-0.93405 -3.56055,-1.04297 z m -157.30274,0.21094 c -2.33118,-0.20436 -3.69434,-0.27855 -4.76171,0.0449 -1.06738,0.32347 -1.71456,1.07255 -2.47071,2.22656 -0.78105,1.19202 -1.22209,2.21539 -1.22461,4.26953 -0.003,2.05415 0.37838,5.18832 1.13282,10.91602 1.38202,10.49239 1.58488,17.11369 -0.38086,23.07617 -1.96574,5.96249 -6.12813,11.34662 -13.59571,19.31055 -4.2077,4.48737 -6.59279,7.12712 -7.92187,9.04492 -1.32908,1.9178 -1.59046,3.20292 -1.44727,4.66016 0.19594,1.99394 1.26539,3.67218 3.49219,5.19336 2.2268,1.52117 5.61559,2.95343 10.63672,4.64257 h 0.002 l 0.0723,0.0234 c 6.5e-4,2.2e-4 0.001,-2.2e-4 0.002,0 1.7636,0.59234 3.47859,1.13954 4.82422,1.54102 0.68316,0.20382 1.2722,0.37084 1.73047,0.49023 0.45827,0.11939 0.73944,0.19397 0.99609,0.20703 0.36785,0.0187 0.59928,-0.14718 0.86914,-0.34375 0.26987,-0.19657 0.55747,-0.463 0.86524,-0.78711 0.61554,-0.64822 1.30412,-1.52999 1.9375,-2.50781 1.16945,-1.80543 4.06463,-4.62622 6.29297,-6.09961 5.3916,-3.56492 13.02173,-3.69132 19.06445,-0.2832 1.93657,1.09222 3.08092,1.69212 4.1543,1.8418 1.07337,0.14967 1.97102,-0.21351 3.20507,-0.87305 1.97494,-1.05549 4.47465,-3.75464 6.85547,-6.98633 2.38082,-3.23169 4.59681,-6.98354 5.79492,-10.13672 1.17498,-3.09228 1.8267,-8.3712 1.96094,-13.41015 0.0671,-2.51948 2e-4,-4.97247 -0.21094,-7.04883 -0.21113,-2.07637 -0.54812,-3.76228 -1.11132,-4.83594 -0.55209,-1.05247 -1.189,-1.78905 -2.28321,-2.18555 -1.0942,-0.39649 -2.58334,-0.50587 -5.02148,-0.56836 -5.37141,-0.13767 -9.79746,-2.18443 -12.88867,-5.63281 -3.09122,-3.44838 -4.85357,-8.31438 -4.79883,-14.13281 l 0.0625,-6.57617 -5.41016,-2.35938 c -2.88769,-1.25844 -7.50242,-2.46459 -10.42383,-2.7207 z m 118.41407,0.0547 c -2.036,-0.22949 -3.40516,-0.27559 -4.66992,0.0508 -1.26477,0.32636 -2.36592,1.01462 -3.86524,2.1582 -4.18944,3.19545 -6.06331,8.44205 -4.68945,13.23242 1.10363,3.84813 2.73387,5.88883 6.66992,8.36914 4.27689,2.69511 10.24387,1.89935 14.14062,-1.83398 7.75247,-7.42733 3.14354,-20.7672 -7.58593,-21.97656 z m -83.87305,0.28711 c -2.28208,-0.0115 -4.42288,0.52803 -6.26367,1.54101 -3.68158,2.02596 -6.13867,5.95713 -6.13867,11.00977 0,2.80338 0.30243,4.86146 1.16797,6.55664 0.86553,1.69518 2.27921,2.97839 4.37109,4.2539 1.92768,1.1754 5.12809,2.01353 7.61133,2.01563 3.43452,0.003 5.15892,-0.74272 8.07422,-3.49219 1.56527,-1.47624 2.51172,-2.51733 3.05859,-3.75 0.54687,-1.23267 0.66211,-2.59019 0.66211,-4.64453 0,-5.62333 -1.95111,-10.01287 -5.42969,-11.72852 -2.40789,-1.18758 -4.8312,-1.75021 -7.11328,-1.76171 z m 122.67969,0.40625 c 1.31047,0.10148 2.37482,0.39994 3.13672,0.88281 0.28477,0.18048 0.62009,0.74458 0.82422,1.71289 0.20412,0.96831 0.29421,2.30095 0.25585,3.91992 -0.0767,3.23795 -0.65795,7.62621 -1.73632,12.70313 -1.96865,9.26822 -1.96091,13.64729 0.041,20.38867 1.88261,6.33943 5.01262,11.51913 9.52539,15.74023 3.61872,3.38483 6.92403,7.01687 9.3125,10.11719 1.19424,1.55016 2.1596,2.96794 2.81836,4.14453 0.65877,1.17659 0.99024,2.13668 0.99024,2.61719 0,2.18094 -1.10962,3.90413 -3.97266,5.58203 -2.86303,1.6779 -7.45835,3.21246 -14.16406,4.79883 -0.83279,0.19701 -1.48111,0.24099 -1.83985,0.18164 -0.17936,-0.0297 -0.2758,-0.0821 -0.30468,-0.10742 -0.0289,-0.0254 -0.0234,-0.009 -0.0234,-0.0684 0,-0.36549 -0.14942,-0.65967 -0.35547,-1.03516 -0.20605,-0.37549 -0.48997,-0.8051 -0.83594,-1.2793 -0.69193,-0.94838 -1.63084,-2.07089 -2.65039,-3.1914 -2.03909,-2.24102 -4.33674,-4.44798 -5.79883,-5.23047 -3.33642,-1.7856 -7.44595,-2.44224 -11.33203,-2.08985 -3.88607,0.3524 -7.55992,1.7101 -10.00586,4.04883 l -2.39648,2.29102 -2.67383,-1.90235 c -4.07005,-2.89812 -7.6774,-7.36707 -10.72266,-13.33007 -3.05222,-5.97665 -4.11065,-17.49462 -2.26562,-25.18555 l 1.13672,-4.73438 h 4.35547 c 10.16448,0 18.54492,-9.16338 18.54492,-20.17382 0,-2.39696 0.072,-3.63066 0.44922,-4.35938 0.37719,-0.72872 1.12034,-1.15759 2.75976,-1.93555 4.57123,-2.16918 8.81645,-3.59249 12.3125,-4.20507 1.74803,-0.30629 3.30476,-0.40227 4.61524,-0.30078 z m -157.30274,0.19335 c 2.7449,0.24064 7.37829,1.44863 10.12696,2.64649 l 4.83789,2.10742 -0.0566,5.95117 c -0.0566,6.01451 1.77163,11.12849 5.03906,14.77344 3.26743,3.64496 7.96905,5.80376 13.56836,5.94727 2.41661,0.0619 3.84756,0.19391 4.72461,0.51171 0.87704,0.31781 1.26285,0.77042 1.76953,1.73633 0.4377,0.83442 0.80225,2.47069 1.00781,4.49219 0.20556,2.0215 0.27132,4.44132 0.20508,6.92773 -0.13248,4.97283 -0.81329,10.23859 -1.90039,13.09961 -1.14866,3.02303 -3.33076,6.73697 -5.66992,9.91211 -2.33916,3.17515 -4.88177,5.82612 -6.54102,6.71289 -1.19722,0.63986 -1.82232,0.882 -2.6289,0.76954 -0.80658,-0.11247 -1.89979,-0.64424 -3.82227,-1.72852 -6.34666,-3.57954 -14.32358,-3.46588 -20.04688,0.31836 -2.37047,1.56737 -5.26301,4.35979 -6.56835,6.375 -0.60402,0.93249 -1.26562,1.77872 -1.82813,2.37109 -0.28126,0.29619 -0.53863,0.52788 -0.73633,0.67188 -0.19769,0.144 -0.35652,0.15933 -0.26367,0.16406 -0.0183,-9.3e-4 -0.36569,-0.0609 -0.80664,-0.17578 -0.44095,-0.11488 -1.02105,-0.28067 -1.69727,-0.48242 -1.35243,-0.40351 -3.08645,-0.95498 -4.86914,-1.55469 -4.98922,-1.67841 -8.32228,-3.10374 -10.40625,-4.52734 -2.08396,-1.42361 -2.91432,-2.77736 -3.08398,-4.50391 -0.12931,-1.31596 0.0254,-2.21435 1.2832,-4.0293 1.2578,-1.81495 3.63127,-4.45544 7.83399,-8.9375 7.49289,-7.99092 11.76589,-13.482 13.80273,-19.66015 2.03684,-6.17815 1.80904,-12.96468 0.42188,-23.4961 -0.75393,-5.72383 -1.12737,-8.85911 -1.125,-10.79297 0.002,-1.93385 0.32613,-2.61621 1.07031,-3.75195 0.72758,-1.11041 1.15628,-1.59582 1.95508,-1.83789 0.79879,-0.24207 2.09062,-0.21259 4.40429,-0.01 z m 118.39063,0.0527 c 9.9937,1.12643 14.24809,13.44496 7.03711,20.35351 -3.59579,3.44499 -9.11525,4.15372 -12.98242,1.7168 -3.84494,-2.4229 -5.20266,-4.12177 -6.26563,-7.82812 -1.26058,-4.39543 0.4522,-9.24502 4.35352,-12.22071 1.4672,-1.11908 2.44701,-1.71486 3.52929,-1.99414 1.08229,-0.27928 2.32596,-0.25301 4.32813,-0.0273 z m -83.76953,0.29101 c 2.13014,0.0109 4.40859,0.53723 6.69726,1.66602 3.02514,1.49201 4.90235,5.47615 4.90235,10.88086 0,2.01841 -0.11804,3.22026 -0.58008,4.26172 -0.46204,1.04146 -1.30225,1.98954 -2.84375,3.44336 -2.85135,2.68916 -4.11255,3.23929 -7.42578,3.23633 -2.26027,-0.002 -5.43008,-0.84705 -7.11914,-1.87696 -2.01407,-1.22806 -3.2566,-2.37888 -4.02149,-3.87695 -0.76489,-1.49807 -1.06445,-3.39229 -1.06445,-6.12695 0,-4.7491 2.2626,-8.31736 5.65039,-10.18164 1.6939,-0.93215 3.67454,-1.43668 5.80469,-1.42579 z M 403.64453,419 c -3.96486,-0.23129 -7.99512,0.44294 -10.93359,2.15625 -14.56255,8.49087 -14.01914,29.94638 0.95898,36.75 l 0.0937,0.043 h 0.041 c 4.95082,2.19718 12.42499,2.43606 17.08203,0.49023 4.54638,-1.8996 9.54948,-7.80132 11.11523,-13.02734 0.97112,-3.24133 0.98632,-5.55884 0.0781,-9.88867 -1.39065,-6.62999 -3.08664,-9.45208 -7.88672,-13.11328 -2.67915,-2.04349 -6.58397,-3.17887 -10.54883,-3.41016 z m 217.28516,0.33789 c -4.26809,0.20354 -8.66433,1.82522 -12.62891,5.21875 -4.9926,4.27349 -6.73339,9.05572 -6.16992,16.8457 0.50539,6.98689 3.43022,11.87158 9.42969,15.76172 5.02996,3.26149 11.55394,3.35812 17.22265,1.23242 5.66872,-2.12569 10.52366,-6.49034 12.17774,-12.25781 2.89894,-10.10807 -1.27078,-18.94436 -8.17188,-23.50781 -3.45055,-2.28173 -7.59129,-3.49651 -11.85937,-3.29297 z m -217.33985,0.60742 c 3.81912,0.22279 7.5712,1.34192 10.0293,3.2168 4.70528,3.5889 6.16383,6.01877 7.53516,12.55664 0.8946,4.26506 0.87941,6.293 -0.0586,9.42383 -1.45915,4.87021 -6.458,10.70673 -10.57226,12.42578 -4.3237,1.80655 -11.8283,1.58087 -16.46094,-0.52344 -14.30558,-6.49812 -14.83186,-26.93455 -0.875,-35.07226 2.70341,-1.57626 6.58322,-2.25014 10.40234,-2.02735 z m 217.39649,0.32031 c 4.06118,-0.19122 7.99082,0.97846 11.28125,3.1543 6.58085,4.35168 10.57811,12.72047 7.78515,22.45899 -1.55332,5.41617 -6.16533,9.59429 -11.60156,11.63281 -5.43623,2.03851 -11.65421,1.92165 -16.37695,-1.14063 -5.81851,-3.7728 -8.51085,-8.27479 -9,-15.03711 -0.55181,-7.62875 1.02522,-11.93578 5.8418,-16.05859 3.81621,-3.26654 8.00912,-4.81854 12.07031,-5.00977 z m -108.72656,34.61719 c -6.13717,0 -9.81252,1.42498 -14.01368,5.44141 -4.78765,4.57715 -6.57766,8.57824 -6.52343,14.61328 0.0742,8.25652 4.50463,15.38267 11.96679,19.26367 1.83009,0.9518 5.62796,1.61803 8.77149,1.6211 4.45066,0.005 6.7067,-0.63824 10.34765,-2.94727 6.80898,-4.31811 9.55636,-9.40016 9.56446,-17.67969 0.006,-5.80734 -0.45249,-7.47109 -3.08985,-11.26953 -3.85533,-5.5526 -10.4188,-9.04297 -17.02343,-9.04297 z m 0,0.94531 c 6.27001,0 12.57227,3.34555 16.24609,8.63672 2.59826,3.74213 2.92771,4.96628 2.92187,10.73047 -0.008,8.07814 -2.49569,12.67865 -9.125,16.88281 -3.56424,2.26039 -5.47424,2.80368 -9.83984,2.79883 -3.00061,-0.003 -6.84933,-0.73949 -8.33789,-1.51367 -7.17936,-3.73392 -11.38582,-10.50861 -11.45703,-18.43359 -0.0526,-5.85139 1.55218,-9.44929 6.23047,-13.92188 4.08774,-3.908 7.36429,-5.17969 13.36133,-5.17969 z m 67.92773,27.2754 c -1.33199,-0.1658 -2.67539,-0.11801 -3.97266,0.13476 -5.18904,1.01109 -9.66406,5.322 -9.66406,12.04102 0,5.9064 2.37382,10.04104 6.99414,12.05078 l 0.66016,0.28711 v -0.0469 c 3.66909,1.48663 5.87308,1.46074 9.78515,-0.17383 6.62654,-2.76873 9.39217,-10.17908 6.26758,-16.76367 -2.18628,-4.60725 -6.07435,-7.03191 -10.07031,-7.52929 z m -0.11914,0.92968 c 3.69092,0.44665 7.27962,2.67055 9.33594,7.00391 2.91633,6.14572 0.386,12.91308 -5.77735,15.48828 -4.06186,1.69716 -5.6845,1.6864 -9.70508,-0.0625 -4.30283,-1.87164 -6.42578,-5.52218 -6.42578,-11.18359 0,-6.30405 4.09979,-10.17788 8.90039,-11.11328 1.20015,-0.23386 2.44157,-0.2817 3.67188,-0.13282 z m -132.93945,1.02539 c -0.98093,-0.0471 -2.00072,-0.004 -3.05274,0.13672 -5.7302,0.76842 -9.2895,4.92201 -10.10351,9.69922 -0.81401,4.77721 1.08367,10.20256 6.08398,13.57227 1.99561,1.34484 3.78036,2.10252 5.68555,2.24414 1.90519,0.14162 3.89287,-0.32886 6.3125,-1.33985 4.31313,-1.80214 6.82617,-6.32497 6.82617,-12.0625 0,-4.01874 -1.57993,-7.35517 -4.23438,-9.52148 -1.99083,-1.62473 -4.57478,-2.58708 -7.51757,-2.72852 z M 447.08203,486 c 2.76165,0.13093 5.14439,1.03225 6.9668,2.51953 2.42988,1.98304 3.88672,5.01571 3.88672,8.78906 0,5.46535 -2.32718,9.55284 -6.24414,11.18946 -2.34613,0.98027 -4.17887,1.398 -5.88086,1.27148 -1.70199,-0.12651 -3.31015,-0.79446 -5.22657,-2.08594 -4.70329,-3.16955 -6.43321,-8.20665 -5.67968,-12.6289 0.75352,-4.42226 3.95624,-8.2057 9.29687,-8.92188 0.99809,-0.13384 1.96031,-0.17645 2.88086,-0.13281 z m 110.91602,12.05469 c -0.76266,0.0545 -1.7244,0.19909 -3.00196,0.37304 -13.77985,1.87631 -25.79892,10.60747 -32.43359,23.53907 l -1.85742,3.62109 4.65039,4.97266 c 3.81885,4.08267 5.90717,8.12526 6.33398,12.1582 0.42681,4.03294 -0.79519,8.09041 -3.72851,12.25195 l -3.37305,4.78516 2.28125,4.28906 c 1.21523,2.28562 4.00426,6.22356 6.26758,8.86719 1.52193,1.77766 2.73449,2.99249 3.86328,3.7793 1.12879,0.78681 2.19581,1.13671 3.31055,1.13671 1.90229,0 3.53422,-0.72897 5.3164,-2.79101 1.78218,-2.06204 3.80503,-5.45276 6.76758,-10.95703 8.81319,-16.37449 17.88054,-23.20207 33.57617,-25.32031 5.00459,-0.67542 8.84471,-1.33388 11.65625,-2.20508 2.81154,-0.87121 4.64461,-1.96612 5.47071,-3.60352 0.82609,-1.63739 0.55025,-3.6671 -0.54883,-6.20898 -1.09908,-2.54189 -3.0381,-5.65793 -5.71485,-9.59961 -1.92742,-2.83826 -3.47136,-4.68339 -4.80078,-5.60938 -0.66471,-0.46299 -1.30165,-0.71215 -1.92578,-0.64258 -0.62413,0.0696 -1.1484,0.48079 -1.51758,1.07813 0.0351,-0.0568 -0.1297,0.12104 -0.40234,0.27539 -0.27264,0.15435 -0.65454,0.33695 -1.10938,0.52734 -0.90966,0.38079 -2.11021,0.7962 -3.36132,1.14649 -3.95483,1.10728 -5.0973,1.05917 -9.70899,-0.39453 -5.82862,-1.83732 -11.6101,-7.58809 -12.68164,-12.4668 -0.16156,-0.73558 -0.28294,-1.30383 -0.48828,-1.77734 -0.20534,-0.47351 -0.54843,-0.86654 -1.03125,-1.05469 -0.48282,-0.18815 -1.04594,-0.22442 -1.80859,-0.16992 z m -88.8125,0.0898 c -1.22156,-0.15242 -2.10163,-0.15414 -2.81836,0.0645 -0.71674,0.2186 -1.22416,0.72216 -1.56055,1.39649 -0.33639,0.67433 -0.55943,1.5267 -0.85937,2.64062 -0.6319,2.34668 -2.17984,5.00857 -4.10743,7.28516 -1.92758,2.27659 -4.23932,4.16925 -6.3164,5.03711 -4.6026,1.92309 -11.49833,1.6131 -16.10742,-0.73828 l -4.47266,-2.28321 -2.09766,2.66016 c -2.32245,2.94535 -4.58414,6.70223 -6.20117,10.04297 -0.80851,1.67037 -1.45412,3.23407 -1.86523,4.55273 -0.41112,1.31867 -0.62136,2.36346 -0.41993,3.16602 0.21861,0.87098 0.50071,1.62386 1.03516,2.26953 0.53446,0.64567 1.30018,1.15715 2.41406,1.61328 2.22777,0.91226 5.90326,1.65365 12.45703,2.82813 12.77015,2.2885 21.56509,6.05195 26.43165,11.1914 1.62605,1.71724 5.58296,7.51853 8.6289,12.72266 3.0635,5.23413 6.48863,10.70466 7.72656,12.30078 1.28896,1.66191 3.19542,2.93359 4.77539,2.93359 0.90965,0 1.91559,-0.47165 3.03907,-1.22265 1.12347,-0.751 2.35291,-1.80313 3.59961,-3.0586 2.4934,-2.51092 5.05201,-5.82808 6.84961,-9.13085 l 2.88671,-5.30274 -2.7832,-2.91797 c -7.07359,-7.41572 -5.59298,-21.02417 3.00195,-27.28515 l 3.08204,-2.24414 -2.79297,-5.6875 c -5.82163,-11.8591 -15.97129,-19.65544 -28.65039,-21.99415 -2.08866,-0.38525 -3.65345,-0.68742 -4.875,-0.83984 z m 90.27929,0.96094 c 0.24887,0.097 0.36074,0.21418 0.50586,0.54883 0.14512,0.33464 0.27058,0.87216 0.43164,1.60547 1.18682,5.40355 7.13577,11.21393 13.32227,13.16406 4.65583,1.46762 6.23179,1.52877 10.24805,0.40429 1.28671,-0.36025 2.5144,-0.78524 3.4707,-1.18554 0.47815,-0.20015 0.88746,-0.39304 1.21094,-0.57617 0.32347,-0.18313 0.55848,-0.30553 0.74023,-0.59961 0.27262,-0.44111 0.52327,-0.60383 0.81836,-0.63672 0.29509,-0.0329 0.7222,0.0891 1.28125,0.47851 1.1181,0.77879 2.65766,2.56599 4.55859,5.36524 2.66558,3.92523 4.57938,7.01606 5.62891,9.44336 1.04954,2.4273 1.21779,4.12872 0.57227,5.4082 -0.64552,1.27948 -2.19943,2.28624 -4.90625,3.125 -2.70683,0.83876 -6.51686,1.49883 -11.50391,2.17188 -15.91811,2.14827 -25.39046,9.28994 -34.28125,25.80859 -2.95394,5.48827 -4.97384,8.84729 -6.65039,10.78711 -1.67655,1.93982 -2.91971,2.46484 -4.60156,2.46484 -0.92601,0 -1.75628,-0.26051 -2.76953,-0.96679 -1.01326,-0.70629 -2.18733,-1.86722 -3.68555,-3.61719 -2.21002,-2.58138 -5.00924,-6.5473 -6.15235,-8.69727 l -2.00781,-3.77539 3.03711,-4.31055 c 3.02955,-4.29805 4.35032,-8.60815 3.89649,-12.89648 -0.45384,-4.28833 -2.66976,-8.52045 -6.58399,-12.70508 l -4.19531,-4.48633 1.55469,-3.02929 c 6.50198,-12.67299 18.25634,-21.19986 31.7207,-23.03321 2.55354,-0.34769 3.84211,-0.45372 4.33984,-0.25976 z m -92.82031,0.008 c 0.963,-0.2937 3.06712,0.0303 7.24414,0.80078 12.4,2.28722 22.27192,9.86364 27.97461,21.48047 l 2.44141,4.97461 -2.43946,1.77734 c -9.07704,6.61218 -10.64305,20.82358 -3.1289,28.70118 l 2.30664,2.41796 -2.55664,4.69922 c -1.74425,3.20476 -4.26389,6.47144 -6.69141,8.91602 -1.21376,1.22229 -2.40507,2.23886 -3.45312,2.93945 -1.04806,0.70059 -1.96318,1.0625 -2.51368,1.0625 -1.00124,0 -2.88903,-1.09874 -4.02734,-2.5664 -1.10822,-1.42889 -4.60735,-6.98335 -7.66016,-12.19922 -3.07037,-5.24587 -6.93768,-10.97233 -8.75781,-12.89453 -5.09735,-5.38319 -14.07878,-9.16779 -26.95117,-11.47461 -6.54539,-1.17298 -10.21389,-1.93131 -12.26562,-2.77149 -1.02587,-0.42009 -1.63309,-0.84662 -2.04297,-1.34179 -0.40988,-0.49518 -0.64434,-1.0864 -0.84766,-1.89649 -0.10101,-0.40245 0.0159,-1.4022 0.40625,-2.6543 0.39037,-1.25209 1.02082,-2.7842 1.81445,-4.42382 1.58727,-3.27925 3.82681,-6.99471 6.0918,-9.86719 l 1.61719,-2.05078 3.78125,1.92968 c 4.91213,2.50598 11.96237,2.83082 16.90039,0.76758 2.29367,-0.95835 4.67403,-2.93694 6.67383,-5.29883 1.9998,-2.36188 3.61552,-5.10357 4.30078,-7.64843 0.29982,-1.11346 0.52791,-1.93352 0.79297,-2.46485 0.26505,-0.53132 0.50873,-0.76721 0.99023,-0.91406 z m 47.18945,32.45313 c -2.71938,-0.27212 -5.61824,0.33435 -8.34765,2.10546 -1.42151,0.92242 -2.76266,2.75018 -3.79883,4.79688 -1.03617,2.0467 -1.75195,4.30311 -1.75195,6.14062 0,1.76158 1.00842,3.99868 2.39843,6.06836 1.39002,2.06969 3.16228,3.94577 4.89063,4.82032 6.29346,3.18453 14.14952,0.65659 17.08398,-5.52735 2.78166,-5.8619 0.8254,-11.75319 -3.20117,-15.23828 -2.01328,-1.74254 -4.55405,-2.8939 -7.27344,-3.16601 z m -0.0762,0.92968 c 2.51429,0.25493 4.85748,1.33006 6.73047,2.95118 3.74598,3.24223 5.57096,8.62932 2.9668,14.11718 -2.69629,5.68202 -9.97441,8.04 -15.80469,5.08985 -1.46382,-0.7407 -3.20625,-2.52813 -4.5332,-4.50391 -1.32695,-1.97578 -2.23633,-4.16483 -2.23633,-5.54102 0,-1.58359 0.66136,-3.76317 1.64844,-5.71289 0.98707,-1.94971 2.31288,-3.68032 3.4707,-4.43164 2.55687,-1.65915 5.24352,-2.22367 7.75781,-1.96875 z m 66.19727,14.38672 c -4.39443,0 -6.43237,0.65245 -10.39258,3.33008 -5.39496,3.64771 -9.55375,10.33224 -9.59375,15.63867 -0.0657,8.72743 5.94571,17.67551 13.78125,20.44727 8.1153,2.87071 16.44442,0.90661 22.18945,-5.24414 3.6502,-3.90798 4.94141,-7.66989 4.94141,-14.31446 0,-6.34815 -1.53295,-9.84848 -6.31055,-14.41601 -4.29466,-4.10582 -7.89305,-5.44141 -14.61523,-5.44141 z m 0,0.94531 c 6.60314,0 9.77733,1.18005 13.96094,5.17969 4.68178,4.47593 6.01953,7.52836 6.01953,13.73242 0,6.52722 -1.1631,9.89467 -4.6875,13.66797 -5.50401,5.89271 -13.3856,7.75652 -21.1836,4.99805 -7.3698,-2.607 -13.21278,-11.26352 -13.15039,-19.54688 0.0362,-4.80352 4.04655,-11.39391 9.17774,-14.86328 3.9004,-2.63719 5.55467,-3.16797 9.86328,-3.16797 z m -133.7168,0.5586 c -5.83141,0.003 -7.47071,0.46116 -11.26367,3.12695 -5.76534,4.05204 -9.00169,9.80597 -9.02344,16.12305 -0.0302,8.78022 4.23597,15.78626 11.75781,19.25781 l 0.67188,0.30859 v -0.0937 c 5.31256,2.20025 12.33112,2.17404 17.03125,-0.23632 14.12487,-7.24366 15.42453,-26.14192 2.41601,-35.17578 -4.13239,-2.86979 -5.67707,-3.31356 -11.58984,-3.31055 z m 0,0.94531 c 5.87257,-0.003 6.9643,0.30273 11.05078,3.14063 12.47971,8.66663 11.24815,26.60729 -2.30664,33.55859 -4.53391,2.32512 -11.81124,2.34192 -16.87695,0.004 l -0.01,-0.006 c -7.20151,-3.32887 -11.22836,-9.91969 -11.19922,-18.39063 0.0206,-5.99774 3.0626,-11.4449 8.6211,-15.35156 3.73766,-2.62693 4.9317,-2.9517 10.7207,-2.95508 z M 263.27731,610.0939 c -2.51098,-0.23437 -5.17494,-0.16643 -7.71289,0.15625 -5.0759,0.64536 -9.6619,2.25482 -11.48828,4.89258 -0.46063,0.66528 -0.84001,1.39974 -1.10937,2.63672 -0.26937,1.23698 -0.44831,2.98768 -0.57422,5.80078 -0.25183,5.6262 -0.2817,15.51152 -0.28321,33.92578 l -0.006,39.85351 h 10.5664 10.56055 l 0.26953,-32.2832 0.24609,-29.54687 10.10743,23.7207 c 7.11092,16.69136 10.83256,25.36445 13.31054,30.17773 1.239,2.40665 2.16964,3.85517 3.07617,4.85938 0.90653,1.0042 1.7875,1.54293 2.82422,2.09961 l 0.10547,0.0566 h 0.0527 c 2.18525,1.13417 5.17401,1.80073 8.13867,1.80273 1.94573,10e-4 3.54585,-0.11365 5.01172,-0.70703 1.46587,-0.59337 2.76002,-1.66232 4.08593,-3.45898 2.65184,-3.59333 5.53135,-10.12896 10.61524,-22.24219 4.86297,-11.58705 10.54532,-25.36372 12.63476,-30.63086 l 2.89844,-7.30664 0.2461,30.28516 0.26953,33.17382 H 347.68359 358.25 v -38.76953 c 0,-20.42492 -0.0269,-30.90498 -0.67578,-36.82812 -0.32447,-2.96157 -0.80594,-4.80073 -1.55078,-6.16602 -0.74485,-1.36528 -1.74045,-2.21373 -2.97266,-3.18164 -0.9735,-0.76467 -2.53593,-1.27908 -4.4375,-1.65625 -1.90157,-0.37717 -4.13818,-0.59343 -6.41016,-0.64844 -4.54395,-0.11 -9.18465,0.38286 -11.63085,1.73243 -2.61402,1.44201 -3.81142,1.66542 -6.35157,6.76953 -2.54014,5.10411 -6.58613,15.17451 -15.38086,36.71484 -1.99873,4.89535 -3.87568,9.51995 -5.28906,13.0293 -1.41338,3.50935 -2.34297,5.83934 -2.51758,6.35351 -0.13015,0.38327 -0.3184,0.73592 -0.49218,0.9668 -0.0838,0.11137 -0.0546,0.0909 -0.10743,0.12891 -0.10337,-0.17412 -0.23436,-0.41451 -0.40039,-0.7461 -0.36152,-0.72201 -0.84952,-1.77937 -1.42578,-3.08593 -1.15252,-2.61314 -2.65813,-6.22424 -4.23437,-10.19532 -9.42911,-23.75519 -14.11924,-35.58521 -17.13477,-41.82422 -1.50777,-3.1195 -2.5991,-4.85311 -3.6875,-5.98242 -1.0884,-1.1293 -2.15861,-1.61494 -3.47656,-2.2207 -1.92812,-0.88618 -4.2859,-1.42188 -6.79688,-1.65625 z m 205.7168,0.0273 c -4.7426,-0.0224 -9.9579,0.064 -14.96875,0.23243 -5.01085,0.16846 -9.81453,0.42046 -13.73047,0.73437 -3.91593,0.31391 -6.91526,0.67605 -8.44726,1.11523 -11.25786,3.22735 -18.2273,9.05715 -21.97852,18.43555 -2.15542,5.38876 -3.01774,15.533 -2.80469,25.56836 0.21306,10.03536 1.48857,19.88231 3.87891,24.71094 3.89588,7.86988 12.73114,13.54147 25.25391,16.36133 4.23523,0.95367 14.16799,1.25533 23.91796,1.08398 4.87499,-0.0857 9.68852,-0.29348 13.68555,-0.61328 3.99703,-0.3198 7.14776,-0.73407 8.82617,-1.29492 2.0221,-0.6757 3.59489,-1.25524 4.8418,-2.09961 1.24691,-0.84437 2.1437,-1.97038 2.74609,-3.61133 1.20479,-3.28191 1.36634,-8.6134 1.54297,-18.72461 l 0.31641,-18.12891 h -10.53906 -10.53125 v 14.68946 13.77929 l -8.3125,0.63477 c -4.94769,0.37749 -10.64679,0.11073 -15.63086,-0.59961 -4.98407,-0.71034 -9.27738,-1.89524 -11.30078,-3.20508 -1.22648,-0.79396 -3.47119,-3.43289 -4.73633,-5.6875 -1.06149,-1.89166 -1.61858,-3.16274 -1.95313,-5.48828 -0.33455,-2.32554 -0.426,-5.7063 -0.48633,-11.66406 -0.0868,-8.5697 0.0587,-13.76511 0.76758,-17.31445 0.70893,-3.54935 1.93697,-5.45132 4.14258,-7.63282 2.76738,-2.73714 5.1219,-4.23553 9.88867,-5.07812 4.76677,-0.84259 11.93302,-0.97692 24.08985,-0.84961 l 20.95703,0.21875 0.31054,-7.25 0.31055,-7.24414 -7.92383,-0.66406 c -3.12054,-0.2613 -7.39021,-0.39161 -12.13281,-0.41407 z m 271.375,0.0156 c -2.88682,-0.10494 -5.9291,-0.0976 -9.12695,0.0215 -15.26575,0.56834 -23.66221,2.73685 -30.45117,8.02539 -5.03846,3.92495 -8.48674,8.85353 -10.50782,15.47657 -2.02081,6.62218 -2.64959,14.92315 -2.19726,25.75195 0.32935,7.88421 1.02373,13.47067 2.52539,17.93945 1.50205,4.46996 3.83753,7.78765 7.27929,10.99414 5.64486,5.25898 11.47139,8.07409 20.09571,9.73438 8.68203,1.67142 26.72646,1.65349 34.89648,-0.0508 12.93973,-2.69928 21.66246,-9.14718 26.17774,-19.48047 2.38581,-5.45991 3.40405,-14.76376 3.30078,-24.22266 -0.10328,-9.45912 -1.34053,-18.99639 -3.82422,-24.87109 -2.95297,-6.98486 -8.43042,-12.10331 -16.32031,-15.28711 -5.80409,-2.34212 -12.94881,-3.63769 -21.39258,-3.98438 v -0.0293 z m -225.89648,0.49609 -3.51954,2.85938 -3.60156,2.92968 -0.30273,40.26172 c -0.082,10.95265 -0.0989,21.04502 -0.0606,28.48633 0.0191,3.72064 0.0518,6.7777 0.0977,8.95313 0.0229,1.0876 0.0484,1.95354 0.0781,2.58007 0.0149,0.31278 0.0306,0.56663 0.0488,0.76758 v 0.002 c 0.01,0.10108 0.0209,0.18847 0.0332,0.26953 0.006,0.0383 0.0228,0.18533 0.0879,0.33984 0.23779,0.56375 0.75117,0.87869 1.28125,1.07813 0.53043,0.19956 1.17551,0.32739 2.00782,0.42773 1.66639,0.2009 4.09532,0.2793 7.59961,0.2793 h 10.4375 l 0.28906,-17.07813 0.25781,-15.25 7.32617,-0.23437 c 3.44084,-0.11039 5.53895,-0.1014 6.81836,0.0781 1.29069,0.18115 1.65422,0.4095 2.17969,0.98047 0.12534,0.1362 0.67147,0.80206 1.4082,1.74219 0.73724,0.94078 1.70877,2.19993 2.84571,3.68555 2.27389,2.97125 5.20582,6.8488 8.24609,10.9121 l 11.34766,15.16407 h 11.43554 c 3.02833,0 5.77945,-0.064 7.79102,-0.16797 1.00527,-0.052 1.82385,-0.11277 2.42187,-0.18555 0.29762,-0.0362 0.54167,-0.0728 0.75782,-0.12695 0.10311,-0.0259 0.22886,-0.0641 0.36132,-0.13086 0.0497,-0.0251 0.17892,-0.0956 0.28907,-0.20703 0.13824,-0.13995 0.28711,-0.3651 0.28711,-0.69336 0,-0.20919 -0.0775,-0.405 -0.0879,-0.43164 -0.0312,-0.08 -0.0653,-0.15728 -0.10547,-0.23438 -0.0785,-0.15088 -0.17606,-0.31176 -0.29297,-0.49804 -0.23593,-0.3759 -0.56005,-0.85495 -0.95899,-1.41993 -0.798,-1.13016 -1.8896,-2.59572 -3.08984,-4.13867 -5.21471,-6.7037 -10.12739,-13.20987 -13.73047,-18.14258 -1.80149,-2.46629 -3.27618,-4.5412 -4.29297,-6.04101 -0.50831,-0.74979 -0.90209,-1.35775 -1.1582,-1.78516 -0.0375,-0.0626 -0.0486,-0.0879 -0.0801,-0.14258 0.37883,-0.12395 1.01042,-0.22851 1.70117,-0.22851 1.02688,0 2.25581,-0.34847 3.58399,-0.86914 1.33091,-0.52173 2.73943,-1.23276 3.96875,-2.04297 3.93553,-2.59384 6.69968,-5.58906 8.41211,-9.50586 1.71196,-3.91575 2.38092,-8.69656 2.34375,-14.91602 -0.0656,-10.97429 -3.59164,-18.61241 -10.75782,-22.79882 -3.2702,-1.91043 -6.53289,-3.0699 -12.11718,-3.71485 -5.58341,-0.64485 -13.53279,-0.8125 -26.44922,-0.8125 z M 263.19138,611.045 c 2.43339,0.22824 4.6968,0.74108 6.48828,1.56445 1.32081,0.60708 2.2191,1.01077 3.18945,2.01758 0.97035,1.00682 2.02821,2.65684 3.51758,5.73828 2.97874,6.16289 7.67828,18.00646 17.10742,41.76172 1.57987,3.98022 3.08841,7.59729 4.24805,10.22657 0.57982,1.31464 1.07106,2.38147 1.44531,3.1289 0.18713,0.37372 0.34329,0.66585 0.47461,0.88086 0.0657,0.10751 0.12271,0.19464 0.18945,0.27539 0.0334,0.0404 0.0684,0.0798 0.125,0.125 0.0566,0.0452 0.13954,0.12158 0.33203,0.12305 0.49073,0.004 0.73838,-0.31058 0.98828,-0.64258 0.24991,-0.332 0.47012,-0.75712 0.63086,-1.23047 0.11628,-0.3424 1.0874,-2.79728 2.5,-6.30469 1.4126,-3.5074 3.28889,-8.13127 5.28711,-13.02539 8.79532,-21.54176 12.85618,-31.63228 15.35352,-36.65039 2.49734,-5.0181 3.26711,-4.87919 5.96094,-6.36523 2.06759,-1.14069 6.69739,-1.72304 11.15039,-1.61524 2.2265,0.0539 4.41957,0.26976 6.25,0.63282 1.83042,0.36306 3.30327,0.89623 4.03711,1.47265 1.21635,0.95546 2.07135,1.68964 2.72656,2.89063 0.65521,1.20099 1.12341,2.91389 1.44141,5.8164 0.63599,5.80504 0.66992,16.30063 0.66992,36.72461 v 37.82422 h -9.6211 -9.62304 l -0.26172,-32.23633 -0.26563,-32.70507 -0.91211,-0.17188 -3.79101,9.55859 c -2.08113,5.24618 -7.76576,19.02851 -12.62696,30.61133 -5.08129,12.10705 -7.98731,18.63416 -10.50585,22.04688 -1.25928,1.70636 -2.3973,2.62543 -3.67969,3.14453 -1.28239,0.5191 -2.74753,0.64002 -4.6543,0.63867 -2.88362,-0.002 -5.85079,-0.67183 -7.85156,-1.74609 -1.01151,-0.54315 -1.75237,-0.99432 -2.57031,-1.90039 -0.81795,-0.90608 -1.71424,-2.28785 -2.93555,-4.66016 -2.44263,-4.74461 -6.17264,-13.42474 -13.2832,-30.11523 l -10.99414,-25.8086 -0.90821,0.18164 -0.26562,31.81641 -0.26172,31.3457 h -9.62305 -9.62109 l 0.004,-38.90625 c 0.001,-18.41321 0.0354,-28.30663 0.28516,-33.88672 0.12488,-2.79004 0.30454,-4.50084 0.55273,-5.64062 0.2482,-1.13978 0.54445,-1.69642 0.9629,-2.30078 1.48774,-2.14868 5.8882,-3.86388 10.83007,-4.49219 2.47094,-0.31416 5.07442,-0.37081 7.50782,-0.14258 z m 205.80468,0.0234 c 4.72923,0.0226 8.97597,0.15269 12.05078,0.41016 l 7.01954,0.58593 -0.27149,6.33985 -0.26953,6.33398 -20.04297,-0.20898 c -12.16746,-0.12742 -19.35527,-0.004 -24.26367,0.86328 -4.9084,0.86762 -7.54935,2.52959 -10.38867,5.33789 -2.2805,2.25557 -3.66588,4.42218 -4.4043,8.11914 -0.73841,3.69696 -0.87402,8.92581 -0.78711,17.50976 0.0604,5.96355 0.1468,9.36105 0.4961,11.78907 0.34929,2.42802 0.98201,3.8874 2.06445,5.8164 1.33829,2.38496 3.49597,5.0136 5.04687,6.01758 2.3042,1.49161 6.63101,2.62783 11.68164,3.34766 5.05064,0.71983 10.79984,0.99166 15.83594,0.60742 l 9.18555,-0.70117 v -14.65625 -13.74414 h 9.58594 9.57812 l -0.30078,17.16797 c -0.17653,10.10529 -0.38942,15.42601 -1.48633,18.41406 -0.54845,1.49402 -1.2839,2.40618 -2.38867,3.1543 -1.10477,0.74811 -2.60316,1.31593 -4.60938,1.98632 -1.46379,0.48914 -4.63208,0.93046 -8.60156,1.24805 -3.96948,0.3176 -8.77001,0.52789 -13.6289,0.61328 -9.7178,0.17079 -19.73083,-0.17067 -23.69141,-1.0625 -12.35071,-2.78111 -20.89376,-8.33786 -24.61719,-15.85937 -2.21827,-4.48105 -3.56772,-14.34463 -3.77929,-24.31055 -0.21158,-9.96592 0.70309,-20.11398 2.73632,-25.19727 3.6526,-9.13182 10.29155,-14.70547 21.36133,-17.8789 1.34112,-0.38447 4.3689,-0.76982 8.26367,-1.08203 3.89478,-0.31222 8.68613,-0.56434 13.68555,-0.73243 4.99943,-0.16808 10.21023,-0.25113 14.93945,-0.22851 z m 262.28125,0.0352 c -7.59487,0.28275 -13.42387,0.95516 -18.17773,2.19921 4.75366,-1.24413 10.58286,-1.91646 18.17773,-2.19921 z m -358.67187,0.002 v 44.1444 44.14453 h 10.47265 10.47266 V 655.25 611.10547 h -10.47266 z m 237.63476,0 -3.05664,2.7832 c -1.83776,1.67206 -3.10424,3.78314 -3.16406,5.56445 -0.0256,0.76026 -0.0579,5.2789 -0.0937,12.05274 -0.0358,6.77384 -0.0749,15.76221 -0.10547,25.33203 -0.0538,16.85376 -0.0652,25.56882 0.18555,30.4082 0.12537,2.4197 0.31445,3.87489 0.61523,4.91602 0.30079,1.04113 0.73426,1.65922 1.24024,2.2793 1.18224,1.44882 3.16778,3.08192 4.61328,3.75781 0.57224,0.26757 1.47789,0.41835 2.9668,0.56445 1.4889,0.1461 3.53562,0.26314 6.25,0.35352 5.42874,0.18075 13.53029,0.25867 25.13671,0.26367 l 32.22266,0.0137 v -7.75195 -7.75 H 650.07812 624.05078 V 672.99219 662.0918 h 23.02734 23.97266 v -7.17969 -7.14258 l -8.39258,-0.66601 c -4.42128,-0.35088 -14.86922,-0.54641 -23.29297,-0.43946 L 624.53711,646.85352 624.26758,636.7207 624,626.60742 h 8.88672 c 5.17104,0 16.88083,-0.26869 26.04883,-0.59765 l 17.11523,-0.61329 v -7.13867 -7.15234 H 643 Z m 130.54883,0.0234 c 6.23224,0.2563 11.74736,1.02141 16.47852,2.35546 -4.73161,-1.33363 -10.24691,-2.09823 -16.47852,-2.35546 z m -185.22851,0.61328 c 4.28405,0.12196 7.64064,0.32302 10.39062,0.64062 2.74953,0.31756 4.89163,0.7532 6.74414,1.33985 -1.85232,-0.58659 -3.99463,-1.02034 -6.74414,-1.33789 -2.74948,-0.31756 -6.10795,-0.52051 -10.39062,-0.64258 z m 184.73828,0.28515 c 8.50493,0.31058 15.56614,1.61554 21.20898,3.89258 7.52463,3.0364 12.52922,7.74806 15.28711,14.27149 2.2805,5.39409 3.57421,14.85306 3.67578,24.15625 0.10158,9.30299 -1.00136,18.54319 -3.14258,23.44336 -4.27687,9.78767 -12.3056,15.77406 -24.83007,18.38671 -7.60473,1.58639 -25.9696,1.6183 -34.15235,0.043 -8.39604,-1.61635 -13.74453,-4.20694 -19.16601,-9.25781 -3.28241,-3.05803 -5.37162,-6.02961 -6.77735,-10.21289 -1.40533,-4.18211 -2.09954,-9.60626 -2.42578,-17.41602 -0.44756,-10.71488 0.1898,-18.81786 2.11328,-25.12109 1.92378,-6.30417 5.09567,-10.82314 9.86328,-14.53711 6.39446,-4.98122 14.24464,-7.06423 29.35938,-7.62695 3.15628,-0.11751 6.15141,-0.12499 8.98633,-0.0215 z m -366.74805,0.0234 h 9.52734 9.52735 V 655.25 698.44922 h -9.52735 -9.52734 V 655.25 Z m 237.05664,0 H 643 675.10547 v 6.20703 6.22656 l -16.20508,0.58008 c -9.15761,0.3286 -20.87552,0.59766 -26.01367,0.59766 h -9.85742 l 0.29492,11.08398 0.29297,11.06446 15.75976,-0.20118 c 8.39906,-0.10664 18.87612,0.0919 23.20703,0.43555 l 7.52149,0.59766 v 6.26953 6.23437 h -23.02735 -23.97265 v 11.84571 11.8457 h 26.97265 26.02735 v 6.80469 6.80664 l -31.27735,-0.0137 c -11.60233,-0.005 -19.69887,-0.0837 -25.10546,-0.26368 -2.7033,-0.09 -4.73427,-0.20505 -6.1875,-0.34765 -1.45324,-0.1426 -2.3539,-0.33727 -2.66016,-0.48047 -1.19846,-0.56038 -3.21513,-2.19349 -4.28125,-3.5 -0.48395,-0.59307 -0.80236,-1.03134 -1.06641,-1.94531 -0.26405,-0.91397 -0.45431,-2.31173 -0.57812,-4.70117 -0.24761,-4.77889 -0.23742,-13.50427 -0.1836,-30.35743 0.0305,-9.56924 0.0697,-18.55717 0.10547,-25.33007 0.0358,-6.77291 0.0698,-11.37104 0.0918,-12.0254 0.0446,-1.3275 1.16012,-3.35399 2.85547,-4.89648 z m -95.46094,0.47266 h 24.46485 c 12.89978,0 20.81455,0.17331 26.23047,0.79883 5.4169,0.62561 8.28736,1.6635 11.38086,3.4707 6.54665,3.8245 9.75898,10.59061 9.82226,21.17578 0.0363,6.07681 -0.63001,10.58603 -2.1875,14.14844 -1.55798,3.56352 -3.99567,6.23302 -7.7168,8.68554 -1.09796,0.72364 -2.41265,1.39033 -3.61914,1.86329 -1.20312,0.47163 -2.35639,0.73632 -2.89453,0.73632 -0.86801,0 -1.65984,0.11097 -2.30859,0.32618 -0.32153,0.10663 -0.62799,0.24194 -0.89844,0.45312 -0.28131,0.21965 -0.58789,0.59663 -0.58789,1.11133 0,0.35168 0.14718,0.59827 0.20313,0.71289 0.0898,0.18408 0.20347,0.38828 0.34765,0.62891 0.28854,0.48151 0.69718,1.11048 1.2168,1.87695 1.03896,1.53251 2.52274,3.61677 4.33203,6.09375 3.6187,4.9541 8.5382,11.47193 13.76367,18.18945 1.18464,1.52288 2.26113,2.97214 3.03516,4.06836 0.23542,0.33343 0.37805,0.55394 0.55078,0.8125 -0.49257,0.0477 -1.01228,0.0955 -1.77148,0.13477 -1.96247,0.10147 -4.69375,0.16601 -7.69532,0.16601 h -10.49023 l -10.77735,-14.40625 c -3.04407,-4.06841 -5.98228,-7.94923 -8.26171,-10.92773 -1.13964,-1.48914 -2.11457,-2.7527 -2.85938,-3.70313 -0.7442,-0.94966 -1.22719,-1.55691 -1.50195,-1.85547 -0.75304,-0.81825 -1.76034,-1.35888 -3.3086,-1.57617 -1.53817,-0.21586 -3.67734,-0.20496 -7.14257,-0.0937 l -9.125,0.29297 -0.28907,17.04883 -0.25586,15.2207 h -8.58007 c -3.47528,0 -5.87035,-0.0825 -7.37305,-0.26367 -0.74995,-0.0904 -1.2841,-0.21263 -1.57031,-0.32031 -0.10795,-0.0406 -0.14464,-0.0677 -0.1836,-0.0918 -8e-5,-8.9e-4 8e-5,-10e-4 0,-0.002 -0.0136,-0.15011 -0.0267,-0.38615 -0.041,-0.68555 -0.0283,-0.59603 -0.0554,-1.45094 -0.0781,-2.5293 -0.0456,-2.15704 -0.0785,-5.209 -0.0976,-8.92382 -0.0382,-7.42963 -0.0214,-17.51503 0.0605,-28.46094 l 0.29492,-39.3711 2.91407,-2.36718 z m 252.03516,5.1914 c 1.62026,1.00402 3.0866,2.12213 4.40234,3.35352 -1.31538,-1.23108 -2.78258,-2.3497 -4.40234,-3.35352 z m -184.99219,1.8711 c 1.28128,1.40728 2.34715,3.01864 3.20117,4.84375 -0.854,-1.82463 -1.92019,-3.43672 -3.20117,-4.84375 z m 154.98047,0.16992 c -1.73006,-0.0495 -3.56071,-0.0186 -5.49609,0.0918 -9.46928,0.53991 -15.82543,2.70454 -19.67969,8.0664 -3.85254,5.35949 -5.11914,13.59653 -5.11914,26.13867 0,11.10773 0.98032,18.66678 3.75977,23.93164 2.78125,5.26827 7.42236,8.06045 14.14453,9.48438 3.14648,0.66651 8.04883,0.76672 12.80078,0.49023 4.61261,-0.26838 8.92299,-0.88017 11.4414,-1.86523 h 0.1211 l 0.17578,-0.0742 c 4.90963,-2.06077 8.92378,-6.83883 10.61133,-12.49414 0.49892,-1.67194 0.80534,-4.52809 1.02343,-8.09766 0.21816,-3.57062 0.32267,-7.80948 0.31641,-12.02148 -0.006,-4.21201 -0.12475,-8.39454 -0.35351,-11.85742 -0.22865,-3.46115 -0.5269,-6.13878 -1.06055,-7.64844 -1.86346,-5.27174 -5.04153,-9.0903 -9.70508,-11.38867 -3.49639,-1.72315 -7.78989,-2.6073 -12.98047,-2.75586 z m -0.0273,0.94531 c 0.0244,7e-4 0.0421,0.007 0.0664,0.008 -1.71945,-0.0517 -3.54205,-0.0265 -5.48046,0.084 -4.67571,0.2666 -8.50861,0.92033 -11.62696,2.13867 3.11814,-1.21897 6.95127,-1.87208 11.62696,-2.13867 1.91177,-0.10903 3.71454,-0.14046 5.41406,-0.0918 z m 6.16601,0.67969 c 0.48242,0.0897 0.95788,0.19017 1.41797,0.29883 -0.46134,-0.10884 -0.93421,-0.20905 -1.41797,-0.29883 z m -11.52539,0.35742 c 7.55308,-0.43065 13.29931,0.3831 17.53125,2.46875 4.23377,2.08657 7.02257,5.40966 8.75977,10.32422 0.34973,0.98938 0.73219,3.73911 0.95703,7.14258 0.22496,3.40529 0.34145,7.55578 0.34766,11.73437 0.006,4.17864 -0.0996,8.38589 -0.31446,11.90235 -0.21478,3.51547 -0.56639,6.39944 -0.94726,7.67578 -1.53408,5.14099 -5.25625,9.4958 -9.53321,11.29101 -1.93343,0.81154 -6.46918,1.52275 -11.11328,1.79297 -4.64513,0.27028 -9.52012,0.13786 -12.30078,-0.45117 -6.41884,-1.35968 -10.34977,-3.75648 -12.86328,-8.51758 -2.51168,-4.75765 -3.54101,-12.0556 -3.54102,-23.04883 0,-12.41072 1.33884,-20.27534 4.76172,-25.03711 3.4247,-4.76427 9.01931,-6.75069 18.25586,-7.27734 z m -15.83984,3.46875 c -1.2173,0.91436 -2.27264,1.99325 -3.18164,3.25781 -0.59617,0.82937 -1.0365,1.87337 -1.51172,2.86914 0.47505,-0.9952 0.91388,-2.04016 1.50977,-2.86914 0.90955,-1.26532 1.96544,-2.34286 3.18359,-3.25781 z m -187.81055,1.42578 v 15.50977 15.53125 l 17.94727,-0.33594 17.36328,-0.32227 3.33984,-3.34375 c 3.21199,-3.21473 4.49629,-8.34554 4.20899,-13.20117 -0.28729,-4.85543 -2.14849,-9.56188 -5.77539,-11.77343 -1.47025,-0.8965 -2.98248,-1.44662 -5.78711,-1.72461 -2.80199,-0.27774 -6.96797,-0.33429 -14.10157,-0.33594 z m 1.89063,1.89063 15.30468,0.004 c 7.12325,0.002 11.27493,0.0644 13.91602,0.32618 2.64378,0.26205 3.69031,0.66753 4.98828,1.45898 2.82622,1.72333 4.60867,5.83234 4.8711,10.26758 0.26245,4.4355 -0.99258,9.08991 -3.65625,11.75586 l -2.80274,2.80468 -16.59961,0.3086 -16.02148,0.29492 v -13.60156 z m 247.64258,1.30078 c 1.19138,2.81859 2.10385,6.6012 2.73046,10.85156 -0.6268,-4.25072 -1.53875,-8.03279 -2.73046,-10.85156 z m -86.47852,4.11133 c -0.49308,1.6158 -0.90279,3.34138 -1.23242,5.1875 0.32969,-1.84603 0.7374,-3.56977 1.23047,-5.18555 2.5e-4,-8.4e-4 0.002,-10e-4 0.002,-0.002 z m 67.89844,1.16797 c 0.37067,1.40839 0.68891,3.4839 0.88867,6.50781 0.22687,3.4342 0.34362,7.59967 0.34961,11.79492 -0.006,-4.19464 -0.12474,-8.3614 -0.35156,-11.79492 -0.19971,-3.0231 -0.5159,-5.09789 -0.88672,-6.50781 z m -173.36133,17.39257 c -0.8174,1.86962 -1.87687,3.51236 -3.21094,5.00391 1.3332,-1.49138 2.39372,-3.13471 3.21094,-5.00391 z m 103.30664,6.87696 c 0.3278,7.8472 1.02283,13.35158 2.47656,17.67773 1.45334,4.32498 3.66651,7.47242 7.02735,10.60352 -3.361,-3.13125 -5.57602,-6.27869 -7.0293,-10.60352 -1.45368,-4.326 -2.1468,-9.83045 -2.47461,-17.67773 z m -120.78906,5.9707 c 0,0 0.0443,0.19815 0.0742,0.33203 -0.0605,0.007 -0.12308,0.0137 -0.12305,0.0137 5e-5,10e-6 -0.17193,-0.0567 -0.17188,-0.0566 5e-5,3e-5 -0.0957,-0.0684 -0.0957,-0.0684 5e-5,5e-5 -0.0489,-0.0548 -0.0488,-0.0547 10e-5,1.3e-4 -0.0308,-0.0507 -0.0371,-0.0606 0.0846,-0.0222 0.40235,-0.10547 0.40235,-0.10547 z m -0.35938,0.24805 h 0.002 c 0.0493,0.10095 0.13409,0.2466 0.21484,0.38672 -0.0806,-0.13997 -0.16794,-0.28663 -0.2168,-0.38672 z m 0.6211,1.0332 c 0.25044,0.39809 0.49878,0.79478 0.8789,1.35547 1.0274,1.51545 2.50596,3.59583 4.31055,6.0664 -1.80549,-2.47176 -3.28473,-4.55039 -4.3125,-6.0664 -0.38036,-0.56105 -0.6266,-0.95689 -0.87695,-1.35547 z m -22.27539,1.09961 c 0.21123,0.22952 0.71376,0.8509 1.45507,1.79687 0.74072,0.94521 1.71308,2.20768 2.85157,3.69532 -1.13837,-1.48748 -2.11262,-2.74791 -2.85352,-3.69336 -0.74053,-0.94497 -1.23969,-1.56672 -1.45312,-1.79883 z m 211.1875,9.39648 c -0.66094,1.21779 -1.43916,2.35401 -2.31055,3.38282 0.87111,-1.02848 1.64977,-2.16549 2.31055,-3.38282 z m -50.18165,16.59961 c 3.15277,1.52486 6.67734,2.61068 10.93165,3.42969 4.21872,0.81218 10.87722,1.21193 17.46679,1.20313 6.58958,-0.009 13.10991,-0.4267 17.05664,-1.25 -3.94684,0.82307 -10.46755,1.24094 -17.05664,1.25 -6.58992,0.009 -13.24811,-0.39097 -17.46679,-1.20313 -4.25432,-0.81901 -7.77909,-1.90442 -10.93165,-3.42969 z m -199.05468,3.88086 c 0.009,0.0598 0.0207,0.0937 0.0273,0.11328 h -0.002 c -0.0275,-0.0654 -0.01,-0.0108 -0.0254,-0.11328 z m 82.99804,0.92969 c -0.0924,0.0144 -0.14856,0.0309 -0.26367,0.0449 -0.27834,0.0339 -0.78411,0.0581 -1.17969,0.0879 0.3953,-0.0303 0.89907,-0.0559 1.17774,-0.0898 0.13476,-0.0163 0.19757,-0.0322 0.26562,-0.043 z"
           id="path2" />
      </g>
    </g>
  </g>
</svg>
