<?xml version="1.0" encoding="UTF-8" standalone="no"?>
<!-- Created with Inkscape (http://www.inkscape.org/) -->

<svg
   version="1.1"
   id="svg1"
   width="514.81525"
   height="348.21304"
   viewBox="0 0 514.81525 348.21304"
   sodipodi:docname="migreo.svg"
   inkscape:version="1.4.2 (f4327f4, 2025-05-13)"
   xmlns:inkscape="http://www.inkscape.org/namespaces/inkscape"
   xmlns:sodipodi="http://sodipodi.sourceforge.net/DTD/sodipodi-0.dtd"
   xmlns="http://www.w3.org/2000/svg"
   xmlns:svg="http://www.w3.org/2000/svg">
  <defs
     id="defs1">
    <linearGradient id="logoBaseGradient" x1="0%" y1="0%" x2="100%" y2="100%">
      <stop offset="0%" stop-color="#ffffff"/>
      <stop offset="40%" stop-color="#d9e1ff"/>
      <stop offset="70%" stop-color="#a8b4ff"/>
      <stop offset="100%" stop-color="#ffffff"/>
    </linearGradient>
    <linearGradient id="logoShineGradient" x1="-100%" y1="0%" x2="200%" y2="0%">
      <stop offset="0%" stop-color="#ffffff" stop-opacity="0"/>
      <stop offset="45%" stop-color="#ffffff" stop-opacity="0.15"/>
      <stop offset="50%" stop-color="#ffffff" stop-opacity="0.35"/>
      <stop offset="55%" stop-color="#ffffff" stop-opacity="0.15"/>
      <stop offset="100%" stop-color="#ffffff" stop-opacity="0"/>
      <animate attributeName="x1" from="-100%" to="200%" dur="6s" repeatCount="indefinite"/>
      <animate attributeName="x2" from="0%" to="300%" dur="6s" repeatCount="indefinite"/>
    </linearGradient>
  </defs>
  <sodipodi:namedview
     id="namedview1"
     pagecolor="#ffffff"
     bordercolor="#000000"
     borderopacity="0.25"
     inkscape:showpageshadow="2"
     inkscape:pageopacity="0.0"
     inkscape:pagecheckerboard="0"
     inkscape:deskcolor="#d1d1d1"
     inkscape:zoom="0.79589844"
     inkscape:cx="299.66135"
     inkscape:cy="240.60859"
     inkscape:window-width="1920"
     inkscape:window-height="1017"
     inkscape:window-x="-8"
     inkscape:window-y="-8"
     inkscape:window-maximized="1"
     inkscape:current-layer="g27" />
  <g
     inkscape:groupmode="layer"
     inkscape:label="Image"
     id="g1"
     transform="translate(-210.589,-271.65049)">
    <g
       id="g27"
       transform="matrix(1,0,0,0.98847872,0,6.153095)">
      <path
         id="path2"
         fill="url(#logoBaseGradient)"
         style="stroke-width:0.920768"
         d="m 393.25493,618.96298 c -11.98442,-2.75736 -20.35749,-8.28465 -24.02858,-15.86189 -4.44101,-9.16638 -5.05704,-38.8146 -1.02072,-49.12544 3.56728,-9.11266 10.12444,-14.72629 20.88224,-17.87742 5.53725,-1.62195 35.38341,-2.64724 47.32348,-1.62569 l 7.19962,0.61597 -0.27989,6.68729 -0.2799,6.68729 -19.75443,-0.21139 c -23.43963,-0.25082 -27.665,0.51233 -33.0678,5.97242 -4.32295,4.36878 -5.03457,8.00912 -4.86721,24.89873 0.11631,11.73781 0.34312,13.34875 2.40907,17.11062 1.25438,2.28407 3.37557,4.87704 4.71376,5.76217 4.1702,2.75832 16.61425,4.57049 26.23494,3.82047 l 8.43177,-0.65733 v -13.99802 -13.99803 h 9.69247 9.69247 l -0.29707,17.3763 c -0.34031,19.90534 -0.72433,20.97419 -8.48794,23.62493 -6.05587,2.06766 -36.59855,2.61612 -44.49628,0.79902 z m 292.5538,-84.82743 c -2.75687,-0.10264 -5.66576,-0.0955 -8.72725,0.021 -14.6376,0.55681 -22.46523,2.65008 -28.8167,7.70553 -9.44834,7.52044 -12.76009,18.6084 -11.89293,39.82064 0.6317,15.45266 2.67978,21.6789 9.15825,27.84593 5.33125,5.07497 10.71697,7.73725 18.9169,9.35021 8.12818,1.59879 25.66627,1.57515 33.26972,-0.0455 12.26809,-2.61488 20.34057,-8.73812 24.57635,-18.64268 4.3645,-10.20551 4.08399,-36.50299 -0.50816,-47.60141 -4.81478,-11.63647 -16.6781,-17.73532 -35.97618,-18.45373 z m -1.61671,13.41469 c 13.04137,0.49396 21.05724,4.68661 24.31097,12.68682 3.10331,7.62991 3.29379,25.70955 0.34443,32.72575 -2.86253,6.80935 -8.31699,11.02038 -16.60758,12.81805 -5.13823,1.11421 -16.99044,1.13082 -22.48346,0.0315 -5.54132,-1.10898 -9.18041,-2.93919 -12.78317,-6.42828 -4.37797,-4.23979 -5.76329,-8.52125 -6.19019,-19.14484 -0.58604,-14.58357 1.65345,-22.20666 8.03841,-27.37703 4.29224,-3.47552 9.58224,-4.9135 19.474,-5.29623 2.06891,-0.0801 4.03353,-0.0864 5.89659,-0.0158 z m -353.40381,29.51351 v -42.99979 h 9.63631 9.6363 v 42.99979 42.99979 h -9.6363 -9.63631 z m 137.83015,-42.99979 -3.14121,2.60701 -3.13932,2.60875 -0.28609,39.20301 c -0.15809,21.5615 -0.0667,39.73703 0.20327,40.39104 0.36031,0.87289 2.92732,1.18977 9.65325,1.18977 h 9.16202 l 0.26349,-15.90097 0.26349,-15.90096 7.92548,-0.26069 c 6.65574,-0.21818 8.15815,-0.003 9.37094,1.34374 0.79436,0.88197 6.24072,8.15519 12.10373,16.16166 l 10.66016,14.55722 h 10.56418 c 5.81054,0 10.56605,-0.25118 10.56605,-0.55815 0,-0.30695 -1.88186,-3.02803 -4.18012,-6.04684 -10.06049,-13.21464 -18.94701,-25.64742 -18.94701,-26.50569 0,-0.51197 1.2355,-0.93082 2.74597,-0.93082 1.52829,0 4.53422,-1.20485 6.77742,-2.71548 7.37708,-4.96794 10.02519,-11.15627 9.95437,-23.26356 -0.0621,-10.61246 -3.31122,-17.70572 -9.91673,-21.64861 -6.13017,-3.65915 -11.82527,-4.33043 -36.70266,-4.33043 z m 12.49708,12.08145 15.659,0.004 c 13.73839,0.003 16.03054,0.21353 18.69105,1.72167 6.22628,3.52943 7.00615,15.7818 1.34005,21.05372 l -2.95865,2.75223 -16.36666,0.28345 -16.36479,0.28169 V 559.1945 Z m 79.10976,72.78514 c -1.2739,-0.60862 -3.20252,-2.21643 -4.28581,-3.57289 -1.90786,-2.38896 -1.96627,-3.5409 -1.86253,-36.72899 0.0589,-18.84447 0.14458,-35.40228 0.19039,-36.79511 0.0503,-1.53048 1.19773,-3.56848 2.90004,-5.15102 l 2.81676,-2.61858 h 31.39213 31.39212 v 6.57804 6.57803 l -16.05381,0.5886 c -8.82959,0.32372 -20.11783,0.58859 -25.08498,0.58859 h -9.03117 l 0.27149,10.43507 0.27149,10.43507 14.73734,-0.1912 c 8.10554,-0.10516 18.18752,0.0886 22.40442,0.43056 l 7.66707,0.62175 v 6.60304 6.60304 h -22.64532 -22.64532 v 11.19786 11.19787 h 25.53621 25.53621 v 7.16663 7.16663 l -30.59527,-0.0132 c -22.3647,-0.01 -31.21836,-0.3109 -32.91146,-1.11979 z m -303.96407,0.1575 c -3.68949,-2.16577 -4.30392,-3.47042 -17.11221,-36.33844 l -9.90247,-25.4115 -0.23901,31.32624 -0.23905,31.32623 h -9.08969 -9.0897 l 0.004,-38.77443 c 0.003,-36.26051 0.11317,-38.94776 1.69667,-41.44795 2.9849,-4.71275 16.18716,-6.54781 22.88721,-3.18125 4.75316,2.38829 4.68166,2.22656 21.66615,49.00569 2.84248,7.82892 5.42759,14.23656 5.74457,14.2392 0.31713,0.003 0.79077,-0.68525 1.05272,-1.52865 0.26193,-0.8434 3.4215,-9.41978 7.02131,-19.05862 15.84229,-42.41894 14.6049,-39.70077 19.3852,-42.58383 4.06537,-2.45193 16.701,-2.11749 19.77634,0.52343 4.41052,3.78756 4.51983,4.87904 4.51983,45.09916 v 37.70725 h -9.08999 -9.09 l -0.23896,-32.20249 -0.23875,-32.2025 -3.41472,9.41062 c -1.87811,5.17584 -6.99743,18.74327 -11.37642,30.14983 -9.15507,23.84751 -10.42103,25.72287 -17.36051,25.71753 -2.66177,-0.002 -5.38259,-0.66634 -7.27222,-1.77552 z M 393.9106,516.05294 c -7.36538,-3.43896 -11.51323,-10.31883 -11.48355,-19.04729 0.0212,-6.22917 3.16071,-11.89431 8.82263,-15.92005 3.76531,-2.6772 5.18131,-3.07361 10.99152,-3.07704 5.89266,-0.003 7.21108,0.37661 11.32051,3.26371 12.74412,8.95341 11.47856,27.58768 -2.36127,34.76789 -4.71147,2.44434 -12.07041,2.44978 -17.28984,0.0127 z m 136,-0.61985 c -7.60267,-2.72073 -13.53031,-11.6258 -13.46625,-20.23033 0.0381,-5.1139 4.12245,-11.82773 9.38553,-15.42775 3.93031,-2.68838 5.77712,-3.28788 10.12863,-3.28788 6.66267,0 10.04828,1.27327 14.28741,5.37324 4.72969,4.57443 6.16468,7.88869 6.16468,14.23795 0,6.66265 -1.22632,10.26853 -4.81362,14.15393 -5.62452,6.09192 -13.72973,8.02824 -21.68638,5.18084 z m -92.48076,-11.37834 c -1.17307,-1.53013 -4.635,-7.10688 -7.69315,-12.39278 -3.05816,-5.2859 -6.9701,-11.11694 -8.69319,-12.95787 -4.98195,-5.32265 -13.87081,-9.14071 -26.69208,-11.46515 -13.09916,-2.37481 -14.68666,-3.03245 -15.5305,-6.43378 -0.60488,-2.43811 3.81244,-11.67053 8.39988,-17.55617 l 1.85709,-2.38264 4.12652,2.12972 c 4.76061,2.45699 11.73362,2.77934 16.50393,0.76294 4.37075,-1.8475 9.38157,-7.83455 10.69872,-12.7831 1.19954,-4.50668 1.21555,-4.51161 9.56988,-2.95267 12.53955,2.33992 22.55082,10.11554 28.31298,21.99031 l 2.6172,5.39359 -2.76,2.03394 c -8.83599,6.5116 -10.35919,20.58411 -3.06532,28.3199 l 2.54396,2.6981 -2.72199,5.05949 c -3.54185,6.58339 -10.15263,13.31822 -13.07291,13.31822 -1.29061,0 -3.18738,-1.19902 -4.40102,-2.78205 z m 52.06971,-2.02331 c -2.23667,-2.64295 -5.03145,-6.64107 -6.21062,-8.88471 l -2.14396,-4.07934 3.2051,-4.60009 c 5.96286,-8.5582 5.08668,-16.9338 -2.64641,-25.29746 l -4.42357,-4.78428 1.7067,-3.36531 c 6.56833,-12.95151 18.45457,-21.68082 32.07668,-23.55727 5.10865,-0.70372 5.15845,-0.68408 5.8037,2.28795 1.12918,5.20106 6.9942,11.04972 13.00177,12.96551 4.63376,1.47769 5.99341,1.53271 9.97895,0.40382 2.53783,-0.71883 4.8542,-1.69976 5.14749,-2.17984 1.28358,-2.10109 3.62264,-0.45287 7.451,5.25035 10.68464,15.91721 9.4475,18.39791 -10.53578,21.12625 -15.80687,2.15813 -25.07674,9.22417 -33.92873,25.86243 -5.91649,11.12067 -8.08363,13.65735 -11.66778,13.65735 -2.04074,0 -3.79439,-1.23661 -6.81454,-4.80536 z m -26.05893,-17.73363 c -3.19217,-1.63407 -7.03002,-7.41511 -7.03002,-10.58944 0,-3.46099 2.75682,-8.96987 5.33615,-10.6631 10.57256,-6.9405 23.52428,4.40018 18.13846,15.88224 -2.81538,6.00213 -10.38272,8.47339 -16.44459,5.3703 z m -67.11757,-47.54853 c -9.70361,-6.61548 -7.25215,-21.17016 3.81868,-22.67207 8.20043,-1.1125 14.26887,3.89772 14.26887,11.78064 0,5.66673 -2.41925,10.02082 -6.5343,11.76024 -4.76576,2.01447 -7.64122,1.79824 -11.55325,-0.86881 z m 133.41303,-1.19285 c -4.46158,-1.96331 -6.7101,-5.90169 -6.7101,-11.75301 0,-13.17485 17.15091,-16.55567 22.80771,-4.49591 3.02046,6.43934 0.37328,13.61132 -6.02166,16.31443 -4.11032,1.73742 -6.00684,1.72509 -10.07595,-0.0655 z M 459.9106,422.29012 c -7.32076,-3.85183 -11.64024,-10.88413 -11.71294,-19.06919 -0.0534,-6.01248 1.64465,-9.85526 6.37762,-14.43287 4.14445,-4.0084 7.62143,-5.37324 13.68853,-5.37324 6.43732,0 12.86884,3.45793 16.63341,8.94302 2.61782,3.81422 3.01249,5.275 3.00664,11.12821 -0.008,8.27416 -2.62642,13.17192 -9.34556,17.48272 -3.60261,2.31134 -5.68535,2.91099 -10.09348,2.90604 -3.07207,-0.003 -6.8949,-0.71164 -8.55422,-1.58469 z m -84.5,-4.79602 c -10.01036,-3.4068 -13.44391,-5.77968 -13.8095,-9.54355 -0.27251,-2.80551 0.8323,-4.41828 9.24272,-13.49225 14.96047,-16.14082 16.86998,-22.00026 14.1008,-43.26912 -1.50836,-11.585 -1.50703,-12.68403 0.0182,-15.03891 1.48372,-2.29082 2.15177,-2.49563 6.79663,-2.0837 2.83315,0.25126 7.45697,1.47339 10.27515,2.71586 l 5.12397,2.25901 -0.0589,6.33659 c -0.11133,11.97086 7.17626,20.19522 18.14698,20.47968 4.85475,0.12588 5.84049,0.48723 6.89926,2.52914 2.00181,3.86064 1.59851,19.17591 -0.66357,25.19861 -2.34678,6.24819 -8.79625,15.10467 -12.43044,17.06957 -2.43128,1.31454 -3.04602,1.22782 -6.90507,-0.97406 -6.19469,-3.53455 -13.99836,-3.41312 -19.55581,0.30429 -2.29941,1.5381 -5.19316,4.37774 -6.43056,6.31033 -1.2374,1.93258 -2.69981,3.49058 -3.24981,3.46222 -0.55,-0.0283 -3.925,-1.04703 -7.5,-2.26371 z m 178,0.4296 c 0,-1.48732 -6.78281,-9.0287 -9.39022,-10.44042 -6.47157,-3.50385 -16.1087,-2.61974 -20.78853,1.90713 l -2.67875,2.5912 -2.99242,-2.15564 c -4.14943,-2.98909 -7.79871,-7.57427 -10.8692,-13.65676 -3.14176,-6.22367 -4.18285,-17.88522 -2.30404,-25.80826 l 1.22264,-5.15593 h 4.72882 c 9.87964,0 18.0717,-9.03508 18.0717,-19.93141 0,-4.86183 0.1815,-5.21657 3.47898,-6.79956 9.20226,-4.41766 17.11638,-5.82054 20.52102,-3.63763 1.89544,1.21527 1.71923,8.74035 -0.44615,19.05362 -1.96252,9.34705 -1.95613,13.62394 0.0304,20.39146 1.86197,6.34302 4.94447,11.49646 9.39629,15.70908 7.27413,6.88329 13.26941,14.75609 13.26941,17.42494 0,4.75524 -5.05047,7.7496 -18.5,10.96844 -1.73398,0.41499 -2.75,0.24494 -2.75,-0.46026 z M 349.86923,385.55988 c -14.64185,-6.72839 -15.17674,-27.91874 -0.91704,-36.32994 5.64189,-3.32791 15.82028,-2.72723 20.95753,1.23681 4.75268,3.6673 6.33,6.32321 7.71099,12.98388 0.9014,4.34754 0.88596,6.54556 -0.0686,9.76878 -1.51245,5.10696 -6.51344,11.04483 -10.84376,12.87525 -4.50958,1.90618 -12.04824,1.66676 -16.83911,-0.53478 z m 217.9507,-0.71641 c -5.90899,-3.87613 -8.71754,-8.62445 -9.21481,-15.57918 -0.55764,-7.79923 1.10142,-12.39683 6.00601,-16.64391 15.56158,-13.47539 37.59067,1.26143 31.89875,21.33935 -3.20743,11.31399 -18.93725,17.28121 -28.68995,10.88374 z M 457.72489,363.39198 c -2.85214,-1.03325 -7.01759,-3.10504 -9.25656,-4.60399 l -4.07085,-2.72536 0.63408,-5.45786 c 0.98281,-8.45963 -0.15174,-12.293 -5.1284,-17.32767 -3.0143,-3.04943 -5.80648,-4.79725 -8.93814,-5.595 l -4.55442,-1.16019 v -10.27718 c 0,-11.23244 1.27451,-14.7792 5.3067,-14.76782 1.20632,0.003 8.2683,3.00711 15.6933,6.67489 20.22928,9.99278 21.20944,9.96479 44.8527,-1.28116 6.24398,-2.96995 11.97111,-5.39992 12.72695,-5.39992 0.75583,0 2.11036,1.13655 3.01005,2.52566 2.15022,3.3199 3.12885,21.60481 1.18635,22.166 -0.70183,0.20277 -3.21397,0.90187 -5.58254,1.55358 -9.53369,2.62318 -15.29906,12.95293 -13.07775,23.43127 1.06053,5.00273 0.99675,5.36652 -1.24908,7.12412 -7.41253,5.80108 -22.78676,8.29616 -31.55239,5.12063 z m -38.00047,-6.22985 c -4.10594,-2.53275 -5.31382,-4.92601 -5.31382,-10.52861 0,-9.91597 9.44218,-15.17252 18.83531,-10.48579 3.25186,1.62253 5.16469,5.85825 5.16469,11.43654 0,4.12022 -0.46443,5.17927 -3.5712,8.14348 -2.88332,2.75102 -4.37612,3.40661 -7.75,3.40355 -2.37175,-0.002 -5.55661,-0.85367 -7.36498,-1.96917 z m 84.18618,0.16673 c -3.89049,-2.48019 -5.3834,-4.3716 -6.4667,-8.19286 -1.31723,-4.64644 0.47604,-9.75245 4.52142,-12.87398 2.96652,-2.28904 4.15828,-2.60016 8.19644,-2.13969 10.36159,1.18151 14.79355,14.15942 7.31183,21.41091 -3.74627,3.63099 -9.49096,4.39154 -13.56299,1.79562 z m -42.36032,-49.50513 c -3.87978,-0.74469 -10.59457,-8.35752 -12.06822,-13.68222 -2.53561,-9.16186 0.47526,-17.64487 8.06647,-22.72706 3.55198,-2.37798 5.26278,-2.82254 10.86207,-2.82254 8.93953,0 14.07726,3.28058 17.71019,11.30843 3.0997,6.84956 2.6555,12.71882 -1.47342,19.46852 -4.58979,7.50312 -12.66162,10.45787 -23.09709,8.45487 z" />
      <use href="#path2" fill="url(#logoShineGradient)"/>
    </g>
  </g>
</svg>
