<?xml version="1.0" encoding="UTF-8" standalone="no"?>
<!-- Created with Inkscape (http://www.inkscape.org/) -->

<svg
   version="1.1"
   id="svg1"
   width="514.81525"
   height="348.21304"
   viewBox="0 0 514.81525 348.21304"
   sodipodi:docname="migreo.svg"
   inkscape:version="1.4.2 (f4327f4, 2025-05-13)"
   xmlns:inkscape="http://www.inkscape.org/namespaces/inkscape"
   xmlns:sodipodi="http://sodipodi.sourceforge.net/DTD/sodipodi-0.dtd"
   xmlns="http://www.w3.org/2000/svg"
   xmlns:svg="http://www.w3.org/2000/svg">
  <defs
     id="defs1">
    <linearGradient id="logoBaseGradient" x1="0%" y1="0%" x2="100%" y2="100%">
      <stop offset="0%" stop-color="#ffffff"/>
      <stop offset="40%" stop-color="#d9e1ff"/>
      <stop offset="70%" stop-color="#a8b4ff"/>
      <stop offset="100%" stop-color="#ffffff"/>
    </linearGradient>
  </defs>
  <sodipodi:namedview
     id="namedview1"
     pagecolor="#ffffff"
     bordercolor="#000000"
     borderopacity="0.25"
     inkscape:showpageshadow="2"
     inkscape:pageopacity="0.0"
     inkscape:pagecheckerboard="0"
     inkscape:deskcolor="#d1d1d1"
     inkscape:zoom="0.79589844"
     inkscape:cx="300.91779"
     inkscape:cy="240.60859"
     inkscape:window-width="1920"
     inkscape:window-height="1017"
     inkscape:window-x="-8"
     inkscape:window-y="-8"
     inkscape:window-maximized="1"
     inkscape:current-layer="g1" />
  <g
     inkscape:groupmode="layer"
     inkscape:label="Image"
     id="g1"
     transform="translate(-210.589,-271.65049)">
    <g id="logo-base">
      <g
         id="g26"
         transform="translate(-13.178359,19.100187)">
        <path
           fill="url(#logoBaseGradient)"
           d="m 474.72864,291.33011 c -3.87978,-0.73611 -10.59457,-8.26123 -12.06822,-13.52458 -2.53561,-9.0563 0.47526,-17.44158 8.06647,-22.46521 3.55198,-2.35059 5.26278,-2.79002 10.86207,-2.79002 8.93953,0 14.07726,3.24278 17.71019,11.17814 3.0997,6.77064 2.6555,12.57228 -1.47342,19.24422 -4.58979,7.41667 -12.66162,10.33738 -23.09709,8.35745 z"
           id="path24" />
        <path
           fill="url(#logoBaseGradient)"
           d="m 517.08896,340.26488 c -3.89049,-2.45161 -5.3834,-4.32123 -6.4667,-8.09847 -1.31723,-4.5929 0.47604,-9.64008 4.52142,-12.72565 2.96652,-2.26267 4.15828,-2.5702 8.19644,-2.11504 10.36159,1.1679 14.79355,13.99629 7.31183,21.16423 -3.74627,3.58916 -9.49096,4.34094 -13.56299,1.77493 z"
           id="path23" />
        <path
           fill="url(#logoBaseGradient)"
           d="m 432.90278,340.10007 c -4.10594,-2.50357 -5.31382,-4.86925 -5.31382,-10.4073 0,-9.80173 9.44218,-14.99772 18.83531,-10.36498 3.25186,1.60383 5.16469,5.79075 5.16469,11.30477 0,4.07275 -0.46443,5.1196 -3.5712,8.04966 -2.88332,2.71932 -4.37612,3.36736 -7.75,3.36434 -2.37175,-0.002 -5.55661,-0.84384 -7.36498,-1.94649 z"
           id="path22" />
        <path
           fill="url(#logoBaseGradient)"
           d="m 470.90325,346.25815 c -2.85214,-1.02135 -7.01759,-3.06927 -9.25656,-4.55095 l -4.07085,-2.69396 0.63408,-5.39498 c 0.98281,-8.36216 -0.15174,-12.15137 -5.1284,-17.12803 -3.0143,-3.0143 -5.80648,-4.74198 -8.93814,-5.53054 l -4.55442,-1.14682 v -10.15878 c 0,-11.10302 1.27451,-14.60892 5.3067,-14.59767 1.20632,0.003 8.2683,2.97246 15.6933,6.59798 20.22928,9.87766 21.20944,9.84999 44.8527,-1.26639 6.24398,-2.93574 11.97111,-5.33771 12.72695,-5.33771 0.75583,0 2.11036,1.12345 3.01005,2.49656 2.15022,3.28165 3.12885,21.3559 1.18635,21.91062 -0.70183,0.20043 -3.21397,0.89148 -5.58254,1.53568 -9.53369,2.59296 -15.29906,12.8037 -13.07775,23.16131 1.06053,4.94509 0.99675,5.30469 -1.24908,7.04204 -7.41253,5.73425 -22.78676,8.20058 -31.55239,5.06164 z"
           id="path21" />
        <path
           fill="url(#logoBaseGradient)"
           d="m 580.99829,367.46249 c -5.90899,-3.83147 -8.71754,-8.52509 -9.21481,-15.39969 -0.55764,-7.70937 1.10142,-12.254 6.00601,-16.45215 15.56158,-13.32014 37.59067,1.2469 31.89875,21.09349 -3.20743,11.18364 -18.93725,17.08211 -28.68995,10.75835 z"
           id="path20" />
        <path
           fill="url(#logoBaseGradient)"
           d="m 363.04759,368.17064 c -14.64185,-6.65087 -15.17674,-27.59708 -0.91704,-35.91137 5.64189,-3.28957 15.82028,-2.69581 20.95753,1.22256 4.75268,3.62505 6.33,6.25036 7.71099,12.83429 0.9014,4.29745 0.88596,6.47015 -0.0686,9.65623 -1.51245,5.04812 -6.51344,10.91758 -10.84376,12.72691 -4.50958,1.88422 -12.04824,1.64756 -16.83911,-0.52862 z"
           id="path19" />
        <path
           fill="url(#logoBaseGradient)"
           d="m 566.58896,400.16159 c 0,-1.47018 -6.78281,-8.92468 -9.39022,-10.32013 -6.47157,-3.46348 -16.1087,-2.58956 -20.78853,1.88516 l -2.67875,2.56134 -2.99242,-2.1308 c -4.14943,-2.95465 -7.79871,-7.48701 -10.8692,-13.49942 -3.14176,-6.15196 -4.18285,-17.67916 -2.30404,-25.51091 l 1.22264,-5.09653 h 4.72882 c 9.87964,0 18.0717,-8.93099 18.0717,-19.70178 0,-4.80581 0.1815,-5.15646 3.47898,-6.72122 9.20226,-4.36676 17.11638,-5.75348 20.52102,-3.59572 1.89544,1.20127 1.71923,8.63965 -0.44615,18.8341 -1.96252,9.23936 -1.95613,13.46698 0.0304,20.15653 1.86197,6.26994 4.94447,11.364 9.39629,15.52809 7.27413,6.80398 13.26941,14.58608 13.26941,17.22418 0,4.70045 -5.05047,7.66031 -18.5,10.84207 -1.73398,0.41021 -2.75,0.24212 -2.75,-0.45496 z"
           id="path18" />
        <path
           fill="url(#logoBaseGradient)"
           d="m 388.58896,399.73694 c -10.01036,-3.36755 -13.44391,-5.71309 -13.8095,-9.43359 -0.27251,-2.77319 0.8323,-4.36738 9.24272,-13.33681 14.96047,-15.95485 16.86998,-21.74679 14.1008,-42.7706 -1.50836,-11.45153 -1.50703,-12.53789 0.0182,-14.86564 1.48372,-2.26443 2.15177,-2.46688 6.79663,-2.0597 2.83315,0.24837 7.45697,1.45642 10.27515,2.68457 l 5.12397,2.23299 -0.0589,6.26358 c -0.11133,11.83294 7.17626,19.96255 18.14698,20.24373 4.85475,0.12443 5.84049,0.48162 6.89926,2.5 2.00181,3.81616 1.59851,18.95498 -0.66357,24.90829 -2.34678,6.1762 -8.79625,14.93064 -12.43044,16.87291 -2.43128,1.29939 -3.04602,1.21367 -6.90507,-0.96284 -6.19469,-3.49383 -13.99836,-3.3738 -19.55581,0.30078 -2.29941,1.52038 -5.19316,4.32731 -6.43056,6.23763 -1.2374,1.91031 -2.69981,3.45036 -3.24981,3.42233 -0.55,-0.028 -3.925,-1.03497 -7.5,-2.23763 z"
           id="path17" />
        <path
           fill="url(#logoBaseGradient)"
           d="m 473.08896,404.47771 c -7.32076,-3.80746 -11.64024,-10.75874 -11.71294,-18.84949 -0.0534,-5.94321 1.64465,-9.74172 6.37762,-14.26659 4.14445,-3.96222 7.62143,-5.31133 13.68853,-5.31133 6.43732,0 12.86884,3.41809 16.63341,8.83998 2.61782,3.77028 3.01249,5.21423 3.00664,11 -0.008,8.17883 -2.62642,13.02016 -9.34556,17.2813 -3.60261,2.28471 -5.68535,2.87745 -10.09348,2.87256 -3.07207,-0.003 -6.8949,-0.70344 -8.55422,-1.56643 z"
           id="path16" />
        <path
           fill="url(#logoBaseGradient)"
           d="m 542.91444,417.59117 c -4.46158,-1.94069 -6.7101,-5.83369 -6.7101,-11.6176 0,-13.02306 17.15091,-16.36493 22.80771,-4.44411 3.02046,6.36515 0.37328,13.4545 -6.02166,16.12647 -4.11032,1.7174 -6.00684,1.70521 -10.07595,-0.0648 z"
           id="path15" />
        <path
           fill="url(#logoBaseGradient)"
           d="m 409.50141,418.77028 c -9.70361,-6.53926 -7.25215,-20.92626 3.81868,-22.41086 8.20043,-1.09968 14.26887,3.85281 14.26887,11.64491 0,5.60144 -2.41925,9.90537 -6.5343,11.62475 -4.76576,1.99126 -7.64122,1.77752 -11.55325,-0.8588 z"
           id="path14" />
        <path
           fill="url(#logoBaseGradient)"
           d="m 476.61898,465.77099 c -3.19217,-1.61525 -7.03002,-7.32968 -7.03002,-10.46744 0,-3.42111 2.75682,-8.86652 5.33615,-10.54025 10.57256,-6.86053 23.52428,4.34949 18.13846,15.69926 -2.81538,5.93298 -10.38272,8.37577 -16.44459,5.30843 z"
           id="path13" />
        <path
           fill="url(#logoBaseGradient)"
           d="m 502.67791,483.3003 c -2.23667,-2.6125 -5.03145,-6.56455 -6.21062,-8.78234 l -2.14396,-4.03234 3.2051,-4.5471 c 5.96286,-8.45959 5.08668,-16.7387 -2.64641,-25.006 l -4.42357,-4.72916 1.7067,-3.32653 c 6.56833,-12.80229 18.45457,-21.43103 32.07668,-23.28586 5.10865,-0.69561 5.15845,-0.6762 5.8037,2.26159 1.12918,5.14113 6.9942,10.92241 13.00177,12.81613 4.63376,1.46066 5.99341,1.51505 9.97895,0.39917 2.53783,-0.71055 4.8542,-1.68018 5.14749,-2.15473 1.28358,-2.07688 3.62264,-0.44765 7.451,5.18986 10.68464,15.73382 9.4475,18.18594 -10.53578,20.88285 -15.80687,2.13326 -25.07674,9.11789 -33.92873,25.56446 -5.91649,10.99255 -8.08363,13.5 -11.66778,13.5 -2.04074,0 -3.79439,-1.22236 -6.81454,-4.75 z"
           id="path12" />
        <path
           fill="url(#logoBaseGradient)"
           d="m 450.6082,485.3003 c -1.17307,-1.5125 -4.635,-7.025 -7.69315,-12.25 -3.05816,-5.225 -6.9701,-10.98886 -8.69319,-12.80858 -4.98195,-5.26132 -13.87081,-9.03539 -26.69208,-11.33305 -13.09916,-2.34745 -14.68666,-2.99752 -15.5305,-6.35966 -0.60488,-2.41002 3.81244,-11.53607 8.39988,-17.3539 l 1.85709,-2.35519 4.12652,2.10519 c 4.76061,2.42868 11.73362,2.74731 16.50393,0.75415 4.37075,-1.82622 9.38157,-7.74429 10.69872,-12.63583 1.19954,-4.45475 1.21555,-4.45963 9.56988,-2.91865 12.53955,2.31296 22.55082,9.999 28.31298,21.73696 l 2.6172,5.33144 -2.76,2.01051 c -8.83599,6.43658 -10.35919,20.34696 -3.06532,27.99362 l 2.54396,2.66701 -2.72199,5.0012 c -3.54185,6.50754 -10.15263,13.16478 -13.07291,13.16478 -1.29061,0 -3.18738,-1.18521 -4.40102,-2.75 z"
           id="path11" />
        <path
           fill="url(#logoBaseGradient)"
           d="m 543.08896,496.54755 c -7.60267,-2.68938 -13.53031,-11.49186 -13.46625,-19.99725 0.0381,-5.05498 4.12245,-11.69146 9.38553,-15.25 3.93031,-2.65741 5.77712,-3.25 10.12863,-3.25 6.66267,0 10.04828,1.2586 14.28741,5.31133 4.72969,4.52173 6.16468,7.7978 6.16468,14.07391 0,6.58589 -1.22632,10.15022 -4.81362,13.99086 -5.62452,6.02173 -13.72973,7.93574 -21.68638,5.12115 z"
           id="path10" />
        <path
           fill="url(#logoBaseGradient)"
           d="m 407.08896,497.16026 c -7.36538,-3.39934 -11.51323,-10.19995 -11.48355,-18.82784 0.0212,-6.15741 3.16071,-11.75728 8.82263,-15.73663 3.76531,-2.64636 5.18131,-3.0382 10.99152,-3.04159 5.89266,-0.003 7.21108,0.37227 11.32051,3.22611 12.74412,8.85025 11.47856,27.26983 -2.36127,34.36731 -4.71147,2.41618 -12.07041,2.42156 -17.28984,0.0126 z"
           id="path9" />
      </g>
      <g
         id="g27"
         transform="matrix(1,0,0,0.98847872,0,6.153095)">
        <path
           fill="url(#logoBaseGradient)"
           style="stroke-width:0.893028"
           d="m 256.26113,619.08805 c -3.68949,-2.16577 -4.30392,-3.47042 -17.11221,-36.33844 l -9.90247,-25.4115 -0.23901,31.32624 -0.23905,31.32623 h -9.08969 -9.0897 l 0.004,-38.77443 c 0.003,-36.26051 0.11317,-38.94776 1.69667,-41.44795 2.9849,-4.71275 16.18716,-6.54781 22.88721,-3.18125 4.75316,2.38829 4.68166,2.22656 21.66615,49.00569 2.84248,7.82892 5.42759,14.23656 5.74457,14.2392 0.31713,0.003 0.79077,-0.68525 1.05272,-1.52865 0.26193,-0.8434 3.4215,-9.41978 7.02131,-19.05862 15.84229,-42.41894 14.6049,-39.70077 19.3852,-42.58383 4.06537,-2.45193 16.701,-2.11749 19.77634,0.52343 4.41052,3.78756 4.51983,4.87904 4.51983,45.09916 v 37.70725 h -9.08999 -9.09 l -0.23896,-32.20249 -0.23875,-32.2025 -3.41472,9.41062 c -1.87811,5.17584 -6.99743,18.74327 -11.37642,30.14983 -9.15507,23.84751 -10.42103,25.72287 -17.36051,25.71753 -2.66177,-0.002 -5.38259,-0.66634 -7.27222,-1.77552 z"
           id="path1" />
        <path
           fill="url(#logoBaseGradient)"
           style="stroke-width:0.929112"
           d="m 560.2252,618.93055 c -1.2739,-0.60862 -3.20252,-2.21643 -4.28581,-3.57289 -1.90786,-2.38896 -1.96627,-3.5409 -1.86253,-36.72899 0.0589,-18.84447 0.14458,-35.40228 0.19039,-36.79511 0.0503,-1.53048 1.19773,-3.56848 2.90004,-5.15102 l 2.81676,-2.61858 h 31.39213 31.39212 v 6.57804 6.57803 l -16.05381,0.5886 c -8.82959,0.32372 -20.11783,0.58859 -25.08498,0.58859 h -9.03117 l 0.27149,10.43507 0.27149,10.43507 14.73734,-0.1912 c 8.10554,-0.10516 18.18752,0.0886 22.40442,0.43056 l 7.66707,0.62175 v 6.60304 6.60304 h -22.64532 -22.64532 v 11.19786 11.19787 h 25.53621 25.53621 v 7.16663 7.16663 l -30.59527,-0.0132 c -22.3647,-0.01 -31.21836,-0.3109 -32.91146,-1.11979 z"
           id="path8" />
        <path
         id="path6"
         fill="url(#logoBaseGradient)"
         style="stroke-width:0.929112"
         d="m 468.61836,534.06396 -3.14121,2.60701 -3.13932,2.60875 -0.28609,39.20301 c -0.15809,21.5615 -0.0667,39.73703 0.20327,40.39104 0.36031,0.87289 2.92732,1.18977 9.65325,1.18977 h 9.16202 l 0.26349,-15.90097 0.26349,-15.90096 7.92548,-0.26069 c 6.65574,-0.21818 8.15815,-0.003 9.37094,1.34374 0.79436,0.88197 6.24072,8.15519 12.10373,16.16166 l 10.66016,14.55722 h 10.56418 c 5.81054,0 10.56605,-0.25118 10.56605,-0.55815 0,-0.30695 -1.88186,-3.02803 -4.18012,-6.04684 -10.06049,-13.21464 -18.94701,-25.64742 -18.94701,-26.50569 0,-0.51197 1.2355,-0.93082 2.74597,-0.93082 1.52829,0 4.53422,-1.20485 6.77742,-2.71548 7.37708,-4.96794 10.02519,-11.15627 9.95437,-23.26356 -0.0621,-10.61246 -3.31122,-17.70572 -9.91673,-21.64861 -6.13017,-3.65915 -11.82527,-4.33043 -36.70266,-4.33043 z m 12.49708,12.08145 15.659,0.004 c 13.73839,0.003 16.03054,0.21353 18.69105,1.72167 6.22628,3.52943 7.00615,15.7818 1.34005,21.05372 l -2.95865,2.75223 -16.36666,0.28345 -16.36479,0.28169 V 559.1945 Z" />
        <path
           fill="url(#logoBaseGradient)"
           style="stroke-width:0.929112"
           d="m 330.78821,577.06375 v -42.99979 h 9.63631 9.6363 v 42.99979 42.99979 h -9.6363 -9.63631 z"
           id="path5" />
        <path
         id="path3"
         fill="url(#logoBaseGradient)"
         style="display:inline;stroke-width:0.916336"
         d="m 685.80873,534.13555 c -2.75687,-0.10264 -5.66576,-0.0955 -8.72725,0.021 -14.6376,0.55681 -22.46523,2.65008 -28.8167,7.70553 -9.44834,7.52044 -12.76009,18.6084 -11.89293,39.82064 0.6317,15.45266 2.67978,21.6789 9.15825,27.84593 5.33125,5.07497 10.71697,7.73725 18.9169,9.35021 8.12818,1.59879 25.66627,1.57515 33.26972,-0.0455 12.26809,-2.61488 20.34057,-8.73812 24.57635,-18.64268 4.3645,-10.20551 4.08399,-36.50299 -0.50816,-47.60141 -4.81478,-11.63647 -16.6781,-17.73532 -35.97618,-18.45373 z m -1.61671,13.41469 c 13.04137,0.49396 21.05724,4.68661 24.31097,12.68682 3.10331,7.62991 3.29379,25.70955 0.34443,32.72575 -2.86253,6.80935 -8.31699,11.02038 -16.60758,12.81805 -5.13823,1.11421 -16.99044,1.13082 -22.48346,0.0315 -5.54132,-1.10898 -9.18041,-2.93919 -12.78317,-6.42828 -4.37797,-4.23979 -5.76329,-8.52125 -6.19019,-19.14484 -0.58604,-14.58357 1.65345,-22.20666 8.03841,-27.37703 4.29224,-3.47552 9.58224,-4.9135 19.474,-5.29623 2.06891,-0.0801 4.03353,-0.0864 5.89659,-0.0158 z" />
        <path
           fill="url(#logoBaseGradient)"
           style="stroke-width:0.920768"
           d="m 393.25493,618.96298 c -11.98442,-2.75736 -20.35749,-8.28465 -24.02858,-15.86189 -4.44101,-9.16638 -5.05704,-38.8146 -1.02072,-49.12544 3.56728,-9.11266 10.12444,-14.72629 20.88224,-17.87742 5.53725,-1.62195 35.38341,-2.64724 47.32348,-1.62569 l 7.19962,0.61597 -0.27989,6.68729 -0.2799,6.68729 -19.75443,-0.21139 c -23.43963,-0.25082 -27.665,0.51233 -33.0678,5.97242 -4.32295,4.36878 -5.03457,8.00912 -4.86721,24.89873 0.11631,11.73781 0.34312,13.34875 2.40907,17.11062 1.25438,2.28407 3.37557,4.87704 4.71376,5.76217 4.1702,2.75832 16.61425,4.57049 26.23494,3.82047 l 8.43177,-0.65733 v -13.99802 -13.99803 h 9.69247 9.69247 l -0.29707,17.3763 c -0.34031,19.90534 -0.72433,20.97419 -8.48794,23.62493 -6.05587,2.06766 -36.59855,2.61612 -44.49628,0.79902 z"
           id="path2" />
      </g>
    </g>
  </g>
</svg>
