<?xml version="1.0" encoding="UTF-8" standalone="no"?>
<!-- Created with Inkscape (http://www.inkscape.org/) -->

<svg
   version="1.1"
   id="svg1"
   width="539.79126"
   height="358.01202"
   viewBox="0 0 539.79126 358.01202"
   sodipodi:docname="WhatsApp Image 2026-03-08 at 17.00.08.svg"
   inkscape:version="1.4.2 (f4327f4, 2025-05-13)"
   xmlns:inkscape="http://www.inkscape.org/namespaces/inkscape"
   xmlns:sodipodi="http://sodipodi.sourceforge.net/DTD/sodipodi-0.dtd"
   xmlns="http://www.w3.org/2000/svg"
   xmlns:svg="http://www.w3.org/2000/svg">
  <defs
     id="defs1">
    <linearGradient id="logoBaseGradient" x1="0%" y1="0%" x2="100%" y2="100%">
      <stop offset="0%" stop-color="#ffffff"/>
      <stop offset="40%" stop-color="#d9e1ff"/>
      <stop offset="70%" stop-color="#a8b4ff"/>
      <stop offset="100%" stop-color="#ffffff"/>
    </linearGradient>
    <linearGradient id="logoShineGradient" x1="-100%" y1="0%" x2="200%" y2="0%">
      <stop offset="0%" stop-color="#ffffff" stop-opacity="0"/>
      <stop offset="45%" stop-color="#ffffff" stop-opacity="0.15"/>
      <stop offset="50%" stop-color="#ffffff" stop-opacity="0.35"/>
      <stop offset="55%" stop-color="#ffffff" stop-opacity="0.15"/>
      <stop offset="100%" stop-color="#ffffff" stop-opacity="0"/>
      <animate attributeName="x1" from="-100%" to="200%" dur="6s" repeatCount="indefinite"/>
      <animate attributeName="x2" from="0%" to="300%" dur="6s" repeatCount="indefinite"/>
    </linearGradient>
  </defs>
  <sodipodi:namedview
     id="namedview1"
     pagecolor="#ffffff"
     bordercolor="#000000"
     borderopacity="0.25"
     inkscape:showpageshadow="2"
     inkscape:pageopacity="0.0"
     inkscape:pagecheckerboard="0"
     inkscape:deskcolor="#d1d1d1"
     inkscape:zoom="0.79589844"
     inkscape:cx="285.84049"
     inkscape:cy="486.87117"
     inkscape:window-width="1920"
     inkscape:window-height="1017"
     inkscape:window-x="-8"
     inkscape:window-y="-8"
     inkscape:window-maximized="1"
     inkscape:current-layer="g47" />
  <g
     inkscape:groupmode="layer"
     inkscape:label="Image"
     id="g1"
     transform="translate(-224.51418,-25.20269)">
    <g
       id="g47">
      <g
         id="g286"
         transform="translate(-17.590184,-363.11166)">
        <g
           id="g284"
           transform="translate(-6.66995,63.709093)">
          <path
             fill="url(#logoBaseGradient)" style="stroke:none"
             d="m 512.21713,363.85771 c -3.87978,-0.73611 -10.59457,-8.26123 -12.06822,-13.52458 -2.53561,-9.0563 0.47526,-17.44158 8.06647,-22.46521 3.55198,-2.35059 5.26278,-2.79002 10.86207,-2.79002 8.93953,0 14.07726,3.24278 17.71019,11.17814 3.0997,6.77064 2.6555,12.57228 -1.47342,19.24422 -4.58979,7.41667 -12.66162,10.33738 -23.09709,8.35745 z"
             id="path283" />
          <path
             fill="url(#logoBaseGradient)" style="stroke:none"
             d="m 554.57745,412.79248 c -3.89049,-2.45161 -5.3834,-4.32123 -6.4667,-8.09847 -1.31722,-4.5929 0.47604,-9.64008 4.52142,-12.72565 2.96652,-2.26267 4.15828,-2.5702 8.19644,-2.11504 10.36159,1.1679 14.79355,13.99629 7.31183,21.16423 -3.74627,3.58916 -9.49096,4.34094 -13.56299,1.77493 z"
             id="path282" />
          <path
             fill="url(#logoBaseGradient)" style="stroke:none"
             d="m 470.39127,412.62767 c -4.10594,-2.50357 -5.31382,-4.86925 -5.31382,-10.4073 0,-9.80173 9.44218,-14.99772 18.83531,-10.36498 3.25186,1.60383 5.16469,5.79075 5.16469,11.30477 0,4.07275 -0.46443,5.1196 -3.5712,8.04966 -2.88332,2.71932 -4.37612,3.36736 -7.75,3.36434 -2.37175,-0.002 -5.55661,-0.84384 -7.36498,-1.94649 z"
             id="path281" />
          <path
             fill="url(#logoBaseGradient)" style="stroke:none"
             d="m 508.39174,418.78575 c -2.85214,-1.02135 -7.01759,-3.06927 -9.25656,-4.55095 l -4.07085,-2.69396 0.63408,-5.39498 c 0.98281,-8.36216 -0.15174,-12.15137 -5.1284,-17.12803 -3.0143,-3.0143 -5.80647,-4.74198 -8.93814,-5.53054 l -4.55442,-1.14682 v -10.15878 c 0,-11.10302 1.27451,-14.60892 5.3067,-14.59767 1.20632,0.003 8.2683,2.97246 15.6933,6.59798 20.22929,9.87766 21.20944,9.84999 44.8527,-1.26639 6.24398,-2.93574 11.97111,-5.33771 12.72695,-5.33771 0.75583,0 2.11036,1.12345 3.01005,2.49656 2.15022,3.28165 3.12885,21.3559 1.18635,21.91062 -0.70183,0.20043 -3.21397,0.89148 -5.58254,1.53568 -9.53369,2.59296 -15.29906,12.8037 -13.07775,23.16131 1.06053,4.94509 0.99675,5.30469 -1.24908,7.04204 -7.41253,5.73425 -22.78676,8.20058 -31.55239,5.06164 z"
             id="path280" />
          <path
             fill="url(#logoBaseGradient)" style="stroke:none"
             d="m 618.48678,439.99009 c -5.90899,-3.83147 -8.71754,-8.52509 -9.21481,-15.39969 -0.55764,-7.70937 1.10142,-12.254 6.00601,-16.45215 15.56158,-13.32014 37.59064,1.2469 31.89874,21.09349 -3.2074,11.18364 -18.93724,17.08211 -28.68994,10.75835 z"
             id="path279" />
          <path
             fill="url(#logoBaseGradient)" style="stroke:none"
             d="m 400.53608,440.69824 c -14.64185,-6.65087 -15.17674,-27.59708 -0.91704,-35.91137 5.64189,-3.28957 15.82028,-2.69581 20.95753,1.22256 4.75268,3.62505 6.33,6.25036 7.71099,12.83429 0.9014,4.29745 0.88596,6.47015 -0.0686,9.65623 -1.51245,5.04812 -6.51344,10.91758 -10.84376,12.72691 -4.50958,1.88422 -12.04824,1.64756 -16.83911,-0.52862 z"
             id="path278" />
          <path
             fill="url(#logoBaseGradient)" style="stroke:none"
             d="m 604.07745,472.68919 c 0,-1.47018 -6.78281,-8.92468 -9.39022,-10.32013 -6.47157,-3.46348 -16.1087,-2.58956 -20.78853,1.88516 l -2.67875,2.56134 -2.99242,-2.1308 c -4.14943,-2.95465 -7.79871,-7.48701 -10.8692,-13.49942 -3.14176,-6.15196 -4.18285,-17.67916 -2.30404,-25.51091 l 1.22264,-5.09653 h 4.72882 c 9.87964,0 18.0717,-8.93099 18.0717,-19.70178 0,-4.80581 0.1815,-5.15646 3.47898,-6.72122 9.20226,-4.36676 17.11638,-5.75348 20.52102,-3.59572 1.89544,1.20127 1.71923,8.63965 -0.44615,18.8341 -1.96252,9.23936 -1.95613,13.46698 0.0304,20.15653 1.86197,6.26994 4.94447,11.364 9.39629,15.52809 7.27413,6.80398 13.26941,14.58608 13.26941,17.22418 0,4.70045 -5.05047,7.66031 -18.5,10.84207 -1.73398,0.41021 -2.75,0.24212 -2.75,-0.45496 z"
             id="path277" />
          <path
             fill="url(#logoBaseGradient)" style="stroke:none"
             d="m 426.07745,472.26454 c -10.01036,-3.36755 -13.44391,-5.71309 -13.8095,-9.43359 -0.27251,-2.77319 0.8323,-4.36738 9.24272,-13.33681 14.96047,-15.95485 16.86998,-21.74679 14.1008,-42.7706 -1.50836,-11.45153 -1.50703,-12.53789 0.0182,-14.86564 1.48372,-2.26443 2.15177,-2.46688 6.79663,-2.0597 2.83315,0.24837 7.45697,1.45642 10.27515,2.68457 l 5.12397,2.23299 -0.0589,6.26358 c -0.11133,11.83294 7.17626,19.96255 18.14698,20.24373 4.85475,0.12443 5.84049,0.48162 6.89926,2.5 2.00181,3.81616 1.59851,18.95498 -0.66357,24.90829 -2.34678,6.1762 -8.79625,14.93064 -12.43044,16.87291 -2.43128,1.29939 -3.04602,1.21367 -6.90507,-0.96284 -6.19469,-3.49383 -13.99836,-3.3738 -19.55581,0.30078 -2.29941,1.52038 -5.19316,4.32731 -6.43056,6.23763 -1.23739,1.91031 -2.69981,3.45036 -3.24981,3.42233 -0.55,-0.028 -3.925,-1.03497 -7.5,-2.23763 z"
             id="path276" />
          <path
             fill="url(#logoBaseGradient)" style="stroke:none"
             d="m 510.57745,477.00531 c -7.32076,-3.80746 -11.64024,-10.75874 -11.71294,-18.84949 -0.0534,-5.94321 1.64465,-9.74172 6.37762,-14.26659 4.14445,-3.96222 7.62143,-5.31133 13.68853,-5.31133 6.43732,0 12.86884,3.41809 16.63342,8.83998 2.61781,3.77028 3.01249,5.21423 3.00663,11 -0.008,8.17883 -2.62642,13.02016 -9.34556,17.2813 -3.6026,2.28471 -5.68535,2.87745 -10.09348,2.87256 -3.07207,-0.003 -6.8949,-0.70344 -8.55422,-1.56643 z"
             id="path275" />
          <path
             fill="url(#logoBaseGradient)" style="stroke:none"
             d="m 580.40293,490.11877 c -4.46158,-1.94069 -6.71009,-5.83369 -6.71009,-11.6176 0,-13.02306 17.1509,-16.36493 22.8077,-4.44411 3.02046,6.36515 0.37328,13.4545 -6.02166,16.12647 -4.11032,1.7174 -6.00684,1.70521 -10.07595,-0.0648 z"
             id="path274" />
          <path
             fill="url(#logoBaseGradient)" style="stroke:none"
             d="m 446.9899,491.29788 c -9.70361,-6.53926 -7.25215,-20.92626 3.81868,-22.41086 8.20043,-1.09968 14.26887,3.85281 14.26887,11.64491 0,5.60144 -2.41925,9.90537 -6.5343,11.62475 -4.76576,1.99126 -7.64122,1.77752 -11.55325,-0.8588 z"
             id="path273" />
          <path
             fill="url(#logoBaseGradient)" style="stroke:none"
             d="m 514.10747,538.29859 c -3.19217,-1.61525 -7.03002,-7.32968 -7.03002,-10.46744 0,-3.42111 2.75682,-8.86652 5.33615,-10.54025 10.57256,-6.86053 23.52428,4.34949 18.13846,15.69926 -2.81538,5.93298 -10.38272,8.37577 -16.44459,5.30843 z"
             id="path272" />
          <path
             fill="url(#logoBaseGradient)" style="stroke:none"
             d="m 540.1664,555.8279 c -2.23667,-2.6125 -5.03145,-6.56455 -6.21062,-8.78234 l -2.14396,-4.03234 3.2051,-4.5471 c 5.96287,-8.45959 5.08668,-16.7387 -2.6464,-25.006 l -4.42358,-4.72916 1.7067,-3.32653 c 6.56833,-12.80229 18.45457,-21.43103 32.07668,-23.28586 5.10865,-0.69561 5.15845,-0.6762 5.8037,2.26159 1.12918,5.14113 6.99421,10.92241 13.00177,12.81613 4.63376,1.46066 5.99341,1.51505 9.97895,0.39917 2.53783,-0.71055 4.8542,-1.68018 5.14749,-2.15473 1.28358,-2.07688 3.62264,-0.44765 7.451,5.18986 10.68464,15.73382 9.4475,18.18594 -10.53578,20.88285 -15.80687,2.13326 -25.07674,9.11789 -33.92873,25.56446 -5.91649,10.99255 -8.08363,13.5 -11.66778,13.5 -2.04074,0 -3.79439,-1.22236 -6.81454,-4.75 z"
             id="path271" />
          <path
             fill="url(#logoBaseGradient)" style="stroke:none"
             d="m 488.0967,557.8279 c -1.17308,-1.5125 -4.63501,-7.025 -7.69316,-12.25 -3.05816,-5.225 -6.9701,-10.98886 -8.69319,-12.80858 -4.98195,-5.26132 -13.87081,-9.03539 -26.69208,-11.33305 -13.09916,-2.34745 -14.68666,-2.99752 -15.5305,-6.35966 -0.60488,-2.41002 3.81244,-11.53607 8.39988,-17.3539 l 1.85709,-2.35519 4.12652,2.10519 c 4.76061,2.42868 11.73362,2.74731 16.50393,0.75415 4.37075,-1.82622 9.38157,-7.74429 10.69873,-12.63583 1.19953,-4.45475 1.21554,-4.45963 9.56987,-2.91865 12.53955,2.31296 22.55082,9.999 28.31298,21.73696 l 2.6172,5.33144 -2.76,2.01051 c -8.83599,6.43658 -10.35919,20.34696 -3.06532,27.99362 l 2.54396,2.66701 -2.72199,5.0012 c -3.54185,6.50754 -10.15263,13.16478 -13.07291,13.16478 -1.29061,0 -3.18738,-1.18521 -4.40101,-2.75 z"
             id="path270" />
          <path
             fill="url(#logoBaseGradient)" style="stroke:none"
             d="m 580.57745,569.07515 c -7.60267,-2.68938 -13.53031,-11.49186 -13.46625,-19.99725 0.0381,-5.05498 4.12246,-11.69146 9.38553,-15.25 3.93031,-2.65741 5.77712,-3.25 10.12864,-3.25 6.66266,0 10.04827,1.2586 14.2874,5.31133 4.72969,4.52173 6.16468,7.7978 6.16468,14.07391 0,6.58589 -1.22632,10.15022 -4.81362,13.99086 -5.62452,6.02173 -13.72973,7.93574 -21.68638,5.12115 z"
             id="path269" />
          <path
             fill="url(#logoBaseGradient)" style="stroke:none"
             d="m 444.57745,569.68786 c -7.36538,-3.39934 -11.51323,-10.19995 -11.48355,-18.82784 0.0212,-6.15741 3.16071,-11.75728 8.82263,-15.73663 3.76531,-2.64636 5.18131,-3.0382 10.99152,-3.04159 5.89267,-0.003 7.21108,0.37227 11.32052,3.22611 12.74411,8.85025 11.47855,27.26983 -2.36128,34.36731 -4.71147,2.41618 -12.07041,2.42156 -17.28984,0.0126 z"
             id="path268" />
        </g>
        <g
           id="g285"
           transform="translate(-3.7444933e-6,46.93164)">
          <path
             fill="url(#logoBaseGradient)" style="stroke:none"
             d="m 293.28794,695.97081 c -4.09647,-2.19965 -4.77872,-3.5247 -19.00021,-36.90655 l -10.99479,-25.80878 -0.26541,31.81601 -0.2654,31.81599 h -10.09254 -10.09253 l 0.004,-39.38061 c 0.003,-36.82748 0.12563,-39.55667 1.88377,-42.09596 3.31412,-4.78644 17.97301,-6.65011 25.41219,-3.23101 5.27754,2.42567 5.19819,2.26139 24.05644,49.77185 3.15611,7.95129 6.02645,14.45913 6.3783,14.46181 0.35222,0.003 0.87804,-0.69596 1.16894,-1.55257 0.29089,-0.85658 3.79893,-9.56706 7.79589,-19.35653 17.59004,-43.08209 16.21607,-40.32145 21.52392,-43.2495 4.5138,-2.49026 18.54347,-2.1506 21.95814,0.53158 4.89713,3.84674 5.01841,4.95528 5.01841,45.80419 v 38.29675 H 347.6843 337.59145 l -0.2651,-32.70595 -0.2651,-32.70588 -3.79145,9.55778 c -2.08529,5.25666 -7.76929,19.03617 -12.63137,30.62111 -10.16518,24.22028 -11.57085,26.12495 -19.27586,26.11951 -2.95534,-0.002 -5.97641,-0.67674 -8.07448,-1.80324 z"
             id="path284" />
          <path
             fill="url(#logoBaseGradient)" style="stroke:none"
             d="m 610.67416,697.7712 c -1.32198,-0.61813 -3.32339,-2.25108 -4.44757,-3.62875 -1.97986,-2.4263 -2.04048,-3.59625 -1.93282,-37.30316 0.0611,-19.13907 0.15003,-35.95572 0.19757,-37.37033 0.0522,-1.55441 1.24294,-3.62427 3.0095,-5.23154 l 2.92307,-2.65952 h 32.57692 32.5769 v 6.68087 6.68087 l -16.6597,0.5978 c -9.1628,0.32878 -20.8771,0.59779 -26.0317,0.59779 h -9.37204 l 0.28174,10.5982 0.28173,10.5982 15.29357,-0.19419 c 8.4114,-0.1068 18.8739,0.09 23.25,0.43729 l 7.9564,0.63147 v 6.70627 6.70626 h -23.5 -23.49997 v 11.37292 11.37292 h 26.49997 26.5 v 7.27866 7.27867 l -31.75,-0.0134 c -23.20876,-0.01 -32.39657,-0.31576 -34.15357,-1.1373 z"
             id="path267" />
          <path
             fill="url(#logoBaseGradient)" style="stroke:none"
             d="m 566.11485,653.00466 c 5.87995,-5.88497 5.07078,-19.56057 -1.39049,-23.50042 -2.76093,-1.68351 -5.14001,-1.91932 -19.39691,-1.9226 l -16.25,-0.004 v 14.56585 14.56585 l 16.98339,-0.31585 16.98339,-0.31585 z"
             id="path266" />
          <path
             fill="url(#logoBaseGradient)" style="stroke:none"
             d="m 508.20559,697.71421 c -0.28015,-0.66424 -0.37514,-19.1247 -0.21108,-41.02326 l 0.29828,-39.81556 3.25824,-2.64875 3.25824,-2.64874 H 539.612 c 25.81632,0 31.72667,0.68261 38.0882,4.39896 6.85482,4.00453 10.22638,11.20784 10.29082,21.98621 0.0735,12.29656 -2.67474,18.58255 -10.33025,23.62815 -2.32786,1.53424 -5.44712,2.75701 -7.03309,2.75701 -1.56748,0 -2.84996,0.42543 -2.84996,0.9454 0,0.87169 9.22345,13.49884 19.66364,26.92006 2.385,3.066 4.33636,5.82962 4.33636,6.14137 0,0.31177 -4.93351,0.56684 -10.96335,0.56684 h -10.96334 l -11.06234,-14.78479 c -6.08428,-8.13164 -11.7368,-15.51768 -12.56115,-16.41344 -1.25856,-1.36757 -2.81738,-1.58634 -9.72432,-1.36475 l -8.2255,0.2639 -0.27307,16.14954 -0.27308,16.14954 h -9.50831 c -6.97978,0 -9.64376,-0.32116 -10.01767,-1.20769 z"
             id="path265" />
          <path
             fill="url(#logoBaseGradient)" style="stroke:none"
             d="m 373.07745,655.2499 v -43.672 h 10 10 v 43.672 43.672 h -10 -10 z"
             id="path264" />
          <path
             fill="url(#logoBaseGradient)" style="stroke:none"
             d="m 748.95138,685.14887 c 4.5947,-1.92858 8.4606,-6.49335 10.0717,-11.89243 1.7653,-5.91573 1.7236,-34.00025 -0.058,-39.0403 -3.5998,-10.1839 -11.942,-14.29527 -27.2366,-13.42321 -18.7043,1.06647 -23.9075,8.305 -23.9075,33.25898 0,22.10178 4.0161,29.70921 17.1534,32.49204 5.9309,1.25634 19.5476,0.46406 23.9769,-1.39508 z"
             id="path263" />
          <path
             fill="url(#logoBaseGradient)" style="stroke:none"
             d="m 718.16582,697.15059 c -8.5094,-1.63817 -14.0987,-4.34189 -19.6312,-9.49619 -6.723,-6.26344 -8.8481,-12.58764 -9.5037,-28.28187 -0.8999,-21.54386 2.5365,-32.8047 12.3414,-40.4427 6.5912,-5.13449 14.7147,-7.26036 29.9047,-7.82588 25.4163,-0.94625 40.6794,5.21284 46.3896,18.71956 4.7655,11.27191 5.0571,37.9806 0.5279,48.34566 -4.3956,10.05939 -12.773,16.27885 -25.5041,18.93461 -7.8904,1.64597 -26.0897,1.67064 -34.5246,0.0468 z"
             id="path262" />
          <path
             fill="url(#logoBaseGradient)" style="stroke:none"
             d="m 436.30178,696.81785 c -12.43674,-2.80048 -21.12582,-8.41416 -24.93547,-16.10986 -4.60862,-9.30968 -5.2479,-39.42138 -1.05924,-49.89342 3.70191,-9.25511 10.50655,-14.9565 21.67037,-18.15689 5.74624,-1.64731 36.71886,-2.68863 49.10957,-1.65111 l 7.47135,0.62561 -0.29046,6.79183 -0.29046,6.79182 -20.5,-0.21469 c -24.32429,-0.25473 -28.70914,0.52035 -34.31585,6.06579 -4.48611,4.43707 -5.22458,8.13432 -5.05091,25.28797 0.1207,11.9213 0.35607,13.55743 2.5,17.3781 1.30172,2.31978 3.50297,4.95329 4.89166,5.85226 4.3276,2.80144 17.24131,4.64193 27.2251,3.8802 l 8.75,-0.66761 v -14.21686 -14.21685 h 10.05829 10.05828 l -0.30828,17.64794 c -0.35316,20.21651 -0.75167,21.30207 -8.80829,23.99426 -6.28443,2.09999 -37.97985,2.65702 -46.17566,0.81151 z"
             id="path2" />
        </g>
      </g>
    </g>
  </g>
</svg>
