<?xml version="1.0" encoding="UTF-8" standalone="no"?>
<!-- Created with Inkscape (http://www.inkscape.org/) -->

<svg
   version="1.1"
   id="svg1"
   width="539.79126"
   height="358.01202"
   viewBox="0 0 539.79126 358.01202"
   sodipodi:docname="migreo.svg"
   inkscape:version="1.4.2 (f4327f4, 2025-05-13)"
   xmlns:inkscape="http://www.inkscape.org/namespaces/inkscape"
   xmlns:sodipodi="http://sodipodi.sourceforge.net/DTD/sodipodi-0.dtd"
   xmlns="http://www.w3.org/2000/svg"
   xmlns:svg="http://www.w3.org/2000/svg">
  <defs
     id="defs1">
    <linearGradient id="logoBaseGradient" x1="0%" y1="0%" x2="100%" y2="100%">
      <stop offset="0%" stop-color="#ffffff"/>
      <stop offset="40%" stop-color="#d9e1ff"/>
      <stop offset="70%" stop-color="#a8b4ff"/>
      <stop offset="100%" stop-color="#ffffff"/>
    </linearGradient>
  </defs>
  <sodipodi:namedview
     id="namedview1"
     pagecolor="#ffffff"
     bordercolor="#000000"
     borderopacity="0.25"
     inkscape:showpageshadow="2"
     inkscape:pageopacity="0.0"
     inkscape:pagecheckerboard="0"
     inkscape:deskcolor="#d1d1d1"
     inkscape:zoom="0.79589844"
     inkscape:cx="285.84049"
     inkscape:cy="486.87117"
     inkscape:window-width="1920"
     inkscape:window-height="1017"
     inkscape:window-x="-8"
     inkscape:window-y="-8"
     inkscape:window-maximized="1"
     inkscape:current-layer="g286" />
  <g
     inkscape:groupmode="layer"
     inkscape:label="Image"
     id="g1"
     transform="translate(-224.51418,-25.20269)">
    <g
       id="g284"
       transform="translate(-24.260134,-299.40257)" />
    <g
       id="g286"
       transform="translate(-17.590188,-316.18002)">
      <g
         id="g287"
         style="stroke:#000000;stroke-opacity:1">
        <g
           id="path2"
           style="opacity:1">
          <path
             id="path289"
             fill="url(#logoBaseGradient)"
             stroke="none"
             d="m 512.4082,340.88281 c -5.65335,0 -7.76934,0.5515 -11.39843,2.95313 -7.90952,5.23427 -11.10084,14.13625 -8.46875,23.53711 0.80694,2.88209 2.92337,6.13128 5.34375,8.84375 2.4177,2.70946 5.06363,4.91645 7.48046,5.375 10.69995,2.03011 19.30795,-1.04528 24.10743,-8.80078 4.24696,-6.86268 4.73257,-13.16721 1.52929,-20.16407 -1.86798,-4.08022 -4.18045,-7.05538 -7.23047,-8.98047 -3.0499,-1.925 -6.77572,-2.76367 -11.36328,-2.76367 z m 0,1.94531 c 4.35236,0 7.66154,0.78229 10.32422,2.4629 2.66277,1.68065 4.73475,4.29263 6.5,8.14843 2.99897,6.55061 2.59825,11.8395 -1.41601,18.32617 -4.3827,7.08204 -11.91256,9.84269 -22.08789,7.91211 -0.71045,-0.13479 -1.76941,-0.6762 -2.90235,-1.51562 -1.13294,-0.83942 -2.35505,-1.96611 -3.49023,-3.23828 -2.27315,-2.54746 -4.255,-5.7013 -4.91992,-8.07617 -2.44023,-8.71565 0.38975,-16.57738 7.66601,-21.39258 3.48249,-2.3046 4.77457,-2.62695 10.32617,-2.62696 z m 36.57813,30.55469 c -0.29993,0 -0.53141,0.0758 -0.78321,0.15039 -0.27081,0.0802 -0.59711,0.18982 -0.98046,0.33008 -0.76495,0.2799 -1.75622,0.67682 -2.91797,1.16406 -2.32418,0.97477 -5.32578,2.31203 -8.45899,3.78516 -11.81681,5.55593 -17.88615,8.26069 -23.31836,8.41406 -5.43306,0.15341 -10.58494,-2.20484 -20.69336,-7.14062 -3.72769,-1.82018 -7.36167,-3.47434 -10.22851,-4.67969 -1.4331,-0.60255 -2.67352,-1.09367 -3.65039,-1.43945 -0.96506,-0.3416 -1.60527,-0.57655 -2.23828,-0.57813 -1.15167,-0.003 -2.22197,0.25813 -3.10547,0.90235 -0.88215,0.64323 -1.52133,1.61687 -1.97656,2.86914 -0.90871,2.49968 -1.19922,6.21099 -1.19922,11.79882 v 10.91797 l 5.28711,1.33008 c 2.93914,0.74007 5.55654,2.3417 8.49023,5.27539 2.42751,2.42751 3.82844,4.4592 4.55469,6.88477 0.72587,2.42429 0.77926,5.32048 0.29492,9.4414 l -0.70508,5.99219 4.57227,3.02344 v -0.002 c 2.3565,1.55946 6.50842,3.59756 9.46484,4.65625 4.62745,1.65707 10.77965,1.80206 16.76563,0.84179 5.986,-0.96027 11.79984,-3.02672 15.70898,-6.05078 0.57106,-0.44176 1.04393,-0.81789 1.43359,-1.27148 0.3964,-0.46142 0.6808,-1.01219 0.79297,-1.64453 0.21897,-1.23452 -0.0896,-2.61961 -0.62109,-5.09766 -2.12156,-9.89247 3.37566,-19.57032 12.38086,-22.01953 2.37046,-0.64472 4.87039,-1.33249 5.59375,-1.53906 0.44798,-0.12791 0.72926,-0.45603 0.89648,-0.73243 0.16681,-0.27572 0.2793,-0.5782 0.3711,-0.90625 0.18402,-0.65758 0.29631,-1.46538 0.37304,-2.41211 0.15359,-1.89496 0.1447,-4.33841 0.008,-6.86914 -0.13705,-2.53102 -0.40341,-5.142 -0.77539,-7.35547 -0.37113,-2.20841 -0.78018,-3.98509 -1.51172,-5.10156 -0.50509,-0.77087 -1.12009,-1.45801 -1.75,-1.98047 -0.6141,-0.50935 -1.26877,-0.95703 -2.07422,-0.95703 z m 0.12109,1.06641 0.18555,0.18555 0.19336,0.19335 -0.12891,0.12891 -0.11719,0.11719 c -0.10534,-0.10236 -0.25,-0.2461 -0.25,-0.2461 -3e-5,-1e-5 0.0788,-0.25503 0.11719,-0.3789 z m -73.39648,0.88476 c -0.098,-2.4e-4 0.002,10e-4 0.0879,0.0195 0.0858,0.0183 0.20733,0.0483 0.35547,0.0879 0.29627,0.0791 0.69871,0.1988 1.15234,0.35937 0.91893,0.32526 2.13402,0.80522 3.54492,1.39844 2.82189,1.18645 6.43158,2.82941 10.12891,4.63476 10.1202,4.94154 15.57594,7.50797 21.59961,7.33789 6.02288,-0.17004 12.26813,-3.03758 24.09375,-8.59765 3.11076,-1.46259 6.09545,-2.79376 8.38476,-3.75391 1.14462,-0.48004 2.117,-0.8685 2.83399,-1.13086 0.35847,-0.13116 0.65453,-0.23114 0.86328,-0.29297 0.0919,-0.0272 0.17571,-0.0442 0.23633,-0.0566 0.0482,0.0166 0.12271,0.0464 0.20898,0.0899 0.17255,0.0868 0.39667,0.22531 0.61719,0.4082 0.45946,0.38108 0.97194,0.94663 1.36523,1.54688 0.15728,0.24003 0.39591,0.82325 0.61328,1.58593 0.21738,0.76269 0.43013,1.71644 0.60743,2.77149 0.35548,2.11526 0.61446,4.6734 0.74804,7.14062 0.13359,2.46711 0.14014,4.85164 -0.002,6.60352 -0.071,0.87579 -0.18421,1.60433 -0.30859,2.04883 -0.0508,0.1814 -0.10003,0.28341 -0.13282,0.34961 -0.78447,0.22207 -3.08516,0.855 -5.36328,1.4746 -10.06158,2.73654 -16.09466,13.48119 -13.77343,24.30469 0.52773,2.46075 0.71232,3.76919 0.60937,4.34961 -0.0551,0.3106 -0.12767,0.45391 -0.35352,0.7168 -0.2158,0.2512 -0.60073,0.57675 -1.15039,1.00195 -3.50103,2.70837 -9.08397,4.74454 -14.82812,5.66602 -5.74422,0.92149 -11.66558,0.73081 -15.80078,-0.75 -2.7451,-0.98303 -6.92828,-3.04525 -9.04688,-4.44727 l -3.57031,-2.36523 0.5625,-4.79883 c 0.49843,-4.24088 0.47641,-7.42017 -0.36328,-10.22461 -0.84002,-2.80552 -2.49311,-5.15523 -5.04297,-7.70508 -3.09565,-3.09565 -6.06271,-4.94768 -9.38867,-5.78515 l -3.81836,-0.9629 v -9.40039 c 0,-5.51347 0.34802,-9.11566 1.08203,-11.13476 0.36782,-1.01181 0.80277,-1.60207 1.29492,-1.96094 0.49402,-0.36022 1.084,-0.53172 1.95313,-0.5293 z m 77.32422,22.48047 c -9e-5,0 0.14849,0.0215 0.14843,0.0215 0,0 -0.11794,0.38278 -0.13672,0.44336 l -0.1289,-0.44922 c 0.0219,-0.005 0.0472,-0.01 0.0469,-0.01 -1.2e-4,2e-5 0.0704,-0.006 0.0703,-0.006 z m 0.0234,0.51172 c 0.0375,0.0169 0.29766,0.13425 0.37696,0.16992 -0.0808,0.11518 -0.15596,0.2106 -0.25977,0.24024 z m 0.39649,0.25586 c -8.1e-4,0.001 -0.004,0.008 -0.004,0.008 1.3e-4,-1.9e-4 -0.0312,0.0418 -0.0391,0.0508 -0.0314,0.036 -0.0215,0.0235 -0.0156,0.0176 0.01,-0.01 0.0384,-0.0518 0.0586,-0.0762 z m 39.68359,6.81445 c -0.0116,-8.8e-4 -0.0275,0.003 -0.0391,0.002 -1.46735,-0.10871 -3.12406,0.0129 -4.94531,0.33203 -3.67417,0.64379 -8.02298,2.11169 -12.68555,4.32422 -1.66609,0.79061 -2.79971,1.37225 -3.42188,2.57422 -0.61703,1.1921 -0.61132,2.61421 -0.61132,5.02539 0,10.27776 -7.80697,18.72851 -17.09961,18.72851 h -5.4961 l -1.40234,5.8418 c -1.94757,8.11836 -0.93901,19.67133 2.38477,26.17969 3.12237,6.114 6.85919,10.78066 11.17187,13.85156 l 3.64648,2.5957 3.25977,-3.11719 c 2.12038,-2.02745 5.50698,-3.32496 9.13867,-3.65429 3.63204,-0.32936 7.49161,0.30333 10.51953,1.92383 0.47936,0.25654 1.37068,0.95373 2.34961,1.84765 0.97893,0.89392 2.07094,1.99033 3.0625,3.08008 0.9928,1.09111 1.90586,2.18832 2.55078,3.07227 0.32256,0.44211 0.58034,0.83326 0.73829,1.12109 0.0721,0.13137 0.12194,0.25288 0.15234,0.33789 0.0152,0.0425 0.0252,0.077 0.0312,0.0977 0.002,0.006 0.003,0.008 0.004,0.0117 -4.3e-4,-0.002 -8.9e-4,-0.004 -0.002,-0.01 -6.4e-4,-0.003 -0.004,-0.0157 -0.004,-0.0156 0,5e-5 -0.004,-0.0391 -0.004,-0.0391 0,0.43886 0.17663,0.81553 0.51367,1.11133 0.30712,0.26953 0.67474,0.39382 1.02149,0.45117 0.69194,0.11446 1.47514,0.0176 2.4082,-0.20312 6.76354,-1.60006 11.45146,-3.13493 14.56055,-4.95703 3.1149,-1.82551 4.68945,-4.12313 4.68945,-6.83008 0,-1.00497 -0.46882,-2.0596 -1.17578,-3.32227 -0.71038,-1.26877 -1.70935,-2.73315 -2.9336,-4.32226 -2.44841,-3.17813 -5.794,-6.85379 -9.46875,-10.29102 -4.32665,-4.04702 -7.3093,-8.96651 -9.1289,-15.09375 -1.95533,-6.58447 -1.96181,-10.49679 -0.0117,-19.67773 1.09154,-5.13892 1.68754,-9.59007 1.76758,-12.96875 0.04,-1.68897 -0.0463,-3.10964 -0.28711,-4.25196 -0.23927,-1.13503 -0.62262,-2.10294 -1.46485,-2.63672 -1.03088,-0.65333 -2.31326,-1.00582 -3.78906,-1.11914 z m -160.19922,0.0293 c -0.7953,-0.004 -1.44845,0.0642 -2.04883,0.24609 -1.21873,0.36934 -1.97067,1.25121 -2.74414,2.43165 -0.80565,1.22957 -1.30403,2.41746 -1.30664,4.54296 -0.003,2.11678 0.38205,5.25099 1.13672,10.98047 1.37929,10.47167 1.5687,17.00725 -0.35937,22.85547 -1.92805,5.84817 -6.03225,11.17547 -13.48633,19.125 -4.21014,4.48997 -6.60055,7.13014 -7.9668,9.10156 -1.37116,1.97853 -1.68693,3.4495 -1.53515,4.99414 0.21058,2.14299 1.40231,3.98091 3.70898,5.55665 2.30119,1.57198 5.72016,3.01038 10.75781,4.70507 l 0.0781,0.0254 v -0.002 l -0.004,-0.002 c 1.6e-4,5e-5 0.16882,0.0258 0.17969,0.0273 1.8e-4,-10e-6 -0.12525,-0.0118 -0.125,-0.0117 l -0.0449,-0.0117 c 1.76597,0.59307 3.48226,1.13967 4.83398,1.54297 0.68691,0.20494 1.28084,0.37438 1.74805,0.4961 0.45739,0.11916 0.76107,0.20563 1.0957,0.22265 0.52821,0.0268 0.91784,-0.2416 1.18945,-0.43945 0.30702,-0.22363 0.61294,-0.50998 0.9336,-0.84766 0.64323,-0.67738 1.34543,-1.57859 1.99414,-2.58007 1.09393,-1.68885 3.9988,-4.53178 6.14844,-5.95313 5.2151,-3.44822 12.66172,-3.58267 18.54297,-0.26562 1.94174,1.09514 3.1258,1.73413 4.33203,1.90234 1.2207,0.17021 2.25411,-0.25665 3.50976,-0.92774 2.13278,-1.13984 4.62039,-3.87165 7.02149,-7.13085 2.40255,-3.26119 4.63533,-7.03443 5.85937,-10.25586 1.22029,-3.21152 1.859,-8.5015 1.99414,-13.57422 0.0676,-2.53696 0.001,-5.00807 -0.21289,-7.11328 -0.21379,-2.10255 -0.54091,-3.8259 -1.16601,-5.01758 -0.581,-1.10757 -1.33439,-1.98093 -2.55664,-2.42383 -1.20312,-0.43596 -2.72987,-0.53492 -5.17774,-0.59766 -5.25155,-0.13459 -9.53079,-2.12183 -12.5293,-5.46679 -2.99821,-3.34464 -4.72564,-8.08007 -4.67187,-13.79493 l 0.0664,-6.90625 -5.71485,-2.49218 c -2.95927,-1.28964 -7.56825,-2.49573 -10.58008,-2.75977 l -0.13086,-0.0117 -0.006,0.004 c -1.09312,-0.0951 -2.00584,-0.17026 -2.76367,-0.17383 z m 121.32813,0.23828 c -2.05339,-0.23145 -3.49124,-0.28855 -4.85156,0.0625 -1.36147,0.35131 -2.52671,1.08764 -4.04297,2.24414 -4.34212,3.3119 -6.30094,8.77035 -4.86719,13.76953 1.12669,3.92853 2.89674,6.14124 6.88476,8.6543 4.49192,2.83061 10.69672,1.98869 14.75196,-1.89648 7.92448,-7.59213 3.34867,-21.1279 -7.43164,-22.7168 v -0.0684 z m -83.92774,0.28321 c -2.36246,-0.0119 -4.58731,0.54774 -6.50586,1.60351 -3.8386,2.11237 -6.39843,6.23253 -6.39843,11.44727 0,2.83934 0.30403,4.98406 1.22265,6.7832 0.91933,1.80055 2.42299,3.1541 4.55664,4.45508 2.0475,1.24846 5.27572,2.08569 7.8711,2.08789 3.50704,0.003 5.4639,-0.84288 8.41797,-3.62891 1.57744,-1.48772 2.5806,-2.5774 3.17187,-3.91015 0.5915,-1.33326 0.70508,-2.77462 0.70508,-4.84766 0,-5.73899 -1.99349,-10.34524 -5.70899,-12.17773 -2.47105,-1.21874 -4.96955,-1.8006 -7.33203,-1.8125 z m 122.63868,1.40429 c 1.256,0.0973 2.24545,0.38661 2.9082,0.80664 0.0368,0.0233 0.4141,0.49602 0.60351,1.39453 0.19115,0.90677 0.28191,2.21075 0.24414,3.80469 -0.0755,3.18886 -0.65081,7.55597 -1.7246,12.61133 -1.97536,9.29979 -1.96785,13.83708 0.0508,20.63477 1.9045,6.41316 5.08454,11.68118 9.66211,15.96289 3.59933,3.36669 6.89022,6.98343 9.25781,10.05664 1.18379,1.53659 2.13861,2.93968 2.7793,4.08398 0.63705,1.13781 0.92578,2.12248 0.92578,2.37305 0,2.01134 -0.94179,3.5195 -3.72461,5.15039 -2.77641,1.62713 -7.34213,3.16262 -14.02735,4.74414 -0.79244,0.18746 -1.41878,0.21085 -1.64257,0.17383 -0.0272,-0.005 0.007,0.0103 -0.0137,0.002 -0.0678,-0.3408 -0.15654,-0.67123 -0.31445,-0.95898 -0.22186,-0.40431 -0.51519,-0.84885 -0.86914,-1.33399 -0.70814,-0.9706 -1.65697,-2.10198 -2.68555,-3.23242 -2.05494,-2.25845 -4.31684,-4.47172 -5.93164,-5.33594 -3.44205,-1.84213 -7.63999,-2.50678 -11.61328,-2.14648 -3.97288,0.36027 -7.74981,1.74078 -10.30664,4.18554 l -2.09766,2.00586 -2.33593,-1.66406 h -0.002 c -3.98544,-2.83825 -7.54816,-7.23834 -10.5664,-13.14844 -2.95517,-5.78661 -4.03311,-17.30316 -2.22461,-24.84179 l 1.04492,-4.35157 h 3.96094 c 10.46498,0 19.04492,-9.40967 19.04492,-20.67382 0,-2.38695 0.10933,-3.58172 0.39258,-4.12891 0.14538,-0.28087 0.34782,-0.49943 0.74218,-0.76562 0.39437,-0.2662 0.97507,-0.56295 1.78907,-0.94922 4.53944,-2.1541 8.74945,-3.56233 12.18359,-4.16407 1.71581,-0.30064 3.23434,-0.39218 4.49024,-0.29492 z m -161.52344,0.1836 c 0.64481,-0.19541 1.91504,-0.19179 4.21679,0.01 2.64865,0.2322 7.29783,1.44259 9.97071,2.60742 l 4.5332,1.97461 -0.0527,5.6211 c -0.0576,6.11848 1.8053,11.36232 5.16601,15.11132 3.36106,3.74941 8.2072,5.96667 13.92774,6.11329 2.40347,0.0616 3.81338,0.20885 4.56836,0.48242 0.77824,0.28201 1.00806,0.5677 1.49609,1.49804 0.36584,0.69744 0.75084,2.32123 0.95312,4.31055 0.20259,1.99223 0.26891,4.39431 0.20313,6.86328 -0.13152,4.93664 -0.82782,10.20016 -1.86719,12.93555 -1.12227,2.95359 -3.28867,6.64818 -5.60547,9.79297 -2.31536,3.14285 -4.89382,5.77676 -6.375,6.56836 -1.17965,0.63047 -1.64985,0.80887 -2.32422,0.71484 -0.65427,-0.0912 -1.73176,-0.58917 -3.64453,-1.66797 -6.50675,-3.66983 -14.67061,-3.56365 -20.56836,0.33594 -2.44228,1.61485 -5.33889,4.40029 -6.71289,6.52148 -0.58848,0.90852 -1.2379,1.73693 -1.77148,2.29883 -0.26604,0.28016 -0.50965,0.49602 -0.66797,0.61133 -0.0285,0.0208 -0.0498,0.0283 -0.0742,0.041 -0.0149,-0.003 -0.0226,-0.004 -0.0391,-0.008 -0.13675,-0.0279 -0.32514,-0.0703 -0.53516,-0.125 -0.43091,-0.11226 -1.00858,-0.27575 -1.68164,-0.47656 -1.34503,-0.4013 -3.07394,-0.95278 -4.85156,-1.55078 -4.97192,-1.67259 -8.27787,-3.09363 -10.28516,-4.46484 -2.01313,-1.37523 -2.71056,-2.54678 -2.86718,-4.14063 -0.12335,-1.25529 -0.0294,-1.92807 1.19531,-3.69531 1.21938,-1.75952 3.58911,-4.40176 7.78906,-8.88086 7.50619,-8.0051 11.83775,-13.55374 13.91211,-19.8457 2.0744,-6.29209 1.83323,-13.16483 0.44336,-23.7168 -0.75363,-5.72159 -1.12338,-8.85969 -1.12109,-10.72852 0.002,-1.8781 0.25794,-2.36389 0.98828,-3.47851 0.35742,-0.54549 0.633,-0.91668 0.88281,-1.16016 0.24981,-0.24347 0.46444,-0.37132 0.79883,-0.47265 z m 122.59375,0.0605 c 9.60622,1.08276 13.67369,12.86091 6.74804,19.4961 -3.43596,3.29186 -8.72246,3.9535 -12.37109,1.65429 -3.80067,-2.395 -5.00775,-3.90615 -6.05078,-7.54297 -1.20063,-4.18637 0.42664,-8.82397 4.17578,-11.68359 1.44989,-1.10588 2.36517,-1.65367 3.35156,-1.9082 0.98522,-0.25423 2.16293,-0.23924 4.14649,-0.0156 z m -83.71485,0.29492 c 2.04961,0.0105 4.25262,0.51741 6.47852,1.61524 2.78205,1.37211 4.62305,5.14271 4.62305,10.43164 0,1.99892 -0.1201,3.11862 -0.53711,4.05859 -0.41654,0.93889 -1.20193,1.84161 -2.73047,3.28321 -2.82257,2.66202 -3.82426,3.10252 -7.08203,3.09961 -2.13606,-0.002 -5.30392,-0.85625 -6.85938,-1.80469 -1.97356,-1.20336 -3.12361,-2.28066 -3.83594,-3.67578 -0.7113,-1.39313 -1.00976,-3.20225 -1.00976,-5.90039 0,-4.59029 2.15655,-7.96445 5.39062,-9.74414 1.61644,-0.88952 3.51289,-1.37376 5.5625,-1.36329 z M 403.67383,418.5 c -4.04092,-0.23573 -8.15383,0.43985 -11.21485,2.22461 -14.88334,8.67791 -14.33087,30.6705 1.00196,37.63672 l 0.19336,0.0879 h 0.084 c 5.10613,2.21646 12.53513,2.45952 17.3418,0.45117 4.76589,-1.99132 9.7803,-7.93831 11.40039,-13.3457 0.98951,-3.30273 1.0037,-5.76876 0.0879,-10.13477 -1.40157,-6.68202 -3.21883,-9.7063 -8.07227,-13.4082 -2.79441,-2.13141 -6.78149,-3.276 -10.82226,-3.51172 z m 217.23242,0.33789 c -4.37799,0.20878 -8.88617,1.87875 -12.92969,5.33984 -5.08897,4.35599 -6.91363,9.3812 -6.34375,17.25977 0.5142,7.10862 3.55871,12.19275 9.65625,16.14648 5.19177,3.36641 11.87846,3.45299 17.66992,1.28125 5.79153,-2.17174 10.7753,-6.63545 12.48243,-12.58789 2.95525,-10.30442 -1.30545,-19.38832 -8.37696,-24.06445 -3.53595,-2.3382 -7.7802,-3.58378 -12.1582,-3.375 z m -217.3457,1.60742 c 3.74094,0.21823 7.41655,1.33096 9.75586,3.11524 4.65836,3.55311 5.98584,5.7692 7.34765,12.26172 0.88783,4.23278 0.87453,6.10234 -0.0469,9.17773 -0.70028,2.33733 -2.2836,4.97307 -4.19336,7.21289 -1.90976,2.23983 -4.15589,4.08484 -6.09375,4.89453 -4.12014,1.7215 -11.60078,1.50821 -16.06055,-0.51758 -13.95038,-6.33677 -14.46754,-26.23406 -0.83008,-34.18554 2.57716,-1.50265 6.38015,-2.17722 10.1211,-1.95899 z m 217.44922,0.32031 c 3.95035,-0.186 7.77599,0.95198 10.98242,3.07227 6.41254,4.24038 10.31726,12.35831 7.58008,21.90234 -1.49981,5.22957 -5.9839,9.31044 -11.29688,11.30274 -5.31298,1.99229 -11.37017,1.86465 -15.92969,-1.0918 -5.72524,-3.71232 -8.29266,-8.00577 -8.77343,-14.65234 -0.54589,-7.54688 0.94111,-11.59853 5.66796,-15.64453 3.7382,-3.19977 7.81916,-4.70266 11.76954,-4.88868 z m -108.75,33.61719 c -6.21457,0 -10.09563,1.50382 -14.35938,5.58008 -4.84786,4.63471 -6.73287,8.84264 -6.67773,14.97852 0.0758,8.43278 4.62375,15.74389 12.23632,19.70312 1.99658,1.03839 5.78818,1.6746 9.00196,1.67774 4.49902,0.005 6.93086,-0.68883 10.61523,-3.0254 6.90745,-4.38055 9.78867,-9.71162 9.79688,-18.10156 0.006,-5.83375 -0.5188,-7.72236 -3.17969,-11.55469 -3.95097,-5.69034 -10.65281,-9.25781 -17.43359,-9.25781 z m 0,1.94531 c 6.09215,0 12.25858,3.26965 15.83593,8.42188 2.58042,3.71643 2.83786,4.70025 2.83203,10.44531 -0.008,7.97568 -2.35481,12.31483 -8.89257,16.46094 -3.52662,2.23653 -5.24831,2.72551 -9.57227,2.7207 -1.45961,-0.001 -3.14853,-0.18276 -4.64453,-0.45898 -1.49601,-0.27623 -2.81753,-0.6624 -3.46289,-0.99805 -7.03065,-3.65657 -11.11786,-10.24351 -11.1875,-17.99414 -0.0518,-5.75814 1.45341,-9.13714 6.07617,-13.55664 4.03044,-3.85322 7.08927,-5.04101 13.01563,-5.04102 z m 67.42773,26.20899 v 0.0898 c -1.19783,-0.0968 -2.40283,-0.106 -3.56836,0.1211 -5.39794,1.05179 -10.06836,5.59022 -10.06836,12.53125 0,6.04037 2.50203,10.42496 7.29492,12.50976 l 1.35938,0.5918 v -0.125 c 3.34313,1.22323 5.7685,1.15171 9.47851,-0.39844 6.87371,-2.872 9.76126,-10.62036 6.52539,-17.43945 -2.25558,-4.7533 -6.30482,-7.29348 -10.45898,-7.81055 z m 0.32031,1.99219 c 3.53279,0.42751 6.95719,2.53299 8.94531,6.72265 2.80736,5.91609 0.40123,12.33867 -5.51953,14.8125 -2.00873,0.83931 -3.35731,1.23116 -4.67187,1.22266 -1.31456,-0.008 -2.65255,-0.41842 -4.64063,-1.2832 -4.13992,-1.80078 -6.125,-5.1882 -6.125,-10.72461 0,-6.08727 3.8974,-9.72699 8.4961,-10.62305 1.14918,-0.22393 2.33782,-0.26948 3.51562,-0.12695 z m -132.85547,0.0293 c -1.0121,-0.0486 -2.06177,-0.004 -3.14257,0.14063 -5.93842,0.79634 -9.68281,5.14351 -10.5293,10.11133 -0.84615,4.96585 1.13893,10.59437 6.29687,14.07031 2.03801,1.37341 3.9141,2.17844 5.92774,2.32812 2.01246,0.1496 4.08437,-0.34968 6.54297,-1.37695 4.52396,-1.89023 7.13281,-6.63991 7.13281,-12.52344 0,-4.14978 -1.64398,-7.64433 -4.41797,-9.9082 -2.08009,-1.69758 -4.77315,-2.69581 -7.81055,-2.8418 z m -0.0937,1.94141 c 2.66682,0.12643 4.94016,0.99139 6.67383,2.40625 2.31227,1.88705 3.70313,4.75769 3.70313,8.40234 0,5.32342 -2.22879,9.17891 -5.9375,10.72852 -2.30729,0.96404 -4.05601,1.3529 -5.65039,1.23437 -1.59547,-0.11859 -3.1092,-0.73826 -4.98438,-2.00195 -4.54682,-3.06411 -6.18848,-7.8955 -5.4668,-12.13086 0.72205,-4.23754 3.73428,-7.82092 8.8711,-8.50976 0.96999,-0.13008 1.9023,-0.17104 2.79101,-0.12891 z m -27.79297,2.51758 c 2.6e-4,8e-5 -2.5e-4,0.002 0,0.002 -0.0125,0.001 -0.0257,0.002 -0.0273,0.002 -0.002,3.5e-4 0.0142,-0.002 0.0273,-0.004 z m 179.06641,0.29883 c 0.008,0.0163 0.0174,0.0177 0.0234,0.0351 0.0735,0.21354 0.0254,0.16037 0.0254,0.11524 0,-0.0591 -0.0434,-0.0942 -0.0488,-0.15039 z m -171.375,0.99023 c -0.001,-6e-5 -0.0103,-0.0105 0.084,0.0156 0.0236,0.007 0.10998,0.0453 0.10937,0.0449 -3e-4,-1.7e-4 0.0978,0.0705 0.0977,0.0703 -2e-4,-1.9e-4 0.10946,0.1545 0.10937,0.1543 -9e-5,-2e-4 0.0469,0.23264 0.0469,0.23242 10e-6,-2.2e-4 -0.047,0.18969 -0.0469,0.18945 6e-5,-1.1e-4 -0.017,0.0253 -0.0332,0.0508 -0.14636,0.10222 -0.25881,0.1955 -0.41602,0.1875 z m 131.00586,7.25 c -0.79556,0.0568 -1.76106,0.20152 -3.03516,0.375 -13.9468,1.89904 -26.10564,10.73816 -32.81054,23.80664 l -2.01758,3.93359 4.89062,5.23047 c 3.76849,4.02883 5.78865,7.97117 6.20118,11.86914 0.4126,3.89871 -0.75585,7.82222 -3.63868,11.91211 l -3.55078,5.03516 2.42578,4.56055 c 1.25235,2.35542 4.0392,6.28121 6.33008,8.95703 1.53407,1.79184 2.76798,3.03642 3.95703,3.86523 1.19301,0.83157 2.37634,1.22657 3.59571,1.22656 2.03002,0 3.85251,-0.83266 5.69531,-2.96484 1.8371,-2.12558 3.86117,-5.53442 6.82812,-11.04687 8.77285,-16.29954 17.62333,-22.95794 33.20313,-25.06055 5.01368,-0.67665 8.87183,-1.33444 11.73828,-2.22266 2.86598,-0.88808 4.84982,-2.03448 5.76953,-3.85742 0.9211,-1.82571 0.58836,-4.02991 -0.53711,-6.63281 -1.12502,-2.60189 -3.07726,-5.73148 -5.75976,-9.68164 -1.94056,-2.85761 -3.49364,-4.73802 -4.92969,-5.73828 -0.7186,-0.50053 -1.47364,-0.8168 -2.26563,-0.72852 -0.73623,0.0821 -1.31958,0.55235 -1.74414,1.15234 -0.01,0.007 -0.0234,0.0151 -0.0293,0.0195 -0.0416,0.0313 -0.0573,0.0459 -0.0879,0.0703 -0.0611,0.0489 -0.14774,0.11398 -0.25,0.17187 -0.24557,0.13903 -0.61489,0.31704 -1.05664,0.50196 -0.8846,0.37029 -2.07049,0.77999 -3.30274,1.125 -3.92713,1.09952 -4.8317,1.05886 -9.42383,-0.38868 -2.81686,-0.88794 -5.6663,-2.74515 -7.92383,-4.97265 -2.25752,-2.2275 -3.91574,-4.82947 -4.41992,-7.125 -0.16124,-0.73413 -0.28276,-1.32766 -0.51758,-1.86914 -0.24604,-0.56737 -0.68094,-1.07768 -1.30859,-1.32227 -0.58511,-0.22801 -1.22955,-0.25804 -2.02539,-0.20117 z m -88.71484,0.0918 c -1.25038,-0.15602 -2.20066,-0.17015 -3.02735,0.082 -0.85869,0.26189 -1.47966,0.88726 -1.86133,1.65234 -0.37211,0.74594 -0.59506,1.62025 -0.89453,2.73242 -0.60327,2.24039 -2.11716,4.86311 -4.00586,7.09375 -1.88849,2.23043 -4.16865,4.0794 -6.1289,4.89844 -4.42105,1.84723 -11.24239,1.54507 -15.6875,-0.72265 l -4.83789,-2.47071 -2.35157,2.98242 c -2.35272,2.98375 -4.62517,6.76178 -6.25781,10.13477 -0.81635,1.68656 -1.47062,3.26961 -1.89258,4.62305 -0.41904,1.34407 -0.6741,2.45393 -0.42773,3.43554 0.22677,0.90351 0.53368,1.74063 1.13477,2.4668 0.60133,0.72646 1.44855,1.28246 2.60937,1.75781 2.31833,0.94935 6.00081,1.68223 12.55859,2.85742 12.7157,2.27875 21.41269,6.03342 26.15625,11.04297 0.75897,0.80154 2.16577,2.68441 3.73243,4.99024 1.56665,2.30583 3.31192,5.05012 4.82812,7.64062 3.06885,5.24327 6.46039,10.67509 7.76367,12.35547 1.35959,1.75297 3.32166,3.12696 5.16992,3.12695 1.08249,0 2.1587,-0.53275 3.31641,-1.30664 1.16273,-0.77724 2.41364,-1.85006 3.67774,-3.12304 2.52803,-2.5458 5.10796,-5.88987 6.93359,-9.24414 l 3.06055,-5.62305 -3.03516,-3.18164 c -6.83867,-7.16944 -5.40277,-20.4611 2.93555,-26.53516 l 3.42187,-2.49218 -2.97851,-6.06446 c -5.88474,-11.98764 -16.18255,-19.89959 -29.00977,-22.26562 -1.90033,-0.35051 -3.27335,-0.60203 -4.46484,-0.76758 v -0.0215 z m 88.84961,1.88281 c 0.67953,-0.0442 1.10141,0.008 1.18554,0.041 0.16916,0.0659 0.10376,-0.006 0.22852,0.28125 0.10921,0.25184 0.24197,0.78349 0.40234,1.51367 1.24581,5.67213 7.28972,11.52509 13.66016,13.5332 4.68289,1.47615 6.47971,1.54311 10.5332,0.4082 1.30551,-0.36551 2.54867,-0.79459 3.5293,-1.20507 0.48994,-0.20509 0.91382,-0.40351 1.26367,-0.60157 0.31624,-0.17903 0.66946,-0.36621 0.91992,-0.77148 0.22948,-0.3713 0.30164,-0.38807 0.44727,-0.4043 0.107,-0.0119 0.44017,0.0434 0.9414,0.39258 1.00036,0.69677 2.54368,2.45905 4.42969,5.23633 2.65954,3.91633 4.56097,6.99534 5.58399,9.36133 1.02348,2.36704 1.13347,3.89524 0.58398,4.98437 -0.54768,1.08555 -1.95697,2.0498 -4.60742,2.87109 -2.65097,0.82145 -6.44432,1.48253 -11.42188,2.1543 -16.03761,2.1644 -25.72176,9.47216 -34.65429,26.06836 -2.94921,5.47948 -4.97011,8.82318 -6.58985,10.69727 -1.62577,1.88107 -2.64486,2.29101 -4.22265,2.29101 -0.83224,0 -1.52893,-0.21096 -2.48438,-0.87695 -0.95104,-0.66292 -2.10645,-1.79828 -3.5918,-3.5332 -2.18113,-2.54764 -4.98592,-6.52921 -6.08984,-8.60547 l -1.86328,-3.50391 2.85937,-4.06055 c 3.08082,-4.37077 4.45454,-8.81216 3.98633,-13.23632 -0.46814,-4.42349 -2.75199,-8.75544 -6.71679,-12.99414 l -3.95508,-4.22852 1.39453,-2.7168 c 6.43184,-12.53627 18.0462,-20.95499 31.34375,-22.76562 1.27236,-0.17325 2.22476,-0.28592 2.9043,-0.33008 z m -91.30664,0.0605 c 0.33523,-0.10225 1.06604,-0.11822 2.21093,0.0195 1.14489,0.13775 2.7108,0.41013 4.79688,0.79492 12.25285,2.26008 21.97523,9.71986 27.61523,21.20898 l 2.25586,4.59766 -2.09961,1.5293 c -9.3305,6.79682 -10.9407,21.33114 -3.19531,29.45117 l 2.05469,2.1543 -2.38282,4.3789 c -1.71579,3.15249 -4.21493,6.39344 -6.60742,8.80274 -1.19616,1.20457 -2.36719,2.20131 -3.375,2.875 -1.0024,0.67007 -1.90497,0.97851 -2.23633,0.97851 -0.31772,0 -1.00768,-0.22971 -1.69921,-0.6582 -0.69153,-0.42849 -1.40945,-1.03904 -1.9336,-1.71484 -1.03602,-1.3358 -4.5762,-6.93886 -7.62304,-12.14454 -3.0827,-5.26693 -6.90829,-10.96088 -8.82618,-12.98632 -5.21851,-5.51116 -14.30045,-9.3066 -27.22656,-11.62305 -6.54049,-1.1721 -10.20811,-1.94123 -12.16406,-2.74219 -0.98007,-0.40133 -1.50252,-0.7803 -1.84766,-1.19726 -0.34495,-0.41674 -0.55284,-0.92145 -0.74804,-1.69922 -0.0156,-0.0622 -0.0314,-0.39237 0.0293,-0.81641 0.0607,-0.42404 0.181,-0.96487 0.36914,-1.56836 0.37934,-1.2167 1.00146,-2.73037 1.78711,-4.35351 1.57144,-3.24655 3.80075,-6.94169 6.03516,-9.77539 l 1.36328,-1.72852 3.41602,1.74219 c 5.06906,2.58604 12.20885,2.91891 17.32031,0.7832 2.40601,-1.00529 4.82407,-3.03138 6.86133,-5.4375 2.03728,-2.40615 3.68922,-5.19151 4.40234,-7.83984 0.29929,-1.1115 0.53334,-1.92308 0.75781,-2.37305 0.2368,-0.47468 0.30584,-0.54121 0.68946,-0.6582 z m 121.37304,12.11328 0.80469,0.49804 c -0.065,0.10518 -0.21461,0.17541 -0.32227,0.2461 -0.0529,0.001 -0.13296,0.002 -0.13281,0.002 1.1e-4,2e-5 -0.14656,-0.0469 -0.14648,-0.0469 8e-5,4e-5 -0.1485,-0.1153 -0.14844,-0.11524 6e-5,7e-5 -0.0899,-0.15048 -0.0898,-0.15039 3e-5,9e-5 -0.0313,-0.12902 -0.0312,-0.1289 2e-5,2.3e-4 0.008,-0.15073 0.008,-0.1504 -7e-5,3.4e-4 0.0134,-0.0536 0.0195,-0.0703 0.0246,-0.067 0.0336,-0.0751 0.0391,-0.084 z m -74.28125,19.36328 c -2.82764,-0.28295 -5.84667,0.35286 -8.66797,2.18359 -1.55404,1.00843 -2.91213,2.89544 -3.97265,4.99024 -1.06115,2.09603 -1.80664,4.39983 -1.80664,6.36718 0,1.9524 1.06184,4.23246 2.48242,6.34766 1.42172,2.11689 3.21755,4.04584 5.08008,4.98828 6.53814,3.30834 14.7017,0.68876 17.76172,-5.75976 2.87621,-6.06116 0.85258,-12.21496 -3.32422,-15.83008 -2.08827,-1.80745 -4.72501,-3.00416 -7.55274,-3.28711 z m -0.17578,1.92578 c 2.40494,0.24384 4.65345,1.27437 6.45313,2.83203 3.59951,3.11547 5.35479,8.23182 2.84375,13.52344 -2.56986,5.41558 -9.54202,7.68538 -15.12696,4.85937 -1.3173,-0.66656 -3.05193,-2.41442 -4.34375,-4.33789 -1.29059,-1.92165 -2.15234,-4.10579 -2.15234,-5.26172 0,-1.44437 0.63384,-3.59028 1.59375,-5.48632 0.95943,-1.89512 2.28695,-3.58294 3.29687,-4.23828 2.46615,-1.60029 5.03053,-2.13447 7.43555,-1.89063 z m 66.24805,13.38867 c -4.44392,0 -6.67695,0.71492 -10.67188,3.41602 -5.53099,3.73968 -9.7725,10.48434 -9.81445,16.04883 -0.0675,8.95958 6.03654,18.0641 14.11523,20.92187 8.28431,2.93049 16.84737,0.91508 22.72071,-5.37305 3.71931,-3.98197 5.07617,-7.9469 5.07617,-14.65625 0,-6.42864 -1.63363,-10.15855 -6.46484,-14.77734 -4.35635,-4.1648 -8.17253,-5.58008 -14.96094,-5.58008 z m -133.7168,1.50391 c -5.85755,0.003 -7.72442,0.52948 -11.55078,3.21875 -5.8755,4.12946 -9.21399,10.04249 -9.23633,16.5293 -0.0308,8.94309 4.35991,16.16617 12.04883,19.71484 l 1.38086,0.63281 v -0.20898 c 5.36121,1.99647 12.07522,1.94729 16.75976,-0.45508 14.428,-7.39911 15.76233,-26.80214 2.47266,-36.03125 -4.00298,-2.77992 -5.95609,-3.31622 -11.375,-3.35352 v -0.0469 z m 133.7168,0.4414 c 6.54357,0 9.48743,1.09473 13.61523,5.04102 4.6341,4.43034 5.86524,7.23891 5.86524,13.37109 0,6.46783 -1.09217,9.62122 -4.55274,13.32618 -5.37738,5.75713 -13.02096,7.56867 -20.65234,4.86914 -7.12007,-2.51866 -12.87701,-11.02664 -12.81641,-19.07227 0.0341,-4.5287 3.9691,-11.08061 8.95703,-14.45312 3.87185,-2.61789 5.31644,-3.08203 9.58399,-3.08204 z m -133.7168,1.50391 c 5.85519,-0.003 6.6996,0.22708 10.76563,3.05078 6.10075,4.23672 8.82721,10.70919 8.39648,16.97852 -0.43073,6.26932 -4.01903,12.32585 -10.64648,15.72461 -4.33623,2.22374 -11.52085,2.25488 -16.41993,0.002 -10e-4,-5.8e-4 -0.003,-10e-4 -0.004,-0.002 l -0.0254,-0.01 c -7.03779,-3.25319 -10.9368,-9.62395 -10.90821,-17.93555 0.02,-5.82971 2.95838,-11.11503 8.40821,-14.94531 3.71253,-2.60927 4.66325,-2.85991 10.43359,-2.86328 z m -183.19336,59.73828 -0.0234,0.0312 c -2.46406,-0.20621 -5.04643,-0.16209 -7.51953,0.15235 -5.1417,0.65372 -9.84075,2.22195 -11.83593,5.10351 -0.48553,0.70124 -0.90613,1.52426 -1.1875,2.81641 -0.28045,1.28783 -0.4595,3.05978 -0.58594,5.88476 -0.25292,5.65058 -0.28169,15.53248 -0.28321,33.94727 l -0.006,40.35351 h 11.0664 11.05664 l 0.2735,-32.7792 0.22656,-27.14649 9.16602,21.51172 c 7.11109,16.69178 10.82956,25.36147 13.32617,30.21094 1.24827,2.42465 2.19766,3.91141 3.15039,4.9668 0.9549,1.05777 1.90782,1.64064 2.95898,2.20507 l 0.2168,0.11524 h 0.10742 c 2.26344,1.13825 5.23207,1.80073 8.20899,1.80273 1.96551,10e-4 3.6368,-0.11168 5.19922,-0.74414 1.56459,-0.63333 2.93883,-1.7795 4.30078,-3.625 2.72115,-3.68725 5.5887,-10.22952 10.67383,-22.3457 4.86391,-11.5893 10.54485,-25.36244 12.63867,-30.64063 l 1.95508,-4.92773 0.22461,27.72656 0.27343,33.66992 H 347.68359 358.75 v -39.26953 c 0,-20.42536 -0.024,-30.89769 -0.67969,-36.88281 -0.32786,-2.99252 -0.81555,-4.90007 -1.60742,-6.35156 -0.79285,-1.45327 -1.86257,-2.35921 -3.10352,-3.33399 -1.0922,-0.85791 -2.71303,-1.37002 -4.64843,-1.7539 -1.93919,-0.38463 -4.20035,-0.60262 -6.4961,-0.65821 -4.5883,-0.11107 -9.24945,0.34103 -11.88476,1.79493 -2.5766,1.42136 -3.99116,1.82936 -6.55664,6.98437 -2.56266,5.14937 -6.60209,15.20853 -15.39649,36.74805 -1.99897,4.89596 -3.87524,9.52081 -5.28906,13.03125 -1.41365,3.51002 -2.32688,5.79055 -2.52734,6.38086 -0.0299,0.0881 -0.0748,0.13488 -0.11133,0.21875 -0.35254,-0.70756 -0.82287,-1.72209 -1.38477,-2.9961 -1.14877,-2.60463 -2.65225,-6.21152 -4.22656,-10.17773 -9.42908,-23.75513 -14.11549,-35.57834 -17.15039,-41.85742 -1.51732,-3.13926 -2.62741,-4.92012 -3.77734,-6.11328 -1.15235,-1.19565 -2.31019,-1.72291 -3.62696,-2.32813 -1.99918,-0.91884 -4.40664,-1.46099 -6.95898,-1.69922 z m 205.95117,0.0508 c -4.7504,-0.0224 -9.97152,0.0638 -14.98828,0.23243 -5.01686,0.16866 -9.82479,0.42151 -13.75195,0.73632 -3.92619,0.31474 -6.91869,0.66606 -8.54688,1.13282 -11.35864,3.25624 -18.50069,9.22013 -22.30468,18.73046 -2.2187,5.54697 -3.05366,15.69254 -2.83985,25.76368 0.21381,10.07076 1.45277,19.91636 3.93164,24.92382 3.98686,8.05365 12.97803,13.78661 25.5918,16.62696 4.37663,0.98551 14.26891,1.26734 24.03516,1.0957 4.8834,-0.0859 9.70511,-0.29426 13.71679,-0.61523 4.01043,-0.32087 7.15871,-0.72136 8.94532,-1.31836 2.02969,-0.67824 3.64425,-1.26589 4.96484,-2.16016 1.32563,-0.89768 2.30138,-2.13133 2.93359,-3.85351 1.26018,-3.43279 1.39755,-8.77326 1.57422,-18.88672 l 0.32422,-18.63868 h -11.04687 -11.03125 v 15.18946 13.3164 l -7.85157,0.59961 c -4.90041,0.37371 -10.57343,0.10951 -15.52148,-0.5957 -4.94689,-0.70504 -9.23159,-1.9216 -11.09961,-3.13086 -0.51792,-0.33527 -1.38747,-1.17783 -2.24219,-2.19726 -0.85472,-1.01944 -1.71852,-2.22461 -2.33008,-3.31446 -1.05124,-1.87341 -1.56746,-3.04093 -1.89453,-5.31445 -0.32665,-2.27065 -0.42017,-5.64505 -0.48047,-11.59961 -0.0867,-8.56199 0.0647,-13.74061 0.75782,-17.21094 0.69392,-3.47423 1.83563,-5.23042 4.0039,-7.375 2.73144,-2.70158 4.9305,-4.11159 9.625,-4.9414 4.69116,-0.82923 11.84501,-0.96905 23.9961,-0.8418 l 21.4414,0.22461 0.33203,-7.73438 0.33008,-7.72461 -8.40234,-0.70312 c -3.14456,-0.26331 -7.42154,-0.39352 -12.17188,-0.41602 z m 271.39063,0.0156 c -2.90041,-0.10544 -5.95519,-0.098 -9.16406,0.0215 -15.30619,0.56985 -23.84393,2.76022 -30.73829,8.13086 -5.11129,3.98169 -8.63247,9.01595 -10.67968,15.72461 -2.04641,6.70605 -2.67233,15.06117 -2.21875,25.91992 0.33016,7.90365 1.02387,13.5342 2.55078,18.07813 1.5281,4.54749 3.92703,7.95237 7.41211,11.19922 5.7053,5.31529 11.65745,8.18715 20.34375,9.85937 8.80897,1.69586 26.77839,1.68342 35.09179,-0.0508 13.05158,-2.72261 21.95584,-9.28967 26.53516,-19.76953 2.44836,-5.60305 3.4455,-14.93133 3.3418,-24.42969 -0.10372,-9.49904 -1.3272,-19.06193 -3.86328,-25.06054 -3.00521,-7.10843 -8.60588,-12.33135 -16.59375,-15.55469 -5.75674,-2.32301 -12.82157,-3.59135 -21.08008,-3.97071 v -0.0605 l -0.93555,-0.0371 z m -226.0918,0.49609 -3.6582,2.97071 -3.7832,3.08007 -0.30469,40.4961 c -0.082,10.95443 -0.0989,21.04779 -0.0606,28.49218 0.0191,3.72217 0.0517,6.78064 0.0977,8.96094 0.0229,1.08983 0.048,1.95898 0.0781,2.59375 0.0145,0.30408 0.0306,0.5498 0.0488,0.75781 v 0.0137 c 4.3e-4,0.005 0.002,0.0128 0.002,0.0176 v 0.006 c 0.0107,0.10841 0.0234,0.20449 0.0371,0.29493 v 0.002 0.002 c -0.002,-0.014 0.0239,0.22434 0.1211,0.45508 v 0.002 c 0.31202,0.73976 0.97354,1.1285 1.5664,1.35157 0.58962,0.22182 1.27112,0.35237 2.12305,0.45507 1.70837,0.20596 4.14841,0.28321 7.66016,0.28321 h 10.92968 l 0.29688,-17.57032 0.25,-14.77343 6.84961,-0.21875 c 3.43346,-0.11016 5.52522,-0.0952 6.73242,0.0742 0.62311,0.0874 0.98728,0.18231 1.23242,0.29882 0.24514,0.11652 0.40407,0.25579 0.65039,0.52344 0.0656,0.0712 0.64743,0.77697 1.38086,1.71289 0.73518,0.93816 1.70749,2.19691 2.84375,3.68164 2.27236,2.96926 5.20288,6.84424 8.24219,10.90625 l 11.49805,15.36524 h 11.68554 c 3.03538,0 5.79193,-0.0633 7.81641,-0.16797 1.01136,-0.0523 1.83783,-0.1141 2.45703,-0.18945 0.3052,-0.0371 0.56767,-0.0759 0.81836,-0.13868 0.12261,-0.0308 0.28726,-0.0785 0.46484,-0.16797 0.0747,-0.0377 0.24646,-0.12724 0.41993,-0.30273 0.20053,-0.20301 0.43164,-0.56549 0.43164,-1.04492 0,-0.33268 -0.11683,-0.59734 -0.12305,-0.61328 -0.0364,-0.0934 -0.0771,-0.18752 -0.12695,-0.28321 -0.0896,-0.17225 -0.19327,-0.34321 -0.3125,-0.5332 -0.24386,-0.38853 -0.57246,-0.87383 -0.97461,-1.44336 -0.80445,-1.13929 -1.89928,-2.60815 -3.10352,-4.15625 -5.21189,-6.70007 -10.12179,-13.20385 -13.7207,-18.13086 -1.79936,-2.46338 -3.27223,-4.5361 -4.28321,-6.02734 -0.3618,-0.53368 -0.5846,-0.89133 -0.81835,-1.26172 0.28938,-0.0465 0.50782,-0.11328 0.86718,-0.11328 1.14,0 2.41045,-0.37305 3.76563,-0.9043 1.36302,-0.53432 2.79888,-1.25703 4.0625,-2.08984 3.99338,-2.63197 6.84164,-5.71063 8.5957,-9.72266 1.75265,-4.00881 2.42216,-8.8623 2.38477,-15.11914 -0.0662,-11.08 -3.67265,-18.94452 -11.00586,-23.22851 -3.31919,-1.93905 -6.68241,-3.12906 -12.3125,-3.7793 -5.62733,-0.64992 -13.58511,-0.81641 -26.50586,-0.81641 z m -142.18945,0.47266 V 655.25 699.89453 h 10.97265 10.97266 V 655.25 610.60547 h -10.97266 z m 237.9414,0 -3.19921,2.91406 c -1.90814,1.73609 -3.26081,3.91136 -3.32813,5.91602 -0.0274,0.81272 -0.058,5.2941 -0.0937,12.06836 -0.0358,6.77425 -0.0749,15.76185 -0.10547,25.33203 -0.0538,16.85408 -0.0668,25.5644 0.18555,30.43554 0.12618,2.4353 0.31501,3.9225 0.63476,5.0293 0.3217,1.11349 0.81355,1.81923 1.33399,2.45703 1.23925,1.51869 3.22277,3.16216 4.78906,3.89453 0.69032,0.32278 1.62634,0.46194 3.12891,0.60938 1.50739,0.14791 3.56087,0.26489 6.28125,0.35547 5.4405,0.18114 13.54574,0.25867 25.15429,0.26367 l 32.72266,0.0137 v -8.25195 -8.25 H 650.07812 624.55078 V 672.99219 662.5918 h 22.52734 24.47266 v -7.67969 -7.60352 l -8.85351,-0.70312 c -4.46861,-0.35464 -14.90116,-0.54852 -23.3379,-0.44141 l -14.33593,0.1836 -0.25586,-9.64063 -0.25391,-9.59961 h 8.37305 c 5.18836,0 16.89291,-0.2685 26.0664,-0.59765 l 17.59766,-0.63086 v -7.6211 -7.65234 H 643 Z m 130.27735,0.0312 v 0.0273 l 0.47851,0.0195 c 0.002,9e-5 0.004,-8e-5 0.006,0 l -0.0391,0.89063 c -0.16372,-0.007 -0.28834,-0.0409 -0.45312,-0.0469 l -0.51758,-0.0176 v 0.0195 c -2.70178,-0.086 -5.51909,-0.0916 -8.50391,0.0195 l -0.0352,-0.89063 c 7.2e-4,-2e-5 10e-4,3e-5 0.002,0 3.17724,-0.11833 6.19697,-0.12494 9.0625,-0.0215 z m -225.67383,0.49609 h 24.96094 c 6.45605,0 11.66942,0.0417 15.96094,0.16406 l -0.0234,0.89063 c -4.27681,-0.12175 -9.48416,-0.16406 -15.9375,-0.16406 h -24.64258 l -3.13477,2.54883 -3.09765,2.51562 -0.29688,39.60742 c -0.0819,10.9477 -0.0988,21.03409 -0.0605,28.4668 0.0191,3.71636 0.0519,6.76972 0.0976,8.93164 0.0228,1.08117 0.0495,1.93942 0.0781,2.54297 0.009,0.19815 0.0181,0.32356 0.0273,0.46484 h -0.89062 c -0.009,-0.13617 -0.019,-0.24716 -0.0274,-0.42187 -0.0293,-0.61829 -0.0553,-1.48103 -0.0781,-2.56641 -0.0458,-2.17056 -0.0786,-5.22619 -0.0977,-8.94531 -0.0383,-7.43823 -0.0214,-17.52961 0.0606,-28.48047 l 0.30078,-40.02539 3.41797,-2.78125 z m -251.50586,0.41016 c 2.39276,0.22443 4.60831,0.73195 6.32617,1.52148 1.32255,0.60788 2.12937,0.96628 3.03907,1.91016 0.90693,0.94102 1.94634,2.54654 3.42578,5.60742 2.95918,6.12243 7.6646,17.97324 17.09375,41.72852 1.58181,3.98511 3.0925,7.60643 4.25586,10.24414 0.58159,1.31866 1.07397,2.39122 1.45507,3.15234 0.19029,0.38002 0.35168,0.67956 0.4961,0.91602 v 0.002 c 0.0701,0.11476 0.14028,0.22292 0.23047,0.33203 0.041,0.0496 0.10849,0.12637 0.19726,0.19727 0.0281,0.0224 0.31698,0.22995 0.64063,0.23242 0.35288,0.003 0.67039,-0.1272 0.89453,-0.30078 0.22414,-0.17358 0.371,-0.37224 0.49805,-0.54102 0.28837,-0.3831 0.52698,-0.8524 0.70312,-1.37109 0.0388,-0.11441 0.32248,-0.84775 0.75586,-1.94141 0.43338,-1.09366 1.02834,-2.5829 1.73437,-4.33594 1.41218,-3.50633 3.28915,-8.12994 5.28711,-13.02343 8.79562,-21.54249 12.86335,-31.64488 15.33789,-36.61719 2.47745,-4.97812 3.01522,-4.63853 5.75586,-6.15039 1.85419,-1.02296 6.49543,-1.65928 10.89649,-1.55274 2.20215,0.0533 4.37129,0.26746 6.16406,0.62305 1.789,0.35484 3.23012,0.90681 3.82617,1.375 1.20801,0.94891 1.98705,1.62262 2.59571,2.73828 0.60744,1.11344 1.07023,2.76 1.38476,5.63086 0.6291,5.7421 0.66602,16.2465 0.66602,36.66992 v 37.32422 h -9.1211 -9.12695 l -0.25781,-31.74023 -0.26953,-33.11719 -1.72071,-0.32422 -3.94336,9.94336 c -2.07673,5.23509 -7.76279,19.02099 -12.62304,30.60156 -5.07978,12.10346 -8.00048,18.62787 -10.44727,21.94336 -1.22475,1.65958 -2.27735,2.49783 -3.46484,2.97852 -1.18465,0.47953 -2.58135,0.6029 -4.4668,0.60156 -2.80643,-0.002 -5.71966,-0.66972 -7.61523,-1.6875 v 0.002 c -0.99949,-0.53669 -1.66292,-0.93904 -2.43555,-1.79492 -0.77026,-0.85325 -1.64942,-2.20064 -2.86133,-4.55469 -2.42385,-4.70813 -6.15723,-13.39203 -13.26758,-30.08203 L 264.0293,632.5 l -1.70508,0.3418 -0.26953,32.22265 -0.25782,30.84961 h -9.12695 -9.12109 l 0.004,-38.40625 c 0.001,-18.41259 0.0365,-28.30947 0.28516,-33.86523 0.12433,-2.77776 0.30428,-4.46753 0.54102,-5.55469 0.2378,-1.09203 0.48719,-1.54602 0.88671,-2.12305 0.64798,-0.93584 2.04356,-1.88349 3.89649,-2.63867 1.85292,-0.75518 4.1511,-1.33326 6.58398,-1.64258 2.43481,-0.30956 5.00571,-0.36504 7.39844,-0.14062 z m 205.84961,0.0254 c 4.72149,0.0226 8.9611,0.15276 12.01172,0.4082 l 6.54101,0.54688 -0.25195,5.85937 -0.24805,5.84961 -19.55859,-0.20312 c -12.1729,-0.12748 -19.37466,-0.009 -24.35742,0.87109 -4.9859,0.88132 -7.77294,2.62666 -10.65234,5.47461 -2.32234,2.29695 -3.78837,4.599 -4.54297,8.37695 -0.75385,3.77423 -0.88386,9.02201 -0.79688,17.61328 0.0604,5.96646 0.14495,9.37193 0.50195,11.85352 0.35739,2.48431 1.02864,4.03989 2.12305,5.99023 1.3738,2.44824 3.50342,5.08799 5.21094,6.19336 2.44666,1.58384 6.79891,2.69731 11.88281,3.42188 5.08571,0.72483 10.86064,0.99912 15.94336,0.61133 l 9.64844,-0.73633 v -15.11914 -13.24414 h 9.08594 9.06836 l -0.29102,16.66015 c -0.17646,10.10134 -0.41713,15.42256 -1.45508,18.25 -0.52131,1.42008 -1.16733,2.21203 -2.20117,2.91211 -1.02823,0.69628 -2.48962,1.25857 -4.48633,1.92578 -1.34384,0.44906 -4.52856,0.90827 -8.48242,1.22461 -3.95502,0.31645 -8.74935,0.52609 -13.59961,0.61133 -9.70006,0.17048 -19.76119,-0.19262 -23.57227,-1.05078 -12.25966,-2.76061 -20.64733,-8.25701 -24.27929,-15.59375 -2.12462,-4.29186 -3.5158,-14.16984 -3.72656,-24.09766 -0.21078,-9.92814 0.73395,-20.0837 2.70117,-25.00195 3.60106,-9.00298 10.06355,-14.4387 21.03515,-17.58398 1.23456,-0.35392 4.28139,-0.75322 8.16407,-1.06446 3.88359,-0.31132 8.6707,-0.56258 13.66406,-0.73047 4.9933,-0.16787 10.19831,-0.25109 14.91992,-0.22851 z m 282.85547,0.29101 c 0.98398,0.17375 1.92617,0.37866 2.85937,0.58985 -0.93229,-0.21213 -1.87559,-0.41603 -2.85937,-0.58985 z m -7.57813,0.0781 c 1.77231,0.13795 3.61262,0.22861 5.25,0.46094 0.28801,0.0408 0.51897,0.12219 0.80274,0.16601 -1.88885,-0.29924 -3.97535,-0.46006 -6.05274,-0.62695 z m -3.99023,0.58984 c 8.46397,0.30909 15.46898,1.60779 21.03906,3.85547 7.42952,2.99802 12.30664,7.60077 15.01367,14.00391 2.22528,5.26346 3.53562,14.70625 3.63672,23.9668 0.10111,9.25986 -1.02746,18.49171 -3.10156,23.23828 -4.21489,9.64583 -12.05583,15.50551 -24.47266,18.0957 -7.44851,1.5538 -25.91188,1.59178 -33.95703,0.043 -8.33736,-1.60505 -13.55605,-4.13562 -18.91992,-9.13281 -3.24163,-3.02004 -5.26172,-5.8966 -6.64258,-10.00586 -1.37958,-4.1055 -2.07498,-9.48945 -2.40039,-17.2793 -0.44629,-10.6846 0.19423,-18.73482 2.0918,-24.95313 1.89847,-6.22122 4.9941,-10.62985 9.69141,-14.28906 6.29126,-4.90083 13.99693,-6.96023 29.07226,-7.52148 3.14532,-0.1171 6.12801,-0.12448 8.94922,-0.0215 z m -366.23047,0.0234 h 9.02734 9.02735 V 655.25 697.94922 h -9.02735 -9.02734 V 655.25 Z m 236.74805,0 H 643 674.60547 v 5.70703 5.74414 l -15.72266,0.5625 c -9.15211,0.32841 -20.8754,0.59766 -25.99609,0.59766 h -10.3711 l 0.3086,11.59766 0.30664,11.55664 16.25195,-0.20704 c 8.38591,-0.10647 18.87945,0.0938 23.16211,0.4336 l 7.06055,0.56055 v 5.80859 5.73437 h -22.52735 -24.47265 v 12.34571 12.3457 h 27.47265 25.52735 v 6.30469 6.30664 l -30.77735,-0.0137 c -11.60016,-0.005 -19.69304,-0.0841 -25.08789,-0.26368 -2.69746,-0.0898 -4.72206,-0.20497 -6.15625,-0.3457 -0.7146,-0.0701 -1.29105,-0.1517 -1.71679,-0.23242 -0.42574,-0.0807 -0.71973,-0.17436 -0.78125,-0.20313 -1.05577,-0.49366 -3.10559,-2.13794 -4.10547,-3.36328 -0.47558,-0.58281 -0.72653,-0.91563 -0.97266,-1.76757 -0.2441,-0.84491 -0.43563,-2.21483 -0.55859,-4.5879 -0.24595,-4.74677 -0.23741,-13.47726 -0.1836,-30.33007 0.0305,-9.56888 0.0697,-18.55759 0.10547,-25.33008 0.0358,-6.77243 0.0719,-11.41673 0.0918,-12.00977 0.0358,-1.06493 1.07654,-3.07566 2.69141,-4.54492 z m 102.18945,0.32617 0.22461,0.85547 c -4.69924,1.22972 -8.32056,3.02035 -11.56641,5.54883 -4.78406,3.72679 -8.00297,8.30849 -9.95898,14.58594 v -1.13867 l -0.83203,0.83203 c 2.00477,-6.40476 5.34303,-11.16599 10.24219,-14.98243 3.34419,-2.60509 7.08359,-4.44271 11.89062,-5.70117 z m -197.66406,0.14649 h 24.28711 c 12.8953,0 20.8026,0.17456 26.17383,0.79492 5.37428,0.62069 8.13637,1.62494 11.18554,3.40625 6.38639,3.73087 9.51154,10.26276 9.57422,20.74805 0.0361,6.03878 -0.63006,10.47488 -2.14648,13.94336 -1.51801,3.47209 -3.8675,6.05275 -7.53321,8.46875 -1.06265,0.70036 -2.35263,1.35667 -3.52539,1.8164 -1.16122,0.45521 -2.3387,0.70117 -2.71289,0.70117 -0.91062,0 -1.7514,0.11425 -2.46679,0.35157 -0.35139,0.11653 -0.71563,0.27302 -1.04883,0.5332 -0.36115,0.28199 -0.7793,0.79261 -0.7793,1.50586 0,0.49118 0.22558,0.8736 0.25391,0.93164 0.0988,0.20256 0.21846,0.41975 0.36718,0.66797 0.29685,0.49537 0.70984,1.12954 1.23243,1.90039 1.04487,1.54124 2.5305,3.6277 4.34179,6.10742 3.62281,4.95972 8.54511,11.47998 13.77344,18.20117 1.18038,1.51741 2.25368,2.96338 3.02149,4.05078 0.0258,0.0365 0.0369,0.0559 0.0605,0.0899 -0.2882,0.0232 -0.51293,0.0484 -0.89844,0.0684 -1.94949,0.1008 -4.67551,0.16601 -7.66992,0.16601 h -10.24023 l -10.62695,-14.20508 c -3.04516,-4.06986 -5.98484,-7.95331 -8.26563,-10.93359 -1.14032,-1.49003 -2.11642,-2.75399 -2.86328,-3.70703 -0.74516,-0.95088 -1.22153,-1.55247 -1.52734,-1.88477 -0.82918,-0.90098 -1.97373,-1.50341 -3.60547,-1.73242 -1.60365,-0.22505 -3.75774,-0.21105 -7.22852,-0.0996 l -9.60156,0.3086 -0.29688,17.52539 -0.24804,14.72851 h -8.08789 c -3.46737,0 -5.85458,-0.084 -7.3125,-0.25976 -0.66457,-0.0801 -1.09431,-0.1903 -1.33399,-0.26953 -0.007,-0.11758 -0.0138,-0.19736 -0.0215,-0.35743 -0.0279,-0.58851 -0.0555,-1.44007 -0.0781,-2.51562 -0.0455,-2.15216 -0.0786,-5.20274 -0.0976,-8.91602 -0.0382,-7.42655 -0.0213,-17.51095 0.0605,-28.45508 l 0.29297,-39.13476 2.73047,-2.21875 z m 242.06055,0.043 c 1.63422,0.4575 3.18565,0.97575 4.64453,1.56445 1.94741,0.78584 3.74213,1.69005 5.38476,2.70898 l -0.46679,0.75391 c -1.5972,-0.98887 -3.34607,-1.86764 -5.25196,-2.63672 -1.42835,-0.57638 -2.94507,-1.09106 -4.54883,-1.54297 z m -184.55665,0.23242 c 1.88779,0.59754 3.48564,1.35123 5.09766,2.29297 1.75186,1.02342 3.28049,2.2553 4.58984,3.69726 l -0.65234,0.59375 c -1.25242,-1.3721 -2.71403,-2.54317 -4.38867,-3.52148 -1.56764,-0.91581 -3.09479,-1.64106 -4.91211,-2.2168 z m 164.35547,5.95703 c -1.74608,-0.05 -3.59108,-0.0193 -5.53906,0.0918 -9.53241,0.54351 -16.08754,2.75377 -20.05664,8.27539 -3.96394,5.51446 -5.21289,13.85388 -5.21289,26.42968 0,11.13715 0.96932,18.76935 3.81836,24.16602 2.85441,5.40685 7.67626,8.29656 14.48242,9.73828 3.23954,0.68622 8.15474,0.78001 12.93359,0.50195 4.57215,-0.26602 8.80627,-0.86215 11.44922,-1.86523 h 0.18555 l 0.26758,-0.11328 c 5.07426,-2.12987 9.16888,-7.02295 10.89648,-12.8125 0.5275,-1.7677 0.82609,-4.62717 1.04492,-8.20899 0.21904,-3.58496 0.32268,-7.83196 0.31641,-12.05273 -0.006,-4.22094 -0.12571,-8.41268 -0.35547,-11.89063 -0.22941,-3.47276 -0.51183,-6.15162 -1.08789,-7.78125 -1.89771,-5.36862 -5.17534,-9.31624 -9.95508,-11.67187 -3.46045,-1.70544 -7.69508,-2.55856 -12.70117,-2.75195 v -0.041 z m 0.0449,1.00781 c 2.24772,0.0677 4.25815,0.32774 6.1621,0.68164 l -0.16406,0.87305 c -2.94082,-0.54539 -6.3908,-0.6922 -10.24609,-0.54492 1.44968,-0.0557 2.88802,-0.10398 4.20703,-0.0645 0.002,6e-5 0.004,-5e-5 0.006,0 v -0.006 l 0.44922,0.0137 v -0.51563 l -0.44727,0.43555 z m 34.6582,0.48242 c 2.67514,2.50384 4.73909,5.47365 6.18945,8.9043 l -0.82031,0.34766 c -2.2e-4,-5.1e-4 2.1e-4,-10e-4 0,-0.002 -1.404,-3.32098 -3.38903,-6.18556 -5.97461,-8.60547 z m -27.91992,0.26172 c 0.1359,0.0277 0.27209,0.0567 0.40625,0.0859 -0.13431,-0.0295 -0.27011,-0.0579 -0.40625,-0.0859 z m 0.86132,0.24024 c 1.84592,0.43584 3.58511,0.96552 5.10157,1.71289 4.54737,2.24111 7.62586,5.93061 9.45508,11.10547 0.0605,0.17117 0.0716,0.71654 0.12695,0.92578 l -0.80078,0.20898 c -0.0571,-0.23893 -0.10428,-0.66127 -0.16602,-0.83594 -1.76963,-5.00631 -4.66527,-8.46628 -9.00976,-10.60742 -1.44731,-0.71328 -3.12507,-1.22325 -4.91211,-1.64453 z m -13.01562,0.99023 c 7.50295,-0.42779 13.16403,0.38886 17.28125,2.41797 4.12305,2.032 6.805,5.21821 8.50977,10.04102 0.14544,0.41145 0.33457,1.34468 0.5,2.5664 0.16543,1.22173 0.31791,2.7514 0.42968,4.44336 0.22395,3.38996 0.33951,7.53138 0.34571,11.70117 0.006,4.16974 -0.10047,8.36891 -0.31446,11.8711 -0.21377,3.49893 -0.57981,6.40507 -0.92578,7.56445 -1.49283,5.00277 -5.1417,9.24906 -9.24805,10.97266 -1.77223,0.74388 -6.33706,1.48554 -10.94921,1.7539 -4.61543,0.26855 -9.48835,0.12818 -12.16797,-0.43945 -6.34279,-1.34357 -10.08002,-3.62968 -12.52539,-8.26172 -2.43946,-4.62084 -3.48242,-11.85439 -3.48243,-22.81641 0,-12.37476 1.36132,-20.14601 4.66797,-24.74609 3.31252,-4.6082 8.70224,-6.54512 17.87891,-7.06836 z m -11.87109,0.28516 0.32031,0.82031 c -1.52378,0.59521 -2.86867,1.32623 -4.05274,2.2168 l -0.53125,-0.70508 c 1.252,-0.93918 2.66968,-1.70845 4.26368,-2.33203 z m -134.15625,1.72265 c 1.7412,3.72093 2.61793,8.28765 2.65039,13.7168 0.0369,6.18208 -0.63146,10.8902 -2.30274,14.71289 l -0.8164,-0.35742 c 2.3e-4,-5.3e-4 -2.4e-4,-10e-4 0,-0.002 1.59805,-3.65609 2.26503,-8.23762 2.22851,-14.35157 -0.032,-5.34787 -0.87433,-9.77199 -2.54883,-13.34961 z m -58.15235,1.88672 v 16.00977 16.04101 l 18.45703,-0.3457 17.56446,-0.32617 3.48242,-3.48633 c 3.3529,-3.35576 4.64918,-8.61992 4.35547,-13.58398 -0.29369,-4.96352 -2.18443,-9.83576 -6.01563,-12.17188 -1.52274,-0.9285 -3.14654,-1.51228 -5.99804,-1.79492 -2.84377,-0.28188 -7.0142,-0.33624 -14.1504,-0.33789 z m 1,1 16.69531,0.004 c 7.13101,0.002 11.29253,0.0604 14.05274,0.33398 2.75775,0.27335 4.15841,0.78981 5.57617,1.6543 3.42261,2.08698 5.25426,6.62766 5.53516,11.375 0.28088,4.74719 -0.99142,9.74466 -4.0625,12.81836 l -3.19727,3.20117 -17.16211,0.31836 -17.4375,0.32617 v -15.02148 z m 0.89063,0.89063 v 14.11914 14.11133 l 16.53125,-0.30469 16.80078,-0.3125 2.94531,-2.94727 c 2.81383,-2.81624 4.07196,-7.58876 3.80274,-12.13867 -0.26924,-4.55032 -2.06327,-8.80546 -5.11133,-10.66406 -1.33516,-0.81413 -2.51795,-1.26549 -5.19922,-1.53125 -2.68451,-0.26608 -6.83873,-0.32613 -13.96485,-0.32813 z m 1,1 14.80468,0.004 c 7.12039,0.002 11.26952,0.0668 13.86719,0.32422 2.60629,0.25834 3.51656,0.6199 4.77735,1.38867 2.60437,1.58806 4.37524,5.54899 4.63086,9.86914 0.25568,4.32109 -0.99626,8.85739 -3.50977,11.37305 l -2.66016,2.66211 -16.39843,0.30469 -15.51172,0.28515 v -13.09179 z m 180.32617,2.11914 0.79883,0.38086 c -2.3735,4.98128 -3.38281,12.11625 -3.38282,22.52929 2e-5,11.02445 1.01571,18.38875 3.59961,23.28321 2.58165,4.89016 6.70629,7.39569 13.20118,8.77148 2.8817,0.61044 7.75875,0.7349 12.43359,0.46289 4.67604,-0.27208 9.18272,-0.95283 11.27734,-1.83203 2.22339,-0.93324 4.28272,-2.5169 5.98438,-4.52539 h 0.002 l 0.68555,0.58203 c -1.78237,2.10493 -3.95172,3.76784 -6.32422,4.76367 l -0.084,0.0352 h -0.11329 l -0.0879,0.0352 c -2.40357,0.94014 -6.7024,1.5632 -11.28906,1.83007 -4.72505,0.27493 -9.61455,0.16829 -12.66797,-0.47851 -6.63818,-1.40614 -11.09855,-4.09883 -13.80664,-9.22852 -2.70986,-5.13305 -3.70117,-12.6209 -3.70117,-23.69922 0,-10.45647 0.99474,-17.72348 3.47461,-22.91015 z m -373.91602,0.72656 0.10352,0.0195 0.0156,1.99805 -0.85546,-0.16016 z m 354.00391,1.63477 c 0.008,-0.004 -0.0343,0.0224 -0.0449,0.0293 0.003,-0.003 0.0117,-0.01 0.0117,-0.01 -1.1e-4,7e-5 0.0289,-0.0171 0.0332,-0.0195 z m -0.0606,0.041 c -0.005,0.005 -0.0128,0.0134 -0.0254,0.0254 4.5e-4,-0.001 0.002,-0.002 0.002,-0.004 0.0101,-0.008 0.0121,-0.0121 0.0234,-0.0215 z m -427.44922,0.0957 0.72657,1.70313 -0.85352,0.16992 0.0156,-1.85156 z m 426.08789,5.4043 0.87696,0.15625 c -0.97989,5.49205 -1.25253,12.09351 -0.91602,20.15235 l -0.89062,0.0391 c -3e-5,-7.5e-4 3e-5,-10e-4 0,-0.002 -0.33828,-8.09826 -0.0683,-14.76177 0.92968,-20.3457 z m 91.32618,1.56641 c 0.6298,4.27526 0.96809,9.00963 1.01953,13.7207 0.10284,9.41945 -0.93651,18.70081 -3.25977,24.01758 -4.45123,10.18672 -12.99243,16.5135 -25.82031,19.18945 -5.1e-4,1.1e-4 -10e-4,-10e-5 -0.002,0 l -0.17969,-0.87109 c 12.63212,-2.63511 20.84865,-8.74627 25.1875,-18.67578 2.20834,-5.05378 3.28564,-14.30428 3.18359,-23.65039 -0.051,-4.67159 -0.39578,-9.37495 -1.01953,-13.60157 z m -20.96289,12.79492 h 0.89062 c 0.006,4.20323 -0.0991,8.43396 -0.31641,11.99023 -0.21734,3.55732 -0.5316,6.41015 -1.00195,7.98633 -0.41187,1.38027 -0.96802,2.70647 -1.64258,3.95117 l -0.78515,-0.42578 c 0.64689,-1.18996 1.17843,-2.45949 1.57226,-3.77929 0.41578,-1.39331 0.75296,-4.2551 0.96875,-7.78711 0.21574,-3.53074 0.32047,-7.74605 0.31446,-11.9336 0,-6.9e-4 0,-10e-4 0,-0.002 z m -177.69532,3.79883 0.66016,0.58984 c -1.36338,1.52423 -3.00144,2.89066 -4.93945,4.16797 -1.19503,0.78761 -2.5762,1.48695 -3.875,1.99609 -1.30119,0.51009 -2.48858,0.83399 -3.40235,0.83399 -0.66399,0 -1.2188,0.1019 -1.66406,0.22656 l 0.2207,-0.43945 -1.06836,0.27929 c 0,0 -0.31734,0.0832 -0.40234,0.10547 l -0.23242,0.0606 c 0.0745,-0.16295 0.12183,-0.35067 0.24805,-0.44922 0.20769,-0.16218 0.45637,-0.27632 0.74804,-0.37305 0.5821,-0.1931 1.325,-0.30078 2.15039,-0.30078 0.7021,0 1.83115,-0.28343 3.07617,-0.77148 1.24023,-0.48619 2.57963,-1.16325 3.7129,-1.91016 1.88915,-1.2451 3.46409,-2.55713 4.76757,-4.01562 z m -14.41211,8.32812 c 0.002,0.008 0.005,0.0227 0.008,0.0332 l -0.28516,0.23632 c -0.002,-0.005 -0.008,-0.0111 -0.01,-0.0156 -0.006,-0.0123 -0.006,-0.0235 -0.0117,-0.0352 z m -0.0801,0.13672 c -0.0674,0.0641 -0.17419,0.16393 -0.17774,0.16797 -0.005,-0.01 -0.0148,-0.0237 -0.0195,-0.0332 0.007,-0.004 0.12221,-0.0833 0.19727,-0.13477 z m 0.1914,0.24024 v 0.17968 l -0.0996,-0.0605 c 7e-5,-1.1e-4 -6e-5,-0.002 0,-0.002 0.003,-0.005 0.0308,-0.0529 0.0391,-0.0664 z m -31.39453,0.004 c 3.45968,-0.11108 5.58395,-0.11683 7.05664,0.0899 1.46478,0.20557 2.33482,0.68245 3.01172,1.41796 l -0.65625,0.60547 c -2.2e-4,-2.4e-4 -0.002,-0.002 -0.002,-0.002 -0.27915,-0.30332 -0.56442,-0.56431 -0.95508,-0.75 -0.39067,-0.18569 -0.8539,-0.29302 -1.52149,-0.38672 -1.35161,-0.18963 -3.45607,-0.19461 -6.90429,-0.084 l -7.80274,0.25 -0.26562,15.72656 -0.28125,16.58594 h -9.94531 c -3.49684,0 -5.91465,-0.0796 -7.53907,-0.27539 -0.81269,-0.098 -1.42133,-0.2231 -1.89257,-0.40039 -0.27755,-0.10443 -0.40698,-0.30909 -0.5918,-0.47657 h 0.70312 l -0.1875,-0.5625 0.11719,0.0742 c 0.0158,0.01 0.12986,0.0815 0.27149,0.13477 0.36139,0.13596 0.91043,0.25422 1.68554,0.34765 1.54748,0.18657 3.9504,0.26758 7.4336,0.26758 h 9.07226 l 0.26367,-15.71289 0.28125,-16.57226 z m 31.43359,0.16602 c -0.002,0.004 -0.0301,0.0368 -0.0293,0.0371 0.016,0.005 0.0371,0.0125 0.0586,0.0195 0.0429,0.0141 0.0859,0.0273 0.0859,0.0273 l 0.0586,0.006 v 0.01 c 0,0 0.002,-0.01 0.002,-0.01 l 0.14843,0.0176 c 0,0 0.0635,-0.008 0.12696,-0.0156 l 0.33984,-0.0391 c 0.0418,0.0681 0.11908,0.18117 0.16602,0.25586 l -0.75196,0.47266 c -0.0901,-0.14329 -0.24118,-0.3621 -0.31445,-0.48438 -0.0416,-0.0694 -0.0617,-0.11319 -0.0977,-0.17578 z m -17.03515,6.86523 c 6.7e-4,8.7e-4 10e-4,10e-4 0.002,0.002 2.27807,2.97672 5.21483,6.85491 8.25781,10.92187 l 10.92774,14.60742 h 10.74023 c 3.00874,0 5.74526,-0.0639 7.72071,-0.16601 0.49827,-0.0258 0.81064,-0.0572 1.16406,-0.0879 l 0.0684,0.88671 c -0.39837,0.0302 -0.69038,0.0641 -1.1875,0.0898 -1.99867,0.1033 -4.74434,0.16797 -7.76563,0.16797 H 569.62891 L 558.43164,684.4043 c -3.04063,-4.06378 -5.97282,-7.943 -8.24805,-10.91602 z m 23.16601,0.83985 c 3.60725,4.93841 8.52271,11.44697 13.74024,18.15429 1.19624,1.53781 2.28462,3.00007 3.07617,4.1211 0.39573,0.56043 0.71536,1.03322 0.94336,1.39648 0.11458,0.18257 0.20606,0.33338 0.27344,0.46289 0.0305,0.0585 0.056,0.11889 0.082,0.18555 0.0146,0.0373 0.0547,0.1643 0.0547,0.25 0,0.17709 -0.0666,0.26491 -0.14258,0.3418 -0.0468,0.0474 -0.1335,0.1008 -0.15821,0.11328 v -0.002 c -0.0873,0.044 -0.1742,0.0728 -0.25781,0.0937 -0.10834,0.0271 -0.27219,0.0465 -0.41601,0.0684 l -0.13672,-0.87109 0.0508,-0.006 -0.46484,-0.69531 c -0.17042,-0.25509 -0.31815,-0.48367 -0.5586,-0.82422 -0.78025,-1.10504 -1.85993,-2.55758 -3.04883,-4.08594 -5.22261,-6.71384 -10.13931,-13.22925 -13.7539,-18.17773 -6.6e-4,-9.1e-4 -10e-4,-0.001 -0.002,-0.002 z m 124.78711,13.54492 c 2.73769,2.55022 5.47702,4.48862 8.58594,5.99219 l -0.38281,0.79687 c -3.19557,-1.54619 -6.01919,-3.53631 -8.8125,-6.13867 z m -190.63281,9.88476 0.40234,0.26953 0.01,0.10743 -0.43945,0.50976 -0.37696,-0.32422 z m 4.20123,-355.83199 c -5.62402,0 -7.53543,0.49497 -11.12304,2.86914 -7.7451,5.12547 -10.84395,13.76354 -8.26172,22.98633 0.77131,2.75484 2.85073,5.97519 5.23437,8.64649 2.38364,2.67129 5.02056,4.80111 7.20117,5.21484 10.56296,2.00412 18.89684,-0.99196 23.58789,-8.57227 4.18546,-6.76329 4.64936,-12.81231 1.5,-19.6914 -1.84142,-4.0222 -4.09286,-6.90556 -7.04296,-8.76758 -2.95011,-1.86202 -6.56879,-2.68555 -11.09571,-2.68555 z m 0,0.94531 c 4.41262,0 7.82992,0.79781 10.5918,2.54102 2.76188,1.74321 4.89599,4.44817 6.6875,8.36133 3.05005,6.66218 2.62707,12.21824 -1.44531,18.79883 -4.48852,7.25303 -12.29944,10.09636 -22.60742,8.14062 -1.69917,-0.32238 -4.35977,-2.32293 -6.67188,-4.91406 -2.31211,-2.59113 -4.32696,-5.76493 -5.0293,-8.27344 -2.48899,-8.88981 0.43573,-17.02157 7.87305,-21.94336 3.51634,-2.327 5.027,-2.71094 10.60156,-2.71094 z m 36.57813,31.55469 c -0.21965,0 -0.384,0.0529 -0.64063,0.12891 -0.25663,0.076 -0.57502,0.18268 -0.95117,0.32031 -0.75229,0.27527 -1.73886,0.67074 -2.89648,1.15625 -2.31525,0.97102 -5.31203,2.30692 -8.43946,3.77734 -11.81949,5.55719 -17.93197,8.30324 -23.51757,8.46094 -5.58561,0.15771 -10.814,-2.25397 -20.92579,-7.1914 -3.71987,-1.81636 -7.34778,-3.46745 -10.20312,-4.66797 -1.42767,-0.60027 -2.66137,-1.08929 -3.62305,-1.42969 -0.96168,-0.3404 -1.57988,-0.5476 -2.07422,-0.54883 -1.0766,-0.003 -2.02708,0.23679 -2.80859,0.80664 -0.78151,0.56985 -1.36826,1.44498 -1.80078,2.63477 -0.86505,2.37958 -1.16992,6.05931 -1.16992,11.6289 v 10.52735 l 4.91015,1.23633 c 3.03766,0.76488 5.74575,2.43129 8.72071,5.40625 2.45861,2.45861 3.92447,4.57339 4.67968,7.0957 0.75522,2.5223 0.80048,5.49066 0.3125,9.64258 l -0.66797,5.68554 4.31446,2.85352 c 2.29681,1.51996 6.454,3.56185 9.35742,4.60156 4.50238,1.61229 10.593,1.76878 16.51758,0.81836 5.92458,-0.95042 11.67701,-3.00735 15.48242,-5.95117 0.56684,-0.4385 1.01423,-0.79909 1.36133,-1.20313 0.3471,-0.40403 0.58366,-0.8649 0.67969,-1.40625 0.19204,-1.08269 -0.086,-2.42755 -0.61719,-4.90429 -2.1728,-10.13139 3.46124,-20.08427 12.73828,-22.60742 2.3695,-0.64446 4.87553,-1.33368 5.58789,-1.53711 0.28684,-0.0819 0.47172,-0.29065 0.60547,-0.51172 0.13375,-0.22108 0.23174,-0.47869 0.3164,-0.78125 0.16934,-0.60513 0.28211,-1.38912 0.35743,-2.31836 0.15063,-1.85849 0.14201,-4.28625 0.006,-6.80078 -0.13615,-2.51453 -0.40175,-5.11229 -0.76954,-7.30078 -0.36778,-2.1885 -0.79799,-3.93714 -1.43554,-4.91016 -0.47705,-0.72808 -1.0655,-1.3824 -1.65235,-1.86914 -0.58684,-0.48674 -1.14181,-0.8418 -1.7539,-0.8418 z m 0,0.94531 c 0.14374,0 0.64609,0.20674 1.15039,0.625 0.5043,0.41827 1.0422,1.01318 1.46484,1.65821 0.43756,0.6678 0.93517,2.4081 1.29492,4.54883 0.35976,2.14072 0.62139,4.71173 0.75586,7.19531 0.13448,2.48358 0.1411,4.88287 -0.004,6.67187 -0.0725,0.89451 -0.18366,1.64028 -0.32422,2.14258 -0.0703,0.25115 -0.15057,0.44065 -0.21485,0.54688 -0.0643,0.10623 -0.0987,0.10437 -0.0547,0.0918 -0.69131,0.19743 -3.21049,0.88926 -5.57813,1.53321 -9.79034,2.66276 -15.68584,13.13296 -13.41601,23.71679 0.52936,2.46835 0.74945,3.77525 0.61328,4.54297 -0.0681,0.38386 -0.20344,0.64852 -0.4668,0.95508 -0.26336,0.30656 -0.66658,0.64014 -1.22266,1.07031 -3.60711,2.79043 -9.24761,4.83406 -15.05468,5.76563 -5.80707,0.93157 -11.78558,0.75322 -16.04883,-0.77344 -2.80086,-1.00299 -6.97317,-3.05855 -9.1543,-4.50195 l -3.82812,-2.53321 0.59961,-5.10546 c 0.49483,-4.21024 0.46481,-7.31644 -0.34571,-10.02344 -0.81052,-2.70701 -2.39992,-4.9761 -4.91797,-7.49414 -3.05364,-3.05364 -5.93056,-4.84207 -9.15625,-5.6543 L 470.88086,398.75 v -9.79102 c 0,-5.53342 0.33108,-9.15837 1.11133,-11.30468 0.39012,-1.07316 0.87919,-1.764 1.4707,-2.19532 0.59151,-0.43131 1.31051,-0.62762 2.25,-0.625 0.10882,2.7e-4 0.82602,0.16558 1.75977,0.4961 0.93375,0.33051 2.15552,0.81253 3.57226,1.4082 2.83348,1.19133 6.44917,2.83733 10.1543,4.64649 10.1175,4.94022 15.49458,7.45291 21.36719,7.2871 5.8726,-0.1658 12.07076,-2.99158 23.89453,-8.55078 3.11655,-1.46531 6.10602,-2.79782 8.40429,-3.76172 1.14914,-0.48194 2.12623,-0.87183 2.85547,-1.13867 0.36463,-0.13342 0.66695,-0.23591 0.89258,-0.30273 0.22564,-0.0668 0.40374,-0.0899 0.37305,-0.0899 z m 44.11328,31.06641 c -1.41855,-0.10891 -3.05301,0.0116 -4.85938,0.32813 -3.61272,0.63302 -7.9256,2.08563 -12.55664,4.2832 -1.65806,0.7868 -2.65543,1.31427 -3.19336,2.35351 -0.53792,1.03925 -0.55468,2.38607 -0.55468,4.79493 0,10.53113 -8.00481,19.22851 -17.59961,19.22851 h -5.10157 l -1.31054,5.45899 c -1.91259,7.97256 -0.88754,19.50866 2.34375,25.83593 3.09572,6.06182 6.78682,10.65876 11.01562,13.66993 l 3.31055,2.35742 2.96094,-2.83203 c 2.23389,-2.13599 5.71911,-3.45365 9.43945,-3.79102 3.72034,-0.33737 7.66563,0.30259 10.80078,1.98047 1.14533,0.61296 3.54076,2.83057 5.54492,5.0332 1.00209,1.10132 1.92462,2.20686 2.58594,3.11328 0.33066,0.45322 0.59642,0.85676 0.77149,1.17579 0.17506,0.31903 0.23828,0.57997 0.23828,0.58203 0,0.28908 0.12989,0.58794 0.3457,0.77734 0.21581,0.1894 0.48205,0.28383 0.77344,0.33203 0.58277,0.0964 1.30974,0.0179 2.21093,-0.19531 6.74382,-1.59539 11.39925,-3.12976 14.42383,-4.90234 3.02459,-1.77258 4.44141,-3.87894 4.44141,-6.39844 0,-0.83855 -0.41866,-1.84098 -1.11133,-3.07813 -0.69267,-1.23714 -1.68068,-2.68609 -2.89453,-4.26172 -2.4277,-3.15124 -5.75865,-6.81132 -9.41406,-10.23046 -4.39087,-4.10708 -7.42429,-9.11596 -9.26563,-15.31641 -1.97114,-6.63772 -1.97787,-10.71334 -0.0215,-19.92383 1.087,-5.11753 1.67697,-9.54678 1.75586,-12.87695 0.0394,-1.66509 -0.0471,-3.0539 -0.27539,-4.13672 -0.22826,-1.08282 -0.5812,-1.89821 -1.24414,-2.31836 -0.94043,-0.59601 -2.142,-0.93405 -3.56055,-1.04297 z m -157.30274,0.21094 c -2.33118,-0.20436 -3.69434,-0.27855 -4.76171,0.0449 -1.06738,0.32347 -1.71456,1.07255 -2.47071,2.22656 -0.78105,1.19202 -1.22209,2.21539 -1.22461,4.26953 -0.003,2.05415 0.37838,5.18832 1.13282,10.91602 1.38202,10.49239 1.58488,17.11369 -0.38086,23.07617 -1.96574,5.96249 -6.12813,11.34662 -13.59571,19.31055 -4.2077,4.48737 -6.59279,7.12712 -7.92187,9.04492 -1.32908,1.9178 -1.59046,3.20292 -1.44727,4.66016 0.19594,1.99394 1.26539,3.67218 3.49219,5.19336 2.2268,1.52117 5.61559,2.95343 10.63672,4.64257 h 0.002 l 0.0723,0.0234 c 6.5e-4,2.2e-4 0.001,-2.2e-4 0.002,0 1.7636,0.59234 3.47859,1.13954 4.82422,1.54102 0.68316,0.20382 1.2722,0.37084 1.73047,0.49023 0.45827,0.11939 0.73944,0.19397 0.99609,0.20703 0.36785,0.0187 0.59928,-0.14718 0.86914,-0.34375 0.26987,-0.19657 0.55747,-0.463 0.86524,-0.78711 0.61554,-0.64822 1.30412,-1.52999 1.9375,-2.50781 1.16945,-1.80543 4.06463,-4.62622 6.29297,-6.09961 5.3916,-3.56492 13.02173,-3.69132 19.06445,-0.2832 1.93657,1.09222 3.08092,1.69212 4.1543,1.8418 1.07337,0.14967 1.97102,-0.21351 3.20507,-0.87305 1.97494,-1.05549 4.47465,-3.75464 6.85547,-6.98633 2.38082,-3.23169 4.59681,-6.98354 5.79492,-10.13672 1.17498,-3.09228 1.8267,-8.3712 1.96094,-13.41015 0.0671,-2.51948 2e-4,-4.97247 -0.21094,-7.04883 -0.21113,-2.07637 -0.54812,-3.76228 -1.11132,-4.83594 -0.55209,-1.05247 -1.189,-1.78905 -2.28321,-2.18555 -1.0942,-0.39649 -2.58334,-0.50587 -5.02148,-0.56836 -5.37141,-0.13767 -9.79746,-2.18443 -12.88867,-5.63281 -3.09122,-3.44838 -4.85357,-8.31438 -4.79883,-14.13281 l 0.0625,-6.57617 -5.41016,-2.35938 c -2.88769,-1.25844 -7.50242,-2.46459 -10.42383,-2.7207 z m 118.41407,0.0547 c -2.036,-0.22949 -3.40516,-0.27559 -4.66992,0.0508 -1.26477,0.32636 -2.36592,1.01462 -3.86524,2.1582 -4.18944,3.19545 -6.06331,8.44205 -4.68945,13.23242 1.10363,3.84813 2.73387,5.88883 6.66992,8.36914 4.27689,2.69511 10.24387,1.89935 14.14062,-1.83398 7.75247,-7.42733 3.14354,-20.7672 -7.58593,-21.97656 z m -83.87305,0.28711 c -2.28208,-0.0115 -4.42288,0.52803 -6.26367,1.54101 -3.68158,2.02596 -6.13867,5.95713 -6.13867,11.00977 0,2.80338 0.30243,4.86146 1.16797,6.55664 0.86553,1.69518 2.27921,2.97839 4.37109,4.2539 1.92768,1.1754 5.12809,2.01353 7.61133,2.01563 3.43452,0.003 5.15892,-0.74272 8.07422,-3.49219 1.56527,-1.47624 2.51172,-2.51733 3.05859,-3.75 0.54687,-1.23267 0.66211,-2.59019 0.66211,-4.64453 0,-5.62333 -1.95111,-10.01287 -5.42969,-11.72852 -2.40789,-1.18758 -4.8312,-1.75021 -7.11328,-1.76171 z m 122.67969,0.40625 c 1.31047,0.10148 2.37482,0.39994 3.13672,0.88281 0.28477,0.18048 0.62009,0.74458 0.82422,1.71289 0.20412,0.96831 0.29421,2.30095 0.25585,3.91992 -0.0767,3.23795 -0.65795,7.62621 -1.73632,12.70313 -1.96865,9.26822 -1.96091,13.64729 0.041,20.38867 1.88261,6.33943 5.01262,11.51913 9.52539,15.74023 3.61872,3.38483 6.92403,7.01687 9.3125,10.11719 1.19424,1.55016 2.1596,2.96794 2.81836,4.14453 0.65877,1.17659 0.99024,2.13668 0.99024,2.61719 0,2.18094 -1.10962,3.90413 -3.97266,5.58203 -2.86303,1.6779 -7.45835,3.21246 -14.16406,4.79883 -0.83279,0.19701 -1.48111,0.24099 -1.83985,0.18164 -0.17936,-0.0297 -0.2758,-0.0821 -0.30468,-0.10742 -0.0289,-0.0254 -0.0234,-0.009 -0.0234,-0.0684 0,-0.36549 -0.14942,-0.65967 -0.35547,-1.03516 -0.20605,-0.37549 -0.48997,-0.8051 -0.83594,-1.2793 -0.69193,-0.94838 -1.63084,-2.07089 -2.65039,-3.1914 -2.03909,-2.24102 -4.33674,-4.44798 -5.79883,-5.23047 -3.33642,-1.7856 -7.44595,-2.44224 -11.33203,-2.08985 -3.88607,0.3524 -7.55992,1.7101 -10.00586,4.04883 l -2.39648,2.29102 -2.67383,-1.90235 c -4.07005,-2.89812 -7.6774,-7.36707 -10.72266,-13.33007 -3.05222,-5.97665 -4.11065,-17.49462 -2.26562,-25.18555 l 1.13672,-4.73438 h 4.35547 c 10.16448,0 18.54492,-9.16338 18.54492,-20.17382 0,-2.39696 0.072,-3.63066 0.44922,-4.35938 0.37719,-0.72872 1.12034,-1.15759 2.75976,-1.93555 4.57123,-2.16918 8.81645,-3.59249 12.3125,-4.20507 1.74803,-0.30629 3.30476,-0.40227 4.61524,-0.30078 z m -157.30274,0.19335 c 2.7449,0.24064 7.37829,1.44863 10.12696,2.64649 l 4.83789,2.10742 -0.0566,5.95117 c -0.0566,6.01451 1.77163,11.12849 5.03906,14.77344 3.26743,3.64496 7.96905,5.80376 13.56836,5.94727 2.41661,0.0619 3.84756,0.19391 4.72461,0.51171 0.87704,0.31781 1.26285,0.77042 1.76953,1.73633 0.4377,0.83442 0.80225,2.47069 1.00781,4.49219 0.20556,2.0215 0.27132,4.44132 0.20508,6.92773 -0.13248,4.97283 -0.81329,10.23859 -1.90039,13.09961 -1.14866,3.02303 -3.33076,6.73697 -5.66992,9.91211 -2.33916,3.17515 -4.88177,5.82612 -6.54102,6.71289 -1.19722,0.63986 -1.82232,0.882 -2.6289,0.76954 -0.80658,-0.11247 -1.89979,-0.64424 -3.82227,-1.72852 -6.34666,-3.57954 -14.32358,-3.46588 -20.04688,0.31836 -2.37047,1.56737 -5.26301,4.35979 -6.56835,6.375 -0.60402,0.93249 -1.26562,1.77872 -1.82813,2.37109 -0.28126,0.29619 -0.53863,0.52788 -0.73633,0.67188 -0.19769,0.144 -0.35652,0.15933 -0.26367,0.16406 -0.0183,-9.3e-4 -0.36569,-0.0609 -0.80664,-0.17578 -0.44095,-0.11488 -1.02105,-0.28067 -1.69727,-0.48242 -1.35243,-0.40351 -3.08645,-0.95498 -4.86914,-1.55469 -4.98922,-1.67841 -8.32228,-3.10374 -10.40625,-4.52734 -2.08396,-1.42361 -2.91432,-2.77736 -3.08398,-4.50391 -0.12931,-1.31596 0.0254,-2.21435 1.2832,-4.0293 1.2578,-1.81495 3.63127,-4.45544 7.83399,-8.9375 7.49289,-7.99092 11.76589,-13.482 13.80273,-19.66015 2.03684,-6.17815 1.80904,-12.96468 0.42188,-23.4961 -0.75393,-5.72383 -1.12737,-8.85911 -1.125,-10.79297 0.002,-1.93385 0.32613,-2.61621 1.07031,-3.75195 0.72758,-1.11041 1.15628,-1.59582 1.95508,-1.83789 0.79879,-0.24207 2.09062,-0.21259 4.40429,-0.01 z m 118.39063,0.0527 c 9.9937,1.12643 14.24809,13.44496 7.03711,20.35351 -3.59579,3.44499 -9.11525,4.15372 -12.98242,1.7168 -3.84494,-2.4229 -5.20266,-4.12177 -6.26563,-7.82812 -1.26058,-4.39543 0.4522,-9.24502 4.35352,-12.22071 1.4672,-1.11908 2.44701,-1.71486 3.52929,-1.99414 1.08229,-0.27928 2.32596,-0.25301 4.32813,-0.0273 z m -83.76953,0.29101 c 2.13014,0.0109 4.40859,0.53723 6.69726,1.66602 3.02514,1.49201 4.90235,5.47615 4.90235,10.88086 0,2.01841 -0.11804,3.22026 -0.58008,4.26172 -0.46204,1.04146 -1.30225,1.98954 -2.84375,3.44336 -2.85135,2.68916 -4.11255,3.23929 -7.42578,3.23633 -2.26027,-0.002 -5.43008,-0.84705 -7.11914,-1.87696 -2.01407,-1.22806 -3.2566,-2.37888 -4.02149,-3.87695 -0.76489,-1.49807 -1.06445,-3.39229 -1.06445,-6.12695 0,-4.7491 2.2626,-8.31736 5.65039,-10.18164 1.6939,-0.93215 3.67454,-1.43668 5.80469,-1.42579 z M 403.64453,419 c -3.96486,-0.23129 -7.99512,0.44294 -10.93359,2.15625 -14.56255,8.49087 -14.01914,29.94638 0.95898,36.75 l 0.0937,0.043 h 0.041 c 4.95082,2.19718 12.42499,2.43606 17.08203,0.49023 4.54638,-1.8996 9.54948,-7.80132 11.11523,-13.02734 0.97112,-3.24133 0.98632,-5.55884 0.0781,-9.88867 -1.39065,-6.62999 -3.08664,-9.45208 -7.88672,-13.11328 -2.67915,-2.04349 -6.58397,-3.17887 -10.54883,-3.41016 z m 217.28516,0.33789 c -4.26809,0.20354 -8.66433,1.82522 -12.62891,5.21875 -4.9926,4.27349 -6.73339,9.05572 -6.16992,16.8457 0.50539,6.98689 3.43022,11.87158 9.42969,15.76172 5.02996,3.26149 11.55394,3.35812 17.22265,1.23242 5.66872,-2.12569 10.52366,-6.49034 12.17774,-12.25781 2.89894,-10.10807 -1.27078,-18.94436 -8.17188,-23.50781 -3.45055,-2.28173 -7.59129,-3.49651 -11.85937,-3.29297 z m -217.33985,0.60742 c 3.81912,0.22279 7.5712,1.34192 10.0293,3.2168 4.70528,3.5889 6.16383,6.01877 7.53516,12.55664 0.8946,4.26506 0.87941,6.293 -0.0586,9.42383 -1.45915,4.87021 -6.458,10.70673 -10.57226,12.42578 -4.3237,1.80655 -11.8283,1.58087 -16.46094,-0.52344 -14.30558,-6.49812 -14.83186,-26.93455 -0.875,-35.07226 2.70341,-1.57626 6.58322,-2.25014 10.40234,-2.02735 z m 217.39649,0.32031 c 4.06118,-0.19122 7.99082,0.97846 11.28125,3.1543 6.58085,4.35168 10.57811,12.72047 7.78515,22.45899 -1.55332,5.41617 -6.16533,9.59429 -11.60156,11.63281 -5.43623,2.03851 -11.65421,1.92165 -16.37695,-1.14063 -5.81851,-3.7728 -8.51085,-8.27479 -9,-15.03711 -0.55181,-7.62875 1.02522,-11.93578 5.8418,-16.05859 3.81621,-3.26654 8.00912,-4.81854 12.07031,-5.00977 z m -108.72656,34.61719 c -6.13717,0 -9.81252,1.42498 -14.01368,5.44141 -4.78765,4.57715 -6.57766,8.57824 -6.52343,14.61328 0.0742,8.25652 4.50463,15.38267 11.96679,19.26367 1.83009,0.9518 5.62796,1.61803 8.77149,1.6211 4.45066,0.005 6.7067,-0.63824 10.34765,-2.94727 6.80898,-4.31811 9.55636,-9.40016 9.56446,-17.67969 0.006,-5.80734 -0.45249,-7.47109 -3.08985,-11.26953 -3.85533,-5.5526 -10.4188,-9.04297 -17.02343,-9.04297 z m 0,0.94531 c 6.27001,0 12.57227,3.34555 16.24609,8.63672 2.59826,3.74213 2.92771,4.96628 2.92187,10.73047 -0.008,8.07814 -2.49569,12.67865 -9.125,16.88281 -3.56424,2.26039 -5.47424,2.80368 -9.83984,2.79883 -3.00061,-0.003 -6.84933,-0.73949 -8.33789,-1.51367 -7.17936,-3.73392 -11.38582,-10.50861 -11.45703,-18.43359 -0.0526,-5.85139 1.55218,-9.44929 6.23047,-13.92188 4.08774,-3.908 7.36429,-5.17969 13.36133,-5.17969 z m 67.92773,27.2754 c -1.33199,-0.1658 -2.67539,-0.11801 -3.97266,0.13476 -5.18904,1.01109 -9.66406,5.322 -9.66406,12.04102 0,5.9064 2.37382,10.04104 6.99414,12.05078 l 0.66016,0.28711 v -0.0469 c 3.66909,1.48663 5.87308,1.46074 9.78515,-0.17383 6.62654,-2.76873 9.39217,-10.17908 6.26758,-16.76367 -2.18628,-4.60725 -6.07435,-7.03191 -10.07031,-7.52929 z m -0.11914,0.92968 c 3.69092,0.44665 7.27962,2.67055 9.33594,7.00391 2.91633,6.14572 0.386,12.91308 -5.77735,15.48828 -4.06186,1.69716 -5.6845,1.6864 -9.70508,-0.0625 -4.30283,-1.87164 -6.42578,-5.52218 -6.42578,-11.18359 0,-6.30405 4.09979,-10.17788 8.90039,-11.11328 1.20015,-0.23386 2.44157,-0.2817 3.67188,-0.13282 z m -132.93945,1.02539 c -0.98093,-0.0471 -2.00072,-0.004 -3.05274,0.13672 -5.7302,0.76842 -9.2895,4.92201 -10.10351,9.69922 -0.81401,4.77721 1.08367,10.20256 6.08398,13.57227 1.99561,1.34484 3.78036,2.10252 5.68555,2.24414 1.90519,0.14162 3.89287,-0.32886 6.3125,-1.33985 4.31313,-1.80214 6.82617,-6.32497 6.82617,-12.0625 0,-4.01874 -1.57993,-7.35517 -4.23438,-9.52148 -1.99083,-1.62473 -4.57478,-2.58708 -7.51757,-2.72852 z M 447.08203,486 c 2.76165,0.13093 5.14439,1.03225 6.9668,2.51953 2.42988,1.98304 3.88672,5.01571 3.88672,8.78906 0,5.46535 -2.32718,9.55284 -6.24414,11.18946 -2.34613,0.98027 -4.17887,1.398 -5.88086,1.27148 -1.70199,-0.12651 -3.31015,-0.79446 -5.22657,-2.08594 -4.70329,-3.16955 -6.43321,-8.20665 -5.67968,-12.6289 0.75352,-4.42226 3.95624,-8.2057 9.29687,-8.92188 0.99809,-0.13384 1.96031,-0.17645 2.88086,-0.13281 z m 110.91602,12.05469 c -0.76266,0.0545 -1.7244,0.19909 -3.00196,0.37304 -13.77985,1.87631 -25.79892,10.60747 -32.43359,23.53907 l -1.85742,3.62109 4.65039,4.97266 c 3.81885,4.08267 5.90717,8.12526 6.33398,12.1582 0.42681,4.03294 -0.79519,8.09041 -3.72851,12.25195 l -3.37305,4.78516 2.28125,4.28906 c 1.21523,2.28562 4.00426,6.22356 6.26758,8.86719 1.52193,1.77766 2.73449,2.99249 3.86328,3.7793 1.12879,0.78681 2.19581,1.13671 3.31055,1.13671 1.90229,0 3.53422,-0.72897 5.3164,-2.79101 1.78218,-2.06204 3.80503,-5.45276 6.76758,-10.95703 8.81319,-16.37449 17.88054,-23.20207 33.57617,-25.32031 5.00459,-0.67542 8.84471,-1.33388 11.65625,-2.20508 2.81154,-0.87121 4.64461,-1.96612 5.47071,-3.60352 0.82609,-1.63739 0.55025,-3.6671 -0.54883,-6.20898 -1.09908,-2.54189 -3.0381,-5.65793 -5.71485,-9.59961 -1.92742,-2.83826 -3.47136,-4.68339 -4.80078,-5.60938 -0.66471,-0.46299 -1.30165,-0.71215 -1.92578,-0.64258 -0.62413,0.0696 -1.1484,0.48079 -1.51758,1.07813 0.0351,-0.0568 -0.1297,0.12104 -0.40234,0.27539 -0.27264,0.15435 -0.65454,0.33695 -1.10938,0.52734 -0.90966,0.38079 -2.11021,0.7962 -3.36132,1.14649 -3.95483,1.10728 -5.0973,1.05917 -9.70899,-0.39453 -5.82862,-1.83732 -11.6101,-7.58809 -12.68164,-12.4668 -0.16156,-0.73558 -0.28294,-1.30383 -0.48828,-1.77734 -0.20534,-0.47351 -0.54843,-0.86654 -1.03125,-1.05469 -0.48282,-0.18815 -1.04594,-0.22442 -1.80859,-0.16992 z m -88.8125,0.0898 c -1.22156,-0.15242 -2.10163,-0.15414 -2.81836,0.0645 -0.71674,0.2186 -1.22416,0.72216 -1.56055,1.39649 -0.33639,0.67433 -0.55943,1.5267 -0.85937,2.64062 -0.6319,2.34668 -2.17984,5.00857 -4.10743,7.28516 -1.92758,2.27659 -4.23932,4.16925 -6.3164,5.03711 -4.6026,1.92309 -11.49833,1.6131 -16.10742,-0.73828 l -4.47266,-2.28321 -2.09766,2.66016 c -2.32245,2.94535 -4.58414,6.70223 -6.20117,10.04297 -0.80851,1.67037 -1.45412,3.23407 -1.86523,4.55273 -0.41112,1.31867 -0.62136,2.36346 -0.41993,3.16602 0.21861,0.87098 0.50071,1.62386 1.03516,2.26953 0.53446,0.64567 1.30018,1.15715 2.41406,1.61328 2.22777,0.91226 5.90326,1.65365 12.45703,2.82813 12.77015,2.2885 21.56509,6.05195 26.43165,11.1914 1.62605,1.71724 5.58296,7.51853 8.6289,12.72266 3.0635,5.23413 6.48863,10.70466 7.72656,12.30078 1.28896,1.66191 3.19542,2.93359 4.77539,2.93359 0.90965,0 1.91559,-0.47165 3.03907,-1.22265 1.12347,-0.751 2.35291,-1.80313 3.59961,-3.0586 2.4934,-2.51092 5.05201,-5.82808 6.84961,-9.13085 l 2.88671,-5.30274 -2.7832,-2.91797 c -7.07359,-7.41572 -5.59298,-21.02417 3.00195,-27.28515 l 3.08204,-2.24414 -2.79297,-5.6875 c -5.82163,-11.8591 -15.97129,-19.65544 -28.65039,-21.99415 -2.08866,-0.38525 -3.65345,-0.68742 -4.875,-0.83984 z m 90.27929,0.96094 c 0.24887,0.097 0.36074,0.21418 0.50586,0.54883 0.14512,0.33464 0.27058,0.87216 0.43164,1.60547 1.18682,5.40355 7.13577,11.21393 13.32227,13.16406 4.65583,1.46762 6.23179,1.52877 10.24805,0.40429 1.28671,-0.36025 2.5144,-0.78524 3.4707,-1.18554 0.47815,-0.20015 0.88746,-0.39304 1.21094,-0.57617 0.32347,-0.18313 0.55848,-0.30553 0.74023,-0.59961 0.27262,-0.44111 0.52327,-0.60383 0.81836,-0.63672 0.29509,-0.0329 0.7222,0.0891 1.28125,0.47851 1.1181,0.77879 2.65766,2.56599 4.55859,5.36524 2.66558,3.92523 4.57938,7.01606 5.62891,9.44336 1.04954,2.4273 1.21779,4.12872 0.57227,5.4082 -0.64552,1.27948 -2.19943,2.28624 -4.90625,3.125 -2.70683,0.83876 -6.51686,1.49883 -11.50391,2.17188 -15.91811,2.14827 -25.39046,9.28994 -34.28125,25.80859 -2.95394,5.48827 -4.97384,8.84729 -6.65039,10.78711 -1.67655,1.93982 -2.91971,2.46484 -4.60156,2.46484 -0.92601,0 -1.75628,-0.26051 -2.76953,-0.96679 -1.01326,-0.70629 -2.18733,-1.86722 -3.68555,-3.61719 -2.21002,-2.58138 -5.00924,-6.5473 -6.15235,-8.69727 l -2.00781,-3.77539 3.03711,-4.31055 c 3.02955,-4.29805 4.35032,-8.60815 3.89649,-12.89648 -0.45384,-4.28833 -2.66976,-8.52045 -6.58399,-12.70508 l -4.19531,-4.48633 1.55469,-3.02929 c 6.50198,-12.67299 18.25634,-21.19986 31.7207,-23.03321 2.55354,-0.34769 3.84211,-0.45372 4.33984,-0.25976 z m -92.82031,0.008 c 0.963,-0.2937 3.06712,0.0303 7.24414,0.80078 12.4,2.28722 22.27192,9.86364 27.97461,21.48047 l 2.44141,4.97461 -2.43946,1.77734 c -9.07704,6.61218 -10.64305,20.82358 -3.1289,28.70118 l 2.30664,2.41796 -2.55664,4.69922 c -1.74425,3.20476 -4.26389,6.47144 -6.69141,8.91602 -1.21376,1.22229 -2.40507,2.23886 -3.45312,2.93945 -1.04806,0.70059 -1.96318,1.0625 -2.51368,1.0625 -1.00124,0 -2.88903,-1.09874 -4.02734,-2.5664 -1.10822,-1.42889 -4.60735,-6.98335 -7.66016,-12.19922 -3.07037,-5.24587 -6.93768,-10.97233 -8.75781,-12.89453 -5.09735,-5.38319 -14.07878,-9.16779 -26.95117,-11.47461 -6.54539,-1.17298 -10.21389,-1.93131 -12.26562,-2.77149 -1.02587,-0.42009 -1.63309,-0.84662 -2.04297,-1.34179 -0.40988,-0.49518 -0.64434,-1.0864 -0.84766,-1.89649 -0.10101,-0.40245 0.0159,-1.4022 0.40625,-2.6543 0.39037,-1.25209 1.02082,-2.7842 1.81445,-4.42382 1.58727,-3.27925 3.82681,-6.99471 6.0918,-9.86719 l 1.61719,-2.05078 3.78125,1.92968 c 4.91213,2.50598 11.96237,2.83082 16.90039,0.76758 2.29367,-0.95835 4.67403,-2.93694 6.67383,-5.29883 1.9998,-2.36188 3.61552,-5.10357 4.30078,-7.64843 0.29982,-1.11346 0.52791,-1.93352 0.79297,-2.46485 0.26505,-0.53132 0.50873,-0.76721 0.99023,-0.91406 z m 47.18945,32.45313 c -2.71938,-0.27212 -5.61824,0.33435 -8.34765,2.10546 -1.42151,0.92242 -2.76266,2.75018 -3.79883,4.79688 -1.03617,2.0467 -1.75195,4.30311 -1.75195,6.14062 0,1.76158 1.00842,3.99868 2.39843,6.06836 1.39002,2.06969 3.16228,3.94577 4.89063,4.82032 6.29346,3.18453 14.14952,0.65659 17.08398,-5.52735 2.78166,-5.8619 0.8254,-11.75319 -3.20117,-15.23828 -2.01328,-1.74254 -4.55405,-2.8939 -7.27344,-3.16601 z m -0.0762,0.92968 c 2.51429,0.25493 4.85748,1.33006 6.73047,2.95118 3.74598,3.24223 5.57096,8.62932 2.9668,14.11718 -2.69629,5.68202 -9.97441,8.04 -15.80469,5.08985 -1.46382,-0.7407 -3.20625,-2.52813 -4.5332,-4.50391 -1.32695,-1.97578 -2.23633,-4.16483 -2.23633,-5.54102 0,-1.58359 0.66136,-3.76317 1.64844,-5.71289 0.98707,-1.94971 2.31288,-3.68032 3.4707,-4.43164 2.55687,-1.65915 5.24352,-2.22367 7.75781,-1.96875 z m 66.19727,14.38672 c -4.39443,0 -6.43237,0.65245 -10.39258,3.33008 -5.39496,3.64771 -9.55375,10.33224 -9.59375,15.63867 -0.0657,8.72743 5.94571,17.67551 13.78125,20.44727 8.1153,2.87071 16.44442,0.90661 22.18945,-5.24414 3.6502,-3.90798 4.94141,-7.66989 4.94141,-14.31446 0,-6.34815 -1.53295,-9.84848 -6.31055,-14.41601 -4.29466,-4.10582 -7.89305,-5.44141 -14.61523,-5.44141 z m 0,0.94531 c 6.60314,0 9.77733,1.18005 13.96094,5.17969 4.68178,4.47593 6.01953,7.52836 6.01953,13.73242 0,6.52722 -1.1631,9.89467 -4.6875,13.66797 -5.50401,5.89271 -13.3856,7.75652 -21.1836,4.99805 -7.3698,-2.607 -13.21278,-11.26352 -13.15039,-19.54688 0.0362,-4.80352 4.04655,-11.39391 9.17774,-14.86328 3.9004,-2.63719 5.55467,-3.16797 9.86328,-3.16797 z m -133.7168,0.5586 c -5.83141,0.003 -7.47071,0.46116 -11.26367,3.12695 -5.76534,4.05204 -9.00169,9.80597 -9.02344,16.12305 -0.0302,8.78022 4.23597,15.78626 11.75781,19.25781 l 0.67188,0.30859 v -0.0937 c 5.31256,2.20025 12.33112,2.17404 17.03125,-0.23632 14.12487,-7.24366 15.42453,-26.14192 2.41601,-35.17578 -4.13239,-2.86979 -5.67707,-3.31356 -11.58984,-3.31055 z m 0,0.94531 c 5.87257,-0.003 6.9643,0.30273 11.05078,3.14063 12.47971,8.66663 11.24815,26.60729 -2.30664,33.55859 -4.53391,2.32512 -11.81124,2.34192 -16.87695,0.004 l -0.01,-0.006 c -7.20151,-3.32887 -11.22836,-9.91969 -11.19922,-18.39063 0.0206,-5.99774 3.0626,-11.4449 8.6211,-15.35156 3.73766,-2.62693 4.9317,-2.9517 10.7207,-2.95508 z M 263.27731,610.0939 c -2.51098,-0.23437 -5.17494,-0.16643 -7.71289,0.15625 -5.0759,0.64536 -9.6619,2.25482 -11.48828,4.89258 -0.46063,0.66528 -0.84001,1.39974 -1.10937,2.63672 -0.26937,1.23698 -0.44831,2.98768 -0.57422,5.80078 -0.25183,5.6262 -0.2817,15.51152 -0.28321,33.92578 l -0.006,39.85351 h 10.5664 10.56055 l 0.26953,-32.2832 0.24609,-29.54687 10.10743,23.7207 c 7.11092,16.69136 10.83256,25.36445 13.31054,30.17773 1.239,2.40665 2.16964,3.85517 3.07617,4.85938 0.90653,1.0042 1.7875,1.54293 2.82422,2.09961 l 0.10547,0.0566 h 0.0527 c 2.18525,1.13417 5.17401,1.80073 8.13867,1.80273 1.94573,10e-4 3.54585,-0.11365 5.01172,-0.70703 1.46587,-0.59337 2.76002,-1.66232 4.08593,-3.45898 2.65184,-3.59333 5.53135,-10.12896 10.61524,-22.24219 4.86297,-11.58705 10.54532,-25.36372 12.63476,-30.63086 l 2.89844,-7.30664 0.2461,30.28516 0.26953,33.17382 H 347.68359 358.25 v -38.76953 c 0,-20.42492 -0.0269,-30.90498 -0.67578,-36.82812 -0.32447,-2.96157 -0.80594,-4.80073 -1.55078,-6.16602 -0.74485,-1.36528 -1.74045,-2.21373 -2.97266,-3.18164 -0.9735,-0.76467 -2.53593,-1.27908 -4.4375,-1.65625 -1.90157,-0.37717 -4.13818,-0.59343 -6.41016,-0.64844 -4.54395,-0.11 -9.18465,0.38286 -11.63085,1.73243 -2.61402,1.44201 -3.81142,1.66542 -6.35157,6.76953 -2.54014,5.10411 -6.58613,15.17451 -15.38086,36.71484 -1.99873,4.89535 -3.87568,9.51995 -5.28906,13.0293 -1.41338,3.50935 -2.34297,5.83934 -2.51758,6.35351 -0.13015,0.38327 -0.3184,0.73592 -0.49218,0.9668 -0.0838,0.11137 -0.0546,0.0909 -0.10743,0.12891 -0.10337,-0.17412 -0.23436,-0.41451 -0.40039,-0.7461 -0.36152,-0.72201 -0.84952,-1.77937 -1.42578,-3.08593 -1.15252,-2.61314 -2.65813,-6.22424 -4.23437,-10.19532 -9.42911,-23.75519 -14.11924,-35.58521 -17.13477,-41.82422 -1.50777,-3.1195 -2.5991,-4.85311 -3.6875,-5.98242 -1.0884,-1.1293 -2.15861,-1.61494 -3.47656,-2.2207 -1.92812,-0.88618 -4.2859,-1.42188 -6.79688,-1.65625 z m 205.7168,0.0273 c -4.7426,-0.0224 -9.9579,0.064 -14.96875,0.23243 -5.01085,0.16846 -9.81453,0.42046 -13.73047,0.73437 -3.91593,0.31391 -6.91526,0.67605 -8.44726,1.11523 -11.25786,3.22735 -18.2273,9.05715 -21.97852,18.43555 -2.15542,5.38876 -3.01774,15.533 -2.80469,25.56836 0.21306,10.03536 1.48857,19.88231 3.87891,24.71094 3.89588,7.86988 12.73114,13.54147 25.25391,16.36133 4.23523,0.95367 14.16799,1.25533 23.91796,1.08398 4.87499,-0.0857 9.68852,-0.29348 13.68555,-0.61328 3.99703,-0.3198 7.14776,-0.73407 8.82617,-1.29492 2.0221,-0.6757 3.59489,-1.25524 4.8418,-2.09961 1.24691,-0.84437 2.1437,-1.97038 2.74609,-3.61133 1.20479,-3.28191 1.36634,-8.6134 1.54297,-18.72461 l 0.31641,-18.12891 h -10.53906 -10.53125 v 14.68946 13.77929 l -8.3125,0.63477 c -4.94769,0.37749 -10.64679,0.11073 -15.63086,-0.59961 -4.98407,-0.71034 -9.27738,-1.89524 -11.30078,-3.20508 -1.22648,-0.79396 -3.47119,-3.43289 -4.73633,-5.6875 -1.06149,-1.89166 -1.61858,-3.16274 -1.95313,-5.48828 -0.33455,-2.32554 -0.426,-5.7063 -0.48633,-11.66406 -0.0868,-8.5697 0.0587,-13.76511 0.76758,-17.31445 0.70893,-3.54935 1.93697,-5.45132 4.14258,-7.63282 2.76738,-2.73714 5.1219,-4.23553 9.88867,-5.07812 4.76677,-0.84259 11.93302,-0.97692 24.08985,-0.84961 l 20.95703,0.21875 0.31054,-7.25 0.31055,-7.24414 -7.92383,-0.66406 c -3.12054,-0.2613 -7.39021,-0.39161 -12.13281,-0.41407 z m 271.375,0.0156 c -2.88682,-0.10494 -5.9291,-0.0976 -9.12695,0.0215 -15.26575,0.56834 -23.66221,2.73685 -30.45117,8.02539 -5.03846,3.92495 -8.48674,8.85353 -10.50782,15.47657 -2.02081,6.62218 -2.64959,14.92315 -2.19726,25.75195 0.32935,7.88421 1.02373,13.47067 2.52539,17.93945 1.50205,4.46996 3.83753,7.78765 7.27929,10.99414 5.64486,5.25898 11.47139,8.07409 20.09571,9.73438 8.68203,1.67142 26.72646,1.65349 34.89648,-0.0508 12.93973,-2.69928 21.66246,-9.14718 26.17774,-19.48047 2.38581,-5.45991 3.40405,-14.76376 3.30078,-24.22266 -0.10328,-9.45912 -1.34053,-18.99639 -3.82422,-24.87109 -2.95297,-6.98486 -8.43042,-12.10331 -16.32031,-15.28711 -5.80409,-2.34212 -12.94881,-3.63769 -21.39258,-3.98438 v -0.0293 z m -225.89648,0.49609 -3.51954,2.85938 -3.60156,2.92968 -0.30273,40.26172 c -0.082,10.95265 -0.0989,21.04502 -0.0606,28.48633 0.0191,3.72064 0.0518,6.7777 0.0977,8.95313 0.0229,1.0876 0.0484,1.95354 0.0781,2.58007 0.0149,0.31278 0.0306,0.56663 0.0488,0.76758 v 0.002 c 0.01,0.10108 0.0209,0.18847 0.0332,0.26953 0.006,0.0383 0.0228,0.18533 0.0879,0.33984 0.23779,0.56375 0.75117,0.87869 1.28125,1.07813 0.53043,0.19956 1.17551,0.32739 2.00782,0.42773 1.66639,0.2009 4.09532,0.2793 7.59961,0.2793 h 10.4375 l 0.28906,-17.07813 0.25781,-15.25 7.32617,-0.23437 c 3.44084,-0.11039 5.53895,-0.1014 6.81836,0.0781 1.29069,0.18115 1.65422,0.4095 2.17969,0.98047 0.12534,0.1362 0.67147,0.80206 1.4082,1.74219 0.73724,0.94078 1.70877,2.19993 2.84571,3.68555 2.27389,2.97125 5.20582,6.8488 8.24609,10.9121 l 11.34766,15.16407 h 11.43554 c 3.02833,0 5.77945,-0.064 7.79102,-0.16797 1.00527,-0.052 1.82385,-0.11277 2.42187,-0.18555 0.29762,-0.0362 0.54167,-0.0728 0.75782,-0.12695 0.10311,-0.0259 0.22886,-0.0641 0.36132,-0.13086 0.0497,-0.0251 0.17892,-0.0956 0.28907,-0.20703 0.13824,-0.13995 0.28711,-0.3651 0.28711,-0.69336 0,-0.20919 -0.0775,-0.405 -0.0879,-0.43164 -0.0312,-0.08 -0.0653,-0.15728 -0.10547,-0.23438 -0.0785,-0.15088 -0.17606,-0.31176 -0.29297,-0.49804 -0.23593,-0.3759 -0.56005,-0.85495 -0.95899,-1.41993 -0.798,-1.13016 -1.8896,-2.59572 -3.08984,-4.13867 -5.21471,-6.7037 -10.12739,-13.20987 -13.73047,-18.14258 -1.80149,-2.46629 -3.27618,-4.5412 -4.29297,-6.04101 -0.50831,-0.74979 -0.90209,-1.35775 -1.1582,-1.78516 -0.0375,-0.0626 -0.0486,-0.0879 -0.0801,-0.14258 0.37883,-0.12395 1.01042,-0.22851 1.70117,-0.22851 1.02688,0 2.25581,-0.34847 3.58399,-0.86914 1.33091,-0.52173 2.73943,-1.23276 3.96875,-2.04297 3.93553,-2.59384 6.69968,-5.58906 8.41211,-9.50586 1.71196,-3.91575 2.38092,-8.69656 2.34375,-14.91602 -0.0656,-10.97429 -3.59164,-18.61241 -10.75782,-22.79882 -3.2702,-1.91043 -6.53289,-3.0699 -12.11718,-3.71485 -5.58341,-0.64485 -13.53279,-0.8125 -26.44922,-0.8125 z M 263.19138,611.045 c 2.43339,0.22824 4.6968,0.74108 6.48828,1.56445 1.32081,0.60708 2.2191,1.01077 3.18945,2.01758 0.97035,1.00682 2.02821,2.65684 3.51758,5.73828 2.97874,6.16289 7.67828,18.00646 17.10742,41.76172 1.57987,3.98022 3.08841,7.59729 4.24805,10.22657 0.57982,1.31464 1.07106,2.38147 1.44531,3.1289 0.18713,0.37372 0.34329,0.66585 0.47461,0.88086 0.0657,0.10751 0.12271,0.19464 0.18945,0.27539 0.0334,0.0404 0.0684,0.0798 0.125,0.125 0.0566,0.0452 0.13954,0.12158 0.33203,0.12305 0.49073,0.004 0.73838,-0.31058 0.98828,-0.64258 0.24991,-0.332 0.47012,-0.75712 0.63086,-1.23047 0.11628,-0.3424 1.0874,-2.79728 2.5,-6.30469 1.4126,-3.5074 3.28889,-8.13127 5.28711,-13.02539 8.79532,-21.54176 12.85618,-31.63228 15.35352,-36.65039 2.49734,-5.0181 3.26711,-4.87919 5.96094,-6.36523 2.06759,-1.14069 6.69739,-1.72304 11.15039,-1.61524 2.2265,0.0539 4.41957,0.26976 6.25,0.63282 1.83042,0.36306 3.30327,0.89623 4.03711,1.47265 1.21635,0.95546 2.07135,1.68964 2.72656,2.89063 0.65521,1.20099 1.12341,2.91389 1.44141,5.8164 0.63599,5.80504 0.66992,16.30063 0.66992,36.72461 v 37.82422 h -9.6211 -9.62304 l -0.26172,-32.23633 -0.26563,-32.70507 -0.91211,-0.17188 -3.79101,9.55859 c -2.08113,5.24618 -7.76576,19.02851 -12.62696,30.61133 -5.08129,12.10705 -7.98731,18.63416 -10.50585,22.04688 -1.25928,1.70636 -2.3973,2.62543 -3.67969,3.14453 -1.28239,0.5191 -2.74753,0.64002 -4.6543,0.63867 -2.88362,-0.002 -5.85079,-0.67183 -7.85156,-1.74609 -1.01151,-0.54315 -1.75237,-0.99432 -2.57031,-1.90039 -0.81795,-0.90608 -1.71424,-2.28785 -2.93555,-4.66016 -2.44263,-4.74461 -6.17264,-13.42474 -13.2832,-30.11523 l -10.99414,-25.8086 -0.90821,0.18164 -0.26562,31.81641 -0.26172,31.3457 h -9.62305 -9.62109 l 0.004,-38.90625 c 0.001,-18.41321 0.0354,-28.30663 0.28516,-33.88672 0.12488,-2.79004 0.30454,-4.50084 0.55273,-5.64062 0.2482,-1.13978 0.54445,-1.69642 0.9629,-2.30078 1.48774,-2.14868 5.8882,-3.86388 10.83007,-4.49219 2.47094,-0.31416 5.07442,-0.37081 7.50782,-0.14258 z m 205.80468,0.0234 c 4.72923,0.0226 8.97597,0.15269 12.05078,0.41016 l 7.01954,0.58593 -0.27149,6.33985 -0.26953,6.33398 -20.04297,-0.20898 c -12.16746,-0.12742 -19.35527,-0.004 -24.26367,0.86328 -4.9084,0.86762 -7.54935,2.52959 -10.38867,5.33789 -2.2805,2.25557 -3.66588,4.42218 -4.4043,8.11914 -0.73841,3.69696 -0.87402,8.92581 -0.78711,17.50976 0.0604,5.96355 0.1468,9.36105 0.4961,11.78907 0.34929,2.42802 0.98201,3.8874 2.06445,5.8164 1.33829,2.38496 3.49597,5.0136 5.04687,6.01758 2.3042,1.49161 6.63101,2.62783 11.68164,3.34766 5.05064,0.71983 10.79984,0.99166 15.83594,0.60742 l 9.18555,-0.70117 v -14.65625 -13.74414 h 9.58594 9.57812 l -0.30078,17.16797 c -0.17653,10.10529 -0.38942,15.42601 -1.48633,18.41406 -0.54845,1.49402 -1.2839,2.40618 -2.38867,3.1543 -1.10477,0.74811 -2.60316,1.31593 -4.60938,1.98632 -1.46379,0.48914 -4.63208,0.93046 -8.60156,1.24805 -3.96948,0.3176 -8.77001,0.52789 -13.6289,0.61328 -9.7178,0.17079 -19.73083,-0.17067 -23.69141,-1.0625 -12.35071,-2.78111 -20.89376,-8.33786 -24.61719,-15.85937 -2.21827,-4.48105 -3.56772,-14.34463 -3.77929,-24.31055 -0.21158,-9.96592 0.70309,-20.11398 2.73632,-25.19727 3.6526,-9.13182 10.29155,-14.70547 21.36133,-17.8789 1.34112,-0.38447 4.3689,-0.76982 8.26367,-1.08203 3.89478,-0.31222 8.68613,-0.56434 13.68555,-0.73243 4.99943,-0.16808 10.21023,-0.25113 14.93945,-0.22851 z m 262.28125,0.0352 c -7.59487,0.28275 -13.42387,0.95516 -18.17773,2.19921 4.75366,-1.24413 10.58286,-1.91646 18.17773,-2.19921 z m -358.67187,0.002 v 44.1444 44.14453 h 10.47265 10.47266 V 655.25 611.10547 h -10.47266 z m 237.63476,0 -3.05664,2.7832 c -1.83776,1.67206 -3.10424,3.78314 -3.16406,5.56445 -0.0256,0.76026 -0.0579,5.2789 -0.0937,12.05274 -0.0358,6.77384 -0.0749,15.76221 -0.10547,25.33203 -0.0538,16.85376 -0.0652,25.56882 0.18555,30.4082 0.12537,2.4197 0.31445,3.87489 0.61523,4.91602 0.30079,1.04113 0.73426,1.65922 1.24024,2.2793 1.18224,1.44882 3.16778,3.08192 4.61328,3.75781 0.57224,0.26757 1.47789,0.41835 2.9668,0.56445 1.4889,0.1461 3.53562,0.26314 6.25,0.35352 5.42874,0.18075 13.53029,0.25867 25.13671,0.26367 l 32.22266,0.0137 v -7.75195 -7.75 H 650.07812 624.05078 V 672.99219 662.0918 h 23.02734 23.97266 v -7.17969 -7.14258 l -8.39258,-0.66601 c -4.42128,-0.35088 -14.86922,-0.54641 -23.29297,-0.43946 L 624.53711,646.85352 624.26758,636.7207 624,626.60742 h 8.88672 c 5.17104,0 16.88083,-0.26869 26.04883,-0.59765 l 17.11523,-0.61329 v -7.13867 -7.15234 H 643 Z m 130.54883,0.0234 c 6.23224,0.2563 11.74736,1.02141 16.47852,2.35546 -4.73161,-1.33363 -10.24691,-2.09823 -16.47852,-2.35546 z m -185.22851,0.61328 c 4.28405,0.12196 7.64064,0.32302 10.39062,0.64062 2.74953,0.31756 4.89163,0.7532 6.74414,1.33985 -1.85232,-0.58659 -3.99463,-1.02034 -6.74414,-1.33789 -2.74948,-0.31756 -6.10795,-0.52051 -10.39062,-0.64258 z m 184.73828,0.28515 c 8.50493,0.31058 15.56614,1.61554 21.20898,3.89258 7.52463,3.0364 12.52922,7.74806 15.28711,14.27149 2.2805,5.39409 3.57421,14.85306 3.67578,24.15625 0.10158,9.30299 -1.00136,18.54319 -3.14258,23.44336 -4.27687,9.78767 -12.3056,15.77406 -24.83007,18.38671 -7.60473,1.58639 -25.9696,1.6183 -34.15235,0.043 -8.39604,-1.61635 -13.74453,-4.20694 -19.16601,-9.25781 -3.28241,-3.05803 -5.37162,-6.02961 -6.77735,-10.21289 -1.40533,-4.18211 -2.09954,-9.60626 -2.42578,-17.41602 -0.44756,-10.71488 0.1898,-18.81786 2.11328,-25.12109 1.92378,-6.30417 5.09567,-10.82314 9.86328,-14.53711 6.39446,-4.98122 14.24464,-7.06423 29.35938,-7.62695 3.15628,-0.11751 6.15141,-0.12499 8.98633,-0.0215 z m -366.74805,0.0234 h 9.52734 9.52735 V 655.25 698.44922 h -9.52735 -9.52734 V 655.25 Z m 237.05664,0 H 643 675.10547 v 6.20703 6.22656 l -16.20508,0.58008 c -9.15761,0.3286 -20.87552,0.59766 -26.01367,0.59766 h -9.85742 l 0.29492,11.08398 0.29297,11.06446 15.75976,-0.20118 c 8.39906,-0.10664 18.87612,0.0919 23.20703,0.43555 l 7.52149,0.59766 v 6.26953 6.23437 h -23.02735 -23.97265 v 11.84571 11.8457 h 26.97265 26.02735 v 6.80469 6.80664 l -31.27735,-0.0137 c -11.60233,-0.005 -19.69887,-0.0837 -25.10546,-0.26368 -2.7033,-0.09 -4.73427,-0.20505 -6.1875,-0.34765 -1.45324,-0.1426 -2.3539,-0.33727 -2.66016,-0.48047 -1.19846,-0.56038 -3.21513,-2.19349 -4.28125,-3.5 -0.48395,-0.59307 -0.80236,-1.03134 -1.06641,-1.94531 -0.26405,-0.91397 -0.45431,-2.31173 -0.57812,-4.70117 -0.24761,-4.77889 -0.23742,-13.50427 -0.1836,-30.35743 0.0305,-9.56924 0.0697,-18.55717 0.10547,-25.33007 0.0358,-6.77291 0.0698,-11.37104 0.0918,-12.0254 0.0446,-1.3275 1.16012,-3.35399 2.85547,-4.89648 z m -95.46094,0.47266 h 24.46485 c 12.89978,0 20.81455,0.17331 26.23047,0.79883 5.4169,0.62561 8.28736,1.6635 11.38086,3.4707 6.54665,3.8245 9.75898,10.59061 9.82226,21.17578 0.0363,6.07681 -0.63001,10.58603 -2.1875,14.14844 -1.55798,3.56352 -3.99567,6.23302 -7.7168,8.68554 -1.09796,0.72364 -2.41265,1.39033 -3.61914,1.86329 -1.20312,0.47163 -2.35639,0.73632 -2.89453,0.73632 -0.86801,0 -1.65984,0.11097 -2.30859,0.32618 -0.32153,0.10663 -0.62799,0.24194 -0.89844,0.45312 -0.28131,0.21965 -0.58789,0.59663 -0.58789,1.11133 0,0.35168 0.14718,0.59827 0.20313,0.71289 0.0898,0.18408 0.20347,0.38828 0.34765,0.62891 0.28854,0.48151 0.69718,1.11048 1.2168,1.87695 1.03896,1.53251 2.52274,3.61677 4.33203,6.09375 3.6187,4.9541 8.5382,11.47193 13.76367,18.18945 1.18464,1.52288 2.26113,2.97214 3.03516,4.06836 0.23542,0.33343 0.37805,0.55394 0.55078,0.8125 -0.49257,0.0477 -1.01228,0.0955 -1.77148,0.13477 -1.96247,0.10147 -4.69375,0.16601 -7.69532,0.16601 h -10.49023 l -10.77735,-14.40625 c -3.04407,-4.06841 -5.98228,-7.94923 -8.26171,-10.92773 -1.13964,-1.48914 -2.11457,-2.7527 -2.85938,-3.70313 -0.7442,-0.94966 -1.22719,-1.55691 -1.50195,-1.85547 -0.75304,-0.81825 -1.76034,-1.35888 -3.3086,-1.57617 -1.53817,-0.21586 -3.67734,-0.20496 -7.14257,-0.0937 l -9.125,0.29297 -0.28907,17.04883 -0.25586,15.2207 h -8.58007 c -3.47528,0 -5.87035,-0.0825 -7.37305,-0.26367 -0.74995,-0.0904 -1.2841,-0.21263 -1.57031,-0.32031 -0.10795,-0.0406 -0.14464,-0.0677 -0.1836,-0.0918 -8e-5,-8.9e-4 8e-5,-10e-4 0,-0.002 -0.0136,-0.15011 -0.0267,-0.38615 -0.041,-0.68555 -0.0283,-0.59603 -0.0554,-1.45094 -0.0781,-2.5293 -0.0456,-2.15704 -0.0785,-5.209 -0.0976,-8.92382 -0.0382,-7.42963 -0.0214,-17.51503 0.0605,-28.46094 l 0.29492,-39.3711 2.91407,-2.36718 z m 252.03516,5.1914 c 1.62026,1.00402 3.0866,2.12213 4.40234,3.35352 -1.31538,-1.23108 -2.78258,-2.3497 -4.40234,-3.35352 z m -184.99219,1.8711 c 1.28128,1.40728 2.34715,3.01864 3.20117,4.84375 -0.854,-1.82463 -1.92019,-3.43672 -3.20117,-4.84375 z m 154.98047,0.16992 c -1.73006,-0.0495 -3.56071,-0.0186 -5.49609,0.0918 -9.46928,0.53991 -15.82543,2.70454 -19.67969,8.0664 -3.85254,5.35949 -5.11914,13.59653 -5.11914,26.13867 0,11.10773 0.98032,18.66678 3.75977,23.93164 2.78125,5.26827 7.42236,8.06045 14.14453,9.48438 3.14648,0.66651 8.04883,0.76672 12.80078,0.49023 4.61261,-0.26838 8.92299,-0.88017 11.4414,-1.86523 h 0.1211 l 0.17578,-0.0742 c 4.90963,-2.06077 8.92378,-6.83883 10.61133,-12.49414 0.49892,-1.67194 0.80534,-4.52809 1.02343,-8.09766 0.21816,-3.57062 0.32267,-7.80948 0.31641,-12.02148 -0.006,-4.21201 -0.12475,-8.39454 -0.35351,-11.85742 -0.22865,-3.46115 -0.5269,-6.13878 -1.06055,-7.64844 -1.86346,-5.27174 -5.04153,-9.0903 -9.70508,-11.38867 -3.49639,-1.72315 -7.78989,-2.6073 -12.98047,-2.75586 z m -0.0273,0.94531 c 0.0244,7e-4 0.0421,0.007 0.0664,0.008 -1.71945,-0.0517 -3.54205,-0.0265 -5.48046,0.084 -4.67571,0.2666 -8.50861,0.92033 -11.62696,2.13867 3.11814,-1.21897 6.95127,-1.87208 11.62696,-2.13867 1.91177,-0.10903 3.71454,-0.14046 5.41406,-0.0918 z m 6.16601,0.67969 c 0.48242,0.0897 0.95788,0.19017 1.41797,0.29883 -0.46134,-0.10884 -0.93421,-0.20905 -1.41797,-0.29883 z m -11.52539,0.35742 c 7.55308,-0.43065 13.29931,0.3831 17.53125,2.46875 4.23377,2.08657 7.02257,5.40966 8.75977,10.32422 0.34973,0.98938 0.73219,3.73911 0.95703,7.14258 0.22496,3.40529 0.34145,7.55578 0.34766,11.73437 0.006,4.17864 -0.0996,8.38589 -0.31446,11.90235 -0.21478,3.51547 -0.56639,6.39944 -0.94726,7.67578 -1.53408,5.14099 -5.25625,9.4958 -9.53321,11.29101 -1.93343,0.81154 -6.46918,1.52275 -11.11328,1.79297 -4.64513,0.27028 -9.52012,0.13786 -12.30078,-0.45117 -6.41884,-1.35968 -10.34977,-3.75648 -12.86328,-8.51758 -2.51168,-4.75765 -3.54101,-12.0556 -3.54102,-23.04883 0,-12.41072 1.33884,-20.27534 4.76172,-25.03711 3.4247,-4.76427 9.01931,-6.75069 18.25586,-7.27734 z m -15.83984,3.46875 c -1.2173,0.91436 -2.27264,1.99325 -3.18164,3.25781 -0.59617,0.82937 -1.0365,1.87337 -1.51172,2.86914 0.47505,-0.9952 0.91388,-2.04016 1.50977,-2.86914 0.90955,-1.26532 1.96544,-2.34286 3.18359,-3.25781 z m -187.81055,1.42578 v 15.50977 15.53125 l 17.94727,-0.33594 17.36328,-0.32227 3.33984,-3.34375 c 3.21199,-3.21473 4.49629,-8.34554 4.20899,-13.20117 -0.28729,-4.85543 -2.14849,-9.56188 -5.77539,-11.77343 -1.47025,-0.8965 -2.98248,-1.44662 -5.78711,-1.72461 -2.80199,-0.27774 -6.96797,-0.33429 -14.10157,-0.33594 z m 1.89063,1.89063 15.30468,0.004 c 7.12325,0.002 11.27493,0.0644 13.91602,0.32618 2.64378,0.26205 3.69031,0.66753 4.98828,1.45898 2.82622,1.72333 4.60867,5.83234 4.8711,10.26758 0.26245,4.4355 -0.99258,9.08991 -3.65625,11.75586 l -2.80274,2.80468 -16.59961,0.3086 -16.02148,0.29492 v -13.60156 z m 247.64258,1.30078 c 1.19138,2.81859 2.10385,6.6012 2.73046,10.85156 -0.6268,-4.25072 -1.53875,-8.03279 -2.73046,-10.85156 z m -86.47852,4.11133 c -0.49308,1.6158 -0.90279,3.34138 -1.23242,5.1875 0.32969,-1.84603 0.7374,-3.56977 1.23047,-5.18555 2.5e-4,-8.4e-4 0.002,-10e-4 0.002,-0.002 z m 67.89844,1.16797 c 0.37067,1.40839 0.68891,3.4839 0.88867,6.50781 0.22687,3.4342 0.34362,7.59967 0.34961,11.79492 -0.006,-4.19464 -0.12474,-8.3614 -0.35156,-11.79492 -0.19971,-3.0231 -0.5159,-5.09789 -0.88672,-6.50781 z m -173.36133,17.39257 c -0.8174,1.86962 -1.87687,3.51236 -3.21094,5.00391 1.3332,-1.49138 2.39372,-3.13471 3.21094,-5.00391 z m 103.30664,6.87696 c 0.3278,7.8472 1.02283,13.35158 2.47656,17.67773 1.45334,4.32498 3.66651,7.47242 7.02735,10.60352 -3.361,-3.13125 -5.57602,-6.27869 -7.0293,-10.60352 -1.45368,-4.326 -2.1468,-9.83045 -2.47461,-17.67773 z m -120.78906,5.9707 c 0,0 0.0443,0.19815 0.0742,0.33203 -0.0605,0.007 -0.12308,0.0137 -0.12305,0.0137 5e-5,10e-6 -0.17193,-0.0567 -0.17188,-0.0566 5e-5,3e-5 -0.0957,-0.0684 -0.0957,-0.0684 5e-5,5e-5 -0.0489,-0.0548 -0.0488,-0.0547 10e-5,1.3e-4 -0.0308,-0.0507 -0.0371,-0.0606 0.0846,-0.0222 0.40235,-0.10547 0.40235,-0.10547 z m -0.35938,0.24805 h 0.002 c 0.0493,0.10095 0.13409,0.2466 0.21484,0.38672 -0.0806,-0.13997 -0.16794,-0.28663 -0.2168,-0.38672 z m 0.6211,1.0332 c 0.25044,0.39809 0.49878,0.79478 0.8789,1.35547 1.0274,1.51545 2.50596,3.59583 4.31055,6.0664 -1.80549,-2.47176 -3.28473,-4.55039 -4.3125,-6.0664 -0.38036,-0.56105 -0.6266,-0.95689 -0.87695,-1.35547 z m -22.27539,1.09961 c 0.21123,0.22952 0.71376,0.8509 1.45507,1.79687 0.74072,0.94521 1.71308,2.20768 2.85157,3.69532 -1.13837,-1.48748 -2.11262,-2.74791 -2.85352,-3.69336 -0.74053,-0.94497 -1.23969,-1.56672 -1.45312,-1.79883 z m 211.1875,9.39648 c -0.66094,1.21779 -1.43916,2.35401 -2.31055,3.38282 0.87111,-1.02848 1.64977,-2.16549 2.31055,-3.38282 z m -50.18165,16.59961 c 3.15277,1.52486 6.67734,2.61068 10.93165,3.42969 4.21872,0.81218 10.87722,1.21193 17.46679,1.20313 6.58958,-0.009 13.10991,-0.4267 17.05664,-1.25 -3.94684,0.82307 -10.46755,1.24094 -17.05664,1.25 -6.58992,0.009 -13.24811,-0.39097 -17.46679,-1.20313 -4.25432,-0.81901 -7.77909,-1.90442 -10.93165,-3.42969 z m -199.05468,3.88086 c 0.009,0.0598 0.0207,0.0937 0.0273,0.11328 h -0.002 c -0.0275,-0.0654 -0.01,-0.0108 -0.0254,-0.11328 z m 82.99804,0.92969 c -0.0924,0.0144 -0.14856,0.0309 -0.26367,0.0449 -0.27834,0.0339 -0.78411,0.0581 -1.17969,0.0879 0.3953,-0.0303 0.89907,-0.0559 1.17774,-0.0898 0.13476,-0.0163 0.19757,-0.0322 0.26562,-0.043 z" />
        </g>
      </g>
    </g>
  </g>
</svg>
