<?xml version="1.0" encoding="UTF-8" standalone="no"?>
<!-- Created with Inkscape (http://www.inkscape.org/) -->

<svg
   version="1.1"
   id="svg1"
   width="539.79126"
   height="358.01202"
   viewBox="0 0 539.79126 358.01202"
   sodipodi:docname="migreo.svg"
   inkscape:version="1.4.2 (f4327f4, 2025-05-13)"
   xmlns:inkscape="http://www.inkscape.org/namespaces/inkscape"
   xmlns:sodipodi="http://sodipodi.sourceforge.net/DTD/sodipodi-0.dtd"
   xmlns="http://www.w3.org/2000/svg"
   xmlns:svg="http://www.w3.org/2000/svg">
  <defs
     id="defs1">
    <linearGradient
       id="swatch240"
       inkscape:swatch="solid">
      <stop
         style="stop-color:#000000;stop-opacity:1;"
         offset="0"
         id="stop240" />
    </linearGradient>
  </defs>
  <sodipodi:namedview
     id="namedview1"
     pagecolor="#ffffff"
     bordercolor="#000000"
     borderopacity="0.25"
     inkscape:showpageshadow="2"
     inkscape:pageopacity="0.0"
     inkscape:pagecheckerboard="0"
     inkscape:deskcolor="#d1d1d1"
     inkscape:zoom="0.79589844"
     inkscape:cx="285.84049"
     inkscape:cy="486.87117"
     inkscape:window-width="1920"
     inkscape:window-height="1017"
     inkscape:window-x="-8"
     inkscape:window-y="-8"
     inkscape:window-maximized="1"
     inkscape:current-layer="g285" />
  <g
     inkscape:groupmode="layer"
     inkscape:label="Image"
     id="g1"
     transform="translate(-224.51418,-25.20269)">
    <g
       id="g284"
       transform="translate(-24.260134,-299.40257)">
      <path
         style="fill:none;stroke:#000000;stroke-width:0.945287;stroke-opacity:1"
         d="m 512.21713,363.85771 c -3.87978,-0.73611 -10.59457,-8.26123 -12.06822,-13.52458 -2.53561,-9.0563 0.47526,-17.44158 8.06647,-22.46521 3.55198,-2.35059 5.26278,-2.79002 10.86207,-2.79002 8.93953,0 14.07726,3.24278 17.71019,11.17814 3.0997,6.77064 2.6555,12.57228 -1.47342,19.24422 -4.58979,7.41667 -12.66162,10.33738 -23.09709,8.35745 z"
         id="path283" />
      <path
         style="fill:none;stroke:#000000;stroke-width:0.945287;stroke-opacity:1"
         d="m 554.57745,412.79248 c -3.89049,-2.45161 -5.3834,-4.32123 -6.4667,-8.09847 -1.31722,-4.5929 0.47604,-9.64008 4.52142,-12.72565 2.96652,-2.26267 4.15828,-2.5702 8.19644,-2.11504 10.36159,1.1679 14.79355,13.99629 7.31183,21.16423 -3.74627,3.58916 -9.49096,4.34094 -13.56299,1.77493 z"
         id="path282" />
      <path
         style="fill:none;stroke:#000000;stroke-width:0.945287;stroke-opacity:1"
         d="m 470.39127,412.62767 c -4.10594,-2.50357 -5.31382,-4.86925 -5.31382,-10.4073 0,-9.80173 9.44218,-14.99772 18.83531,-10.36498 3.25186,1.60383 5.16469,5.79075 5.16469,11.30477 0,4.07275 -0.46443,5.1196 -3.5712,8.04966 -2.88332,2.71932 -4.37612,3.36736 -7.75,3.36434 -2.37175,-0.002 -5.55661,-0.84384 -7.36498,-1.94649 z"
         id="path281" />
      <path
         style="fill:none;stroke:#000000;stroke-width:0.945287;stroke-opacity:1"
         d="m 508.39174,418.78575 c -2.85214,-1.02135 -7.01759,-3.06927 -9.25656,-4.55095 l -4.07085,-2.69396 0.63408,-5.39498 c 0.98281,-8.36216 -0.15174,-12.15137 -5.1284,-17.12803 -3.0143,-3.0143 -5.80647,-4.74198 -8.93814,-5.53054 l -4.55442,-1.14682 v -10.15878 c 0,-11.10302 1.27451,-14.60892 5.3067,-14.59767 1.20632,0.003 8.2683,2.97246 15.6933,6.59798 20.22929,9.87766 21.20944,9.84999 44.8527,-1.26639 6.24398,-2.93574 11.97111,-5.33771 12.72695,-5.33771 0.75583,0 2.11036,1.12345 3.01005,2.49656 2.15022,3.28165 3.12885,21.3559 1.18635,21.91062 -0.70183,0.20043 -3.21397,0.89148 -5.58254,1.53568 -9.53369,2.59296 -15.29906,12.8037 -13.07775,23.16131 1.06053,4.94509 0.99675,5.30469 -1.24908,7.04204 -7.41253,5.73425 -22.78676,8.20058 -31.55239,5.06164 z"
         id="path280" />
      <path
         style="fill:none;stroke:#000000;stroke-width:0.945287;stroke-opacity:1"
         d="m 618.48678,439.99009 c -5.90899,-3.83147 -8.71754,-8.52509 -9.21481,-15.39969 -0.55764,-7.70937 1.10142,-12.254 6.00601,-16.45215 15.56158,-13.32014 37.59064,1.2469 31.89874,21.09349 -3.2074,11.18364 -18.93724,17.08211 -28.68994,10.75835 z"
         id="path279" />
      <path
         style="fill:none;stroke:#000000;stroke-width:0.945287;stroke-opacity:1"
         d="m 400.53608,440.69824 c -14.64185,-6.65087 -15.17674,-27.59708 -0.91704,-35.91137 5.64189,-3.28957 15.82028,-2.69581 20.95753,1.22256 4.75268,3.62505 6.33,6.25036 7.71099,12.83429 0.9014,4.29745 0.88596,6.47015 -0.0686,9.65623 -1.51245,5.04812 -6.51344,10.91758 -10.84376,12.72691 -4.50958,1.88422 -12.04824,1.64756 -16.83911,-0.52862 z"
         id="path278" />
      <path
         style="fill:none;stroke:#000000;stroke-width:0.945287;stroke-opacity:1"
         d="m 604.07745,472.68919 c 0,-1.47018 -6.78281,-8.92468 -9.39022,-10.32013 -6.47157,-3.46348 -16.1087,-2.58956 -20.78853,1.88516 l -2.67875,2.56134 -2.99242,-2.1308 c -4.14943,-2.95465 -7.79871,-7.48701 -10.8692,-13.49942 -3.14176,-6.15196 -4.18285,-17.67916 -2.30404,-25.51091 l 1.22264,-5.09653 h 4.72882 c 9.87964,0 18.0717,-8.93099 18.0717,-19.70178 0,-4.80581 0.1815,-5.15646 3.47898,-6.72122 9.20226,-4.36676 17.11638,-5.75348 20.52102,-3.59572 1.89544,1.20127 1.71923,8.63965 -0.44615,18.8341 -1.96252,9.23936 -1.95613,13.46698 0.0304,20.15653 1.86197,6.26994 4.94447,11.364 9.39629,15.52809 7.27413,6.80398 13.26941,14.58608 13.26941,17.22418 0,4.70045 -5.05047,7.66031 -18.5,10.84207 -1.73398,0.41021 -2.75,0.24212 -2.75,-0.45496 z"
         id="path277" />
      <path
         style="fill:none;stroke:#000000;stroke-width:0.945287;stroke-opacity:1"
         d="m 426.07745,472.26454 c -10.01036,-3.36755 -13.44391,-5.71309 -13.8095,-9.43359 -0.27251,-2.77319 0.8323,-4.36738 9.24272,-13.33681 14.96047,-15.95485 16.86998,-21.74679 14.1008,-42.7706 -1.50836,-11.45153 -1.50703,-12.53789 0.0182,-14.86564 1.48372,-2.26443 2.15177,-2.46688 6.79663,-2.0597 2.83315,0.24837 7.45697,1.45642 10.27515,2.68457 l 5.12397,2.23299 -0.0589,6.26358 c -0.11133,11.83294 7.17626,19.96255 18.14698,20.24373 4.85475,0.12443 5.84049,0.48162 6.89926,2.5 2.00181,3.81616 1.59851,18.95498 -0.66357,24.90829 -2.34678,6.1762 -8.79625,14.93064 -12.43044,16.87291 -2.43128,1.29939 -3.04602,1.21367 -6.90507,-0.96284 -6.19469,-3.49383 -13.99836,-3.3738 -19.55581,0.30078 -2.29941,1.52038 -5.19316,4.32731 -6.43056,6.23763 -1.23739,1.91031 -2.69981,3.45036 -3.24981,3.42233 -0.55,-0.028 -3.925,-1.03497 -7.5,-2.23763 z"
         id="path276" />
      <path
         style="fill:none;stroke:#000000;stroke-width:0.945287;stroke-opacity:1"
         d="m 510.57745,477.00531 c -7.32076,-3.80746 -11.64024,-10.75874 -11.71294,-18.84949 -0.0534,-5.94321 1.64465,-9.74172 6.37762,-14.26659 4.14445,-3.96222 7.62143,-5.31133 13.68853,-5.31133 6.43732,0 12.86884,3.41809 16.63342,8.83998 2.61781,3.77028 3.01249,5.21423 3.00663,11 -0.008,8.17883 -2.62642,13.02016 -9.34556,17.2813 -3.6026,2.28471 -5.68535,2.87745 -10.09348,2.87256 -3.07207,-0.003 -6.8949,-0.70344 -8.55422,-1.56643 z"
         id="path275" />
      <path
         style="fill:none;stroke:#000000;stroke-width:0.945287;stroke-opacity:1"
         d="m 580.40293,490.11877 c -4.46158,-1.94069 -6.71009,-5.83369 -6.71009,-11.6176 0,-13.02306 17.1509,-16.36493 22.8077,-4.44411 3.02046,6.36515 0.37328,13.4545 -6.02166,16.12647 -4.11032,1.7174 -6.00684,1.70521 -10.07595,-0.0648 z"
         id="path274" />
      <path
         style="fill:none;stroke:#000000;stroke-width:0.945287;stroke-opacity:1"
         d="m 446.9899,491.29788 c -9.70361,-6.53926 -7.25215,-20.92626 3.81868,-22.41086 8.20043,-1.09968 14.26887,3.85281 14.26887,11.64491 0,5.60144 -2.41925,9.90537 -6.5343,11.62475 -4.76576,1.99126 -7.64122,1.77752 -11.55325,-0.8588 z"
         id="path273" />
      <path
         style="fill:none;stroke:#000000;stroke-width:0.945287;stroke-opacity:1"
         d="m 514.10747,538.29859 c -3.19217,-1.61525 -7.03002,-7.32968 -7.03002,-10.46744 0,-3.42111 2.75682,-8.86652 5.33615,-10.54025 10.57256,-6.86053 23.52428,4.34949 18.13846,15.69926 -2.81538,5.93298 -10.38272,8.37577 -16.44459,5.30843 z"
         id="path272" />
      <path
         style="fill:none;stroke:#000000;stroke-width:0.945287;stroke-opacity:1"
         d="m 540.1664,555.8279 c -2.23667,-2.6125 -5.03145,-6.56455 -6.21062,-8.78234 l -2.14396,-4.03234 3.2051,-4.5471 c 5.96287,-8.45959 5.08668,-16.7387 -2.6464,-25.006 l -4.42358,-4.72916 1.7067,-3.32653 c 6.56833,-12.80229 18.45457,-21.43103 32.07668,-23.28586 5.10865,-0.69561 5.15845,-0.6762 5.8037,2.26159 1.12918,5.14113 6.99421,10.92241 13.00177,12.81613 4.63376,1.46066 5.99341,1.51505 9.97895,0.39917 2.53783,-0.71055 4.8542,-1.68018 5.14749,-2.15473 1.28358,-2.07688 3.62264,-0.44765 7.451,5.18986 10.68464,15.73382 9.4475,18.18594 -10.53578,20.88285 -15.80687,2.13326 -25.07674,9.11789 -33.92873,25.56446 -5.91649,10.99255 -8.08363,13.5 -11.66778,13.5 -2.04074,0 -3.79439,-1.22236 -6.81454,-4.75 z"
         id="path271" />
      <path
         style="fill:none;stroke:#000000;stroke-width:0.945287;stroke-opacity:1"
         d="m 488.0967,557.8279 c -1.17308,-1.5125 -4.63501,-7.025 -7.69316,-12.25 -3.05816,-5.225 -6.9701,-10.98886 -8.69319,-12.80858 -4.98195,-5.26132 -13.87081,-9.03539 -26.69208,-11.33305 -13.09916,-2.34745 -14.68666,-2.99752 -15.5305,-6.35966 -0.60488,-2.41002 3.81244,-11.53607 8.39988,-17.3539 l 1.85709,-2.35519 4.12652,2.10519 c 4.76061,2.42868 11.73362,2.74731 16.50393,0.75415 4.37075,-1.82622 9.38157,-7.74429 10.69873,-12.63583 1.19953,-4.45475 1.21554,-4.45963 9.56987,-2.91865 12.53955,2.31296 22.55082,9.999 28.31298,21.73696 l 2.6172,5.33144 -2.76,2.01051 c -8.83599,6.43658 -10.35919,20.34696 -3.06532,27.99362 l 2.54396,2.66701 -2.72199,5.0012 c -3.54185,6.50754 -10.15263,13.16478 -13.07291,13.16478 -1.29061,0 -3.18738,-1.18521 -4.40101,-2.75 z"
         id="path270" />
      <path
         style="fill:none;stroke:#000000;stroke-width:0.945287;stroke-opacity:1"
         d="m 580.57745,569.07515 c -7.60267,-2.68938 -13.53031,-11.49186 -13.46625,-19.99725 0.0381,-5.05498 4.12246,-11.69146 9.38553,-15.25 3.93031,-2.65741 5.77712,-3.25 10.12864,-3.25 6.66266,0 10.04827,1.2586 14.2874,5.31133 4.72969,4.52173 6.16468,7.7978 6.16468,14.07391 0,6.58589 -1.22632,10.15022 -4.81362,13.99086 -5.62452,6.02173 -13.72973,7.93574 -21.68638,5.12115 z"
         id="path269" />
      <path
         style="fill:none;stroke:#000000;stroke-width:0.945287;stroke-opacity:1"
         d="m 444.57745,569.68786 c -7.36538,-3.39934 -11.51323,-10.19995 -11.48355,-18.82784 0.0212,-6.15741 3.16071,-11.75728 8.82263,-15.73663 3.76531,-2.64636 5.18131,-3.0382 10.99152,-3.04159 5.89267,-0.003 7.21108,0.37227 11.32052,3.22611 12.74411,8.85025 11.47855,27.26983 -2.36128,34.36731 -4.71147,2.41618 -12.07041,2.42156 -17.28984,0.0126 z"
         id="path268" />
    </g>
    <g
       id="g285"
       transform="translate(-17.590188,-316.18002)">
      <g
         id="g286">
        <path
           style="fill:none;stroke:#000000;stroke-width:0.945287;stroke-opacity:1"
           d="m 293.28794,695.97081 c -4.09647,-2.19965 -4.77872,-3.5247 -19.00021,-36.90655 l -10.99479,-25.80878 -0.26541,31.81601 -0.2654,31.81599 h -10.09254 -10.09253 l 0.004,-39.38061 c 0.003,-36.82748 0.12563,-39.55667 1.88377,-42.09596 3.31412,-4.78644 17.97301,-6.65011 25.41219,-3.23101 5.27754,2.42567 5.19819,2.26139 24.05644,49.77185 3.15611,7.95129 6.02645,14.45913 6.3783,14.46181 0.35222,0.003 0.87804,-0.69596 1.16894,-1.55257 0.29089,-0.85658 3.79893,-9.56706 7.79589,-19.35653 17.59004,-43.08209 16.21607,-40.32145 21.52392,-43.2495 4.5138,-2.49026 18.54347,-2.1506 21.95814,0.53158 4.89713,3.84674 5.01841,4.95528 5.01841,45.80419 v 38.29675 H 347.6843 337.59145 l -0.2651,-32.70595 -0.2651,-32.70588 -3.79145,9.55778 c -2.08529,5.25666 -7.76929,19.03617 -12.63137,30.62111 -10.16518,24.22028 -11.57085,26.12495 -19.27586,26.11951 -2.95534,-0.002 -5.97641,-0.67674 -8.07448,-1.80324 z"
           id="path284" />
        <path
           style="fill:none;stroke:#000000;stroke-width:0.945287;stroke-opacity:1"
           d="m 610.67416,697.7712 c -1.32198,-0.61813 -3.32339,-2.25108 -4.44757,-3.62875 -1.97986,-2.4263 -2.04048,-3.59625 -1.93282,-37.30316 0.0611,-19.13907 0.15003,-35.95572 0.19757,-37.37033 0.0522,-1.55441 1.24294,-3.62427 3.0095,-5.23154 l 2.92307,-2.65952 h 32.57692 32.5769 v 6.68087 6.68087 l -16.6597,0.5978 c -9.1628,0.32878 -20.8771,0.59779 -26.0317,0.59779 h -9.37204 l 0.28174,10.5982 0.28173,10.5982 15.29357,-0.19419 c 8.4114,-0.1068 18.8739,0.09 23.25,0.43729 l 7.9564,0.63147 v 6.70627 6.70626 h -23.5 -23.49997 v 11.37292 11.37292 h 26.49997 26.5 v 7.27866 7.27867 l -31.75,-0.0134 c -23.20876,-0.01 -32.39657,-0.31576 -34.15357,-1.1373 z"
           id="path267" />
        <path
           style="baseline-shift:baseline;display:inline;overflow:visible;vector-effect:none;enable-background:accumulate;stop-color:#000000;stop-opacity:1;opacity:1"
           d="m 528.60547,627.10547 v 15.03711 15.04883 l 17.46484,-0.32618 17.17383,-0.31836 3.20508,-3.20898 c 3.07702,-3.07965 4.35148,-8.08782 4.07031,-12.83984 -0.28117,-4.75203 -2.11814,-9.30458 -5.54883,-11.39649 -1.42361,-0.86806 -2.82568,-1.38441 -5.58789,-1.6582 -2.7622,-0.27379 -6.92364,-0.33234 -14.05469,-0.33399 z m 0.94531,0.94531 15.77734,0.004 c 7.12586,0.002 11.2811,0.0623 13.9629,0.32812 2.68179,0.26582 3.85018,0.70995 5.1875,1.52539 3.03058,1.84794 4.82891,6.10256 5.09765,10.64453 0.26875,4.54198 -0.99199,9.31187 -3.79492,12.11719 l -2.9375,2.93945 -16.79102,0.3125 -16.50195,0.30469 v -14.08398 z"
           id="path266" />
        <path
           style="baseline-shift:baseline;display:inline;overflow:visible;vector-effect:none;enable-background:accumulate;stop-color:#000000;stop-opacity:1;opacity:1"
           d="m 514.64062,611.10547 -3.38867,2.7539 -3.42968,2.78907 -0.30079,40.03906 c -0.082,10.95096 -0.0988,21.04207 -0.0605,28.48047 0.0191,3.7192 0.0518,6.77449 0.0976,8.94531 0.0229,1.08541 0.0487,1.94957 0.0781,2.56836 0.0147,0.3094 0.0298,0.55723 0.0469,0.74609 0.009,0.0944 0.0186,0.17379 0.0293,0.24414 0.0107,0.0704 0.0103,0.11662 0.0566,0.22657 0.16761,0.39738 0.53924,0.64255 1.01172,0.82031 0.47248,0.17776 1.08537,0.30237 1.89844,0.40039 1.62612,0.19604 4.04583,0.27539 7.54297,0.27539 h 9.97265 l 0.28125,-16.61328 0.26563,-15.70117 7.77539,-0.24805 c 3.44735,-0.1106 5.5546,-0.10684 6.90039,0.082 1.34579,0.18888 1.88899,0.50743 2.46094,1.12891 0.16917,0.18383 0.69257,0.82837 1.43164,1.77148 0.73907,0.94312 1.71196,2.20291 2.84961,3.68946 2.2753,2.97309 5.20879,6.85145 8.25,10.91601 l 11.20507,14.97461 h 11.19922 c 3.02159,0 5.76816,-0.0646 7.76758,-0.16797 0.99971,-0.0517 1.81153,-0.1114 2.38867,-0.18164 0.28858,-0.0351 0.51581,-0.0712 0.69922,-0.11719 0.0917,-0.023 0.16928,-0.0461 0.26367,-0.0937 0.0472,-0.0238 0.10109,-0.0515 0.16602,-0.11718 0.0649,-0.0657 0.15039,-0.19577 0.15039,-0.36133 0,-0.14275 -0.0301,-0.1968 -0.0547,-0.25977 -0.0246,-0.063 -0.0519,-0.12217 -0.0859,-0.1875 -0.068,-0.13065 -0.15937,-0.28311 -0.27343,-0.46484 -0.22813,-0.36347 -0.54933,-0.83763 -0.94532,-1.39844 -0.79196,-1.12161 -1.87977,-2.58308 -3.07617,-4.12109 -5.2174,-6.70715 -10.13129,-13.21624 -13.73828,-18.1543 -1.80349,-2.46903 -3.28045,-4.54678 -4.30273,-6.05469 -0.51114,-0.75395 -0.90942,-1.36734 -1.17383,-1.80859 -0.13221,-0.22063 -0.23099,-0.39849 -0.29102,-0.52148 -0.06,-0.123 -0.0586,-0.2457 -0.0586,-0.0918 0,0.0643 -0.0362,0.0677 0.043,0.006 0.0792,-0.0618 0.24632,-0.15018 0.4707,-0.22461 0.44876,-0.14886 1.1223,-0.25391 1.86328,-0.25391 0.91446,0 2.11193,-0.32625 3.41211,-0.83594 1.30019,-0.50968 2.68411,-1.20929 3.88086,-1.99804 3.88136,-2.55813 6.56486,-5.47321 8.23828,-9.30078 1.67342,-3.82758 2.34165,-8.54064 2.30469,-14.72461 -0.065,-10.87567 -3.51374,-18.29758 -10.52344,-22.39258 -3.22493,-1.88398 -6.39191,-3.01427 -11.93359,-3.6543 -5.54168,-0.64003 -13.48221,-0.80859 -26.39453,-0.80859 z m 0.33594,0.94531 h 24.63477 c 12.90399,0 20.8272,0.17237 26.28515,0.80274 5.45796,0.63036 8.42786,1.69887 11.56446,3.53125 6.69995,3.91405 9.99278,10.90096 10.05664,21.58203 0.0365,6.11259 -0.63036,10.68888 -2.22656,14.33984 -1.59621,3.65096 -4.11648,6.40316 -7.89063,8.89063 -1.13111,0.74548 -2.46913,1.42293 -3.70703,1.9082 -1.2379,0.48526 -2.39489,0.76953 -3.06641,0.76953 -0.8265,0 -1.5758,0.10889 -2.16015,0.30273 -0.29218,0.0969 -0.54558,0.21276 -0.75586,0.37696 -0.21029,0.16419 -0.40625,0.41399 -0.40625,0.73828 0,0.26286 0.0741,0.34156 0.15429,0.50586 0.0802,0.16429 0.18969,0.35946 0.33008,0.59375 0.28078,0.46857 0.68449,1.09138 1.20117,1.85351 1.03337,1.52426 2.51488,3.60571 4.32227,6.08008 3.61479,4.94875 8.53307,11.46367 13.75586,18.17774 1.1886,1.52798 2.26886,2.9813 3.04883,4.08593 0.38998,0.55232 0.70569,1.01922 0.91797,1.35743 0.0312,0.0496 0.0418,0.0733 0.0684,0.11718 -0.0887,0.014 -0.13412,0.0272 -0.24805,0.041 -0.53632,0.0653 -1.33487,0.12668 -2.32227,0.17773 -1.97479,0.10211 -4.71049,0.16602 -7.71875,0.16602 h -10.72656 l -10.91992,-14.5957 c -3.04308,-4.06708 -5.9797,-7.94706 -8.25781,-10.92383 -1.13906,-1.48839 -2.11271,-2.7514 -2.85547,-3.69922 -0.74276,-0.94782 -1.23552,-1.56213 -1.47852,-1.82617 -0.68662,-0.74609 -1.55235,-1.22073 -3.02734,-1.42774 -1.47499,-0.207 -3.60096,-0.20083 -7.06055,-0.0898 l -8.67578,0.27734 -0.28125,16.59961 -0.26367,15.68555 h -9.04492 c -3.48264,0 -5.8854,-0.0814 -7.42969,-0.26758 -0.77214,-0.0931 -1.32939,-0.21586 -1.67969,-0.34766 -0.3503,-0.13179 -0.4533,-0.25685 -0.47266,-0.30273 0.0289,0.0684 0.0119,0.0379 0.006,-0.002 -0.006,-0.0398 -0.014,-0.10489 -0.0215,-0.1875 -0.015,-0.16522 -0.0286,-0.40336 -0.043,-0.70508 -0.0287,-0.60344 -0.0553,-1.46214 -0.0781,-2.54297 -0.0457,-2.16167 -0.0785,-5.21537 -0.0977,-8.93164 -0.0382,-7.43253 -0.0215,-17.5192 0.0605,-28.4668 l 0.29687,-39.59375 3.08594,-2.50781 z"
           id="path265" />
        <path
           style="fill:none;stroke:#000000;stroke-width:0.945287;stroke-opacity:1"
           d="m 373.07745,655.2499 v -43.672 h 10 10 v 43.672 43.672 h -10 -10 z"
           id="path264" />
        <path
           style="baseline-shift:baseline;display:inline;overflow:visible;vector-effect:none;enable-background:accumulate;stop-color:#000000;stop-opacity:1;opacity:1"
           d="m 737.15625,620.22852 c -1.71479,-0.0491 -3.5315,-0.0179 -5.45508,0.0918 -9.41032,0.53655 -15.57799,2.65756 -19.32422,7.86914 -3.74622,5.21158 -5.02929,13.35345 -5.02929,25.86328 0,11.07951 0.99196,18.57173 3.70507,23.71094 2.71312,5.13921 7.17973,7.83471 13.82422,9.24219 3.05687,0.64753 7.94988,0.75544 12.67578,0.48047 4.65431,-0.27081 9.05359,-0.90339 11.4336,-1.86524 h 0.0605 l 0.0879,-0.0371 c 4.75282,-1.99495 8.69234,-6.66574 10.34179,-12.19336 0.47077,-1.57758 0.78658,-4.43505 1.00391,-7.99218 0.21733,-3.55713 0.32265,-7.78856 0.3164,-11.99219 -0.006,-4.20363 -0.12374,-8.37763 -0.35156,-11.82617 -0.22781,-3.44854 -0.54399,-6.13202 -1.03515,-7.52149 -1.83147,-5.18124 -4.91393,-8.87826 -9.46875,-11.12304 -3.41612,-1.68359 -7.64079,-2.55979 -12.78516,-2.70703 z m -5.40039,1.0371 c 7.60029,-0.43334 13.4277,0.37873 17.76758,2.51758 4.33988,2.13886 7.22775,5.58719 8.99609,10.58985 0.39964,1.13055 0.75651,3.84984 0.98242,7.26953 0.22591,3.41969 0.34339,7.57865 0.34961,11.76562 0.006,4.18698 -0.0988,8.40163 -0.31445,11.93164 -0.21567,3.53002 -0.55491,6.40097 -0.9668,7.78125 -1.57274,5.27055 -5.36616,9.72959 -9.80273,11.5918 -2.07741,0.87197 -6.59703,1.55821 -11.26953,1.83008 -4.6725,0.27187 -9.55175,0.14787 -12.42578,-0.46094 -6.49281,-1.37535 -10.60434,-3.87411 -13.1836,-8.75976 -2.57926,-4.88566 -3.5957,-12.24726 -3.5957,-23.26954 0,-12.44415 1.32011,-20.3997 4.85156,-25.3125 3.53145,-4.91279 9.31735,-6.94469 18.61133,-7.47461 z"
           id="path263" />
        <path
           style="baseline-shift:baseline;display:inline;overflow:visible;vector-effect:none;enable-background:accumulate;stop-color:#000000;stop-opacity:1;opacity:1"
           d="m 740.35156,610.60937 c -2.87397,-0.10447 -5.90435,-0.0972 -9.09179,0.0215 -15.22775,0.56692 -23.48791,2.71446 -30.17774,7.92578 -4.97017,3.87175 -8.35111,8.69954 -10.34766,15.24219 -1.99654,6.54265 -2.62692,14.79332 -2.17578,25.59375 0.32858,7.86575 1.02233,13.4112 2.5,17.80859 1.47767,4.39739 3.75292,7.62996 7.1543,10.79883 5.58835,5.20633 11.29681,7.96608 19.86328,9.61523 8.5597,1.64787 26.67924,1.62662 34.71094,-0.0488 12.83493,-2.67742 21.38464,-9.01124 25.83984,-19.20704 2.32574,-5.32243 3.36458,-14.60657 3.26172,-24.02734 -0.10286,-9.42077 -1.35356,-18.93726 -3.78711,-24.69336 -2.90388,-6.86874 -8.26459,-11.88652 -16.0625,-15.0332 -5.84843,-2.36001 -13.06559,-3.68268 -21.6875,-3.9961 z m -0.0351,0.94532 c 8.54362,0.31199 15.65768,1.623 21.36914,3.92773 7.61527,3.07298 12.7386,7.88742 15.54492,14.52539 2.33196,5.51582 3.61088,14.99117 3.71289,24.33399 0.10201,9.34282 -0.97817,18.59604 -3.18164,23.63867 -4.336,9.92298 -12.5407,16.02605 -25.16797,18.66015 -7.7491,1.6165 -26.02779,1.64474 -34.33789,0.0449 -8.45233,-1.62719 -13.92179,-4.27469 -19.39844,-9.37696 -3.32162,-3.09456 -5.47281,-6.15407 -6.90234,-10.4082 -1.42953,-4.25413 -2.12415,-9.71839 -2.45117,-17.54687 -0.44876,-10.74344 0.18686,-18.89607 2.13476,-25.2793 1.9479,-6.38323 5.18871,-11.00524 10.02344,-14.77149 6.49257,-5.05765 14.48056,-7.16244 29.63281,-7.72656 3.16664,-0.11789 6.17361,-0.12548 9.02149,-0.0215 z"
           id="path262" />
        <path
           style="fill:none;stroke:#000000;stroke-width:0.945287;stroke-opacity:1"
           d="m 436.30178,696.81785 c -12.43674,-2.80048 -21.12582,-8.41416 -24.93547,-16.10986 -4.60862,-9.30968 -5.2479,-39.42138 -1.05924,-49.89342 3.70191,-9.25511 10.50655,-14.9565 21.67037,-18.15689 5.74624,-1.64731 36.71886,-2.68863 49.10957,-1.65111 l 7.47135,0.62561 -0.29046,6.79183 -0.29046,6.79182 -20.5,-0.21469 c -24.32429,-0.25473 -28.70914,0.52035 -34.31585,6.06579 -4.48611,4.43707 -5.22458,8.13432 -5.05091,25.28797 0.1207,11.9213 0.35607,13.55743 2.5,17.3781 1.30172,2.31978 3.50297,4.95329 4.89166,5.85226 4.3276,2.80144 17.24131,4.64193 27.2251,3.8802 l 8.75,-0.66761 v -14.21686 -14.21685 h 10.05829 10.05828 l -0.30828,17.64794 c -0.35316,20.21651 -0.75167,21.30207 -8.80829,23.99426 -6.28443,2.09999 -37.97985,2.65702 -46.17566,0.81151 z"
           id="path2" />
      </g>
    </g>
  </g>
</svg>
